;TYPE=PLATED
;Layer: PTH_Through
;EasyEDA Pro v2.2.47.7, 2026-05-23 21:16:01
;Gerber Generator version 0.3
M48
METRIC,LZ,0000.00000
;Hole size 1 = 0.30500 METRIC
T01C0.30500
;Hole size 2 = 0.70002 METRIC
T02C0.70002
;Hole size 3 = 0.80000 METRIC
T03C0.80000
;Hole size 4 = 0.90002 METRIC
T04C0.90002
;Hole size 5 = 1.00000 METRIC
T05C1.00000
;Hole size 6 = 1.02001 METRIC
T06C1.02001
;Hole size 7 = 1.10002 METRIC
T07C1.10002
;Hole size 8 = 1.20000 METRIC
T08C1.20000
;Hole size 9 = 1.40000 METRIC
T09C1.40000
;Hole size 10 = 1.52400 METRIC
T10C1.52400
;Hole size 11 = 3.04800 METRIC
T11C3.04800
%
G05
G90
T01
X102.362Y-48.35093
X102.36096Y-30.76984
X102.362Y-14.06093
X75.184Y-85.598
X78.02702Y-85.598
X78.02702Y-75.057
X88.011Y-80.65503
X66.98487Y-76.835
X66.98487Y-72.89787
T02
X92.202Y-22.225
X92.202Y-20.955
X92.202Y-19.685
X92.202Y-38.862
X92.202Y-37.592
X92.202Y-36.322
X92.075Y-56.642
X92.075Y-55.372
X92.075Y-54.102
X92.202Y-74.041
X92.202Y-72.771
X92.202Y-71.501
X78.232Y-87.122
X78.232Y-88.392
X78.232Y-89.662
T03
X103.759Y-73.94999
X103.759Y-65.75001
X103.632Y-56.55099
X103.632Y-48.35101
X103.632Y-39.02499
X103.632Y-30.82501
X103.632Y-22.26099
X103.632Y-14.06101
X62.611Y-86.14199
X62.611Y-77.94201
X123.98799Y-84.201
X115.78801Y-84.201
T04
X37.9729Y-78.48595
X37.9729Y-81.02608
X130.4291Y-83.94705
X130.4291Y-81.40692
T05
X98.679Y-88.76299
X98.679Y-81.16301
T06
X50.546Y-12.065
X48.006Y-12.065
X45.466Y-12.065
X42.926Y-12.065
X40.386Y-12.065
T07
X53.79479Y-12.0809
X35.946Y-28.06703
X35.946Y-30.60703
X35.946Y-33.14703
X35.946Y-35.687
X35.946Y-38.227
X35.946Y-40.767
X35.946Y-43.307
X35.946Y-45.847
X35.946Y-48.38697
X35.946Y-50.92697
X35.946Y-53.46697
X35.946Y-56.00697
X35.946Y-58.54697
X35.946Y-61.08695
X35.946Y-63.62695
X58.79597Y-63.62695
X58.79597Y-61.08695
X58.79597Y-58.54697
X58.79597Y-56.00697
X58.79597Y-53.46697
X58.79597Y-50.92697
X58.79597Y-48.38697
X58.79597Y-45.847
X58.79597Y-43.307
X58.79597Y-40.767
X58.79597Y-38.227
X58.79597Y-35.687
X58.79597Y-33.14703
X58.79597Y-30.60703
X58.79597Y-28.06703
T08
X49.28095Y-82.04187
X49.27095Y-84.58187
X49.28095Y-79.50187
T09
X130.30192Y-13.71595
X130.30192Y-16.25595
X130.30192Y-18.79595
X130.55592Y-30.98795
X130.55592Y-33.52795
X130.55592Y-36.06795
X130.68292Y-48.00595
X130.68292Y-50.54595
X130.68292Y-53.08595
X130.68292Y-65.40495
X130.68292Y-67.94495
X130.68292Y-70.48495
T10
X122.03425Y-22.10151
X107.8343Y-16.10203
X109.83432Y-10.10204
X109.83432Y-22.10201
X122.03433Y-10.10255
X122.41594Y-39.14648
X108.21599Y-33.147
X110.21601Y-27.14701
X110.21601Y-39.14699
X122.41601Y-27.14752
X122.03425Y-56.38637
X107.8343Y-50.38689
X109.83432Y-44.38691
X109.83432Y-56.38688
X122.03433Y-44.38741
X122.28894Y-73.81748
X108.08899Y-67.818
X110.08901Y-61.81801
X110.08901Y-73.81799
X122.28901Y-61.81852
T11
X31.369Y-7.112
X136.525Y-7.112
X136.525Y-92.456
X31.369Y-92.456
X136.525Y-42.037
X136.525Y-59.055
X92.71Y-46.736
M30