G04 Layer: BottomSolderMaskLayer*
G04 EasyEDA Pro v2.2.47.7, 2026-05-23 21:16:01*
G04 Gerber Generator version 0.3*
G04 Scale: 100 percent, Rotated: No, Reflected: No*
G04 Dimensions in millimeters*
G04 Leading zeros omitted, absolute positions, 4 integers and 5 decimals*
G04 Generated by one-click*
G04 Object Configs: Pad,Via,Track,Text,Image,Dimension,BoardOutline,BoardCutout,CopperFilled,SolidRegion,FPCStiffener,Line,PlaneZone,ComponentProperty,ComponentSilkscreen,TearDrop*
G04 Layer Configs: 1,2,3,4,5,6,7,8,9,10,11,13,14,56*
G04 Copper Areas: 0*
%FSLAX45Y45*%
%MOMM*%
%AMRoundRect*1,1,$1,$2,$3*1,1,$1,$4,$5*1,1,$1,0-$2,0-$3*1,1,$1,0-$4,0-$5*20,1,$1,$2,$3,$4,$5,0*20,1,$1,$4,$5,0-$2,0-$3,0*20,1,$1,0-$2,0-$3,0-$4,0-$5,0*20,1,$1,0-$4,0-$5,$2,$3,0*4,1,4,$2,$3,$4,$5,0-$2,0-$3,0-$4,0-$5,$2,$3,0*%
%ADD10C,6.4516*%
%ADD11C,1.9016*%
%ADD12C,1.7016*%
%ADD13RoundRect,0.09588X-0.80286X0.80286X0.80286X0.80286*%
%ADD14RoundRect,0.09618X-0.85271X0.85271X0.85271X0.85271*%
%ADD15O,1.7016X1.0016*%
%ADD16RoundRect,0.0900X-0.80468X-0.45468X-0.80468X0.45468*%
%ADD17RoundRect,0.09224X-0.80468X-0.45468X-0.80468X0.45468*%
%ADD18C,2.8956*%
%ADD19C,1.9*%
%ADD20C,2.1016*%
%ADD21RoundRect,0.09691X-1.00234X-1.00234X-1.00234X1.00234*%
%ADD22O,2.70159X1.9016*%
%ADD23RoundRect,0.09645X-1.30257X-0.90257X-1.30257X0.90257*%
%ADD24RoundRect,0.09618X-0.85271X-0.85271X-0.85271X0.85271*%
%ADD25C,1.8016*%
G75*


G04 Pad Start*
G54D10*
G01X3136900Y-711200D03*
G01X13652500Y-711200D03*
G01X13652500Y-9245600D03*
G01X3136900Y-9245600D03*
G01X13652500Y-4203700D03*
G01X13652500Y-5905500D03*
G01X9271000Y-4673600D03*
G54D11*
G01X9867900Y-8876297D03*
G01X9867900Y-8116303D03*
G54D12*
G01X10375900Y-7395007D03*
G01X10375900Y-6574993D03*
G01X10363200Y-5655107D03*
G01X10363200Y-4835093D03*
G01X10363200Y-3902507D03*
G01X10363200Y-3082493D03*
G01X10363200Y-2226107D03*
G01X10363200Y-1406093D03*
G01X6261100Y-8614207D03*
G01X6261100Y-7794193D03*
G01X5054595Y-1206497D03*
G01X4800595Y-1206497D03*
G01X4546595Y-1206497D03*
G01X4292595Y-1206497D03*
G54D13*
G01X4038595Y-1206497D03*
G54D14*
G01X5379479Y-1208090D03*
G54D15*
G01X9220200Y-2222500D03*
G01X9220200Y-2095500D03*
G54D17*
G01X9220200Y-1968500D03*
G54D15*
G01X9220200Y-3886200D03*
G01X9220200Y-3759200D03*
G54D17*
G01X9220200Y-3632200D03*
G54D15*
G01X9207500Y-5664200D03*
G01X9207500Y-5537200D03*
G54D17*
G01X9207500Y-5410200D03*
G54D15*
G01X9220200Y-7404100D03*
G01X9220200Y-7277100D03*
G54D17*
G01X9220200Y-7150100D03*
G54D15*
G01X7823200Y-8712200D03*
G01X7823200Y-8839200D03*
G54D17*
G01X7823200Y-8966200D03*
G54D18*
G01X12203438Y-2210151D03*
G01X10783425Y-1610203D03*
G01X10983425Y-1010204D03*
G01X10983425Y-2210201D03*
G01X12203438Y-1010255D03*
G01X12241606Y-3914648D03*
G01X10821594Y-3314700D03*
G01X11021593Y-2714701D03*
G01X11021593Y-3914699D03*
G01X12241606Y-2714752D03*
G01X12203438Y-5638637D03*
G01X10783425Y-5038689D03*
G01X10983425Y-4438691D03*
G01X10983425Y-5638688D03*
G01X12203438Y-4438741D03*
G01X12228906Y-7381748D03*
G01X10808894Y-6781800D03*
G01X11008893Y-6181801D03*
G01X11008893Y-7381799D03*
G01X12228906Y-6181852D03*
G54D19*
G01X3594600Y-2806703D03*
G01X3594600Y-3060703D03*
G01X3594600Y-3314703D03*
G01X3594600Y-3568700D03*
G01X3594600Y-3822700D03*
G01X3594600Y-4076700D03*
G01X3594600Y-4330700D03*
G01X3594600Y-4584700D03*
G01X3594600Y-4838697D03*
G01X3594600Y-5092697D03*
G01X3594600Y-5346697D03*
G01X3594600Y-5600697D03*
G01X3594600Y-5854697D03*
G01X3594600Y-6108695D03*
G01X3594600Y-6362695D03*
G01X5879597Y-6362695D03*
G01X5879597Y-6108695D03*
G01X5879597Y-5854697D03*
G01X5879597Y-5600697D03*
G01X5879597Y-5346697D03*
G01X5879597Y-5092697D03*
G01X5879597Y-4838697D03*
G01X5879597Y-4584700D03*
G01X5879597Y-4330700D03*
G01X5879597Y-4076700D03*
G01X5879597Y-3822700D03*
G01X5879597Y-3568700D03*
G01X5879597Y-3314703D03*
G01X5879597Y-3060703D03*
G01X5879597Y-2806703D03*
G54D20*
G01X13030200Y-1371600D03*
G01X13030200Y-1625600D03*
G54D21*
G01X13030200Y-1879600D03*
G54D20*
G01X13055600Y-3098800D03*
G01X13055600Y-3352800D03*
G54D21*
G01X13055600Y-3606800D03*
G54D20*
G01X13068300Y-4800600D03*
G01X13068300Y-5054600D03*
G54D21*
G01X13068300Y-5308600D03*
G54D20*
G01X13068300Y-6540500D03*
G01X13068300Y-6794500D03*
G54D21*
G01X13068300Y-7048500D03*
G54D22*
G01X4928095Y-8204187D03*
G01X4927105Y-8458213D03*
G54D23*
G01X4928095Y-7950187D03*
G54D24*
G01X3797300Y-7848600D03*
G54D25*
G01X3797300Y-8102600D03*
G54D12*
G01X12398807Y-8420100D03*
G01X11578793Y-8420100D03*
G54D24*
G01X13042900Y-8394700D03*
G54D25*
G01X13042900Y-8140700D03*
G04 Pad End*

M02*

