G04 Layer: BottomLayer*
G04 EasyEDA Pro v2.2.47.7, 2026-05-23 21:16:01*
G04 Gerber Generator version 0.3*
G04 Scale: 100 percent, Rotated: No, Reflected: No*
G04 Dimensions in millimeters*
G04 Leading zeros omitted, absolute positions, 4 integers and 5 decimals*
G04 Generated by one-click*
G04 Object Configs: Pad,Via,Track,Text,Image,Dimension,BoardOutline,BoardCutout,CopperFilled,SolidRegion,FPCStiffener,Line,PlaneZone,ComponentProperty,ComponentSilkscreen,TearDrop*
G04 Layer Configs: 1,2,3,4,5,6,7,8,9,10,11,13,14,56*
G04 Copper Areas: 32*
%FSLAX45Y45*%
%MOMM*%
%ADD10C,0.2794*%
%ADD11C,0.254*%
%ADD12C,6.35*%
%ADD13C,1.8*%
%ADD14C,1.6*%
%ADD15R,1.6X1.6*%
%ADD16R,1.7X1.7*%
%ADD17O,1.6028X0.9*%
%ADD18O,1.6X0.9*%
%ADD19R,1.6X0.9*%
%ADD20C,2.794*%
%ADD21C,2.0*%
%ADD22R,2.0X2.0*%
%ADD23O,2.59999X1.8*%
%ADD24R,2.59999X1.8*%
%ADD25C,1.7*%
%ADD26C,0.61*%
%ADD27C,1.016*%
%ADD28C,1.651*%
G75*


G04 Copper Start*
G36*
G01X10510133Y-179070D02*
G01X10510133Y-919780D01*
G01X10363201Y-919780D01*
G01X10345560Y-921517D01*
G01X10328597Y-926663D01*
G01X10312964Y-935019D01*
G01X10299262Y-946264D01*
G01X10288016Y-959967D01*
G01X10279660Y-975600D01*
G01X10274514Y-992563D01*
G01X10272777Y-1010203D01*
G01X10272776Y-1323397D01*
G01X10254892Y-1317622D01*
G01X10236200Y-1315669D01*
G01X10200279Y-1315669D01*
G01X10182638Y-1317407D01*
G01X10165675Y-1322552D01*
G01X10150042Y-1330908D01*
G01X10136340Y-1342154D01*
G01X10009340Y-1469154D01*
G01X9998094Y-1482856D01*
G01X9989738Y-1498489D01*
G01X9984592Y-1515452D01*
G01X9982855Y-1533093D01*
G01X9982855Y-2726893D01*
G01X9984592Y-2744534D01*
G01X9989738Y-2761497D01*
G01X9998094Y-2777130D01*
G01X10009340Y-2790833D01*
G01X10023042Y-2802078D01*
G01X10038675Y-2810434D01*
G01X10055638Y-2815580D01*
G01X10073279Y-2817317D01*
G01X10272776Y-2817317D01*
G01X10272776Y-3004177D01*
G01X10272488Y-3004512D01*
G01X10262116Y-3002680D01*
G01X10251603Y-3002067D01*
G01X10099203Y-3002067D01*
G01X10081562Y-3003804D01*
G01X10064599Y-3008950D01*
G01X10048966Y-3017306D01*
G01X10035263Y-3028551D01*
G01X10024018Y-3042254D01*
G01X10015662Y-3057887D01*
G01X10010516Y-3074850D01*
G01X10008779Y-3092491D01*
G01X10008779Y-4438691D01*
G01X10010516Y-4456331D01*
G01X10015662Y-4473294D01*
G01X10024018Y-4488928D01*
G01X10035263Y-4502630D01*
G01X10048966Y-4513875D01*
G01X10064599Y-4522232D01*
G01X10081562Y-4527377D01*
G01X10099203Y-4529115D01*
G01X10272776Y-4529115D01*
G01X10272776Y-4752397D01*
G01X10254892Y-4746622D01*
G01X10236200Y-4744669D01*
G01X10096500Y-4744669D01*
G01X10078859Y-4746407D01*
G01X10061896Y-4751552D01*
G01X10046263Y-4759908D01*
G01X10032561Y-4771154D01*
G01X10021315Y-4784856D01*
G01X10012959Y-4800489D01*
G01X10007813Y-4817452D01*
G01X10006076Y-4835093D01*
G01X10006076Y-6197600D01*
G01X10007813Y-6215241D01*
G01X10012959Y-6232204D01*
G01X10021315Y-6247837D01*
G01X10032561Y-6261539D01*
G01X10046263Y-6272785D01*
G01X10061896Y-6281141D01*
G01X10078859Y-6286287D01*
G01X10096500Y-6288024D01*
G01X10285476Y-6288024D01*
G01X10285476Y-6496677D01*
G01X10273177Y-6513693D01*
G01X10264041Y-6532596D01*
G01X10258352Y-6552806D01*
G01X10256283Y-6573699D01*
G01X10257899Y-6594631D01*
G01X10263150Y-6614959D01*
G01X10271874Y-6634056D01*
G01X10283802Y-6651334D01*
G01X10298567Y-6666259D01*
G01X10315715Y-6678374D01*
G01X10334716Y-6687304D01*
G01X10354986Y-6692775D01*
G01X10375900Y-6694617D01*
G01X10396814Y-6692775D01*
G01X10417084Y-6687304D01*
G01X10436085Y-6678374D01*
G01X10453233Y-6666259D01*
G01X10467998Y-6651334D01*
G01X10479926Y-6634056D01*
G01X10488650Y-6614959D01*
G01X10493901Y-6594631D01*
G01X10495517Y-6573699D01*
G01X10493448Y-6552806D01*
G01X10487759Y-6532596D01*
G01X10478623Y-6513693D01*
G01X10466324Y-6496677D01*
G01X10466324Y-6284417D01*
G01X10510133Y-6284417D01*
G01X10510133Y-7645400D01*
G01X10512005Y-7652385D01*
G01X10517118Y-7657498D01*
G01X10524103Y-7659370D01*
G01X14209776Y-7659370D01*
G01X14209776Y-9815576D01*
G01X2579624Y-9815576D01*
G01X2579624Y-9245600D01*
G01X2779776Y-9245600D01*
G01X2781732Y-9282930D01*
G01X2787580Y-9319850D01*
G01X2797255Y-9355957D01*
G01X2810651Y-9390855D01*
G01X2827622Y-9424162D01*
G01X2847981Y-9455512D01*
G01X2871505Y-9484563D01*
G01X2897937Y-9510995D01*
G01X2926988Y-9534519D01*
G01X2958338Y-9554878D01*
G01X2991645Y-9571849D01*
G01X3026543Y-9585245D01*
G01X3062650Y-9594920D01*
G01X3099570Y-9600768D01*
G01X3136900Y-9602724D01*
G01X3174230Y-9600768D01*
G01X3211150Y-9594920D01*
G01X3247257Y-9585245D01*
G01X3282155Y-9571849D01*
G01X3315462Y-9554878D01*
G01X3346812Y-9534519D01*
G01X3375863Y-9510995D01*
G01X3402295Y-9484563D01*
G01X3425819Y-9455512D01*
G01X3446178Y-9424162D01*
G01X3463149Y-9390855D01*
G01X3476545Y-9355957D01*
G01X3486220Y-9319850D01*
G01X3492068Y-9282930D01*
G01X3494024Y-9245600D01*
G01X3492068Y-9208270D01*
G01X3486220Y-9171350D01*
G01X3476545Y-9135243D01*
G01X3463149Y-9100345D01*
G01X3446178Y-9067038D01*
G01X3425819Y-9035688D01*
G01X3402295Y-9006637D01*
G01X3375863Y-8980205D01*
G01X3346812Y-8956681D01*
G01X3315462Y-8936322D01*
G01X3282155Y-8919351D01*
G01X3247257Y-8905955D01*
G01X3211150Y-8896280D01*
G01X3174230Y-8890432D01*
G01X3136900Y-8888476D01*
G01X3099570Y-8890432D01*
G01X3062650Y-8896280D01*
G01X3026543Y-8905955D01*
G01X2991645Y-8919351D01*
G01X2958338Y-8936322D01*
G01X2926988Y-8956681D01*
G01X2897937Y-8980205D01*
G01X2871505Y-9006637D01*
G01X2847981Y-9035688D01*
G01X2827622Y-9067038D01*
G01X2810651Y-9100345D01*
G01X2797255Y-9135243D01*
G01X2787580Y-9171350D01*
G01X2781732Y-9208270D01*
G01X2779776Y-9245600D01*
G01X2779776Y-9245600D01*
G01X2579624Y-9245600D01*
G01X2579624Y-8614207D01*
G01X6141476Y-8614207D01*
G01X6143319Y-8635121D01*
G01X6148789Y-8655391D01*
G01X6157719Y-8674392D01*
G01X6169834Y-8691539D01*
G01X6184760Y-8706305D01*
G01X6202037Y-8718233D01*
G01X6221134Y-8726957D01*
G01X6241462Y-8732208D01*
G01X6262395Y-8733824D01*
G01X6283288Y-8731755D01*
G01X6303497Y-8726065D01*
G01X6322401Y-8716930D01*
G01X6339416Y-8704631D01*
G01X6709852Y-8704631D01*
G01X7238561Y-9233339D01*
G01X7252263Y-9244585D01*
G01X7267896Y-9252941D01*
G01X7284859Y-9258087D01*
G01X7302500Y-9259824D01*
G01X8585200Y-9259824D01*
G01X8602841Y-9258087D01*
G01X8619804Y-9252941D01*
G01X8633538Y-9245600D01*
G01X13295376Y-9245600D01*
G01X13297332Y-9282930D01*
G01X13303180Y-9319850D01*
G01X13312855Y-9355957D01*
G01X13326251Y-9390855D01*
G01X13343222Y-9424162D01*
G01X13363581Y-9455512D01*
G01X13387105Y-9484563D01*
G01X13413537Y-9510995D01*
G01X13442588Y-9534519D01*
G01X13473938Y-9554878D01*
G01X13507245Y-9571849D01*
G01X13542143Y-9585245D01*
G01X13578250Y-9594920D01*
G01X13615170Y-9600768D01*
G01X13652500Y-9602724D01*
G01X13689830Y-9600768D01*
G01X13726750Y-9594920D01*
G01X13762857Y-9585245D01*
G01X13797755Y-9571849D01*
G01X13831062Y-9554878D01*
G01X13862412Y-9534519D01*
G01X13891463Y-9510995D01*
G01X13917895Y-9484563D01*
G01X13941419Y-9455512D01*
G01X13961778Y-9424162D01*
G01X13978749Y-9390855D01*
G01X13992145Y-9355957D01*
G01X14001820Y-9319850D01*
G01X14007668Y-9282930D01*
G01X14009624Y-9245600D01*
G01X14007668Y-9208270D01*
G01X14001820Y-9171350D01*
G01X13992145Y-9135243D01*
G01X13978749Y-9100345D01*
G01X13961778Y-9067038D01*
G01X13941419Y-9035688D01*
G01X13917895Y-9006637D01*
G01X13891463Y-8980205D01*
G01X13862412Y-8956681D01*
G01X13831062Y-8936322D01*
G01X13797755Y-8919351D01*
G01X13762857Y-8905955D01*
G01X13726750Y-8896280D01*
G01X13689830Y-8890432D01*
G01X13652500Y-8888476D01*
G01X13615170Y-8890432D01*
G01X13578250Y-8896280D01*
G01X13542143Y-8905955D01*
G01X13507245Y-8919351D01*
G01X13473938Y-8936322D01*
G01X13442588Y-8956681D01*
G01X13413537Y-8980205D01*
G01X13387105Y-9006637D01*
G01X13363581Y-9035688D01*
G01X13343222Y-9067038D01*
G01X13326251Y-9100345D01*
G01X13312855Y-9135243D01*
G01X13303180Y-9171350D01*
G01X13297332Y-9208270D01*
G01X13295376Y-9245600D01*
G01X13295376Y-9245600D01*
G01X8633538Y-9245600D01*
G01X8635437Y-9244585D01*
G01X8649139Y-9233339D01*
G01X8776139Y-9106339D01*
G01X8787385Y-9092637D01*
G01X8795741Y-9077004D01*
G01X8800887Y-9060041D01*
G01X8802624Y-9042400D01*
G01X8802624Y-8876297D01*
G01X9738276Y-8876297D01*
G01X9740245Y-8898806D01*
G01X9746093Y-8920631D01*
G01X9755642Y-8941109D01*
G01X9768602Y-8959617D01*
G01X9784579Y-8975594D01*
G01X9803088Y-8988554D01*
G01X9823566Y-8998103D01*
G01X9845391Y-9003951D01*
G01X9867900Y-9005921D01*
G01X9890409Y-9003951D01*
G01X9912234Y-8998103D01*
G01X9932712Y-8988554D01*
G01X9951221Y-8975594D01*
G01X9967198Y-8959617D01*
G01X9980158Y-8941109D01*
G01X9989707Y-8920631D01*
G01X9995555Y-8898806D01*
G01X9997524Y-8876297D01*
G01X9995555Y-8853788D01*
G01X9989707Y-8831963D01*
G01X9980158Y-8811485D01*
G01X9967198Y-8792976D01*
G01X9951221Y-8776999D01*
G01X9932712Y-8764039D01*
G01X9912234Y-8754490D01*
G01X9890409Y-8748642D01*
G01X9867900Y-8746673D01*
G01X9867900Y-8746673D01*
G01X9845391Y-8748642D01*
G01X9823566Y-8754490D01*
G01X9803088Y-8764039D01*
G01X9784579Y-8776999D01*
G01X9768602Y-8792976D01*
G01X9755642Y-8811485D01*
G01X9746093Y-8831963D01*
G01X9740245Y-8853788D01*
G01X9738276Y-8876297D01*
G01X8802624Y-8876297D01*
G01X8802624Y-8420100D01*
G01X11459169Y-8420100D01*
G01X11460987Y-8440872D01*
G01X11466384Y-8461014D01*
G01X11475196Y-8479912D01*
G01X11487156Y-8496993D01*
G01X11501900Y-8511737D01*
G01X11518981Y-8523697D01*
G01X11537879Y-8532510D01*
G01X11558021Y-8537906D01*
G01X11578793Y-8539724D01*
G01X11599566Y-8537906D01*
G01X11619707Y-8532510D01*
G01X11638605Y-8523697D01*
G01X11655686Y-8511737D01*
G01X11670430Y-8496993D01*
G01X11682390Y-8479912D01*
G01X11691203Y-8461014D01*
G01X11696600Y-8440872D01*
G01X11698417Y-8420100D01*
G01X11698417Y-8420100D01*
G01X12279183Y-8420100D01*
G01X12281025Y-8441014D01*
G01X12286496Y-8461284D01*
G01X12295426Y-8480285D01*
G01X12307541Y-8497433D01*
G01X12322466Y-8512198D01*
G01X12339744Y-8524126D01*
G01X12358841Y-8532850D01*
G01X12379169Y-8538101D01*
G01X12400101Y-8539717D01*
G01X12420994Y-8537648D01*
G01X12441204Y-8531959D01*
G01X12460107Y-8522823D01*
G01X12477123Y-8510524D01*
G01X12933002Y-8510524D01*
G01X12933002Y-8510524D01*
G01X12940559Y-8515328D01*
G01X12949002Y-8518312D01*
G01X12957900Y-8519324D01*
G01X13127900Y-8519324D01*
G01X13140144Y-8517384D01*
G01X13151190Y-8511756D01*
G01X13159956Y-8502990D01*
G01X13165584Y-8491944D01*
G01X13167524Y-8479700D01*
G01X13167524Y-8309700D01*
G01X13165584Y-8297456D01*
G01X13159956Y-8286410D01*
G01X13151190Y-8277644D01*
G01X13140144Y-8272016D01*
G01X13127900Y-8270076D01*
G01X12957900Y-8270076D01*
G01X12945656Y-8272016D01*
G01X12934610Y-8277644D01*
G01X12925844Y-8286410D01*
G01X12920216Y-8297456D01*
G01X12918276Y-8309700D01*
G01X12918276Y-8329676D01*
G01X12477123Y-8329676D01*
G01X12460107Y-8317377D01*
G01X12441204Y-8308241D01*
G01X12420994Y-8302552D01*
G01X12400101Y-8300483D01*
G01X12379169Y-8302099D01*
G01X12358841Y-8307350D01*
G01X12339744Y-8316074D01*
G01X12322466Y-8328002D01*
G01X12307541Y-8342767D01*
G01X12295426Y-8359915D01*
G01X12286496Y-8378916D01*
G01X12281025Y-8399186D01*
G01X12279183Y-8420100D01*
G01X11698417Y-8420100D01*
G01X11696600Y-8399328D01*
G01X11691203Y-8379186D01*
G01X11682390Y-8360288D01*
G01X11670430Y-8343207D01*
G01X11655686Y-8328463D01*
G01X11638605Y-8316503D01*
G01X11619707Y-8307690D01*
G01X11599566Y-8302294D01*
G01X11578793Y-8300476D01*
G01X11558021Y-8302294D01*
G01X11537879Y-8307690D01*
G01X11518981Y-8316503D01*
G01X11501900Y-8328463D01*
G01X11487156Y-8343207D01*
G01X11475196Y-8360288D01*
G01X11466384Y-8379186D01*
G01X11460987Y-8399328D01*
G01X11459169Y-8420100D01*
G01X8802624Y-8420100D01*
G01X8802624Y-8191858D01*
G01X8865039Y-8129443D01*
G01X8875680Y-8116303D01*
G01X9738276Y-8116303D01*
G01X9740245Y-8138812D01*
G01X9746093Y-8160637D01*
G01X9755642Y-8181115D01*
G01X9768602Y-8199624D01*
G01X9784579Y-8215601D01*
G01X9803088Y-8228561D01*
G01X9823566Y-8238110D01*
G01X9845391Y-8243958D01*
G01X9867900Y-8245927D01*
G01X9890409Y-8243958D01*
G01X9912234Y-8238110D01*
G01X9932712Y-8228561D01*
G01X9951221Y-8215601D01*
G01X9967198Y-8199624D01*
G01X9980158Y-8181115D01*
G01X9989707Y-8160637D01*
G01X9995049Y-8140700D01*
G01X12918276Y-8140700D01*
G01X12920169Y-8162341D01*
G01X12925792Y-8183324D01*
G01X12934973Y-8203012D01*
G01X12947433Y-8220807D01*
G01X12962793Y-8236167D01*
G01X12980588Y-8248627D01*
G01X13000276Y-8257808D01*
G01X13021259Y-8263431D01*
G01X13042900Y-8265324D01*
G01X13042900Y-8265324D01*
G01X13064541Y-8263431D01*
G01X13085524Y-8257808D01*
G01X13105212Y-8248627D01*
G01X13123007Y-8236167D01*
G01X13138367Y-8220807D01*
G01X13150827Y-8203012D01*
G01X13160008Y-8183324D01*
G01X13165631Y-8162341D01*
G01X13167524Y-8140700D01*
G01X13165631Y-8119059D01*
G01X13160008Y-8098076D01*
G01X13150827Y-8078388D01*
G01X13138367Y-8060593D01*
G01X13123007Y-8045233D01*
G01X13105212Y-8032773D01*
G01X13085524Y-8023592D01*
G01X13064541Y-8017969D01*
G01X13042900Y-8016076D01*
G01X13021259Y-8017969D01*
G01X13000276Y-8023592D01*
G01X12980588Y-8032773D01*
G01X12962793Y-8045233D01*
G01X12947433Y-8060593D01*
G01X12934973Y-8078388D01*
G01X12925792Y-8098076D01*
G01X12920169Y-8119059D01*
G01X12918276Y-8140700D01*
G01X9995049Y-8140700D01*
G01X9995555Y-8138812D01*
G01X9997524Y-8116303D01*
G01X9995555Y-8093794D01*
G01X9989707Y-8071969D01*
G01X9980158Y-8051491D01*
G01X9967198Y-8032983D01*
G01X9951221Y-8017006D01*
G01X9932712Y-8004046D01*
G01X9912234Y-7994497D01*
G01X9890409Y-7988649D01*
G01X9867900Y-7986679D01*
G01X9867900Y-7986679D01*
G01X9845391Y-7988649D01*
G01X9823566Y-7994497D01*
G01X9803088Y-8004046D01*
G01X9784579Y-8017006D01*
G01X9768602Y-8032983D01*
G01X9755642Y-8051491D01*
G01X9746093Y-8071969D01*
G01X9740245Y-8093794D01*
G01X9738276Y-8116303D01*
G01X8875680Y-8116303D01*
G01X8876936Y-8114752D01*
G01X8885518Y-8097908D01*
G01X8890411Y-8079649D01*
G01X8891400Y-8060771D01*
G01X8888443Y-8042100D01*
G01X8881668Y-8024452D01*
G01X8871373Y-8008598D01*
G01X8858006Y-7995231D01*
G01X8842152Y-7984935D01*
G01X8824503Y-7978160D01*
G01X8805832Y-7975203D01*
G01X8786955Y-7976193D01*
G01X8768695Y-7981085D01*
G01X8751852Y-7989667D01*
G01X8737161Y-8001564D01*
G01X8648261Y-8090464D01*
G01X8637015Y-8104166D01*
G01X8628659Y-8119800D01*
G01X8623513Y-8136762D01*
G01X8621776Y-8154403D01*
G01X8621776Y-9004945D01*
G01X8547745Y-9078976D01*
G01X7339955Y-9078976D01*
G01X7339955Y-9078976D01*
G01X7182179Y-8921200D01*
G01X7703576Y-8921200D01*
G01X7703576Y-9011200D01*
G01X7705515Y-9023444D01*
G01X7711144Y-9034490D01*
G01X7719910Y-9043256D01*
G01X7730956Y-9048885D01*
G01X7743200Y-9050824D01*
G01X7903200Y-9050824D01*
G01X7915444Y-9048885D01*
G01X7926490Y-9043256D01*
G01X7935256Y-9034490D01*
G01X7940885Y-9023444D01*
G01X7942824Y-9011200D01*
G01X7942824Y-8921200D01*
G01X7940886Y-8908962D01*
G01X7935264Y-8897920D01*
G01X7926506Y-8889155D01*
G01X7935469Y-8873707D01*
G01X7940990Y-8856722D01*
G01X7942823Y-8838957D01*
G01X7940888Y-8821203D01*
G01X7935269Y-8804250D01*
G01X7926218Y-8788854D01*
G01X7914137Y-8775700D01*
G01X7925720Y-8763212D01*
G01X7934568Y-8748657D01*
G01X7940322Y-8732626D01*
G01X7942749Y-8715767D01*
G01X7941750Y-8698763D01*
G01X7937367Y-8682304D01*
G01X7929776Y-8667056D01*
G01X7919286Y-8653636D01*
G01X7906321Y-8642590D01*
G01X7891406Y-8634363D01*
G01X7875146Y-8629290D01*
G01X7858200Y-8627576D01*
G01X7788200Y-8627576D01*
G01X7771254Y-8629290D01*
G01X7754994Y-8634363D01*
G01X7740079Y-8642590D01*
G01X7727114Y-8653636D01*
G01X7716624Y-8667056D01*
G01X7709033Y-8682304D01*
G01X7704650Y-8698763D01*
G01X7703651Y-8715767D01*
G01X7706078Y-8732626D01*
G01X7711832Y-8748657D01*
G01X7720680Y-8763212D01*
G01X7732263Y-8775700D01*
G01X7720182Y-8788854D01*
G01X7711131Y-8804250D01*
G01X7705512Y-8821203D01*
G01X7703577Y-8838957D01*
G01X7705410Y-8856722D01*
G01X7710931Y-8873707D01*
G01X7719894Y-8889155D01*
G01X7711136Y-8897920D01*
G01X7705514Y-8908962D01*
G01X7703576Y-8921200D01*
G01X7703576Y-8921200D01*
G01X7182179Y-8921200D01*
G01X6820779Y-8559800D01*
G01X7448276Y-8559800D01*
G01X7450034Y-8575404D01*
G01X7455220Y-8590226D01*
G01X7463575Y-8603522D01*
G01X7474678Y-8614625D01*
G01X7487974Y-8622980D01*
G01X7502796Y-8628166D01*
G01X7518400Y-8629924D01*
G01X7534004Y-8628166D01*
G01X7548826Y-8622980D01*
G01X7562122Y-8614625D01*
G01X7573225Y-8603522D01*
G01X7581580Y-8590226D01*
G01X7586766Y-8575404D01*
G01X7588524Y-8559800D01*
G01X7586766Y-8544196D01*
G01X7581580Y-8529374D01*
G01X7573225Y-8516078D01*
G01X7562122Y-8504975D01*
G01X7548826Y-8496620D01*
G01X7534004Y-8491434D01*
G01X7518400Y-8489676D01*
G01X7502796Y-8491434D01*
G01X7487974Y-8496620D01*
G01X7474678Y-8504975D01*
G01X7463575Y-8516078D01*
G01X7455220Y-8529374D01*
G01X7450034Y-8544196D01*
G01X7448276Y-8559800D01*
G01X7448276Y-8559800D01*
G01X6820779Y-8559800D01*
G01X6811246Y-8550267D01*
G01X6797544Y-8539022D01*
G01X6781911Y-8530666D01*
G01X6764948Y-8525520D01*
G01X6747307Y-8523783D01*
G01X6339416Y-8523783D01*
G01X6322401Y-8511483D01*
G01X6303497Y-8502348D01*
G01X6283288Y-8496659D01*
G01X6262395Y-8494590D01*
G01X6241462Y-8496206D01*
G01X6221134Y-8501457D01*
G01X6202037Y-8510181D01*
G01X6184760Y-8522109D01*
G01X6169834Y-8536874D01*
G01X6157719Y-8554022D01*
G01X6148789Y-8573023D01*
G01X6143319Y-8593293D01*
G01X6141476Y-8614207D01*
G01X2579624Y-8614207D01*
G01X2579624Y-8459763D01*
G01X4757490Y-8459763D01*
G01X4759697Y-8482077D01*
G01X4765716Y-8503678D01*
G01X4775367Y-8523917D01*
G01X4788363Y-8542191D01*
G01X4804313Y-8557952D01*
G01X4822741Y-8570728D01*
G01X4843095Y-8580137D01*
G01X4864765Y-8585897D01*
G01X4887105Y-8587837D01*
G01X4967105Y-8587837D01*
G01X4989385Y-8585907D01*
G01X5011003Y-8580177D01*
G01X5031314Y-8570816D01*
G01X5049713Y-8558103D01*
G01X5065654Y-8542417D01*
G01X5078661Y-8524225D01*
G01X5088347Y-8504067D01*
G01X5094424Y-8482545D01*
G01X5096712Y-8460298D01*
G01X5095141Y-8437989D01*
G01X5089759Y-8416282D01*
G01X5080726Y-8395823D01*
G01X5068311Y-8377222D01*
G01X5052884Y-8361031D01*
G01X5034903Y-8347733D01*
G01X5014903Y-8337724D01*
G01X4993481Y-8331301D01*
G01X5014159Y-8325350D01*
G01X5033567Y-8316061D01*
G01X5051171Y-8303689D01*
G01X5066487Y-8288576D01*
G01X5079091Y-8271137D01*
G01X5088637Y-8251854D01*
G01X5094861Y-8231257D01*
G01X5097592Y-8209915D01*
G01X5096756Y-8188414D01*
G01X5092374Y-8167348D01*
G01X5084568Y-8147298D01*
G01X5073553Y-8128814D01*
G01X5059631Y-8112408D01*
G01X5043188Y-8098530D01*
G01X5024676Y-8087564D01*
G01X5004604Y-8079811D01*
G01X5004604Y-8079811D01*
G01X5058095Y-8079811D01*
G01X5070340Y-8077872D01*
G01X5081385Y-8072244D01*
G01X5090152Y-8063478D01*
G01X5095780Y-8052432D01*
G01X5097719Y-8040187D01*
G01X5097719Y-7860187D01*
G01X5095780Y-7847943D01*
G01X5090152Y-7836897D01*
G01X5081385Y-7828131D01*
G01X5070340Y-7822503D01*
G01X5058095Y-7820563D01*
G01X4798096Y-7820563D01*
G01X4785851Y-7822503D01*
G01X4774805Y-7828131D01*
G01X4766039Y-7836897D01*
G01X4760411Y-7847943D01*
G01X4758472Y-7860187D01*
G01X4758472Y-8040187D01*
G01X4760411Y-8052432D01*
G01X4766039Y-8063478D01*
G01X4774805Y-8072244D01*
G01X4785851Y-8077872D01*
G01X4798096Y-8079811D01*
G01X4851586Y-8079811D01*
G01X4830287Y-8088168D01*
G01X4810788Y-8100140D01*
G01X4793698Y-8115353D01*
G01X4779550Y-8133334D01*
G01X4768783Y-8153523D01*
G01X4761734Y-8175291D01*
G01X4758621Y-8197958D01*
G01X4759543Y-8220820D01*
G01X4764470Y-8243164D01*
G01X4773249Y-8264293D01*
G01X4785606Y-8283549D01*
G01X4801157Y-8300333D01*
G01X4819416Y-8314121D01*
G01X4839815Y-8324484D01*
G01X4861719Y-8331099D01*
G01X4840192Y-8337376D01*
G01X4820069Y-8347269D01*
G01X4801952Y-8360482D01*
G01X4786383Y-8376620D01*
G01X4773828Y-8395199D01*
G01X4764663Y-8415664D01*
G01X4759162Y-8437402D01*
G01X4757490Y-8459763D01*
G01X2579624Y-8459763D01*
G01X2579624Y-8102600D01*
G01X3672676Y-8102600D01*
G01X3674569Y-8124241D01*
G01X3680192Y-8145224D01*
G01X3689373Y-8164912D01*
G01X3701833Y-8182707D01*
G01X3717193Y-8198067D01*
G01X3734988Y-8210527D01*
G01X3754676Y-8219708D01*
G01X3775659Y-8225331D01*
G01X3797300Y-8227224D01*
G01X3818941Y-8225331D01*
G01X3839924Y-8219708D01*
G01X3859612Y-8210527D01*
G01X3877407Y-8198067D01*
G01X3892767Y-8182707D01*
G01X3905227Y-8164912D01*
G01X3914408Y-8145224D01*
G01X3920031Y-8124241D01*
G01X3921924Y-8102600D01*
G01X3920031Y-8080959D01*
G01X3914408Y-8059976D01*
G01X3905227Y-8040288D01*
G01X3892767Y-8022493D01*
G01X3877407Y-8007133D01*
G01X3859612Y-7994673D01*
G01X3839924Y-7985492D01*
G01X3818941Y-7979869D01*
G01X3797300Y-7977976D01*
G01X3797300Y-7977976D01*
G01X3775659Y-7979869D01*
G01X3754676Y-7985492D01*
G01X3734988Y-7994673D01*
G01X3717193Y-8007133D01*
G01X3701833Y-8022493D01*
G01X3689373Y-8040288D01*
G01X3680192Y-8059976D01*
G01X3674569Y-8080959D01*
G01X3672676Y-8102600D01*
G01X2579624Y-8102600D01*
G01X2579624Y-7933600D01*
G01X3672676Y-7933600D01*
G01X3674616Y-7945844D01*
G01X3680244Y-7956890D01*
G01X3689010Y-7965656D01*
G01X3700056Y-7971284D01*
G01X3712300Y-7973224D01*
G01X3882300Y-7973224D01*
G01X3894544Y-7971284D01*
G01X3905590Y-7965656D01*
G01X3914356Y-7956890D01*
G01X3919984Y-7945844D01*
G01X3921924Y-7933600D01*
G01X3921924Y-7763600D01*
G01X3919984Y-7751356D01*
G01X3914356Y-7740310D01*
G01X3905590Y-7731544D01*
G01X3894544Y-7725916D01*
G01X3882300Y-7723976D01*
G01X3712300Y-7723976D01*
G01X3700056Y-7725916D01*
G01X3689010Y-7731544D01*
G01X3680244Y-7740310D01*
G01X3674616Y-7751356D01*
G01X3672676Y-7763600D01*
G01X3672676Y-7933600D01*
G01X3672676Y-7933600D01*
G01X2579624Y-7933600D01*
G01X2579624Y-6764693D01*
G01X3494977Y-6764693D01*
G01X3496983Y-6792747D01*
G01X3502961Y-6820229D01*
G01X3512790Y-6846582D01*
G01X3526269Y-6871267D01*
G01X3543124Y-6893782D01*
G01X3563012Y-6913670D01*
G01X3585527Y-6930525D01*
G01X3610212Y-6944004D01*
G01X3636564Y-6953832D01*
G01X3664047Y-6959811D01*
G01X3692101Y-6961817D01*
G01X3720155Y-6959811D01*
G01X3747637Y-6953832D01*
G01X3773989Y-6944004D01*
G01X3798674Y-6930525D01*
G01X3821190Y-6913670D01*
G01X3841077Y-6893782D01*
G01X3857932Y-6871267D01*
G01X3871411Y-6846582D01*
G01X3881240Y-6820229D01*
G01X3887219Y-6792747D01*
G01X3889225Y-6764693D01*
G01X3887219Y-6736639D01*
G01X3881240Y-6709157D01*
G01X3871411Y-6682805D01*
G01X3857932Y-6658120D01*
G01X3841077Y-6635604D01*
G01X3821190Y-6615716D01*
G01X3798674Y-6598862D01*
G01X3773989Y-6585383D01*
G01X3747637Y-6575554D01*
G01X3720155Y-6569575D01*
G01X3692101Y-6567569D01*
G01X3664047Y-6569575D01*
G01X3636564Y-6575554D01*
G01X3610212Y-6585383D01*
G01X3585527Y-6598862D01*
G01X3563012Y-6615716D01*
G01X3543124Y-6635604D01*
G01X3526269Y-6658120D01*
G01X3512790Y-6682805D01*
G01X3502961Y-6709157D01*
G01X3496983Y-6736639D01*
G01X3494977Y-6764693D01*
G01X3494977Y-6764693D01*
G01X2579624Y-6764693D01*
G01X2579624Y-5346697D01*
G01X3464977Y-5346697D01*
G01X3466871Y-5368775D01*
G01X3472497Y-5390208D01*
G01X3481692Y-5410369D01*
G01X3494186Y-5428669D01*
G01X3509615Y-5444574D01*
G01X3527528Y-5457619D01*
G01X3547400Y-5467422D01*
G01X3568652Y-5473697D01*
G01X3547400Y-5479973D01*
G01X3527528Y-5489776D01*
G01X3509615Y-5502821D01*
G01X3494186Y-5518726D01*
G01X3481692Y-5537026D01*
G01X3472497Y-5557187D01*
G01X3466871Y-5578620D01*
G01X3464977Y-5600697D01*
G01X3466871Y-5622775D01*
G01X3472497Y-5644208D01*
G01X3481692Y-5664369D01*
G01X3494186Y-5682669D01*
G01X3509615Y-5698574D01*
G01X3527528Y-5711619D01*
G01X3547400Y-5721422D01*
G01X3568652Y-5727697D01*
G01X3547400Y-5733973D01*
G01X3527528Y-5743776D01*
G01X3509616Y-5756820D01*
G01X3494187Y-5772724D01*
G01X3481693Y-5791024D01*
G01X3472498Y-5811185D01*
G01X3466871Y-5832617D01*
G01X3464977Y-5854694D01*
G01X3466870Y-5876772D01*
G01X3472496Y-5898204D01*
G01X3481690Y-5918365D01*
G01X3494183Y-5936666D01*
G01X3509611Y-5952571D01*
G01X3527523Y-5965616D01*
G01X3547394Y-5975420D01*
G01X3568645Y-5981696D01*
G01X3547394Y-5987972D01*
G01X3527523Y-5997776D01*
G01X3509611Y-6010822D01*
G01X3494183Y-6026727D01*
G01X3481690Y-6045027D01*
G01X3472496Y-6065188D01*
G01X3466870Y-6086621D01*
G01X3464977Y-6108698D01*
G01X3466871Y-6130775D01*
G01X3472498Y-6152208D01*
G01X3481693Y-6172368D01*
G01X3494187Y-6190668D01*
G01X3509616Y-6206572D01*
G01X3527528Y-6219617D01*
G01X3547400Y-6229420D01*
G01X3568652Y-6235695D01*
G01X3548114Y-6241693D01*
G01X3528843Y-6250989D01*
G01X3511363Y-6263327D01*
G01X3496151Y-6278373D01*
G01X3483622Y-6295717D01*
G01X3474116Y-6314885D01*
G01X3467892Y-6335356D01*
G01X3465121Y-6356571D01*
G01X3465878Y-6377954D01*
G01X3470141Y-6398921D01*
G01X3477796Y-6418900D01*
G01X3488633Y-6437349D01*
G01X3502357Y-6453763D01*
G01X3518594Y-6467697D01*
G01X3536902Y-6478769D01*
G01X3556782Y-6486679D01*
G01X3577692Y-6491211D01*
G01X3599063Y-6492242D01*
G01X3620313Y-6489743D01*
G01X3640861Y-6483783D01*
G01X3660150Y-6474523D01*
G01X3677652Y-6462217D01*
G01X4039245Y-6462217D01*
G01X5435161Y-7858133D01*
G01X5448863Y-7869378D01*
G01X5464496Y-7877734D01*
G01X5481459Y-7882880D01*
G01X5499100Y-7884617D01*
G01X6182784Y-7884617D01*
G01X6199799Y-7896917D01*
G01X6218703Y-7906052D01*
G01X6238912Y-7911741D01*
G01X6259805Y-7913810D01*
G01X6280738Y-7912194D01*
G01X6301066Y-7906943D01*
G01X6320163Y-7898219D01*
G01X6337440Y-7886291D01*
G01X6352366Y-7871526D01*
G01X6364481Y-7854378D01*
G01X6373411Y-7835377D01*
G01X6378881Y-7815107D01*
G01X6380724Y-7794193D01*
G01X6378881Y-7773279D01*
G01X6373411Y-7753009D01*
G01X6364481Y-7734008D01*
G01X6352366Y-7716861D01*
G01X6337440Y-7702095D01*
G01X6320163Y-7690167D01*
G01X6301066Y-7681443D01*
G01X6280738Y-7676192D01*
G01X6259805Y-7674576D01*
G01X6238912Y-7676645D01*
G01X6218703Y-7682335D01*
G01X6199799Y-7691470D01*
G01X6182784Y-7703769D01*
G01X5536555Y-7703769D01*
G01X4937886Y-7105100D01*
G01X9100576Y-7105100D01*
G01X9100576Y-7195100D01*
G01X9102514Y-7207338D01*
G01X9108136Y-7218380D01*
G01X9116894Y-7227145D01*
G01X9107931Y-7242593D01*
G01X9102410Y-7259578D01*
G01X9100577Y-7277343D01*
G01X9102512Y-7295097D01*
G01X9108131Y-7312050D01*
G01X9117182Y-7327446D01*
G01X9129263Y-7340600D01*
G01X9117680Y-7353088D01*
G01X9108832Y-7367643D01*
G01X9103078Y-7383674D01*
G01X9100651Y-7400533D01*
G01X9101650Y-7417537D01*
G01X9106033Y-7433996D01*
G01X9113624Y-7449244D01*
G01X9124114Y-7462664D01*
G01X9137079Y-7473710D01*
G01X9151994Y-7481937D01*
G01X9168254Y-7487010D01*
G01X9185200Y-7488724D01*
G01X9185200Y-7488724D01*
G01X9255200Y-7488724D01*
G01X9272146Y-7487010D01*
G01X9288406Y-7481937D01*
G01X9303321Y-7473710D01*
G01X9316286Y-7462664D01*
G01X9326776Y-7449244D01*
G01X9334367Y-7433996D01*
G01X9338750Y-7417537D01*
G01X9339749Y-7400533D01*
G01X9338953Y-7395007D01*
G01X10256276Y-7395007D01*
G01X10258094Y-7415779D01*
G01X10263490Y-7435921D01*
G01X10272303Y-7454819D01*
G01X10284263Y-7471900D01*
G01X10299007Y-7486644D01*
G01X10316088Y-7498604D01*
G01X10334986Y-7507416D01*
G01X10355128Y-7512813D01*
G01X10375900Y-7514631D01*
G01X10375900Y-7514631D01*
G01X10396672Y-7512813D01*
G01X10416814Y-7507416D01*
G01X10435712Y-7498604D01*
G01X10452793Y-7486644D01*
G01X10467537Y-7471900D01*
G01X10479497Y-7454819D01*
G01X10488310Y-7435921D01*
G01X10493706Y-7415779D01*
G01X10495524Y-7395007D01*
G01X10493706Y-7374234D01*
G01X10488310Y-7354093D01*
G01X10479497Y-7335195D01*
G01X10467537Y-7318114D01*
G01X10452793Y-7303370D01*
G01X10435712Y-7291410D01*
G01X10416814Y-7282597D01*
G01X10396672Y-7277200D01*
G01X10375900Y-7275383D01*
G01X10355128Y-7277200D01*
G01X10334986Y-7282597D01*
G01X10316088Y-7291410D01*
G01X10299007Y-7303370D01*
G01X10284263Y-7318114D01*
G01X10272303Y-7335195D01*
G01X10263490Y-7354093D01*
G01X10258094Y-7374234D01*
G01X10256276Y-7395007D01*
G01X9338953Y-7395007D01*
G01X9337322Y-7383674D01*
G01X9331568Y-7367643D01*
G01X9322720Y-7353088D01*
G01X9311137Y-7340600D01*
G01X9323218Y-7327446D01*
G01X9332269Y-7312050D01*
G01X9337888Y-7295097D01*
G01X9339823Y-7277343D01*
G01X9337990Y-7259578D01*
G01X9332469Y-7242593D01*
G01X9323506Y-7227145D01*
G01X9332264Y-7218380D01*
G01X9337886Y-7207338D01*
G01X9339824Y-7195100D01*
G01X9339824Y-7105100D01*
G01X9337885Y-7092856D01*
G01X9332256Y-7081810D01*
G01X9323490Y-7073044D01*
G01X9312444Y-7067415D01*
G01X9300200Y-7065476D01*
G01X9140200Y-7065476D01*
G01X9127956Y-7067415D01*
G01X9116910Y-7073044D01*
G01X9108144Y-7081810D01*
G01X9102515Y-7092856D01*
G01X9100576Y-7105100D01*
G01X4937886Y-7105100D01*
G01X4597479Y-6764693D01*
G01X5584972Y-6764693D01*
G01X5586979Y-6792747D01*
G01X5592957Y-6820229D01*
G01X5602786Y-6846582D01*
G01X5616265Y-6871267D01*
G01X5633120Y-6893782D01*
G01X5653008Y-6913670D01*
G01X5675523Y-6930525D01*
G01X5700208Y-6944004D01*
G01X5726560Y-6953832D01*
G01X5754043Y-6959811D01*
G01X5782097Y-6961817D01*
G01X5810150Y-6959811D01*
G01X5837633Y-6953832D01*
G01X5863985Y-6944004D01*
G01X5888670Y-6930525D01*
G01X5911186Y-6913670D01*
G01X5931073Y-6893782D01*
G01X5947928Y-6871267D01*
G01X5961407Y-6846582D01*
G01X5971236Y-6820229D01*
G01X5977215Y-6792747D01*
G01X5979221Y-6764693D01*
G01X5977215Y-6736639D01*
G01X5971236Y-6709157D01*
G01X5961407Y-6682805D01*
G01X5947928Y-6658120D01*
G01X5931073Y-6635604D01*
G01X5911186Y-6615716D01*
G01X5888670Y-6598862D01*
G01X5863985Y-6585383D01*
G01X5837633Y-6575554D01*
G01X5810150Y-6569575D01*
G01X5782097Y-6567569D01*
G01X5754043Y-6569575D01*
G01X5726560Y-6575554D01*
G01X5700208Y-6585383D01*
G01X5675523Y-6598862D01*
G01X5653008Y-6615716D01*
G01X5633120Y-6635604D01*
G01X5616265Y-6658120D01*
G01X5602786Y-6682805D01*
G01X5592957Y-6709157D01*
G01X5586979Y-6736639D01*
G01X5584972Y-6764693D01*
G01X5584972Y-6764693D01*
G01X4597479Y-6764693D01*
G01X4141724Y-6308938D01*
G01X4141724Y-1318670D01*
G01X4150573Y-1309895D01*
G01X4156259Y-1298805D01*
G01X4158219Y-1286497D01*
G01X4158219Y-1206497D01*
G01X4172971Y-1206497D01*
G01X4174788Y-1227270D01*
G01X4180185Y-1247411D01*
G01X4188998Y-1266309D01*
G01X4200958Y-1283390D01*
G01X4215702Y-1298135D01*
G01X4232783Y-1310095D01*
G01X4251681Y-1318907D01*
G01X4271822Y-1324304D01*
G01X4292595Y-1326121D01*
G01X4313367Y-1324304D01*
G01X4333509Y-1318907D01*
G01X4352407Y-1310095D01*
G01X4369488Y-1298135D01*
G01X4384232Y-1283390D01*
G01X4396192Y-1266309D01*
G01X4405005Y-1247411D01*
G01X4410401Y-1227270D01*
G01X4412105Y-1207792D01*
G01X4426978Y-1207792D01*
G01X4429047Y-1228685D01*
G01X4434736Y-1248895D01*
G01X4443871Y-1267798D01*
G01X4456171Y-1284813D01*
G01X4456171Y-4521695D01*
G01X4457908Y-4539336D01*
G01X4463054Y-4556299D01*
G01X4471410Y-4571932D01*
G01X4482655Y-4585635D01*
G01X5749985Y-5852964D01*
G01X5749985Y-5852964D01*
G01X5751618Y-5875278D01*
G01X5757063Y-5896979D01*
G01X5766159Y-5917421D01*
G01X5778635Y-5935994D01*
G01X5794119Y-5952144D01*
G01X5812150Y-5965392D01*
G01X5832190Y-5975341D01*
G01X5853642Y-5981696D01*
G01X5832391Y-5987972D01*
G01X5812520Y-5997776D01*
G01X5794608Y-6010822D01*
G01X5779180Y-6026727D01*
G01X5766687Y-6045027D01*
G01X5757493Y-6065188D01*
G01X5751867Y-6086621D01*
G01X5749973Y-6108698D01*
G01X5751868Y-6130775D01*
G01X5757495Y-6152208D01*
G01X5766690Y-6172368D01*
G01X5779184Y-6190668D01*
G01X5794613Y-6206572D01*
G01X5812525Y-6219617D01*
G01X5832397Y-6229420D01*
G01X5853648Y-6235695D01*
G01X5832181Y-6242055D01*
G01X5812128Y-6252014D01*
G01X5794088Y-6265275D01*
G01X5778600Y-6281443D01*
G01X5766124Y-6300035D01*
G01X5757034Y-6320497D01*
G01X5751601Y-6342217D01*
G01X5749987Y-6364549D01*
G01X5752239Y-6386825D01*
G01X5758291Y-6408381D01*
G01X5767963Y-6428574D01*
G01X5780965Y-6446802D01*
G01X5796909Y-6462520D01*
G01X5815321Y-6475260D01*
G01X5835650Y-6484642D01*
G01X5857291Y-6490385D01*
G01X5879597Y-6492319D01*
G01X5901903Y-6490385D01*
G01X5923544Y-6484642D01*
G01X5943873Y-6475260D01*
G01X5962285Y-6462520D01*
G01X5978230Y-6446802D01*
G01X5991232Y-6428574D01*
G01X6000903Y-6408381D01*
G01X6006955Y-6386825D01*
G01X6009208Y-6364549D01*
G01X6007593Y-6342217D01*
G01X6002160Y-6320497D01*
G01X5993070Y-6300035D01*
G01X5980595Y-6281443D01*
G01X5965106Y-6265275D01*
G01X5947066Y-6252014D01*
G01X5927013Y-6242055D01*
G01X5905546Y-6235695D01*
G01X5926797Y-6229420D01*
G01X5946669Y-6219617D01*
G01X5964581Y-6206572D01*
G01X5980010Y-6190668D01*
G01X5992504Y-6172368D01*
G01X6001699Y-6152208D01*
G01X6007326Y-6130775D01*
G01X6009221Y-6108698D01*
G01X6007328Y-6086621D01*
G01X6001702Y-6065188D01*
G01X5992508Y-6045027D01*
G01X5980014Y-6026727D01*
G01X5964586Y-6010822D01*
G01X5946675Y-5997776D01*
G01X5926803Y-5987972D01*
G01X5905552Y-5981696D01*
G01X5926803Y-5975420D01*
G01X5946675Y-5965616D01*
G01X5964586Y-5952571D01*
G01X5980014Y-5936666D01*
G01X5992508Y-5918365D01*
G01X6001702Y-5898204D01*
G01X6007328Y-5876772D01*
G01X6009221Y-5854694D01*
G01X6007326Y-5832617D01*
G01X6001699Y-5811185D01*
G01X5992504Y-5791024D01*
G01X5980010Y-5772724D01*
G01X5964581Y-5756820D01*
G01X5946669Y-5743776D01*
G01X5926797Y-5733973D01*
G01X5905546Y-5727697D01*
G01X5926797Y-5721422D01*
G01X5946670Y-5711619D01*
G01X5964582Y-5698574D01*
G01X5980011Y-5682669D01*
G01X5992505Y-5664369D01*
G01X6001700Y-5644208D01*
G01X6007327Y-5622775D01*
G01X6009221Y-5600697D01*
G01X6007327Y-5578620D01*
G01X6001700Y-5557187D01*
G01X5992505Y-5537026D01*
G01X5980011Y-5518726D01*
G01X5964582Y-5502821D01*
G01X5946670Y-5489776D01*
G01X5926797Y-5479973D01*
G01X5905546Y-5473697D01*
G01X5926797Y-5467422D01*
G01X5946670Y-5457619D01*
G01X5964582Y-5444574D01*
G01X5980011Y-5428669D01*
G01X5992505Y-5410369D01*
G01X6001700Y-5390208D01*
G01X6007327Y-5368775D01*
G01X6007634Y-5365200D01*
G01X9087876Y-5365200D01*
G01X9087876Y-5455200D01*
G01X9089814Y-5467438D01*
G01X9095436Y-5478480D01*
G01X9104194Y-5487245D01*
G01X9095231Y-5502693D01*
G01X9089710Y-5519678D01*
G01X9087877Y-5537443D01*
G01X9089812Y-5555197D01*
G01X9095431Y-5572150D01*
G01X9104482Y-5587546D01*
G01X9116563Y-5600700D01*
G01X9104980Y-5613188D01*
G01X9096132Y-5627743D01*
G01X9090378Y-5643774D01*
G01X9087951Y-5660633D01*
G01X9088950Y-5677637D01*
G01X9093333Y-5694096D01*
G01X9100924Y-5709344D01*
G01X9111414Y-5722764D01*
G01X9124379Y-5733810D01*
G01X9139294Y-5742037D01*
G01X9155554Y-5747110D01*
G01X9172500Y-5748824D01*
G01X9172500Y-5748824D01*
G01X9242500Y-5748824D01*
G01X9259446Y-5747110D01*
G01X9275706Y-5742037D01*
G01X9290621Y-5733810D01*
G01X9303586Y-5722764D01*
G01X9314076Y-5709344D01*
G01X9321667Y-5694096D01*
G01X9326050Y-5677637D01*
G01X9327049Y-5660633D01*
G01X9324622Y-5643774D01*
G01X9318868Y-5627743D01*
G01X9310020Y-5613188D01*
G01X9298437Y-5600700D01*
G01X9310518Y-5587546D01*
G01X9319569Y-5572150D01*
G01X9325188Y-5555197D01*
G01X9327123Y-5537443D01*
G01X9325290Y-5519678D01*
G01X9319769Y-5502693D01*
G01X9310806Y-5487245D01*
G01X9319564Y-5478480D01*
G01X9325186Y-5467438D01*
G01X9327124Y-5455200D01*
G01X9327124Y-5365200D01*
G01X9325185Y-5352956D01*
G01X9319556Y-5341910D01*
G01X9310790Y-5333144D01*
G01X9299744Y-5327515D01*
G01X9287500Y-5325576D01*
G01X9127500Y-5325576D01*
G01X9115256Y-5327515D01*
G01X9104210Y-5333144D01*
G01X9095444Y-5341910D01*
G01X9089815Y-5352956D01*
G01X9087876Y-5365200D01*
G01X6007634Y-5365200D01*
G01X6009221Y-5346697D01*
G01X6007327Y-5324620D01*
G01X6001700Y-5303187D01*
G01X5992505Y-5283026D01*
G01X5980011Y-5264726D01*
G01X5964582Y-5248821D01*
G01X5946670Y-5235776D01*
G01X5926797Y-5225973D01*
G01X5905546Y-5219697D01*
G01X5926797Y-5213422D01*
G01X5946670Y-5203619D01*
G01X5964582Y-5190574D01*
G01X5980011Y-5174669D01*
G01X5992505Y-5156369D01*
G01X6001700Y-5136208D01*
G01X6007327Y-5114775D01*
G01X6009221Y-5092697D01*
G01X6007327Y-5070620D01*
G01X6001700Y-5049187D01*
G01X5992505Y-5029026D01*
G01X5980011Y-5010726D01*
G01X5964582Y-4994821D01*
G01X5946670Y-4981776D01*
G01X5926797Y-4971973D01*
G01X5905546Y-4965697D01*
G01X5926797Y-4959422D01*
G01X5946669Y-4949619D01*
G01X5964581Y-4936575D01*
G01X5980010Y-4920671D01*
G01X5992504Y-4902371D01*
G01X6001699Y-4882210D01*
G01X6007326Y-4860778D01*
G01X6009221Y-4838701D01*
G01X6007328Y-4816623D01*
G01X6001702Y-4795191D01*
G01X5992508Y-4775030D01*
G01X5980014Y-4756729D01*
G01X5964586Y-4740824D01*
G01X5946675Y-4727779D01*
G01X5926803Y-4717975D01*
G01X5905552Y-4711699D01*
G01X5926803Y-4705423D01*
G01X5946675Y-4695619D01*
G01X5964586Y-4682573D01*
G01X5973290Y-4673600D01*
G01X8913876Y-4673600D01*
G01X8915832Y-4710930D01*
G01X8921680Y-4747850D01*
G01X8931355Y-4783957D01*
G01X8944751Y-4818855D01*
G01X8961722Y-4852162D01*
G01X8982081Y-4883512D01*
G01X9005605Y-4912563D01*
G01X9032037Y-4938995D01*
G01X9061088Y-4962519D01*
G01X9092438Y-4982878D01*
G01X9125745Y-4999849D01*
G01X9160643Y-5013245D01*
G01X9196750Y-5022920D01*
G01X9233670Y-5028768D01*
G01X9271000Y-5030724D01*
G01X9308330Y-5028768D01*
G01X9345250Y-5022920D01*
G01X9381357Y-5013245D01*
G01X9416255Y-4999849D01*
G01X9449562Y-4982878D01*
G01X9480912Y-4962519D01*
G01X9509963Y-4938995D01*
G01X9536395Y-4912563D01*
G01X9559919Y-4883512D01*
G01X9580278Y-4852162D01*
G01X9597249Y-4818855D01*
G01X9610645Y-4783957D01*
G01X9620320Y-4747850D01*
G01X9626168Y-4710930D01*
G01X9628124Y-4673600D01*
G01X9626168Y-4636270D01*
G01X9620320Y-4599350D01*
G01X9610645Y-4563243D01*
G01X9597249Y-4528345D01*
G01X9580278Y-4495038D01*
G01X9559919Y-4463688D01*
G01X9536395Y-4434637D01*
G01X9509963Y-4408205D01*
G01X9480912Y-4384681D01*
G01X9449562Y-4364322D01*
G01X9416255Y-4347351D01*
G01X9381357Y-4333955D01*
G01X9345250Y-4324280D01*
G01X9308330Y-4318432D01*
G01X9271000Y-4316476D01*
G01X9233670Y-4318432D01*
G01X9196750Y-4324280D01*
G01X9160643Y-4333955D01*
G01X9125745Y-4347351D01*
G01X9092438Y-4364322D01*
G01X9061088Y-4384681D01*
G01X9032037Y-4408205D01*
G01X9005605Y-4434637D01*
G01X8982081Y-4463688D01*
G01X8961722Y-4495038D01*
G01X8944751Y-4528345D01*
G01X8931355Y-4563243D01*
G01X8921680Y-4599350D01*
G01X8915832Y-4636270D01*
G01X8913876Y-4673600D01*
G01X8913876Y-4673600D01*
G01X5973290Y-4673600D01*
G01X5980014Y-4666668D01*
G01X5992508Y-4648368D01*
G01X6001702Y-4628207D01*
G01X6007328Y-4606774D01*
G01X6009221Y-4584697D01*
G01X6007326Y-4562620D01*
G01X6001699Y-4541187D01*
G01X5992504Y-4521027D01*
G01X5980010Y-4502727D01*
G01X5964581Y-4486822D01*
G01X5946669Y-4473778D01*
G01X5926797Y-4463975D01*
G01X5905546Y-4457700D01*
G01X5926797Y-4451425D01*
G01X5946670Y-4441621D01*
G01X5964582Y-4428577D01*
G01X5980011Y-4412672D01*
G01X5992505Y-4394371D01*
G01X6001700Y-4374210D01*
G01X6007327Y-4352778D01*
G01X6009221Y-4330700D01*
G01X6007327Y-4308622D01*
G01X6001700Y-4287190D01*
G01X5992505Y-4267029D01*
G01X5980011Y-4248728D01*
G01X5964582Y-4232823D01*
G01X5946670Y-4219779D01*
G01X5926797Y-4209975D01*
G01X5905546Y-4203700D01*
G01X5926797Y-4197425D01*
G01X5946670Y-4187621D01*
G01X5964582Y-4174577D01*
G01X5980011Y-4158672D01*
G01X5992505Y-4140371D01*
G01X6001700Y-4120210D01*
G01X6007327Y-4098778D01*
G01X6009221Y-4076700D01*
G01X6007327Y-4054622D01*
G01X6001700Y-4033190D01*
G01X5992505Y-4013029D01*
G01X5980011Y-3994728D01*
G01X5964582Y-3978823D01*
G01X5946670Y-3965779D01*
G01X5926797Y-3955975D01*
G01X5905546Y-3949700D01*
G01X5926797Y-3943425D01*
G01X5946670Y-3933621D01*
G01X5964582Y-3920577D01*
G01X5980011Y-3904672D01*
G01X5992505Y-3886371D01*
G01X6001700Y-3866210D01*
G01X6007327Y-3844778D01*
G01X6009221Y-3822700D01*
G01X6007327Y-3800622D01*
G01X6001700Y-3779190D01*
G01X5992505Y-3759029D01*
G01X5980011Y-3740728D01*
G01X5964582Y-3724823D01*
G01X5946670Y-3711779D01*
G01X5926797Y-3701975D01*
G01X5905546Y-3695700D01*
G01X5926797Y-3689425D01*
G01X5946669Y-3679622D01*
G01X5964581Y-3666578D01*
G01X5980010Y-3650673D01*
G01X5992504Y-3632373D01*
G01X6001699Y-3612213D01*
G01X6007326Y-3590780D01*
G01X6007634Y-3587200D01*
G01X9100576Y-3587200D01*
G01X9100576Y-3677200D01*
G01X9102514Y-3689438D01*
G01X9108136Y-3700480D01*
G01X9116894Y-3709245D01*
G01X9107931Y-3724693D01*
G01X9102410Y-3741678D01*
G01X9100577Y-3759443D01*
G01X9102512Y-3777197D01*
G01X9108131Y-3794150D01*
G01X9117182Y-3809546D01*
G01X9129263Y-3822700D01*
G01X9117680Y-3835188D01*
G01X9108832Y-3849743D01*
G01X9103078Y-3865774D01*
G01X9100651Y-3882633D01*
G01X9101650Y-3899637D01*
G01X9106033Y-3916096D01*
G01X9113624Y-3931344D01*
G01X9124114Y-3944764D01*
G01X9137079Y-3955810D01*
G01X9151994Y-3964037D01*
G01X9168254Y-3969110D01*
G01X9185200Y-3970824D01*
G01X9185200Y-3970824D01*
G01X9255200Y-3970824D01*
G01X9272146Y-3969110D01*
G01X9288406Y-3964037D01*
G01X9303321Y-3955810D01*
G01X9316286Y-3944764D01*
G01X9326776Y-3931344D01*
G01X9334367Y-3916096D01*
G01X9338750Y-3899637D01*
G01X9339749Y-3882633D01*
G01X9337322Y-3865774D01*
G01X9331568Y-3849743D01*
G01X9322720Y-3835188D01*
G01X9311137Y-3822700D01*
G01X9323218Y-3809546D01*
G01X9332269Y-3794150D01*
G01X9337888Y-3777197D01*
G01X9339823Y-3759443D01*
G01X9337990Y-3741678D01*
G01X9332469Y-3724693D01*
G01X9323506Y-3709245D01*
G01X9332264Y-3700480D01*
G01X9337886Y-3689438D01*
G01X9339824Y-3677200D01*
G01X9339824Y-3587200D01*
G01X9337885Y-3574956D01*
G01X9332256Y-3563910D01*
G01X9323490Y-3555144D01*
G01X9312444Y-3549515D01*
G01X9300200Y-3547576D01*
G01X9140200Y-3547576D01*
G01X9127956Y-3549515D01*
G01X9116910Y-3555144D01*
G01X9108144Y-3563910D01*
G01X9102515Y-3574956D01*
G01X9100576Y-3587200D01*
G01X6007634Y-3587200D01*
G01X6009221Y-3568703D01*
G01X6007328Y-3546626D01*
G01X6001702Y-3525193D01*
G01X5992508Y-3505032D01*
G01X5980014Y-3486732D01*
G01X5964586Y-3470827D01*
G01X5946675Y-3457781D01*
G01X5926803Y-3447977D01*
G01X5905552Y-3441701D01*
G01X5926803Y-3435425D01*
G01X5946675Y-3425621D01*
G01X5964586Y-3412576D01*
G01X5980014Y-3396671D01*
G01X5992508Y-3378370D01*
G01X6001702Y-3358209D01*
G01X6007328Y-3336777D01*
G01X6009221Y-3314699D01*
G01X6007326Y-3292622D01*
G01X6001699Y-3271190D01*
G01X5992504Y-3251029D01*
G01X5980010Y-3232729D01*
G01X5964581Y-3216825D01*
G01X5946669Y-3203781D01*
G01X5926797Y-3193978D01*
G01X5905546Y-3187703D01*
G01X5926797Y-3181427D01*
G01X5946670Y-3171624D01*
G01X5964582Y-3158579D01*
G01X5980011Y-3142674D01*
G01X5992505Y-3124374D01*
G01X6001700Y-3104213D01*
G01X6007327Y-3082780D01*
G01X6009221Y-3060703D01*
G01X6007327Y-3038625D01*
G01X6001700Y-3017192D01*
G01X5992505Y-2997031D01*
G01X5980011Y-2978731D01*
G01X5964582Y-2962826D01*
G01X5946670Y-2949781D01*
G01X5926797Y-2939978D01*
G01X5905546Y-2933703D01*
G01X5927013Y-2927343D01*
G01X5947066Y-2917384D01*
G01X5965106Y-2904122D01*
G01X5980595Y-2887954D01*
G01X5993070Y-2869362D01*
G01X6002160Y-2848901D01*
G01X6007593Y-2827180D01*
G01X6009208Y-2804849D01*
G01X6006955Y-2782573D01*
G01X6000903Y-2761016D01*
G01X5991232Y-2740823D01*
G01X5978230Y-2722596D01*
G01X5962285Y-2706877D01*
G01X5943873Y-2694137D01*
G01X5923544Y-2684756D01*
G01X5901903Y-2679012D01*
G01X5879597Y-2677079D01*
G01X5857291Y-2679012D01*
G01X5835650Y-2684756D01*
G01X5815321Y-2694137D01*
G01X5796909Y-2706877D01*
G01X5780965Y-2722596D01*
G01X5767963Y-2740823D01*
G01X5758291Y-2761016D01*
G01X5752239Y-2782573D01*
G01X5749987Y-2804849D01*
G01X5751601Y-2827180D01*
G01X5757034Y-2848901D01*
G01X5766124Y-2869362D01*
G01X5778600Y-2887954D01*
G01X5794088Y-2904122D01*
G01X5812128Y-2917384D01*
G01X5832181Y-2927343D01*
G01X5853648Y-2933703D01*
G01X5832397Y-2939978D01*
G01X5812524Y-2949781D01*
G01X5794612Y-2962826D01*
G01X5779183Y-2978731D01*
G01X5766689Y-2997031D01*
G01X5757494Y-3017192D01*
G01X5751867Y-3038625D01*
G01X5749973Y-3060703D01*
G01X5751867Y-3082780D01*
G01X5757494Y-3104213D01*
G01X5766689Y-3124374D01*
G01X5779183Y-3142674D01*
G01X5794612Y-3158579D01*
G01X5812524Y-3171624D01*
G01X5832397Y-3181427D01*
G01X5853648Y-3187703D01*
G01X5832397Y-3193978D01*
G01X5812525Y-3203781D01*
G01X5794613Y-3216825D01*
G01X5779184Y-3232729D01*
G01X5766690Y-3251029D01*
G01X5757495Y-3271190D01*
G01X5751868Y-3292622D01*
G01X5749973Y-3314699D01*
G01X5751867Y-3336777D01*
G01X5757493Y-3358209D01*
G01X5766687Y-3378370D01*
G01X5779180Y-3396671D01*
G01X5794608Y-3412576D01*
G01X5812520Y-3425621D01*
G01X5832391Y-3435425D01*
G01X5853642Y-3441701D01*
G01X5832391Y-3447977D01*
G01X5812520Y-3457781D01*
G01X5794608Y-3470827D01*
G01X5779180Y-3486732D01*
G01X5766687Y-3505032D01*
G01X5757493Y-3525193D01*
G01X5751867Y-3546626D01*
G01X5749973Y-3568703D01*
G01X5751868Y-3590780D01*
G01X5757495Y-3612213D01*
G01X5766690Y-3632373D01*
G01X5779184Y-3650673D01*
G01X5794613Y-3666578D01*
G01X5812525Y-3679622D01*
G01X5832397Y-3689425D01*
G01X5853648Y-3695700D01*
G01X5832397Y-3701975D01*
G01X5812524Y-3711779D01*
G01X5794612Y-3724823D01*
G01X5779183Y-3740728D01*
G01X5766689Y-3759029D01*
G01X5757494Y-3779190D01*
G01X5751867Y-3800622D01*
G01X5749973Y-3822700D01*
G01X5751867Y-3844778D01*
G01X5757494Y-3866210D01*
G01X5766689Y-3886371D01*
G01X5779183Y-3904672D01*
G01X5794612Y-3920577D01*
G01X5812524Y-3933621D01*
G01X5832397Y-3943425D01*
G01X5853648Y-3949700D01*
G01X5832397Y-3955975D01*
G01X5812524Y-3965779D01*
G01X5794612Y-3978823D01*
G01X5779183Y-3994728D01*
G01X5766689Y-4013029D01*
G01X5757494Y-4033190D01*
G01X5751867Y-4054622D01*
G01X5749973Y-4076700D01*
G01X5751867Y-4098778D01*
G01X5757494Y-4120210D01*
G01X5766689Y-4140371D01*
G01X5779183Y-4158672D01*
G01X5794612Y-4174577D01*
G01X5812524Y-4187621D01*
G01X5832397Y-4197425D01*
G01X5853648Y-4203700D01*
G01X5832397Y-4209975D01*
G01X5812524Y-4219779D01*
G01X5794612Y-4232823D01*
G01X5779183Y-4248728D01*
G01X5766689Y-4267029D01*
G01X5757494Y-4287190D01*
G01X5751867Y-4308622D01*
G01X5749973Y-4330700D01*
G01X5751867Y-4352778D01*
G01X5757494Y-4374210D01*
G01X5766689Y-4394371D01*
G01X5779183Y-4412672D01*
G01X5794612Y-4428577D01*
G01X5812524Y-4441621D01*
G01X5832397Y-4451425D01*
G01X5853648Y-4457700D01*
G01X5832397Y-4463975D01*
G01X5812525Y-4473778D01*
G01X5794613Y-4486822D01*
G01X5779184Y-4502727D01*
G01X5766690Y-4521027D01*
G01X5757495Y-4541187D01*
G01X5751868Y-4562620D01*
G01X5749973Y-4584697D01*
G01X5751867Y-4606774D01*
G01X5757493Y-4628207D01*
G01X5766687Y-4648368D01*
G01X5779180Y-4666668D01*
G01X5794608Y-4682573D01*
G01X5812520Y-4695619D01*
G01X5832391Y-4705423D01*
G01X5853642Y-4711699D01*
G01X5832391Y-4717975D01*
G01X5812520Y-4727779D01*
G01X5794608Y-4740824D01*
G01X5779180Y-4756729D01*
G01X5766687Y-4775030D01*
G01X5757493Y-4795191D01*
G01X5751867Y-4816623D01*
G01X5749973Y-4838701D01*
G01X5751868Y-4860778D01*
G01X5757495Y-4882210D01*
G01X5766690Y-4902371D01*
G01X5779184Y-4920671D01*
G01X5794613Y-4936575D01*
G01X5812525Y-4949619D01*
G01X5832397Y-4959422D01*
G01X5853648Y-4965697D01*
G01X5832397Y-4971973D01*
G01X5812524Y-4981776D01*
G01X5794612Y-4994821D01*
G01X5779183Y-5010726D01*
G01X5766689Y-5029026D01*
G01X5757494Y-5049187D01*
G01X5751867Y-5070620D01*
G01X5749973Y-5092697D01*
G01X5751867Y-5114775D01*
G01X5757494Y-5136208D01*
G01X5766689Y-5156369D01*
G01X5779183Y-5174669D01*
G01X5794612Y-5190574D01*
G01X5812524Y-5203619D01*
G01X5832397Y-5213422D01*
G01X5853648Y-5219697D01*
G01X5832799Y-5225816D01*
G01X5813265Y-5235331D01*
G01X5795595Y-5247976D01*
G01X5780285Y-5263394D01*
G01X5767766Y-5281153D01*
G01X5758389Y-5300754D01*
G01X5752417Y-5321645D01*
G01X5750019Y-5343241D01*
G01X4891019Y-4484240D01*
G01X4891019Y-2404704D01*
G01X5584975Y-2404704D01*
G01X5586981Y-2432758D01*
G01X5592960Y-2460241D01*
G01X5602789Y-2486593D01*
G01X5616268Y-2511278D01*
G01X5633123Y-2533793D01*
G01X5653010Y-2553681D01*
G01X5675526Y-2570536D01*
G01X5700211Y-2584015D01*
G01X5726563Y-2593844D01*
G01X5754045Y-2599822D01*
G01X5782099Y-2601829D01*
G01X5810153Y-2599822D01*
G01X5837636Y-2593844D01*
G01X5863988Y-2584015D01*
G01X5888673Y-2570536D01*
G01X5911188Y-2553681D01*
G01X5931076Y-2533793D01*
G01X5947931Y-2511278D01*
G01X5961410Y-2486593D01*
G01X5971239Y-2460241D01*
G01X5977217Y-2432758D01*
G01X5979224Y-2404704D01*
G01X5977217Y-2376651D01*
G01X5971239Y-2349168D01*
G01X5961410Y-2322816D01*
G01X5947931Y-2298131D01*
G01X5931076Y-2275615D01*
G01X5911188Y-2255728D01*
G01X5888673Y-2238873D01*
G01X5863988Y-2225394D01*
G01X5837636Y-2215565D01*
G01X5810153Y-2209586D01*
G01X5782099Y-2207580D01*
G01X5754045Y-2209586D01*
G01X5726563Y-2215565D01*
G01X5700211Y-2225394D01*
G01X5675526Y-2238873D01*
G01X5653010Y-2255728D01*
G01X5633123Y-2275615D01*
G01X5616268Y-2298131D01*
G01X5602789Y-2322816D01*
G01X5592960Y-2349168D01*
G01X5586981Y-2376651D01*
G01X5584975Y-2404704D01*
G01X5584975Y-2404704D01*
G01X4891019Y-2404704D01*
G01X4891019Y-1923500D01*
G01X9100576Y-1923500D01*
G01X9100576Y-2013500D01*
G01X9102514Y-2025738D01*
G01X9108136Y-2036780D01*
G01X9116894Y-2045545D01*
G01X9107931Y-2060993D01*
G01X9102410Y-2077978D01*
G01X9100577Y-2095743D01*
G01X9102512Y-2113497D01*
G01X9108131Y-2130450D01*
G01X9117182Y-2145846D01*
G01X9129263Y-2159000D01*
G01X9129263Y-2159000D01*
G01X9117680Y-2171488D01*
G01X9108832Y-2186043D01*
G01X9103078Y-2202074D01*
G01X9100651Y-2218933D01*
G01X9101650Y-2235937D01*
G01X9106033Y-2252396D01*
G01X9113624Y-2267644D01*
G01X9124114Y-2281064D01*
G01X9137079Y-2292110D01*
G01X9151994Y-2300337D01*
G01X9168254Y-2305410D01*
G01X9185200Y-2307124D01*
G01X9255200Y-2307124D01*
G01X9272146Y-2305410D01*
G01X9288406Y-2300337D01*
G01X9303321Y-2292110D01*
G01X9316286Y-2281064D01*
G01X9326776Y-2267644D01*
G01X9334367Y-2252396D01*
G01X9338750Y-2235937D01*
G01X9339749Y-2218933D01*
G01X9337322Y-2202074D01*
G01X9331568Y-2186043D01*
G01X9322720Y-2171488D01*
G01X9311137Y-2159000D01*
G01X9323218Y-2145846D01*
G01X9332269Y-2130450D01*
G01X9337888Y-2113497D01*
G01X9339823Y-2095743D01*
G01X9337990Y-2077978D01*
G01X9332469Y-2060993D01*
G01X9323506Y-2045545D01*
G01X9332264Y-2036780D01*
G01X9337886Y-2025738D01*
G01X9339824Y-2013500D01*
G01X9339824Y-1923500D01*
G01X9337885Y-1911256D01*
G01X9332256Y-1900210D01*
G01X9323490Y-1891444D01*
G01X9312444Y-1885815D01*
G01X9300200Y-1883876D01*
G01X9140200Y-1883876D01*
G01X9127956Y-1885815D01*
G01X9116910Y-1891444D01*
G01X9108144Y-1900210D01*
G01X9102515Y-1911256D01*
G01X9100576Y-1923500D01*
G01X4891019Y-1923500D01*
G01X4891019Y-1284813D01*
G01X4903318Y-1267798D01*
G01X4912454Y-1248895D01*
G01X4918143Y-1228685D01*
G01X4920212Y-1207792D01*
G01X4920112Y-1206497D01*
G01X4934971Y-1206497D01*
G01X4936788Y-1227270D01*
G01X4942185Y-1247411D01*
G01X4950998Y-1266309D01*
G01X4962958Y-1283390D01*
G01X4977702Y-1298135D01*
G01X4994783Y-1310095D01*
G01X5013681Y-1318907D01*
G01X5033822Y-1324304D01*
G01X5054595Y-1326121D01*
G01X5075367Y-1324304D01*
G01X5095509Y-1318907D01*
G01X5114407Y-1310095D01*
G01X5131488Y-1298135D01*
G01X5146232Y-1283390D01*
G01X5158192Y-1266309D01*
G01X5167005Y-1247411D01*
G01X5172401Y-1227270D01*
G01X5174219Y-1206497D01*
G01X5172401Y-1185725D01*
G01X5167005Y-1165584D01*
G01X5158192Y-1146686D01*
G01X5146232Y-1129605D01*
G01X5139718Y-1123090D01*
G01X5254855Y-1123090D01*
G01X5254855Y-1293090D01*
G01X5256794Y-1305334D01*
G01X5262422Y-1316380D01*
G01X5271188Y-1325146D01*
G01X5282234Y-1330775D01*
G01X5294479Y-1332714D01*
G01X5464479Y-1332714D01*
G01X5464479Y-1332714D01*
G01X5476723Y-1330775D01*
G01X5487769Y-1325146D01*
G01X5496535Y-1316380D01*
G01X5502163Y-1305334D01*
G01X5504103Y-1293090D01*
G01X5504103Y-1123090D01*
G01X5502163Y-1110846D01*
G01X5496535Y-1099800D01*
G01X5487769Y-1091034D01*
G01X5476723Y-1085406D01*
G01X5464479Y-1083466D01*
G01X5294479Y-1083466D01*
G01X5282234Y-1085406D01*
G01X5271188Y-1091034D01*
G01X5262422Y-1099800D01*
G01X5256794Y-1110846D01*
G01X5254855Y-1123090D01*
G01X5139718Y-1123090D01*
G01X5131488Y-1114860D01*
G01X5114407Y-1102900D01*
G01X5095509Y-1094088D01*
G01X5075367Y-1088691D01*
G01X5054595Y-1086874D01*
G01X5033822Y-1088691D01*
G01X5013681Y-1094088D01*
G01X4994783Y-1102900D01*
G01X4977702Y-1114860D01*
G01X4962958Y-1129605D01*
G01X4950998Y-1146686D01*
G01X4942185Y-1165584D01*
G01X4936788Y-1185725D01*
G01X4934971Y-1206497D01*
G01X4934971Y-1206497D01*
G01X4920112Y-1206497D01*
G01X4918596Y-1186859D01*
G01X4913345Y-1166531D01*
G01X4904621Y-1147435D01*
G01X4892693Y-1130157D01*
G01X4877928Y-1115231D01*
G01X4860780Y-1103117D01*
G01X4841779Y-1094187D01*
G01X4821509Y-1088716D01*
G01X4800595Y-1086874D01*
G01X4779681Y-1088716D01*
G01X4759411Y-1094187D01*
G01X4740410Y-1103117D01*
G01X4723262Y-1115231D01*
G01X4708497Y-1130157D01*
G01X4696569Y-1147435D01*
G01X4687845Y-1166531D01*
G01X4682594Y-1186859D01*
G01X4680978Y-1207792D01*
G01X4683047Y-1228685D01*
G01X4688736Y-1248895D01*
G01X4697871Y-1267798D01*
G01X4710171Y-1284813D01*
G01X4710171Y-4521695D01*
G01X4712091Y-4540233D01*
G01X4717771Y-4557983D01*
G01X4726970Y-4574191D01*
G01X4637019Y-4484240D01*
G01X4637019Y-1284813D01*
G01X4649318Y-1267798D01*
G01X4658454Y-1248895D01*
G01X4664143Y-1228685D01*
G01X4666212Y-1207792D01*
G01X4664596Y-1186859D01*
G01X4659345Y-1166531D01*
G01X4650621Y-1147435D01*
G01X4638693Y-1130157D01*
G01X4623928Y-1115231D01*
G01X4606780Y-1103117D01*
G01X4587779Y-1094187D01*
G01X4567509Y-1088716D01*
G01X4546595Y-1086874D01*
G01X4525681Y-1088716D01*
G01X4505411Y-1094187D01*
G01X4486410Y-1103117D01*
G01X4469262Y-1115231D01*
G01X4454497Y-1130157D01*
G01X4442569Y-1147435D01*
G01X4433845Y-1166531D01*
G01X4428594Y-1186859D01*
G01X4426978Y-1207792D01*
G01X4412105Y-1207792D01*
G01X4412219Y-1206497D01*
G01X4410401Y-1185725D01*
G01X4405005Y-1165584D01*
G01X4396192Y-1146686D01*
G01X4384232Y-1129605D01*
G01X4369488Y-1114860D01*
G01X4352407Y-1102900D01*
G01X4333509Y-1094088D01*
G01X4313367Y-1088691D01*
G01X4292595Y-1086874D01*
G01X4271822Y-1088691D01*
G01X4251681Y-1094088D01*
G01X4232783Y-1102900D01*
G01X4215702Y-1114860D01*
G01X4200958Y-1129605D01*
G01X4188998Y-1146686D01*
G01X4180185Y-1165584D01*
G01X4174788Y-1185725D01*
G01X4172971Y-1206497D01*
G01X4172971Y-1206497D01*
G01X4158219Y-1206497D01*
G01X4158219Y-1126498D01*
G01X4156279Y-1114253D01*
G01X4150651Y-1103207D01*
G01X4141885Y-1094441D01*
G01X4130839Y-1088813D01*
G01X4118595Y-1086874D01*
G01X3958595Y-1086874D01*
G01X3946351Y-1088813D01*
G01X3935305Y-1094441D01*
G01X3926539Y-1103207D01*
G01X3920910Y-1114253D01*
G01X3918971Y-1126498D01*
G01X3918971Y-1286497D01*
G01X3920910Y-1298742D01*
G01X3926539Y-1309788D01*
G01X3935305Y-1318554D01*
G01X3946351Y-1324182D01*
G01X3958595Y-1326121D01*
G01X3960876Y-1326121D01*
G01X3960876Y-6281369D01*
G01X3695538Y-6281369D01*
G01X3680056Y-6265228D01*
G01X3662029Y-6251989D01*
G01X3641994Y-6242046D01*
G01X3620549Y-6235695D01*
G01X3641800Y-6229420D01*
G01X3661672Y-6219617D01*
G01X3679585Y-6206572D01*
G01X3695013Y-6190668D01*
G01X3707508Y-6172368D01*
G01X3716703Y-6152208D01*
G01X3722330Y-6130775D01*
G01X3724224Y-6108698D01*
G01X3722331Y-6086621D01*
G01X3716705Y-6065188D01*
G01X3707511Y-6045027D01*
G01X3695017Y-6026727D01*
G01X3679589Y-6010822D01*
G01X3661678Y-5997776D01*
G01X3641806Y-5987972D01*
G01X3620555Y-5981696D01*
G01X3641806Y-5975420D01*
G01X3661678Y-5965616D01*
G01X3679589Y-5952571D01*
G01X3695017Y-5936666D01*
G01X3707511Y-5918365D01*
G01X3716705Y-5898204D01*
G01X3722331Y-5876772D01*
G01X3724224Y-5854694D01*
G01X3722330Y-5832617D01*
G01X3716703Y-5811185D01*
G01X3707508Y-5791024D01*
G01X3695013Y-5772724D01*
G01X3679585Y-5756820D01*
G01X3661672Y-5743776D01*
G01X3641800Y-5733973D01*
G01X3620549Y-5727697D01*
G01X3641801Y-5721422D01*
G01X3661673Y-5711619D01*
G01X3679585Y-5698574D01*
G01X3695014Y-5682669D01*
G01X3707509Y-5664369D01*
G01X3716704Y-5644208D01*
G01X3722330Y-5622775D01*
G01X3724224Y-5600697D01*
G01X3722330Y-5578620D01*
G01X3716704Y-5557187D01*
G01X3707509Y-5537026D01*
G01X3695014Y-5518726D01*
G01X3679585Y-5502821D01*
G01X3661673Y-5489776D01*
G01X3641801Y-5479973D01*
G01X3620549Y-5473697D01*
G01X3641801Y-5467422D01*
G01X3661673Y-5457619D01*
G01X3679585Y-5444574D01*
G01X3695014Y-5428669D01*
G01X3707509Y-5410369D01*
G01X3716704Y-5390208D01*
G01X3722330Y-5368775D01*
G01X3724224Y-5346697D01*
G01X3722330Y-5324620D01*
G01X3716704Y-5303187D01*
G01X3707509Y-5283026D01*
G01X3695014Y-5264726D01*
G01X3679585Y-5248821D01*
G01X3661673Y-5235776D01*
G01X3641801Y-5225973D01*
G01X3620549Y-5219697D01*
G01X3641801Y-5213422D01*
G01X3661673Y-5203619D01*
G01X3679585Y-5190574D01*
G01X3695014Y-5174669D01*
G01X3707509Y-5156369D01*
G01X3716704Y-5136208D01*
G01X3722330Y-5114775D01*
G01X3724224Y-5092697D01*
G01X3722330Y-5070620D01*
G01X3716704Y-5049187D01*
G01X3707509Y-5029026D01*
G01X3695014Y-5010726D01*
G01X3679585Y-4994821D01*
G01X3661673Y-4981776D01*
G01X3641801Y-4971973D01*
G01X3620549Y-4965697D01*
G01X3641800Y-4959422D01*
G01X3661672Y-4949619D01*
G01X3679585Y-4936575D01*
G01X3695013Y-4920671D01*
G01X3707508Y-4902371D01*
G01X3716703Y-4882210D01*
G01X3722330Y-4860778D01*
G01X3724224Y-4838701D01*
G01X3722331Y-4816623D01*
G01X3716705Y-4795191D01*
G01X3707511Y-4775030D01*
G01X3695017Y-4756729D01*
G01X3679589Y-4740824D01*
G01X3661678Y-4727779D01*
G01X3641806Y-4717975D01*
G01X3620555Y-4711699D01*
G01X3641806Y-4705423D01*
G01X3661678Y-4695619D01*
G01X3679589Y-4682573D01*
G01X3695017Y-4666668D01*
G01X3707511Y-4648368D01*
G01X3716705Y-4628207D01*
G01X3722331Y-4606774D01*
G01X3724224Y-4584697D01*
G01X3722330Y-4562620D01*
G01X3716703Y-4541187D01*
G01X3707508Y-4521027D01*
G01X3695013Y-4502727D01*
G01X3679585Y-4486822D01*
G01X3661672Y-4473778D01*
G01X3641800Y-4463975D01*
G01X3620549Y-4457700D01*
G01X3641801Y-4451425D01*
G01X3661673Y-4441621D01*
G01X3679585Y-4428577D01*
G01X3695014Y-4412672D01*
G01X3707509Y-4394371D01*
G01X3716704Y-4374210D01*
G01X3722330Y-4352778D01*
G01X3724224Y-4330700D01*
G01X3722330Y-4308622D01*
G01X3716704Y-4287190D01*
G01X3707509Y-4267029D01*
G01X3695014Y-4248728D01*
G01X3679585Y-4232823D01*
G01X3661673Y-4219779D01*
G01X3641801Y-4209975D01*
G01X3620549Y-4203700D01*
G01X3641801Y-4197425D01*
G01X3661673Y-4187621D01*
G01X3679585Y-4174577D01*
G01X3695014Y-4158672D01*
G01X3707509Y-4140371D01*
G01X3716704Y-4120210D01*
G01X3722330Y-4098778D01*
G01X3724224Y-4076700D01*
G01X3722330Y-4054622D01*
G01X3716704Y-4033190D01*
G01X3707509Y-4013029D01*
G01X3695014Y-3994728D01*
G01X3679585Y-3978823D01*
G01X3661673Y-3965779D01*
G01X3641801Y-3955975D01*
G01X3620549Y-3949700D01*
G01X3641801Y-3943425D01*
G01X3661673Y-3933621D01*
G01X3679585Y-3920577D01*
G01X3695014Y-3904672D01*
G01X3707509Y-3886371D01*
G01X3716704Y-3866210D01*
G01X3722330Y-3844778D01*
G01X3724224Y-3822700D01*
G01X3722330Y-3800622D01*
G01X3716704Y-3779190D01*
G01X3707509Y-3759029D01*
G01X3695014Y-3740728D01*
G01X3679585Y-3724823D01*
G01X3661673Y-3711779D01*
G01X3641801Y-3701975D01*
G01X3620549Y-3695700D01*
G01X3641800Y-3689425D01*
G01X3661672Y-3679622D01*
G01X3679585Y-3666578D01*
G01X3695013Y-3650673D01*
G01X3707508Y-3632373D01*
G01X3716703Y-3612213D01*
G01X3722330Y-3590780D01*
G01X3724224Y-3568703D01*
G01X3722331Y-3546626D01*
G01X3716705Y-3525193D01*
G01X3707511Y-3505032D01*
G01X3695017Y-3486732D01*
G01X3679589Y-3470827D01*
G01X3661678Y-3457781D01*
G01X3641806Y-3447977D01*
G01X3620555Y-3441701D01*
G01X3641806Y-3435425D01*
G01X3661678Y-3425621D01*
G01X3679589Y-3412576D01*
G01X3695017Y-3396671D01*
G01X3707511Y-3378370D01*
G01X3716705Y-3358209D01*
G01X3722331Y-3336777D01*
G01X3724224Y-3314699D01*
G01X3722330Y-3292622D01*
G01X3716703Y-3271190D01*
G01X3707508Y-3251029D01*
G01X3695013Y-3232729D01*
G01X3679585Y-3216825D01*
G01X3661672Y-3203781D01*
G01X3641800Y-3193978D01*
G01X3620549Y-3187703D01*
G01X3641801Y-3181427D01*
G01X3661673Y-3171624D01*
G01X3679585Y-3158579D01*
G01X3695014Y-3142674D01*
G01X3707509Y-3124374D01*
G01X3716704Y-3104213D01*
G01X3722330Y-3082780D01*
G01X3724224Y-3060703D01*
G01X3722330Y-3038625D01*
G01X3716704Y-3017192D01*
G01X3707509Y-2997031D01*
G01X3695014Y-2978731D01*
G01X3679585Y-2962826D01*
G01X3661673Y-2949781D01*
G01X3641801Y-2939978D01*
G01X3620549Y-2933703D01*
G01X3642017Y-2927343D01*
G01X3662069Y-2917384D01*
G01X3680109Y-2904122D01*
G01X3695598Y-2887954D01*
G01X3708073Y-2869362D01*
G01X3717163Y-2848901D01*
G01X3722596Y-2827180D01*
G01X3724211Y-2804849D01*
G01X3721958Y-2782573D01*
G01X3715906Y-2761016D01*
G01X3706235Y-2740823D01*
G01X3693233Y-2722596D01*
G01X3677288Y-2706877D01*
G01X3658876Y-2694137D01*
G01X3638547Y-2684756D01*
G01X3616906Y-2679012D01*
G01X3594600Y-2677079D01*
G01X3572294Y-2679012D01*
G01X3550654Y-2684756D01*
G01X3530324Y-2694137D01*
G01X3511913Y-2706877D01*
G01X3495968Y-2722596D01*
G01X3482966Y-2740823D01*
G01X3473294Y-2761016D01*
G01X3467242Y-2782573D01*
G01X3464990Y-2804849D01*
G01X3466604Y-2827180D01*
G01X3472038Y-2848901D01*
G01X3481127Y-2869362D01*
G01X3493603Y-2887954D01*
G01X3509092Y-2904122D01*
G01X3527131Y-2917384D01*
G01X3547184Y-2927343D01*
G01X3568652Y-2933703D01*
G01X3547400Y-2939978D01*
G01X3527528Y-2949781D01*
G01X3509615Y-2962826D01*
G01X3494186Y-2978731D01*
G01X3481692Y-2997031D01*
G01X3472497Y-3017192D01*
G01X3466871Y-3038625D01*
G01X3464977Y-3060703D01*
G01X3466871Y-3082780D01*
G01X3472497Y-3104213D01*
G01X3481692Y-3124374D01*
G01X3494186Y-3142674D01*
G01X3509615Y-3158579D01*
G01X3527528Y-3171624D01*
G01X3547400Y-3181427D01*
G01X3568652Y-3187703D01*
G01X3547400Y-3193978D01*
G01X3527528Y-3203781D01*
G01X3509616Y-3216825D01*
G01X3494187Y-3232729D01*
G01X3481693Y-3251029D01*
G01X3472498Y-3271190D01*
G01X3466871Y-3292622D01*
G01X3464977Y-3314699D01*
G01X3466870Y-3336777D01*
G01X3472496Y-3358209D01*
G01X3481690Y-3378370D01*
G01X3494183Y-3396671D01*
G01X3509611Y-3412576D01*
G01X3527523Y-3425621D01*
G01X3547394Y-3435425D01*
G01X3568645Y-3441701D01*
G01X3547394Y-3447977D01*
G01X3527523Y-3457781D01*
G01X3509611Y-3470827D01*
G01X3494183Y-3486732D01*
G01X3481690Y-3505032D01*
G01X3472496Y-3525193D01*
G01X3466870Y-3546626D01*
G01X3464977Y-3568703D01*
G01X3466871Y-3590780D01*
G01X3472498Y-3612213D01*
G01X3481693Y-3632373D01*
G01X3494187Y-3650673D01*
G01X3509616Y-3666578D01*
G01X3527528Y-3679622D01*
G01X3547400Y-3689425D01*
G01X3568652Y-3695700D01*
G01X3547400Y-3701975D01*
G01X3527528Y-3711779D01*
G01X3509615Y-3724823D01*
G01X3494186Y-3740728D01*
G01X3481692Y-3759029D01*
G01X3472497Y-3779190D01*
G01X3466871Y-3800622D01*
G01X3464977Y-3822700D01*
G01X3466871Y-3844778D01*
G01X3472497Y-3866210D01*
G01X3481692Y-3886371D01*
G01X3494186Y-3904672D01*
G01X3509615Y-3920577D01*
G01X3527528Y-3933621D01*
G01X3547400Y-3943425D01*
G01X3568652Y-3949700D01*
G01X3547400Y-3955975D01*
G01X3527528Y-3965779D01*
G01X3509615Y-3978823D01*
G01X3494186Y-3994728D01*
G01X3481692Y-4013029D01*
G01X3472497Y-4033190D01*
G01X3466871Y-4054622D01*
G01X3464977Y-4076700D01*
G01X3466871Y-4098778D01*
G01X3472497Y-4120210D01*
G01X3481692Y-4140371D01*
G01X3494186Y-4158672D01*
G01X3509615Y-4174577D01*
G01X3527528Y-4187621D01*
G01X3547400Y-4197425D01*
G01X3568652Y-4203700D01*
G01X3547400Y-4209975D01*
G01X3527528Y-4219779D01*
G01X3509615Y-4232823D01*
G01X3494186Y-4248728D01*
G01X3481692Y-4267029D01*
G01X3472497Y-4287190D01*
G01X3466871Y-4308622D01*
G01X3464977Y-4330700D01*
G01X3466871Y-4352778D01*
G01X3472497Y-4374210D01*
G01X3481692Y-4394371D01*
G01X3494186Y-4412672D01*
G01X3509615Y-4428577D01*
G01X3527528Y-4441621D01*
G01X3547400Y-4451425D01*
G01X3568652Y-4457700D01*
G01X3547400Y-4463975D01*
G01X3527528Y-4473778D01*
G01X3509616Y-4486822D01*
G01X3494187Y-4502727D01*
G01X3481693Y-4521027D01*
G01X3472498Y-4541187D01*
G01X3466871Y-4562620D01*
G01X3464977Y-4584697D01*
G01X3466870Y-4606774D01*
G01X3472496Y-4628207D01*
G01X3481690Y-4648368D01*
G01X3494183Y-4666668D01*
G01X3509611Y-4682573D01*
G01X3527523Y-4695619D01*
G01X3547394Y-4705423D01*
G01X3568645Y-4711699D01*
G01X3547394Y-4717975D01*
G01X3527523Y-4727779D01*
G01X3509611Y-4740824D01*
G01X3494183Y-4756729D01*
G01X3481690Y-4775030D01*
G01X3472496Y-4795191D01*
G01X3466870Y-4816623D01*
G01X3464977Y-4838701D01*
G01X3466871Y-4860778D01*
G01X3472498Y-4882210D01*
G01X3481693Y-4902371D01*
G01X3494187Y-4920671D01*
G01X3509616Y-4936575D01*
G01X3527528Y-4949619D01*
G01X3547400Y-4959422D01*
G01X3568652Y-4965697D01*
G01X3547400Y-4971973D01*
G01X3527528Y-4981776D01*
G01X3509615Y-4994821D01*
G01X3494186Y-5010726D01*
G01X3481692Y-5029026D01*
G01X3472497Y-5049187D01*
G01X3466871Y-5070620D01*
G01X3464977Y-5092697D01*
G01X3466871Y-5114775D01*
G01X3472497Y-5136208D01*
G01X3481692Y-5156369D01*
G01X3494186Y-5174669D01*
G01X3509615Y-5190574D01*
G01X3527528Y-5203619D01*
G01X3547400Y-5213422D01*
G01X3568652Y-5219697D01*
G01X3568652Y-5219697D01*
G01X3547400Y-5225973D01*
G01X3527528Y-5235776D01*
G01X3509615Y-5248821D01*
G01X3494186Y-5264726D01*
G01X3481692Y-5283026D01*
G01X3472497Y-5303187D01*
G01X3466871Y-5324620D01*
G01X3464977Y-5346697D01*
G01X2579624Y-5346697D01*
G01X2579624Y-2404704D01*
G01X3494979Y-2404704D01*
G01X3496985Y-2432758D01*
G01X3502964Y-2460241D01*
G01X3512793Y-2486593D01*
G01X3526272Y-2511278D01*
G01X3543127Y-2533793D01*
G01X3563014Y-2553681D01*
G01X3585530Y-2570536D01*
G01X3610215Y-2584015D01*
G01X3636567Y-2593844D01*
G01X3664050Y-2599822D01*
G01X3692103Y-2601829D01*
G01X3720157Y-2599822D01*
G01X3747640Y-2593844D01*
G01X3773992Y-2584015D01*
G01X3798677Y-2570536D01*
G01X3821192Y-2553681D01*
G01X3841080Y-2533793D01*
G01X3857935Y-2511278D01*
G01X3871414Y-2486593D01*
G01X3881243Y-2460241D01*
G01X3887221Y-2432758D01*
G01X3889228Y-2404704D01*
G01X3887221Y-2376651D01*
G01X3881243Y-2349168D01*
G01X3871414Y-2322816D01*
G01X3857935Y-2298131D01*
G01X3841080Y-2275615D01*
G01X3821192Y-2255728D01*
G01X3798677Y-2238873D01*
G01X3773992Y-2225394D01*
G01X3747640Y-2215565D01*
G01X3720157Y-2209586D01*
G01X3692103Y-2207580D01*
G01X3664050Y-2209586D01*
G01X3636567Y-2215565D01*
G01X3610215Y-2225394D01*
G01X3585530Y-2238873D01*
G01X3563014Y-2255728D01*
G01X3543127Y-2275615D01*
G01X3526272Y-2298131D01*
G01X3512793Y-2322816D01*
G01X3502964Y-2349168D01*
G01X3496985Y-2376651D01*
G01X3494979Y-2404704D01*
G01X3494979Y-2404704D01*
G01X2579624Y-2404704D01*
G01X2579624Y-711200D01*
G01X2779776Y-711200D01*
G01X2781732Y-748530D01*
G01X2787580Y-785450D01*
G01X2797255Y-821557D01*
G01X2810651Y-856455D01*
G01X2827622Y-889762D01*
G01X2847981Y-921112D01*
G01X2871505Y-950163D01*
G01X2897937Y-976595D01*
G01X2926988Y-1000119D01*
G01X2958338Y-1020478D01*
G01X2991645Y-1037449D01*
G01X3026543Y-1050845D01*
G01X3062650Y-1060520D01*
G01X3099570Y-1066368D01*
G01X3136900Y-1068324D01*
G01X3174230Y-1066368D01*
G01X3211150Y-1060520D01*
G01X3247257Y-1050845D01*
G01X3282155Y-1037449D01*
G01X3315462Y-1020478D01*
G01X3346812Y-1000119D01*
G01X3375863Y-976595D01*
G01X3402295Y-950163D01*
G01X3425819Y-921112D01*
G01X3446178Y-889762D01*
G01X3463149Y-856455D01*
G01X3476545Y-821557D01*
G01X3486220Y-785450D01*
G01X3492068Y-748530D01*
G01X3494024Y-711200D01*
G01X3492068Y-673870D01*
G01X3486220Y-636950D01*
G01X3476545Y-600843D01*
G01X3463149Y-565945D01*
G01X3446178Y-532638D01*
G01X3425819Y-501288D01*
G01X3402295Y-472237D01*
G01X3375863Y-445805D01*
G01X3346812Y-422281D01*
G01X3315462Y-401922D01*
G01X3282155Y-384951D01*
G01X3247257Y-371555D01*
G01X3211150Y-361880D01*
G01X3174230Y-356032D01*
G01X3136900Y-354076D01*
G01X3099570Y-356032D01*
G01X3062650Y-361880D01*
G01X3026543Y-371555D01*
G01X2991645Y-384951D01*
G01X2958338Y-401922D01*
G01X2926988Y-422281D01*
G01X2897937Y-445805D01*
G01X2871505Y-472237D01*
G01X2847981Y-501288D01*
G01X2827622Y-532638D01*
G01X2810651Y-565945D01*
G01X2797255Y-600843D01*
G01X2787580Y-636950D01*
G01X2781732Y-673870D01*
G01X2779776Y-711200D01*
G01X2779776Y-711200D01*
G01X2579624Y-711200D01*
G01X2579624Y-179070D01*
G01X10510133Y-179070D01*
G37*
G54D10*
G01X10510133Y-179070D02*
G01X10510133Y-919780D01*
G01X10363201Y-919780D01*
G03X10272777Y-1010203I0J-90424D01*
G01X10272776Y-1323397D01*
G03X10236200Y-1315669I-36576J-82696D01*
G01X10200279Y-1315669D01*
G03X10136340Y-1342154I0J-90424D01*
G01X10009340Y-1469154D01*
G03X9982855Y-1533093I63939J-63939D01*
G01X9982855Y-2726893D01*
G03X10073279Y-2817317I90424J0D01*
G01X10272776Y-2817317D01*
G01X10272776Y-3004177D01*
G01X10272488Y-3004512D01*
G03X10251603Y-3002067I-20885J-87979D01*
G01X10099203Y-3002067D01*
G03X10008779Y-3092491I0J-90424D01*
G01X10008779Y-4438691D01*
G03X10099203Y-4529115I90424J0D01*
G01X10272776Y-4529115D01*
G01X10272776Y-4752397D01*
G03X10236200Y-4744669I-36576J-82696D01*
G01X10096500Y-4744669D01*
G03X10006076Y-4835093I0J-90424D01*
G01X10006076Y-6197600D01*
G03X10096500Y-6288024I90424J0D01*
G01X10285476Y-6288024D01*
G01X10285476Y-6496677D01*
G03X10375900Y-6694617I90424J-78316D01*
G03X10466324Y-6496677I0J119624D01*
G01X10466324Y-6284417D01*
G01X10510133Y-6284417D01*
G01X10510133Y-7645400D01*
G03X10524103Y-7659370I13970J0D01*
G01X14209776Y-7659370D01*
G01X14209776Y-9815576D01*
G01X2579624Y-9815576D01*
G01X2579624Y-179070D01*
G01X10510133Y-179070D01*
G01X2779776Y-711200D02*
G03X3494024Y-711200I357124J0D01*
G03X2779776Y-711200I-357124J0D01*
G01X2779776Y-9245600D02*
G03X3494024Y-9245600I357124J0D01*
G03X2779776Y-9245600I-357124J0D01*
G01X3568652Y-5219697D02*
G03X3568652Y-5473697I25949J-127000D01*
G03X3568652Y-5727697I25949J-127000D01*
G03X3568645Y-5981696I25949J-127000D01*
G03X3568652Y-6235695I25955J-126999D01*
G03X3477796Y-6418900I25949J-127000D01*
G03X3677652Y-6462217I116804J56205D01*
G01X4039245Y-6462217D01*
G01X5435161Y-7858133D01*
G03X5499100Y-7884617I63939J63939D01*
G01X6182784Y-7884617D01*
G03X6380724Y-7794193I78316J90424D01*
G03X6182784Y-7703769I-119624J0D01*
G01X5536555Y-7703769D01*
G01X4141724Y-6308938D01*
G01X4141724Y-1318670D01*
G03X4158219Y-1286497I-23129J32173D01*
G01X4158219Y-1126498D01*
G03X4118595Y-1086874I-39624J0D01*
G01X3958595Y-1086874D01*
G03X3918971Y-1126498I0J-39624D01*
G01X3918971Y-1286497D01*
G03X3958595Y-1326121I39624J0D01*
G01X3960876Y-1326121D01*
G01X3960876Y-6281369D01*
G01X3695538Y-6281369D01*
G03X3620549Y-6235695I-100938J-81326D01*
G03X3620555Y-5981696I-25949J127000D01*
G03X3620549Y-5727697I-25955J126999D01*
G03X3620549Y-5473697I-25949J127000D01*
G03X3620549Y-5219697I-25949J127000D01*
G03X3620549Y-4965697I-25949J127000D01*
G03X3620555Y-4711699I-25949J127000D01*
G03X3620549Y-4457700I-25955J126999D01*
G03X3620549Y-4203700I-25949J127000D01*
G03X3620549Y-3949700I-25949J127000D01*
G03X3620549Y-3695700I-25949J127000D01*
G03X3620555Y-3441701I-25949J127000D01*
G03X3620549Y-3187703I-25955J126999D01*
G03X3620549Y-2933703I-25949J127000D01*
G03X3594600Y-2677079I-25949J127000D01*
G03X3568652Y-2933703I0J-129624D01*
G03X3568652Y-3187703I25949J-127000D01*
G03X3568645Y-3441701I25949J-127000D01*
G03X3568652Y-3695700I25955J-126999D01*
G03X3568652Y-3949700I25949J-127000D01*
G03X3568652Y-4203700I25949J-127000D01*
G03X3568652Y-4457700I25949J-127000D01*
G03X3568645Y-4711699I25949J-127000D01*
G03X3568652Y-4965697I25955J-126999D01*
G03X3568652Y-5219697I25949J-127000D01*
G01X3494977Y-6764693D02*
G03X3889225Y-6764693I197124J0D01*
G03X3494977Y-6764693I-197124J0D01*
G01X3494979Y-2404704D02*
G03X3889228Y-2404704I197124J0D01*
G03X3494979Y-2404704I-197124J0D01*
G01X3797300Y-7977976D02*
G03X3797300Y-8227224I0J-124624D01*
G03X3797300Y-7977976I0J124624D01*
G01X3672676Y-7933600D02*
G03X3712300Y-7973224I39624J0D01*
G01X3882300Y-7973224D01*
G03X3921924Y-7933600I0J39624D01*
G01X3921924Y-7763600D01*
G03X3882300Y-7723976I-39624J0D01*
G01X3712300Y-7723976D01*
G03X3672676Y-7763600I0J-39624D01*
G01X3672676Y-7933600D01*
G01X4172971Y-1206497D02*
G03X4412219Y-1206497I119624J0D01*
G03X4172971Y-1206497I-119624J0D01*
G01X5749985Y-5852964D02*
G03X5853642Y-5981696I129612J-1733D01*
G03X5853648Y-6235695I25955J-126999D01*
G03X5879597Y-6492319I25949J-127000D01*
G03X5905546Y-6235695I0J129624D01*
G03X5905552Y-5981696I-25949J127000D01*
G03X5905546Y-5727697I-25955J126999D01*
G03X5905546Y-5473697I-25949J127000D01*
G03X5905546Y-5219697I-25949J127000D01*
G03X5905546Y-4965697I-25949J127000D01*
G03X5905552Y-4711699I-25949J127000D01*
G03X5905546Y-4457700I-25955J126999D01*
G03X5905546Y-4203700I-25949J127000D01*
G03X5905546Y-3949700I-25949J127000D01*
G03X5905546Y-3695700I-25949J127000D01*
G03X5905552Y-3441701I-25949J127000D01*
G03X5905546Y-3187703I-25955J126999D01*
G03X5905546Y-2933703I-25949J127000D01*
G03X5879597Y-2677079I-25949J127000D01*
G03X5853648Y-2933703I0J-129624D01*
G03X5853648Y-3187703I25949J-127000D01*
G03X5853642Y-3441701I25949J-127000D01*
G03X5853648Y-3695700I25955J-126999D01*
G03X5853648Y-3949700I25949J-127000D01*
G03X5853648Y-4203700I25949J-127000D01*
G03X5853648Y-4457700I25949J-127000D01*
G03X5853642Y-4711699I25949J-127000D01*
G03X5853648Y-4965697I25955J-126999D01*
G03X5853648Y-5219697I25949J-127000D01*
G03X5750019Y-5343241I25949J-127000D01*
G01X4891019Y-4484240D01*
G01X4891019Y-1284813D01*
G03X4800595Y-1086874I-90424J78316D01*
G03X4710171Y-1284813I0J-119624D01*
G01X4710171Y-4521695D01*
G03X4726970Y-4574191I90424J0D01*
G01X4637019Y-4484240D01*
G01X4637019Y-1284813D01*
G03X4546595Y-1086874I-90424J78316D01*
G03X4456171Y-1284813I0J-119624D01*
G01X4456171Y-4521695D01*
G03X4482655Y-4585635I90424J0D01*
G01X5749985Y-5852964D01*
G01X5004604Y-8079811D02*
G01X5058095Y-8079811D01*
G03X5097719Y-8040187I0J39624D01*
G01X5097719Y-7860187D01*
G03X5058095Y-7820563I-39624J0D01*
G01X4798096Y-7820563D01*
G03X4758472Y-7860187I0J-39624D01*
G01X4758472Y-8040187D01*
G03X4798096Y-8079811I39624J0D01*
G01X4851586Y-8079811D01*
G03X4861719Y-8331099I36509J-124376D01*
G03X4887105Y-8587837I25386J-127114D01*
G01X4967105Y-8587837D01*
G03X4993481Y-8331301I0J129624D01*
G03X5004604Y-8079811I-25386J127114D01*
G01X4934971Y-1206497D02*
G03X5174219Y-1206497I119624J0D01*
G03X4934971Y-1206497I-119624J0D01*
G01X5464479Y-1332714D02*
G03X5504103Y-1293090I0J39624D01*
G01X5504103Y-1123090D01*
G03X5464479Y-1083466I-39624J0D01*
G01X5294479Y-1083466D01*
G03X5254855Y-1123090I0J-39624D01*
G01X5254855Y-1293090D01*
G03X5294479Y-1332714I39624J0D01*
G01X5464479Y-1332714D01*
G01X5584972Y-6764693D02*
G03X5979221Y-6764693I197124J0D01*
G03X5584972Y-6764693I-197124J0D01*
G01X5584975Y-2404704D02*
G03X5979224Y-2404704I197124J0D01*
G03X5584975Y-2404704I-197124J0D01*
G01X7339955Y-9078976D02*
G01X6811246Y-8550267D01*
G03X6747307Y-8523783I-63939J-63939D01*
G01X6339416Y-8523783D01*
G03X6141476Y-8614207I-78316J-90424D01*
G03X6339416Y-8704631I119624J0D01*
G01X6709852Y-8704631D01*
G01X7238561Y-9233339D01*
G03X7302500Y-9259824I63939J63939D01*
G01X8585200Y-9259824D01*
G03X8649139Y-9233339I0J90424D01*
G01X8776139Y-9106339D01*
G03X8802624Y-9042400I-63939J63939D01*
G01X8802624Y-8191858D01*
G01X8865039Y-8129443D01*
G03X8737161Y-8001564I-63939J63939D01*
G01X8648261Y-8090464D01*
G03X8621776Y-8154403I63939J-63939D01*
G01X8621776Y-9004945D01*
G01X8547745Y-9078976D01*
G01X7339955Y-9078976D01*
G01X7448276Y-8559800D02*
G03X7588524Y-8559800I70124J0D01*
G03X7448276Y-8559800I-70124J0D01*
G01X7703576Y-8921200D02*
G01X7703576Y-9011200D01*
G03X7743200Y-9050824I39624J0D01*
G01X7903200Y-9050824D01*
G03X7942824Y-9011200I0J39624D01*
G01X7942824Y-8921200D01*
G03X7926506Y-8889155I-39624J0D01*
G03X7914137Y-8775700I-68306J49955D01*
G03X7858200Y-8627576I-55937J63500D01*
G01X7788200Y-8627576D01*
G03X7732263Y-8775700I0J-84624D01*
G03X7719894Y-8889155I55937J-63500D01*
G03X7703576Y-8921200I23306J-32045D01*
G01X8913876Y-4673600D02*
G03X9628124Y-4673600I357124J0D01*
G03X8913876Y-4673600I-357124J0D01*
G01X9172500Y-5748824D02*
G01X9242500Y-5748824D01*
G03X9298437Y-5600700I0J84624D01*
G03X9310806Y-5487245I-55937J63500D01*
G03X9327124Y-5455200I-23306J32045D01*
G01X9327124Y-5365200D01*
G03X9287500Y-5325576I-39624J0D01*
G01X9127500Y-5325576D01*
G03X9087876Y-5365200I0J-39624D01*
G01X9087876Y-5455200D01*
G03X9104194Y-5487245I39624J0D01*
G03X9116563Y-5600700I68306J-49955D01*
G03X9172500Y-5748824I55937J-63500D01*
G01X9185200Y-3970824D02*
G01X9255200Y-3970824D01*
G03X9311137Y-3822700I0J84624D01*
G03X9323506Y-3709245I-55937J63500D01*
G03X9339824Y-3677200I-23306J32045D01*
G01X9339824Y-3587200D01*
G03X9300200Y-3547576I-39624J0D01*
G01X9140200Y-3547576D01*
G03X9100576Y-3587200I0J-39624D01*
G01X9100576Y-3677200D01*
G03X9116894Y-3709245I39624J0D01*
G03X9129263Y-3822700I68306J-49955D01*
G03X9185200Y-3970824I55937J-63500D01*
G01X9129263Y-2159000D02*
G03X9185200Y-2307124I55937J-63500D01*
G01X9255200Y-2307124D01*
G03X9311137Y-2159000I0J84624D01*
G03X9323506Y-2045545I-55937J63500D01*
G03X9339824Y-2013500I-23306J32045D01*
G01X9339824Y-1923500D01*
G03X9300200Y-1883876I-39624J0D01*
G01X9140200Y-1883876D01*
G03X9100576Y-1923500I0J-39624D01*
G01X9100576Y-2013500D01*
G03X9116894Y-2045545I39624J0D01*
G03X9129263Y-2159000I68306J-49955D01*
G01X9185200Y-7488724D02*
G01X9255200Y-7488724D01*
G03X9311137Y-7340600I0J84624D01*
G03X9323506Y-7227145I-55937J63500D01*
G03X9339824Y-7195100I-23306J32045D01*
G01X9339824Y-7105100D01*
G03X9300200Y-7065476I-39624J0D01*
G01X9140200Y-7065476D01*
G03X9100576Y-7105100I0J-39624D01*
G01X9100576Y-7195100D01*
G03X9116894Y-7227145I39624J0D01*
G03X9129263Y-7340600I68306J-49955D01*
G03X9185200Y-7488724I55937J-63500D01*
G01X9867900Y-8746673D02*
G03X9867900Y-9005921I0J-129624D01*
G03X9867900Y-8746673I0J129624D01*
G01X9867900Y-7986679D02*
G03X9867900Y-8245927I0J-129624D01*
G03X9867900Y-7986679I0J129624D01*
G01X10375900Y-7514631D02*
G03X10375900Y-7275383I0J119624D01*
G03X10375900Y-7514631I0J-119624D01*
G01X11698417Y-8420100D02*
G03X11459169Y-8420100I-119624J0D01*
G03X11698417Y-8420100I119624J0D01*
G01X12933002Y-8510524D02*
G03X12957900Y-8519324I24898J30824D01*
G01X13127900Y-8519324D01*
G03X13167524Y-8479700I0J39624D01*
G01X13167524Y-8309700D01*
G03X13127900Y-8270076I-39624J0D01*
G01X12957900Y-8270076D01*
G03X12918276Y-8309700I0J-39624D01*
G01X12918276Y-8329676D01*
G01X12477123Y-8329676D01*
G03X12279183Y-8420100I-78316J-90424D01*
G03X12477123Y-8510524I119624J0D01*
G01X12933002Y-8510524D01*
G01X13042900Y-8265324D02*
G03X13042900Y-8016076I0J124624D01*
G03X13042900Y-8265324I0J-124624D01*
G01X13295376Y-9245600D02*
G03X14009624Y-9245600I357124J0D01*
G03X13295376Y-9245600I-357124J0D01*
G54D11*
G01X7823200Y-8667454D02*
G01X7823200Y-8641546D01*
G01X7743454Y-8712200D02*
G01X7717546Y-8712200D01*
G01X7902946Y-8712200D02*
G01X7928854Y-8712200D01*
G01X5057841Y-8204187D02*
G01X5083749Y-8204187D01*
G01X4798350Y-8204187D02*
G01X4772442Y-8204187D01*
G01X4212849Y-1206497D02*
G01X4186941Y-1206497D01*
G01X4372341Y-1206497D02*
G01X4398249Y-1206497D01*
G01X4292595Y-1126752D02*
G01X4292595Y-1100844D01*
G01X4292595Y-1286243D02*
G01X4292595Y-1312151D01*
G01X3797300Y-8017854D02*
G01X3797300Y-7991946D01*
G01X3797300Y-8187346D02*
G01X3797300Y-8213254D01*
G01X3882046Y-8102600D02*
G01X3907954Y-8102600D01*
G01X3712554Y-8102600D02*
G01X3686646Y-8102600D01*
G01X9207500Y-5365454D02*
G01X9207500Y-5339546D01*
G01X9287246Y-5410200D02*
G01X9313154Y-5410200D01*
G01X9127754Y-5410200D02*
G01X9101846Y-5410200D01*
G01X3504855Y-6108695D02*
G01X3478947Y-6108695D01*
G01X3684346Y-6108695D02*
G01X3710254Y-6108695D01*
G01X9220200Y-3587454D02*
G01X9220200Y-3561546D01*
G01X9299946Y-3632200D02*
G01X9325854Y-3632200D01*
G01X9140454Y-3632200D02*
G01X9114546Y-3632200D01*
G01X9220200Y-7105354D02*
G01X9220200Y-7079446D01*
G01X9299946Y-7150100D02*
G01X9325854Y-7150100D01*
G01X9140454Y-7150100D02*
G01X9114546Y-7150100D01*
G01X9220200Y-1923754D02*
G01X9220200Y-1897846D01*
G01X9299946Y-1968500D02*
G01X9325854Y-1968500D01*
G01X9140454Y-1968500D02*
G01X9114546Y-1968500D01*
G01X13042900Y-8225446D02*
G01X13042900Y-8251354D01*
G01X13042900Y-8055954D02*
G01X13042900Y-8030046D01*
G01X12958154Y-8140700D02*
G01X12932246Y-8140700D01*
G01X13127646Y-8140700D02*
G01X13153554Y-8140700D01*
G04 Copper End*

G04 Pad Start*
G54D12*
G01X3136900Y-711200D03*
G01X13652500Y-711200D03*
G01X13652500Y-9245600D03*
G01X3136900Y-9245600D03*
G01X13652500Y-4203700D03*
G01X13652500Y-5905500D03*
G01X9271000Y-4673600D03*
G54D13*
G01X9867900Y-8876297D03*
G01X9867900Y-8116303D03*
G54D14*
G01X10375900Y-7395007D03*
G01X10375900Y-6574993D03*
G01X10363200Y-5655107D03*
G01X10363200Y-4835093D03*
G01X10363200Y-3902507D03*
G01X10363200Y-3082493D03*
G01X10363200Y-2226107D03*
G01X10363200Y-1406093D03*
G01X6261100Y-8614207D03*
G01X6261100Y-7794193D03*
G01X5054595Y-1206497D03*
G01X4800595Y-1206497D03*
G01X4546595Y-1206497D03*
G01X4292595Y-1206497D03*
G54D15*
G01X4038595Y-1206497D03*
G54D16*
G01X5379479Y-1208090D03*
G54D18*
G01X9220200Y-2222500D03*
G01X9220200Y-2095500D03*
G54D19*
G01X9220200Y-1968500D03*
G54D18*
G01X9220200Y-3886200D03*
G01X9220200Y-3759200D03*
G54D19*
G01X9220200Y-3632200D03*
G54D18*
G01X9207500Y-5664200D03*
G01X9207500Y-5537200D03*
G54D19*
G01X9207500Y-5410200D03*
G54D18*
G01X9220200Y-7404100D03*
G01X9220200Y-7277100D03*
G54D19*
G01X9220200Y-7150100D03*
G54D18*
G01X7823200Y-8712200D03*
G01X7823200Y-8839200D03*
G54D19*
G01X7823200Y-8966200D03*
G54D20*
G01X12203438Y-2210151D03*
G01X10783425Y-1610203D03*
G01X10983425Y-1010204D03*
G01X10983425Y-2210201D03*
G01X12203438Y-1010255D03*
G01X12241606Y-3914648D03*
G01X10821594Y-3314700D03*
G01X11021593Y-2714701D03*
G01X11021593Y-3914699D03*
G01X12241606Y-2714752D03*
G01X12203438Y-5638637D03*
G01X10783425Y-5038689D03*
G01X10983425Y-4438691D03*
G01X10983425Y-5638688D03*
G01X12203438Y-4438741D03*
G01X12228906Y-7381748D03*
G01X10808894Y-6781800D03*
G01X11008893Y-6181801D03*
G01X11008893Y-7381799D03*
G01X12228906Y-6181852D03*
G54D13*
G01X3594600Y-2806703D03*
G01X3594600Y-3060703D03*
G01X3594600Y-3314703D03*
G01X3594600Y-3568700D03*
G01X3594600Y-3822700D03*
G01X3594600Y-4076700D03*
G01X3594600Y-4330700D03*
G01X3594600Y-4584700D03*
G01X3594600Y-4838697D03*
G01X3594600Y-5092697D03*
G01X3594600Y-5346697D03*
G01X3594600Y-5600697D03*
G01X3594600Y-5854697D03*
G01X3594600Y-6108695D03*
G01X3594600Y-6362695D03*
G01X5879597Y-6362695D03*
G01X5879597Y-6108695D03*
G01X5879597Y-5854697D03*
G01X5879597Y-5600697D03*
G01X5879597Y-5346697D03*
G01X5879597Y-5092697D03*
G01X5879597Y-4838697D03*
G01X5879597Y-4584700D03*
G01X5879597Y-4330700D03*
G01X5879597Y-4076700D03*
G01X5879597Y-3822700D03*
G01X5879597Y-3568700D03*
G01X5879597Y-3314703D03*
G01X5879597Y-3060703D03*
G01X5879597Y-2806703D03*
G54D21*
G01X13030200Y-1371600D03*
G01X13030200Y-1625600D03*
G54D22*
G01X13030200Y-1879600D03*
G54D21*
G01X13055600Y-3098800D03*
G01X13055600Y-3352800D03*
G54D22*
G01X13055600Y-3606800D03*
G54D21*
G01X13068300Y-4800600D03*
G01X13068300Y-5054600D03*
G54D22*
G01X13068300Y-5308600D03*
G54D21*
G01X13068300Y-6540500D03*
G01X13068300Y-6794500D03*
G54D22*
G01X13068300Y-7048500D03*
G54D23*
G01X4928095Y-8204187D03*
G01X4927105Y-8458213D03*
G54D24*
G01X4928095Y-7950187D03*
G54D16*
G01X3797300Y-7848600D03*
G54D25*
G01X3797300Y-8102600D03*
G54D14*
G01X12398807Y-8420100D03*
G01X11578793Y-8420100D03*
G54D16*
G01X13042900Y-8394700D03*
G54D25*
G01X13042900Y-8140700D03*
G04 Pad End*

G04 Via Start*
G54D26*
G01X10236200Y-4835093D03*
G01X10236096Y-3076984D03*
G01X10236200Y-1406093D03*
G01X7518400Y-8559800D03*
G01X7802702Y-8559800D03*
G01X7802702Y-7505700D03*
G01X8801100Y-8065503D03*
G01X6698487Y-7683500D03*
G01X6698487Y-7289787D03*
G04 Via End*

G04 Track Start*
G54D27*
G01X10363200Y-2226107D02*
G01X10967519Y-2226107D01*
G01X10983425Y-2210201D01*
G01X10363200Y-5655107D02*
G01X10967006Y-5655107D01*
G01X10983425Y-5638688D01*
G01X10363200Y-3902507D02*
G01X11009401Y-3902507D01*
G01X11021593Y-3914699D01*
G01X11008893Y-6181801D02*
G01X10996701Y-6193993D01*
G54D11*
G01X10353203Y-3092491D02*
G01X10363200Y-3082493D01*
G01X10251603Y-3092491D02*
G01X10236096Y-3076984D01*
G54D27*
G01X11009401Y-2726893D02*
G01X11021593Y-2714701D01*
G54D28*
G01X10783425Y-1610203D02*
G01X13014803Y-1610203D01*
G01X13030200Y-1625600D01*
G01X10783425Y-5038689D02*
G01X13052389Y-5038689D01*
G01X13068300Y-5054600D01*
G01X10808894Y-6781800D02*
G01X13055600Y-6781800D01*
G01X13068300Y-6794500D01*
G01X12203438Y-2210151D02*
G01X12699649Y-2210151D01*
G01X13030200Y-1879600D01*
G01X12241606Y-3914648D02*
G01X12747752Y-3914648D01*
G01X13055600Y-3606800D01*
G01X12203438Y-5638637D02*
G01X12738263Y-5638637D01*
G01X13068300Y-5308600D01*
G01X12228906Y-7381748D02*
G01X12735052Y-7381748D01*
G01X13068300Y-7048500D01*
G01X12203438Y-1010255D02*
G01X12668855Y-1010255D01*
G01X13030200Y-1371600D01*
G01X12241606Y-2714752D02*
G01X12671552Y-2714752D01*
G01X13055600Y-3098800D01*
G01X12203438Y-4438741D02*
G01X12706441Y-4438741D01*
G01X13068300Y-4800600D01*
G01X12228906Y-6181852D02*
G01X12709652Y-6181852D01*
G01X13068300Y-6540500D01*
G54D27*
G01X6261100Y-7794193D02*
G01X5499100Y-7794193D01*
G01X4076700Y-6371793D01*
G01X3603699Y-6371793D02*
G01X3594600Y-6362695D01*
G01X4051300Y-6371793D02*
G01X4051300Y-1219203D01*
G01X4038595Y-1206497D01*
G01X4546595Y-1206497D02*
G01X4546595Y-4521695D01*
G01X5879597Y-5854697D01*
G01X4800595Y-1206497D02*
G01X4800595Y-4521695D01*
G01X5879597Y-5600697D01*
G01X12398807Y-8420100D02*
G01X13017500Y-8420100D01*
G01X13042900Y-8394700D01*
G01X4076700Y-6371793D02*
G01X4051300Y-6371793D01*
G01X3603699Y-6371793D01*
G54D11*
G01X10236200Y-1406093D02*
G01X10363200Y-1406093D01*
G01X10251603Y-3092491D02*
G01X10353203Y-3092491D01*
G54D27*
G01X8699500Y-7416800D02*
G01X8610600Y-7505700D01*
G01X7802702Y-7505700D01*
G01X10363200Y-4835093D02*
G01X10363200Y-4438691D01*
G01X10099203Y-4438691D01*
G01X10983425Y-4438691D02*
G01X10363200Y-4438691D01*
G54D11*
G01X10236200Y-4835093D02*
G01X10363200Y-4835093D01*
G54D27*
G01X10096500Y-4835093D02*
G01X10236200Y-4835093D01*
G01X10363200Y-1406093D02*
G01X10363201Y-1010204D01*
G01X10983425Y-1010204D01*
G01X10073279Y-1533093D02*
G01X10200279Y-1406093D01*
G01X10236200Y-1406093D01*
G01X10073279Y-2726893D02*
G01X10073279Y-1533093D01*
G01X10363200Y-3082493D02*
G01X10363200Y-2726893D01*
G01X10073279Y-2726893D01*
G01X11009401Y-2726893D02*
G01X10363200Y-2726893D01*
G01X10099203Y-4438691D02*
G01X10099203Y-3092491D01*
G01X10251603Y-3092491D01*
G01X10375900Y-6574993D02*
G01X10375900Y-6193993D01*
G01X10996701Y-6193993D02*
G01X10375900Y-6193993D01*
G01X10372293Y-6197600D01*
G01X10096500Y-6197600D01*
G01X10096500Y-4835093D01*
G54D28*
G01X10821594Y-3314700D02*
G01X10859694Y-3352800D01*
G01X13055600Y-3352800D01*
G54D27*
G01X9220200Y-3501572D02*
G01X9220200Y-3632200D01*
G01X8674100Y-3501572D02*
G01X9220200Y-3501572D01*
G01X8674100Y-3501572D02*
G01X8674100Y-1841500D01*
G01X9220200Y-1841500D01*
G01X9220200Y-1968500D01*
G01X9220200Y-7150100D02*
G01X9220200Y-7035800D01*
G01X8699500Y-7035800D01*
G01X8699500Y-7416800D01*
G01X8674100Y-3501572D02*
G01X8674100Y-5295900D01*
G01X8699500Y-7035800D02*
G01X8666302Y-7002602D01*
G01X8666302Y-5303698D01*
G01X8674100Y-5295900D01*
G01X7302500Y-9169400D02*
G01X6747307Y-8614207D01*
G01X6261100Y-8614207D01*
G01X8585200Y-9169400D02*
G01X7302500Y-9169400D01*
G01X8801100Y-8065503D02*
G01X8712200Y-8154403D01*
G01X8712200Y-9042400D01*
G01X8585200Y-9169400D01*
G01X9226550Y-7143750D02*
G01X9220200Y-7150100D01*
G01X13042900Y-8140700D02*
G01X13042900Y-7810500D01*
G01X10223500Y-7810500D01*
G01X9556750Y-7143750D01*
G01X9226550Y-7143750D01*
G01X8674100Y-5295900D02*
G01X9207500Y-5295900D01*
G01X9207500Y-5410200D01*
G01X6698487Y-7683500D02*
G01X6698487Y-7289787D01*
G04 Track End*

M02*

