G04 Layer: TopSilkscreenLayer*
G04 EasyEDA Pro v2.2.47.7, 2026-05-23 21:16:01*
G04 Gerber Generator version 0.3*
G04 Scale: 100 percent, Rotated: No, Reflected: No*
G04 Dimensions in millimeters*
G04 Leading zeros omitted, absolute positions, 4 integers and 5 decimals*
G04 Generated by one-click*
G04 Object Configs: Pad,Via,Track,Text,Image,Dimension,BoardOutline,BoardCutout,CopperFilled,SolidRegion,FPCStiffener,Line,PlaneZone,ComponentProperty,ComponentSilkscreen,TearDrop*
G04 Layer Configs: 1,2,3,4,5,6,7,8,9,10,11,13,14,56*
G04 Copper Areas: 0*
%FSLAX45Y45*%
%MOMM*%
%ADD10C,0.1524*%
%ADD11C,0.3048*%
%ADD12C,0.2032*%
%ADD13C,0.254*%
%ADD14C,0.08001*%
%ADD15C,0.15001*%
%ADD16C,0.3*%
%ADD17C,0.7003*%
%ADD18C,0.7*%
%ADD19C,0.4*%
G75*


G04 Image Start*
G36*
G01X6794917Y-998952D02*
G01X6792644Y-999655D01*
G01X6789751Y-998118D01*
G01X6761108Y-969435D01*
G01X6732465Y-940751D01*
G01X6732465Y-937338D01*
G01X6754352Y-905567D01*
G01X6776239Y-873796D01*
G01X6777261Y-870101D01*
G01X6764652Y-838660D01*
G01X6752042Y-807219D01*
G01X6750727Y-806257D01*
G01X6749411Y-805295D01*
G01X6671459Y-790908D01*
G01X6670297Y-789571D01*
G01X6669135Y-788233D01*
G01X6669135Y-706063D01*
G01X6670555Y-704667D01*
G01X6671976Y-703270D01*
G01X6711751Y-695896D01*
G01X6751526Y-688521D01*
G01X6753093Y-686870D01*
G01X6754660Y-685218D01*
G01X6766911Y-656631D01*
G01X6779162Y-628044D01*
G01X6779162Y-625188D01*
G01X6777186Y-622138D01*
G01X6775210Y-619087D01*
G01X6754170Y-588435D01*
G01X6733129Y-557783D01*
G01X6732570Y-556555D01*
G01X6732010Y-555327D01*
G01X6732658Y-553763D01*
G01X6733305Y-552199D01*
G01X6762441Y-523460D01*
G01X6791576Y-494721D01*
G01X6793247Y-494935D01*
G01X6794917Y-495149D01*
G01X6827974Y-517807D01*
G01X6861030Y-540466D01*
G01X6862583Y-541413D01*
G01X6864135Y-542360D01*
G01X6865608Y-542362D01*
G01X6867080Y-542364D01*
G01X6894535Y-531178D01*
G01X6921990Y-519992D01*
G01X6923627Y-518784D01*
G01X6925264Y-517576D01*
G01X6926321Y-514206D01*
G01X6933696Y-474424D01*
G01X6941072Y-434642D01*
G01X6942468Y-433221D01*
G01X6943864Y-431800D01*
G01X7025846Y-431800D01*
G01X7028135Y-433403D01*
G01X7028624Y-434318D01*
G01X7029114Y-435234D01*
G01X7036653Y-475698D01*
G01X7044191Y-516163D01*
G01X7045196Y-517575D01*
G01X7046202Y-518987D01*
G01X7049580Y-520565D01*
G01X7076291Y-531464D01*
G01X7103001Y-542364D01*
G01X7105983Y-542364D01*
G01X7109033Y-540380D01*
G01X7112083Y-538396D01*
G01X7143593Y-516779D01*
G01X7175103Y-495162D01*
G01X7178414Y-494724D01*
G01X7187090Y-503001D01*
G01X7195766Y-511278D01*
G01X7216524Y-532117D01*
G01X7237283Y-552955D01*
G01X7237629Y-554370D01*
G01X7237974Y-555785D01*
G01X7236915Y-557580D01*
G01X7235857Y-559375D01*
G01X7213769Y-591556D01*
G01X7191681Y-623737D01*
G01X7191182Y-625603D01*
G01X7190683Y-627470D01*
G01X7203195Y-656661D01*
G01X7215708Y-685852D01*
G01X7217101Y-687165D01*
G01X7218494Y-688477D01*
G01X7257753Y-695770D01*
G01X7297011Y-703064D01*
G01X7298364Y-703605D01*
G01X7299718Y-704146D01*
G01X7300302Y-705427D01*
G01X7300885Y-706708D01*
G01X7300885Y-788233D01*
G01X7298561Y-790922D01*
G01X7259738Y-798087D01*
G01X7220915Y-805252D01*
G01X7219907Y-805792D01*
G01X7218899Y-806331D01*
G01X7218141Y-807515D01*
G01X7217383Y-808698D01*
G01X7205301Y-838922D01*
G01X7193219Y-869147D01*
G01X7193262Y-871006D01*
G01X7193305Y-872866D01*
G01X7215585Y-905291D01*
G01X7237865Y-937716D01*
G01X7237865Y-940426D01*
G01X7179037Y-999291D01*
G01X7177278Y-999241D01*
G01X7175520Y-999192D01*
G01X7117765Y-959637D01*
G01X7114715Y-957661D01*
G01X7111665Y-955686D01*
G01X7108616Y-955686D01*
G01X7094054Y-963436D01*
G01X7079493Y-971186D01*
G01X7077847Y-971186D01*
G01X7075780Y-969377D01*
G01X7019735Y-834014D01*
G01X7019705Y-831186D01*
G01X7020661Y-830130D01*
G01X7021617Y-829073D01*
G01X7024440Y-827458D01*
G01X7027263Y-825842D01*
G01X7031448Y-822742D01*
G01X7035633Y-819643D01*
G01X7042864Y-814188D01*
G01X7047393Y-809704D01*
G01X7051922Y-805221D01*
G01X7055439Y-800501D01*
G01X7058956Y-795782D01*
G01X7062785Y-789393D01*
G01X7065041Y-784579D01*
G01X7067298Y-779766D01*
G01X7068670Y-775632D01*
G01X7070043Y-771499D01*
G01X7071002Y-767366D01*
G01X7071961Y-763233D01*
G01X7073230Y-753007D01*
G01X7072925Y-744429D01*
G01X7072621Y-735850D01*
G01X7071353Y-729909D01*
G01X7070084Y-723967D01*
G01X7068956Y-720609D01*
G01X7067827Y-717251D01*
G01X7066109Y-713118D01*
G01X7064391Y-708984D01*
G01X7062389Y-705368D01*
G01X7060387Y-701751D01*
G01X7058129Y-698393D01*
G01X7055872Y-695035D01*
G01X7052311Y-690806D01*
G01X7048750Y-686577D01*
G01X7045318Y-683366D01*
G01X7041885Y-680154D01*
G01X7037749Y-677086D01*
G01X7033612Y-674019D01*
G01X7028940Y-671274D01*
G01X7024268Y-668528D01*
G01X7019341Y-666481D01*
G01X7014413Y-664434D01*
G01X7005156Y-661733D01*
G01X7000248Y-660833D01*
G01X6995341Y-659933D01*
G01X6974679Y-659937D01*
G01X6969515Y-660882D01*
G01X6964350Y-661828D01*
G01X6959641Y-663278D01*
G01X6954932Y-664728D01*
G01X6950571Y-666534D01*
G01X6946209Y-668339D01*
G01X6941659Y-670958D01*
G01X6937109Y-673577D01*
G01X6932914Y-676556D01*
G01X6928720Y-679535D01*
G01X6922727Y-685477D01*
G01X6916734Y-691418D01*
G01X6908837Y-702628D01*
G01X6906010Y-708390D01*
G01X6903183Y-714151D01*
G01X6901355Y-719630D01*
G01X6899527Y-725109D01*
G01X6897244Y-735334D01*
G01X6897244Y-759100D01*
G01X6898405Y-764462D01*
G01X6899566Y-769825D01*
G01X6901154Y-774795D01*
G01X6902741Y-779766D01*
G01X6904977Y-784560D01*
G01X6907212Y-789354D01*
G01X6909138Y-792568D01*
G01X6911064Y-795782D01*
G01X6914653Y-800597D01*
G01X6918242Y-805412D01*
G01X6923215Y-810284D01*
G01X6928189Y-815156D01*
G01X6934904Y-820042D01*
G01X6941619Y-824928D01*
G01X6945072Y-827020D01*
G01X6948525Y-829112D01*
G01X6949333Y-829920D01*
G01X6950141Y-830728D01*
G01X6950735Y-833096D01*
G01X6894270Y-969377D01*
G01X6893457Y-970281D01*
G01X6892644Y-971186D01*
G01X6890629Y-971186D01*
G01X6876067Y-963436D01*
G01X6861505Y-955686D01*
G01X6858235Y-955686D01*
G01X6853953Y-958598D01*
G01X6849672Y-961510D01*
G01X6822294Y-980231D01*
G01X6794917Y-998952D01*
G37*
G36*
G01X6679917Y-1283244D02*
G01X6662936Y-1283244D01*
G01X6662936Y-1107310D01*
G01X6679987Y-1107310D01*
G01X6680980Y-1120240D01*
G01X6682733Y-1125406D01*
G01X6684303Y-1127990D01*
G01X6686956Y-1130926D01*
G01X6691088Y-1133083D01*
G01X6695530Y-1133308D01*
G01X6695530Y-1133308D01*
G01X6699972Y-1133533D01*
G01X6705920Y-1131804D01*
G01X6710912Y-1126811D01*
G01X6712106Y-1123009D01*
G01X6713300Y-1119207D01*
G01X6713300Y-1095957D01*
G01X6712153Y-1092310D01*
G01X6711006Y-1088662D01*
G01X6708055Y-1084591D01*
G01X6705316Y-1083101D01*
G01X6702577Y-1081612D01*
G01X6693671Y-1081199D01*
G01X6688373Y-1083098D01*
G01X6685644Y-1084886D01*
G01X6684100Y-1087019D01*
G01X6682555Y-1089151D01*
G01X6680983Y-1094407D01*
G01X6679987Y-1107310D01*
G01X6662936Y-1107310D01*
G01X6662936Y-1065216D01*
G01X6679983Y-1065216D01*
G01X6679983Y-1073483D01*
G01X6680606Y-1073483D01*
G01X6683179Y-1071169D01*
G01X6685752Y-1068854D01*
G01X6689078Y-1067217D01*
G01X6692403Y-1065580D01*
G01X6695103Y-1064891D01*
G01X6697804Y-1064202D01*
G01X6703228Y-1064397D01*
G01X6708651Y-1064591D01*
G01X6715382Y-1067067D01*
G01X6718345Y-1069034D01*
G01X6721309Y-1071001D01*
G01X6725555Y-1075808D01*
G01X6728522Y-1080974D01*
G01X6730347Y-1088724D01*
G01X6730347Y-1125923D01*
G01X6729428Y-1129834D01*
G01X6728510Y-1133746D01*
G01X6726587Y-1136999D01*
G01X6724665Y-1140252D01*
G01X6721545Y-1143162D01*
G01X6718425Y-1146073D01*
G01X6715824Y-1147476D01*
G01X6713223Y-1148880D01*
G01X6707102Y-1150496D01*
G01X6702620Y-1150528D01*
G01X6698138Y-1150559D01*
G01X6695157Y-1149693D01*
G01X6692176Y-1148826D01*
G01X6689207Y-1147327D01*
G01X6686239Y-1145828D01*
G01X6683376Y-1143496D01*
G01X6680514Y-1141164D01*
G01X6679983Y-1141164D01*
G01X6679983Y-1207379D01*
G01X6685923Y-1202069D01*
G01X6689022Y-1200616D01*
G01X6692122Y-1199163D01*
G01X6696771Y-1198049D01*
G01X6700128Y-1197718D01*
G01X6703486Y-1197387D01*
G01X6707342Y-1198204D01*
G01X6711198Y-1199020D01*
G01X6718796Y-1202629D01*
G01X6725355Y-1208928D01*
G01X6727193Y-1212428D01*
G01X6729032Y-1215927D01*
G01X6729811Y-1219232D01*
G01X6730590Y-1222537D01*
G01X6730598Y-1252891D01*
G01X6730605Y-1283244D01*
G01X6713593Y-1283244D01*
G01X6713300Y-1227704D01*
G01X6711958Y-1224679D01*
G01X6710615Y-1221653D01*
G01X6708600Y-1219562D01*
G01X6706585Y-1217471D01*
G01X6701220Y-1214997D01*
G01X6697634Y-1214985D01*
G01X6694048Y-1214974D01*
G01X6692044Y-1215514D01*
G01X6690039Y-1216053D01*
G01X6687661Y-1217562D01*
G01X6685284Y-1219070D01*
G01X6683886Y-1220902D01*
G01X6682489Y-1222734D01*
G01X6681371Y-1225477D01*
G01X6680253Y-1228220D01*
G01X6680085Y-1255732D01*
G01X6679917Y-1283244D01*
G37*
G36*
G01X7049232Y-1283243D02*
G01X7041653Y-1283244D01*
G01X7041120Y-1281565D01*
G01X7040587Y-1279886D01*
G01X7033564Y-1256378D01*
G01X7026541Y-1232870D01*
G01X7023944Y-1224239D01*
G01X7023494Y-1224690D01*
G01X7014786Y-1253838D01*
G01X7006078Y-1282985D01*
G01X6990724Y-1282985D01*
G01X6977412Y-1241395D01*
G01X6964100Y-1199804D01*
G01X6964089Y-1198513D01*
G01X6981991Y-1198513D01*
G01X6997834Y-1256636D01*
G01X6998481Y-1257926D01*
G01X7008053Y-1228349D01*
G01X7017626Y-1198771D01*
G01X7030101Y-1198482D01*
G01X7034587Y-1212318D01*
G01X7039073Y-1226154D01*
G01X7044283Y-1242170D01*
G01X7049493Y-1258186D01*
G01X7049912Y-1256636D01*
G01X7050332Y-1255086D01*
G01X7065713Y-1198995D01*
G01X7065967Y-1198742D01*
G01X7066221Y-1198488D01*
G01X7075024Y-1198629D01*
G01X7083827Y-1198771D01*
G01X7070319Y-1241007D01*
G01X7056812Y-1283243D01*
G01X7049232Y-1283243D01*
G37*
G36*
G01X6921893Y-1283557D02*
G01X6918374Y-1284387D01*
G01X6913725Y-1284121D01*
G01X6909076Y-1283854D01*
G01X6905584Y-1282537D01*
G01X6902092Y-1281219D01*
G01X6899862Y-1279686D01*
G01X6897633Y-1278151D01*
G01X6894752Y-1275039D01*
G01X6891871Y-1271927D01*
G01X6890527Y-1269177D01*
G01X6889182Y-1266428D01*
G01X6888289Y-1262565D01*
G01X6887397Y-1258703D01*
G01X6887422Y-1240362D01*
G01X6887428Y-1235970D01*
G01X6904031Y-1235970D01*
G01X6904638Y-1252503D01*
G01X6905358Y-1255086D01*
G01X6906077Y-1257670D01*
G01X6907142Y-1259736D01*
G01X6908207Y-1261803D01*
G01X6909674Y-1263196D01*
G01X6911142Y-1264589D01*
G01X6913725Y-1265766D01*
G01X6916308Y-1266944D01*
G01X6916308Y-1266944D01*
G01X6926122Y-1266963D01*
G01X6928630Y-1265685D01*
G01X6931137Y-1264408D01*
G01X6933670Y-1261397D01*
G01X6936067Y-1256636D01*
G01X6936686Y-1253795D01*
G01X6937305Y-1250953D01*
G01X6937889Y-1236990D01*
G01X6937294Y-1231949D01*
G01X6936700Y-1226908D01*
G01X6935745Y-1224396D01*
G01X6934791Y-1221884D01*
G01X6933429Y-1220098D01*
G01X6932067Y-1218312D01*
G01X6926784Y-1215436D01*
G01X6923871Y-1215104D01*
G01X6920957Y-1214771D01*
G01X6917780Y-1215130D01*
G01X6914604Y-1215488D01*
G01X6910467Y-1217599D01*
G01X6908857Y-1219551D01*
G01X6907247Y-1221504D01*
G01X6906250Y-1224166D01*
G01X6905253Y-1226829D01*
G01X6904642Y-1231400D01*
G01X6904031Y-1235970D01*
G01X6887428Y-1235970D01*
G01X6887447Y-1222021D01*
G01X6888576Y-1217932D01*
G01X6889706Y-1213843D01*
G01X6891090Y-1211481D01*
G01X6892474Y-1209119D01*
G01X6894768Y-1206666D01*
G01X6897062Y-1204213D01*
G01X6899767Y-1202417D01*
G01X6902473Y-1200621D01*
G01X6910626Y-1197853D01*
G01X6915791Y-1197844D01*
G01X6920957Y-1197835D01*
G01X6924256Y-1198978D01*
G01X6927555Y-1200121D01*
G01X6933354Y-1203827D01*
G01X6935550Y-1205624D01*
G01X6937745Y-1207420D01*
G01X6937745Y-1164414D01*
G01X6954791Y-1164414D01*
G01X6954791Y-1283244D01*
G01X6937745Y-1283244D01*
G01X6937745Y-1274949D01*
G01X6934435Y-1277486D01*
G01X6931124Y-1280024D01*
G01X6925411Y-1282727D01*
G01X6921893Y-1283557D01*
G37*
G36*
G01X6982549Y-1150402D02*
G01X6977778Y-1150790D01*
G01X6972489Y-1150354D01*
G01X6967200Y-1149917D01*
G01X6962787Y-1148638D01*
G01X6958374Y-1147359D01*
G01X6950401Y-1143319D01*
G01X6947237Y-1141079D01*
G01X6944073Y-1138839D01*
G01X6942156Y-1137137D01*
G01X6940238Y-1135434D01*
G01X6946035Y-1129904D01*
G01X6951832Y-1124373D01*
G01X6952727Y-1124028D01*
G01X6955171Y-1126180D01*
G01X6957615Y-1128332D01*
G01X6960723Y-1130056D01*
G01X6963831Y-1131780D01*
G01X6967705Y-1132985D01*
G01X6971580Y-1134190D01*
G01X6986043Y-1134190D01*
G01X6988619Y-1133002D01*
G01X6991196Y-1131814D01*
G01X6992415Y-1130677D01*
G01X6993634Y-1129540D01*
G01X6994617Y-1127623D01*
G01X6995599Y-1125706D01*
G01X6995599Y-1121946D01*
G01X6994771Y-1120201D01*
G01X6993943Y-1118456D01*
G01X6988626Y-1115892D01*
G01X6970030Y-1114259D01*
G01X6965897Y-1113467D01*
G01X6961765Y-1112674D01*
G01X6958506Y-1111076D01*
G01X6955247Y-1109477D01*
G01X6952533Y-1106805D01*
G01X6949818Y-1104133D01*
G01X6948616Y-1101595D01*
G01X6947414Y-1099057D01*
G01X6946718Y-1096474D01*
G01X6946022Y-1093891D01*
G01X6946016Y-1089995D01*
G01X6946010Y-1086100D01*
G01X6946782Y-1083134D01*
G01X6947555Y-1080168D01*
G01X6948627Y-1078066D01*
G01X6949699Y-1075963D01*
G01X6951858Y-1073609D01*
G01X6954017Y-1071254D01*
G01X6956599Y-1069604D01*
G01X6959182Y-1067954D01*
G01X6962281Y-1066793D01*
G01X6965381Y-1065632D01*
G01X6971580Y-1064265D01*
G01X6977581Y-1064224D01*
G01X6983583Y-1064183D01*
G01X6987996Y-1064953D01*
G01X6992409Y-1065723D01*
G01X6996200Y-1067082D01*
G01X6999990Y-1068442D01*
G01X7002315Y-1069764D01*
G01X7004639Y-1071085D01*
G01X7007609Y-1073134D01*
G01X7010580Y-1075183D01*
G01X7010580Y-1075974D01*
G01X7005614Y-1081832D01*
G01X7000649Y-1087691D01*
G01X7000341Y-1088029D01*
G01X6996291Y-1085651D01*
G01X6992242Y-1083273D01*
G01X6988109Y-1081905D01*
G01X6983977Y-1080537D01*
G01X6971580Y-1080458D01*
G01X6967964Y-1081930D01*
G01X6966483Y-1082951D01*
G01X6965002Y-1083972D01*
G01X6963079Y-1088207D01*
G01X6963068Y-1090464D01*
G01X6963056Y-1092721D01*
G01X6966954Y-1096619D01*
G01X6969008Y-1097203D01*
G01X6971063Y-1097787D01*
G01X6981911Y-1098774D01*
G01X6987908Y-1099306D01*
G01X6993905Y-1099838D01*
G01X6996906Y-1100871D01*
G01X6999908Y-1101904D01*
G01X7002033Y-1103149D01*
G01X7004158Y-1104395D01*
G01X7006631Y-1107039D01*
G01X7009103Y-1109682D01*
G01X7010081Y-1111894D01*
G01X7011059Y-1114105D01*
G01X7012646Y-1120199D01*
G01X7012646Y-1128656D01*
G01X7011612Y-1132005D01*
G01X7010577Y-1135354D01*
G01X7006410Y-1140981D01*
G01X7003975Y-1142830D01*
G01X7001540Y-1144678D01*
G01X6998440Y-1146246D01*
G01X6995341Y-1147814D01*
G01X6991331Y-1148914D01*
G01X6987320Y-1150014D01*
G01X6982549Y-1150402D01*
G37*
G36*
G01X7065807Y-1149999D02*
G01X7061413Y-1150384D01*
G01X7057019Y-1150769D01*
G01X7048743Y-1149969D01*
G01X7046282Y-1149238D01*
G01X7043822Y-1148507D01*
G01X7041019Y-1147093D01*
G01X7038215Y-1145679D01*
G01X7035706Y-1143689D01*
G01X7033196Y-1141699D01*
G01X7031256Y-1139494D01*
G01X7029316Y-1137289D01*
G01X7026040Y-1132123D01*
G01X7023577Y-1124325D01*
G01X7022325Y-1113551D01*
G01X7022355Y-1112496D01*
G01X7039376Y-1112496D01*
G01X7039991Y-1117112D01*
G01X7040605Y-1121729D01*
G01X7041961Y-1124500D01*
G01X7043318Y-1127271D01*
G01X7047338Y-1130904D01*
G01X7049750Y-1132013D01*
G01X7052162Y-1133122D01*
G01X7052162Y-1133122D01*
G01X7063010Y-1133156D01*
G01X7068505Y-1130112D01*
G01X7071687Y-1126487D01*
G01X7072888Y-1123864D01*
G01X7074088Y-1121241D01*
G01X7074609Y-1117641D01*
G01X7075129Y-1114040D01*
G01X7075129Y-1100090D01*
G01X7074614Y-1096531D01*
G01X7074100Y-1092972D01*
G01X7072472Y-1089917D01*
G01X7070845Y-1086863D01*
G01X7069252Y-1085515D01*
G01X7067659Y-1084167D01*
G01X7064919Y-1082908D01*
G01X7062179Y-1081648D01*
G01X7058204Y-1081441D01*
G01X7054229Y-1081234D01*
G01X7052052Y-1081948D01*
G01X7049875Y-1082662D01*
G01X7047491Y-1084060D01*
G01X7045107Y-1085457D01*
G01X7043120Y-1088532D01*
G01X7041133Y-1091607D01*
G01X7039912Y-1096990D01*
G01X7039644Y-1104743D01*
G01X7039376Y-1112496D01*
G01X7022355Y-1112496D01*
G01X7022612Y-1103462D01*
G01X7022898Y-1093374D01*
G01X7023981Y-1089035D01*
G01X7025064Y-1084696D01*
G01X7026730Y-1081544D01*
G01X7028396Y-1078391D01*
G01X7032531Y-1074229D01*
G01X7036666Y-1070066D01*
G01X7043898Y-1066354D01*
G01X7050096Y-1064733D01*
G01X7051129Y-1064518D01*
G01X7052162Y-1064303D01*
G01X7057226Y-1064243D01*
G01X7062290Y-1064183D01*
G01X7066008Y-1065008D01*
G01X7069726Y-1065833D01*
G01X7077474Y-1069486D01*
G01X7081902Y-1073948D01*
G01X7086331Y-1078410D01*
G01X7087969Y-1081759D01*
G01X7089607Y-1085107D01*
G01X7091783Y-1093374D01*
G01X7092058Y-1104059D01*
G01X7092332Y-1114744D01*
G01X7091705Y-1119817D01*
G01X7091077Y-1124890D01*
G01X7089819Y-1128676D01*
G01X7088560Y-1132462D01*
G01X7086774Y-1135255D01*
G01X7084987Y-1138049D01*
G01X7081943Y-1141027D01*
G01X7078900Y-1144006D01*
G01X7076035Y-1145722D01*
G01X7073170Y-1147437D01*
G01X7069489Y-1148718D01*
G01X7065807Y-1149999D01*
G37*
G36*
G01X6785262Y-1150526D02*
G01X6774077Y-1150526D01*
G01X6772099Y-1150184D01*
G01X6770122Y-1149841D01*
G01X6764440Y-1148264D01*
G01X6761179Y-1146683D01*
G01X6757919Y-1145102D01*
G01X6751369Y-1139099D01*
G01X6749393Y-1136128D01*
G01X6747417Y-1133156D01*
G01X6744063Y-1124242D01*
G01X6743262Y-1119658D01*
G01X6742461Y-1115073D01*
G01X6742458Y-1100090D01*
G01X6742503Y-1099832D01*
G01X6759532Y-1099832D01*
G01X6795077Y-1099832D01*
G01X6794823Y-1097636D01*
G01X6794569Y-1095440D01*
G01X6793843Y-1092789D01*
G01X6793115Y-1090138D01*
G01X6791399Y-1087623D01*
G01X6789682Y-1085107D01*
G01X6784741Y-1081759D01*
G01X6782116Y-1080979D01*
G01X6779491Y-1080199D01*
G01X6774254Y-1080233D01*
G01X6771568Y-1081161D01*
G01X6768882Y-1082090D01*
G01X6764706Y-1084984D01*
G01X6763140Y-1087349D01*
G01X6761574Y-1089713D01*
G01X6760553Y-1093019D01*
G01X6759532Y-1096324D01*
G01X6759532Y-1099832D01*
G01X6759532Y-1099832D01*
G01X6742503Y-1099832D01*
G01X6743258Y-1095520D01*
G01X6744058Y-1090949D01*
G01X6745125Y-1087770D01*
G01X6746191Y-1084591D01*
G01X6748080Y-1080974D01*
G01X6749970Y-1077358D01*
G01X6753589Y-1073715D01*
G01X6757208Y-1070073D01*
G01X6760935Y-1068142D01*
G01X6764662Y-1066212D01*
G01X6768425Y-1065196D01*
G01X6772188Y-1064180D01*
G01X6784585Y-1064531D01*
G01X6788713Y-1065945D01*
G01X6792840Y-1067359D01*
G01X6795911Y-1069225D01*
G01X6798981Y-1071090D01*
G01X6801890Y-1074000D01*
G01X6804799Y-1076909D01*
G01X6806726Y-1080081D01*
G01X6808652Y-1083253D01*
G01X6809896Y-1086815D01*
G01X6811141Y-1090377D01*
G01X6812213Y-1096990D01*
G01X6812221Y-1113782D01*
G01X6759532Y-1113782D01*
G01X6759539Y-1115977D01*
G01X6759545Y-1118173D01*
G01X6760233Y-1120757D01*
G01X6760921Y-1123340D01*
G01X6761736Y-1124915D01*
G01X6762551Y-1126490D01*
G01X6764705Y-1128710D01*
G01X6766859Y-1130930D01*
G01X6773659Y-1134112D01*
G01X6777758Y-1134350D01*
G01X6781857Y-1134587D01*
G01X6784771Y-1133939D01*
G01X6787685Y-1133290D01*
G01X6790670Y-1131787D01*
G01X6793656Y-1130284D01*
G01X6795640Y-1128491D01*
G01X6797625Y-1126698D01*
G01X6798079Y-1126701D01*
G01X6798532Y-1126703D01*
G01X6803440Y-1130881D01*
G01X6808347Y-1135058D01*
G01X6809362Y-1136041D01*
G01X6810377Y-1137024D01*
G01X6808071Y-1139402D01*
G01X6805764Y-1141779D01*
G01X6802755Y-1143842D01*
G01X6799746Y-1145905D01*
G01X6796865Y-1147180D01*
G01X6793984Y-1148454D01*
G01X6789623Y-1149490D01*
G01X6785262Y-1150526D01*
G37*
G36*
G01X7371579Y-1148985D02*
G01X7367874Y-1149758D01*
G01X7364169Y-1150530D01*
G01X7352718Y-1150517D01*
G01X7348885Y-1149669D01*
G01X7345051Y-1148821D01*
G01X7340660Y-1146731D01*
G01X7336269Y-1144641D01*
G01X7329023Y-1137289D01*
G01X7326857Y-1133121D01*
G01X7324692Y-1128953D01*
G01X7323293Y-1123821D01*
G01X7321894Y-1118690D01*
G01X7321850Y-1108357D01*
G01X7321808Y-1098472D01*
G01X7338594Y-1098472D01*
G01X7338594Y-1099832D01*
G01X7374300Y-1099832D01*
G01X7373968Y-1097378D01*
G01X7373636Y-1094924D01*
G01X7372547Y-1091307D01*
G01X7370614Y-1087461D01*
G01X7367463Y-1083872D01*
G01X7365249Y-1082634D01*
G01X7363035Y-1081396D01*
G01X7360658Y-1080798D01*
G01X7358282Y-1080199D01*
G01X7355799Y-1080234D01*
G01X7353316Y-1080268D01*
G01X7351250Y-1080922D01*
G01X7349183Y-1081576D01*
G01X7346084Y-1083200D01*
G01X7344184Y-1085107D01*
G01X7342285Y-1087013D01*
G01X7340995Y-1089738D01*
G01X7339704Y-1092464D01*
G01X7339149Y-1095468D01*
G01X7339149Y-1095468D01*
G01X7338594Y-1098472D01*
G01X7321808Y-1098472D01*
G01X7321806Y-1098024D01*
G01X7323238Y-1090791D01*
G01X7326287Y-1082286D01*
G01X7328375Y-1079055D01*
G01X7330463Y-1075823D01*
G01X7336663Y-1069849D01*
G01X7340857Y-1067778D01*
G01X7345051Y-1065708D01*
G01X7348408Y-1064986D01*
G01X7351766Y-1064265D01*
G01X7356261Y-1064224D01*
G01X7360755Y-1064183D01*
G01X7363492Y-1064739D01*
G01X7366230Y-1065294D01*
G01X7369680Y-1066578D01*
G01X7373130Y-1067862D01*
G01X7376699Y-1070369D01*
G01X7380267Y-1072875D01*
G01X7382460Y-1075366D01*
G01X7384652Y-1077857D01*
G01X7386486Y-1081138D01*
G01X7388321Y-1084419D01*
G01X7390928Y-1092341D01*
G01X7391400Y-1113782D01*
G01X7338594Y-1113782D01*
G01X7338594Y-1116175D01*
G01X7339157Y-1119220D01*
G01X7339720Y-1122265D01*
G01X7340913Y-1124611D01*
G01X7342107Y-1126956D01*
G01X7344095Y-1128964D01*
G01X7346084Y-1130973D01*
G01X7349442Y-1132581D01*
G01X7352799Y-1134190D01*
G01X7364680Y-1134190D01*
G01X7368289Y-1132481D01*
G01X7371897Y-1130772D01*
G01X7377394Y-1126620D01*
G01X7379144Y-1127986D01*
G01X7384309Y-1132345D01*
G01X7389475Y-1136704D01*
G01X7389733Y-1136921D01*
G01X7389992Y-1137138D01*
G01X7386658Y-1140139D01*
G01X7383325Y-1143140D01*
G01X7380603Y-1144789D01*
G01X7377882Y-1146439D01*
G01X7374731Y-1147712D01*
G01X7371579Y-1148985D01*
G37*
G36*
G01X6625723Y-1148934D02*
G01X6622303Y-1149727D01*
G01X6618883Y-1150520D01*
G01X6613661Y-1150516D01*
G01X6608439Y-1150512D01*
G01X6605856Y-1149991D01*
G01X6603274Y-1149470D01*
G01X6601719Y-1149006D01*
G01X6600165Y-1148541D01*
G01X6597328Y-1147117D01*
G01X6594492Y-1145692D01*
G01X6589928Y-1141986D01*
G01X6587819Y-1139715D01*
G01X6585711Y-1137443D01*
G01X6584015Y-1134783D01*
G01X6582319Y-1132123D01*
G01X6581086Y-1128224D01*
G01X6579854Y-1124325D01*
G01X6578600Y-1113540D01*
G01X6578896Y-1103716D01*
G01X6579099Y-1096990D01*
G01X6596044Y-1096990D01*
G01X6596049Y-1107582D01*
G01X6596055Y-1118173D01*
G01X6596984Y-1121273D01*
G01X6597914Y-1124373D01*
G01X6599690Y-1126821D01*
G01X6601467Y-1129269D01*
G01X6603477Y-1130538D01*
G01X6605487Y-1131807D01*
G01X6608139Y-1132675D01*
G01X6608139Y-1132675D01*
G01X6610792Y-1133543D01*
G01X6615039Y-1133309D01*
G01X6619287Y-1133074D01*
G01X6621870Y-1131741D01*
G01X6624452Y-1130407D01*
G01X6626103Y-1128682D01*
G01X6627754Y-1126956D01*
G01X6629050Y-1124115D01*
G01X6630347Y-1121273D01*
G01X6631552Y-1113523D01*
G01X6631287Y-1104482D01*
G01X6631022Y-1095440D01*
G01X6630132Y-1092788D01*
G01X6629241Y-1090135D01*
G01X6627344Y-1087621D01*
G01X6625447Y-1085107D01*
G01X6618698Y-1081664D01*
G01X6614602Y-1081449D01*
G01X6610505Y-1081234D01*
G01X6608329Y-1081948D01*
G01X6606152Y-1082662D01*
G01X6603794Y-1084045D01*
G01X6601436Y-1085427D01*
G01X6597920Y-1090791D01*
G01X6596982Y-1093891D01*
G01X6596044Y-1096990D01*
G01X6579099Y-1096990D01*
G01X6579193Y-1093891D01*
G01X6580036Y-1090016D01*
G01X6580879Y-1086141D01*
G01X6582708Y-1082313D01*
G01X6584537Y-1078486D01*
G01X6588740Y-1074276D01*
G01X6592942Y-1070066D01*
G01X6596558Y-1068210D01*
G01X6600174Y-1066354D01*
G01X6603274Y-1065543D01*
G01X6606373Y-1064733D01*
G01X6608439Y-1064239D01*
G01X6615154Y-1064407D01*
G01X6621870Y-1064576D01*
G01X6629447Y-1067210D01*
G01X6632292Y-1068926D01*
G01X6635137Y-1070641D01*
G01X6638919Y-1074593D01*
G01X6642701Y-1078545D01*
G01X6644507Y-1082343D01*
G01X6646313Y-1086141D01*
G01X6647264Y-1090274D01*
G01X6648214Y-1094407D01*
G01X6648181Y-1108099D01*
G01X6648149Y-1121790D01*
G01X6645924Y-1129831D01*
G01X6644948Y-1132010D01*
G01X6643972Y-1134190D01*
G01X6641547Y-1137395D01*
G01X6639123Y-1140600D01*
G01X6635826Y-1143223D01*
G01X6632530Y-1145847D01*
G01X6629127Y-1147390D01*
G01X6625723Y-1148934D01*
G37*
G36*
G01X7266792Y-1283984D02*
G01X7259302Y-1283991D01*
G01X7255945Y-1283087D01*
G01X7252587Y-1282183D01*
G01X7248971Y-1280459D01*
G01X7245355Y-1278735D01*
G01X7242604Y-1276523D01*
G01X7239852Y-1274310D01*
G01X7237323Y-1270708D01*
G01X7234794Y-1267105D01*
G01X7233213Y-1263005D01*
G01X7231632Y-1258905D01*
G01X7229859Y-1250953D01*
G01X7229911Y-1233128D01*
G01X7246529Y-1233128D01*
G01X7282380Y-1233128D01*
G01X7282041Y-1230933D01*
G01X7281703Y-1228737D01*
G01X7280983Y-1226144D01*
G01X7280263Y-1223550D01*
G01X7278666Y-1221138D01*
G01X7277068Y-1218726D01*
G01X7274384Y-1216945D01*
G01X7271700Y-1215164D01*
G01X7269633Y-1214591D01*
G01X7267567Y-1214018D01*
G01X7263951Y-1214062D01*
G01X7260335Y-1214106D01*
G01X7257096Y-1215045D01*
G01X7254618Y-1216724D01*
G01X7252140Y-1218404D01*
G01X7250432Y-1220906D01*
G01X7248724Y-1223408D01*
G01X7247979Y-1225918D01*
G01X7247234Y-1228427D01*
G01X7246529Y-1233128D01*
G01X7246529Y-1233128D01*
G01X7229911Y-1233128D01*
G01X7229919Y-1230287D01*
G01X7231094Y-1225637D01*
G01X7232269Y-1220987D01*
G01X7234565Y-1216203D01*
G01X7236860Y-1211419D01*
G01X7240153Y-1207936D01*
G01X7243447Y-1204454D01*
G01X7246342Y-1202709D01*
G01X7249238Y-1200965D01*
G01X7255930Y-1198535D01*
G01X7259166Y-1198044D01*
G01X7262402Y-1197552D01*
G01X7270667Y-1198063D01*
G01X7273766Y-1198839D01*
G01X7276865Y-1199615D01*
G01X7280618Y-1201454D01*
G01X7284371Y-1203293D01*
G01X7287932Y-1206591D01*
G01X7291493Y-1209889D01*
G01X7293294Y-1212602D01*
G01X7295094Y-1215315D01*
G01X7296435Y-1218615D01*
G01X7297776Y-1221915D01*
G01X7298556Y-1225692D01*
G01X7299336Y-1229468D01*
G01X7299336Y-1247595D01*
G01X7246528Y-1247595D01*
G01X7246889Y-1250491D01*
G01X7247251Y-1253386D01*
G01X7248004Y-1255924D01*
G01X7248758Y-1258461D01*
G01X7253104Y-1263782D01*
G01X7259344Y-1267202D01*
G01X7263406Y-1267806D01*
G01X7267468Y-1268410D01*
G01X7274282Y-1267156D01*
G01X7277418Y-1265660D01*
G01X7280553Y-1264164D01*
G01X7282949Y-1262054D01*
G01X7285345Y-1259944D01*
G01X7291307Y-1265007D01*
G01X7297269Y-1270069D01*
G01X7297269Y-1271269D01*
G01X7293865Y-1274389D01*
G01X7290460Y-1277510D01*
G01X7285729Y-1279833D01*
G01X7280998Y-1282157D01*
G01X7277640Y-1283067D01*
G01X7274282Y-1283976D01*
G01X7266792Y-1283984D01*
G37*
G36*
G01X6772554Y-1284273D02*
G01X6768270Y-1284277D01*
G01X6764289Y-1283464D01*
G01X6760307Y-1282652D01*
G01X6756546Y-1280854D01*
G01X6752786Y-1279057D01*
G01X6747189Y-1273459D01*
G01X6745382Y-1269697D01*
G01X6743576Y-1265936D01*
G01X6742593Y-1259829D01*
G01X6758904Y-1259829D01*
G01X6759782Y-1261527D01*
G01X6760659Y-1263225D01*
G01X6763407Y-1265656D01*
G01X6763407Y-1265656D01*
G01X6766248Y-1266810D01*
G01X6769089Y-1267964D01*
G01X6776579Y-1267954D01*
G01X6784069Y-1267945D01*
G01X6788718Y-1266604D01*
G01X6792440Y-1262694D01*
G01X6793033Y-1260340D01*
G01X6793625Y-1257987D01*
G01X6793625Y-1247595D01*
G01X6781357Y-1247647D01*
G01X6769089Y-1247699D01*
G01X6767135Y-1248159D01*
G01X6765181Y-1248619D01*
G01X6763675Y-1249398D01*
G01X6762169Y-1250177D01*
G01X6760751Y-1252036D01*
G01X6759333Y-1253896D01*
G01X6759118Y-1256862D01*
G01X6758904Y-1259829D01*
G01X6742593Y-1259829D01*
G01X6742412Y-1258703D01*
G01X6742736Y-1255861D01*
G01X6743059Y-1253020D01*
G01X6745120Y-1246662D01*
G01X6748270Y-1241905D01*
G01X6750414Y-1240054D01*
G01X6752559Y-1238202D01*
G01X6758306Y-1235278D01*
G01X6761373Y-1234411D01*
G01X6764440Y-1233543D01*
G01X6779033Y-1233274D01*
G01X6793625Y-1233004D01*
G01X6793625Y-1221829D01*
G01X6793076Y-1220375D01*
G01X6792526Y-1218921D01*
G01X6789777Y-1216038D01*
G01X6786283Y-1214977D01*
G01X6782789Y-1213915D01*
G01X6768056Y-1214294D01*
G01X6765904Y-1215433D01*
G01X6763752Y-1216572D01*
G01X6762019Y-1218410D01*
G01X6760285Y-1220247D01*
G01X6753710Y-1215242D01*
G01X6747135Y-1210238D01*
G01X6747135Y-1209533D01*
G01X6749589Y-1207043D01*
G01X6752042Y-1204553D01*
G01X6757208Y-1201152D01*
G01X6761216Y-1199818D01*
G01X6765224Y-1198484D01*
G01X6768964Y-1198014D01*
G01X6772705Y-1197543D01*
G01X6778645Y-1197780D01*
G01X6784585Y-1198017D01*
G01X6789336Y-1198994D01*
G01X6794087Y-1199971D01*
G01X6797572Y-1201687D01*
G01X6801057Y-1203403D01*
G01X6806583Y-1208799D01*
G01X6808049Y-1212051D01*
G01X6809515Y-1215304D01*
G01X6810816Y-1220471D01*
G01X6811041Y-1251857D01*
G01X6811265Y-1283244D01*
G01X6793625Y-1283244D01*
G01X6793625Y-1276034D01*
G01X6791558Y-1278277D01*
G01X6789490Y-1280521D01*
G01X6786521Y-1281852D01*
G01X6783552Y-1283182D01*
G01X6780195Y-1283726D01*
G01X6776837Y-1284269D01*
G01X6772554Y-1284273D01*
G37*
G36*
G01X7291329Y-1150512D02*
G01X7280933Y-1150520D01*
G01X7273249Y-1148797D01*
G01X7269633Y-1147125D01*
G01X7266018Y-1145453D01*
G01X7263176Y-1143308D01*
G01X7260335Y-1141163D01*
G01X7257885Y-1138206D01*
G01X7255434Y-1135248D01*
G01X7251940Y-1128506D01*
G01X7250876Y-1125148D01*
G01X7249812Y-1121790D01*
G01X7249144Y-1118690D01*
G01X7248475Y-1115590D01*
G01X7248475Y-1099057D01*
G01X7249812Y-1092857D01*
G01X7250876Y-1089499D01*
G01X7251940Y-1086141D01*
G01X7253708Y-1082730D01*
G01X7255476Y-1079319D01*
G01X7260839Y-1073300D01*
G01X7263796Y-1071123D01*
G01X7266753Y-1068946D01*
G01X7274282Y-1065814D01*
G01X7281514Y-1064267D01*
G01X7286422Y-1064234D01*
G01X7291329Y-1064201D01*
G01X7294719Y-1064920D01*
G01X7298109Y-1065639D01*
G01X7301434Y-1067035D01*
G01X7304759Y-1068432D01*
G01X7308117Y-1070681D01*
G01X7311475Y-1072930D01*
G01X7314316Y-1075828D01*
G01X7317157Y-1078725D01*
G01X7314540Y-1081141D01*
G01X7311923Y-1083557D01*
G01X7308283Y-1086777D01*
G01X7304643Y-1089996D01*
G01X7303668Y-1088894D01*
G01X7302693Y-1087791D01*
G01X7296654Y-1083310D01*
G01X7293291Y-1082271D01*
G01X7289929Y-1081233D01*
G01X7283539Y-1081233D01*
G01X7280466Y-1082033D01*
G01X7277392Y-1082834D01*
G01X7274935Y-1084411D01*
G01X7272478Y-1085988D01*
G01X7269513Y-1089757D01*
G01X7268406Y-1091942D01*
G01X7267299Y-1094127D01*
G01X7265582Y-1101124D01*
G01X7265582Y-1114040D01*
G01X7267299Y-1121037D01*
G01X7268374Y-1123144D01*
G01X7269449Y-1125251D01*
G01X7271458Y-1127432D01*
G01X7273468Y-1129612D01*
G01X7275941Y-1130943D01*
G01X7278415Y-1132274D01*
G01X7281322Y-1132913D01*
G01X7284229Y-1133551D01*
G01X7292990Y-1133091D01*
G01X7298889Y-1130204D01*
G01X7304723Y-1124773D01*
G01X7316898Y-1135710D01*
G01X7316898Y-1136332D01*
G01X7314187Y-1139043D01*
G01X7311475Y-1141754D01*
G01X7304388Y-1146485D01*
G01X7300553Y-1147975D01*
G01X7296718Y-1149464D01*
G01X7291329Y-1150512D01*
G37*
G36*
G01X7115032Y-1284273D02*
G01X7110748Y-1284277D01*
G01X7106767Y-1283483D01*
G01X7102785Y-1282689D01*
G01X7099028Y-1280866D01*
G01X7095272Y-1279042D01*
G01X7092445Y-1276282D01*
G01X7089618Y-1273522D01*
G01X7086081Y-1266141D01*
G01X7084809Y-1258703D01*
G01X7085306Y-1255242D01*
G01X7101494Y-1255242D01*
G01X7101494Y-1260097D01*
G01X7102307Y-1261810D01*
G01X7103120Y-1263523D01*
G01X7105019Y-1264838D01*
G01X7106918Y-1266152D01*
G01X7106918Y-1266152D01*
G01X7109242Y-1267049D01*
G01X7111567Y-1267945D01*
G01X7126547Y-1267945D01*
G01X7128675Y-1267326D01*
G01X7130803Y-1266707D01*
G01X7133549Y-1264547D01*
G01X7135777Y-1260253D01*
G01X7136002Y-1253924D01*
G01X7136228Y-1247595D01*
G01X7123639Y-1247612D01*
G01X7111050Y-1247629D01*
G01X7108321Y-1248572D01*
G01X7105591Y-1249515D01*
G01X7104346Y-1250684D01*
G01X7103102Y-1251853D01*
G01X7102298Y-1253548D01*
G01X7101494Y-1255242D01*
G01X7085306Y-1255242D01*
G01X7085397Y-1254608D01*
G01X7085985Y-1250513D01*
G01X7087519Y-1247233D01*
G01X7089054Y-1243954D01*
G01X7094612Y-1238394D01*
G01X7097698Y-1236836D01*
G01X7100784Y-1235278D01*
G01X7103851Y-1234411D01*
G01X7106918Y-1233543D01*
G01X7121510Y-1233274D01*
G01X7136103Y-1233004D01*
G01X7136103Y-1221729D01*
G01X7135395Y-1220067D01*
G01X7134687Y-1218404D01*
G01X7133458Y-1217284D01*
G01X7132229Y-1216164D01*
G01X7129017Y-1215088D01*
G01X7125805Y-1214012D01*
G01X7112529Y-1214012D01*
G01X7109882Y-1214799D01*
G01X7107235Y-1215585D01*
G01X7104931Y-1217889D01*
G01X7102628Y-1220193D01*
G01X7096121Y-1215231D01*
G01X7089613Y-1210270D01*
G01X7089613Y-1209457D01*
G01X7091843Y-1207162D01*
G01X7094073Y-1204867D01*
G01X7096880Y-1202969D01*
G01X7099686Y-1201071D01*
G01X7103792Y-1199768D01*
G01X7107898Y-1198465D01*
G01X7111540Y-1198003D01*
G01X7115183Y-1197542D01*
G01X7120946Y-1197769D01*
G01X7126709Y-1197995D01*
G01X7130761Y-1198767D01*
G01X7134812Y-1199539D01*
G01X7140494Y-1201789D01*
G01X7143214Y-1203565D01*
G01X7145935Y-1205341D01*
G01X7149066Y-1209104D01*
G01X7150537Y-1212204D01*
G01X7152008Y-1215304D01*
G01X7152579Y-1218042D01*
G01X7153150Y-1220780D01*
G01X7153150Y-1283244D01*
G01X7136103Y-1283244D01*
G01X7136103Y-1276034D01*
G01X7134036Y-1278277D01*
G01X7131968Y-1280521D01*
G01X7128999Y-1281852D01*
G01X7126030Y-1283182D01*
G01X7122673Y-1283726D01*
G01X7119315Y-1284269D01*
G01X7115032Y-1284273D01*
G37*
G36*
G01X6894336Y-1090274D02*
G01X6894345Y-1120111D01*
G01X6894354Y-1149947D01*
G01X6877308Y-1149947D01*
G01X6877297Y-1123727D01*
G01X6877286Y-1097507D01*
G01X6875975Y-1091251D01*
G01X6874542Y-1088807D01*
G01X6873110Y-1086362D01*
G01X6870689Y-1084585D01*
G01X6868268Y-1082808D01*
G01X6865427Y-1081964D01*
G01X6862586Y-1081120D01*
G01X6859220Y-1081357D01*
G01X6855854Y-1081594D01*
G01X6850995Y-1083744D01*
G01X6846377Y-1088496D01*
G01X6845183Y-1091451D01*
G01X6843990Y-1094407D01*
G01X6843836Y-1122177D01*
G01X6843682Y-1149947D01*
G01X6826685Y-1149947D01*
G01X6826685Y-1065216D01*
G01X6843731Y-1065216D01*
G01X6843731Y-1074149D01*
G01X6846489Y-1071541D01*
G01X6849247Y-1068932D01*
G01X6852446Y-1067317D01*
G01X6855645Y-1065702D01*
G01X6858599Y-1064954D01*
G01X6861553Y-1064207D01*
G01X6872400Y-1064562D01*
G01X6875834Y-1065839D01*
G01X6879267Y-1067116D01*
G01X6882583Y-1069483D01*
G01X6885899Y-1071849D01*
G01X6888039Y-1074624D01*
G01X6890179Y-1077398D01*
G01X6892840Y-1083212D01*
G01X6894336Y-1090274D01*
G37*
G36*
G01X7135328Y-1150506D02*
G01X7130679Y-1150511D01*
G01X7124707Y-1148919D01*
G01X7122546Y-1147816D01*
G01X7120384Y-1146713D01*
G01X7117615Y-1144622D01*
G01X7114845Y-1142531D01*
G01X7110320Y-1136187D01*
G01X7109288Y-1133779D01*
G01X7108256Y-1131371D01*
G01X7107458Y-1127506D01*
G01X7106659Y-1123642D01*
G01X7106659Y-1065216D01*
G01X7123706Y-1065216D01*
G01X7123726Y-1115073D01*
G01X7124241Y-1118634D01*
G01X7124756Y-1122195D01*
G01X7125730Y-1124398D01*
G01X7126704Y-1126601D01*
G01X7130997Y-1130768D01*
G01X7133400Y-1131931D01*
G01X7135802Y-1133094D01*
G01X7144110Y-1133515D01*
G01X7146957Y-1132440D01*
G01X7149804Y-1131366D01*
G01X7153830Y-1127473D01*
G01X7155427Y-1124115D01*
G01X7157024Y-1120757D01*
G01X7157170Y-1092987D01*
G01X7157316Y-1065216D01*
G01X7174328Y-1065216D01*
G01X7174328Y-1149947D01*
G01X7157282Y-1149947D01*
G01X7157282Y-1141084D01*
G01X7154602Y-1143429D01*
G01X7151922Y-1145774D01*
G01X7149007Y-1147328D01*
G01X7146092Y-1148882D01*
G01X7143035Y-1149691D01*
G01X7139977Y-1150501D01*
G01X7135328Y-1150506D01*
G37*
G36*
G01X7189275Y-1283244D02*
G01X7171740Y-1283244D01*
G01X7172004Y-1198771D01*
G01X7189309Y-1198488D01*
G01X7189309Y-1207437D01*
G01X7191770Y-1205135D01*
G01X7194231Y-1202832D01*
G01X7196565Y-1201464D01*
G01X7198899Y-1200096D01*
G01X7203514Y-1198455D01*
G01X7206355Y-1198001D01*
G01X7209196Y-1197546D01*
G01X7212989Y-1197797D01*
G01X7216782Y-1198048D01*
G01X7220087Y-1199248D01*
G01X7223393Y-1200448D01*
G01X7226238Y-1202173D01*
G01X7229084Y-1203898D01*
G01X7229079Y-1204176D01*
G01X7229075Y-1204454D01*
G01X7223878Y-1210654D01*
G01X7218682Y-1216854D01*
G01X7217785Y-1217772D01*
G01X7216888Y-1218691D01*
G01X7213300Y-1216816D01*
G01X7209713Y-1214941D01*
G01X7205064Y-1215156D01*
G01X7200415Y-1215371D01*
G01X7198196Y-1216522D01*
G01X7195977Y-1217674D01*
G01X7193996Y-1219464D01*
G01X7192015Y-1221254D01*
G01X7190791Y-1223962D01*
G01X7189567Y-1226670D01*
G01X7189275Y-1283244D01*
G37*
G36*
G01X7210229Y-1149689D02*
G01X7193183Y-1149689D01*
G01X7193051Y-1107453D01*
G01X7192919Y-1065216D01*
G01X7210488Y-1065216D01*
G01X7210488Y-1073810D01*
G01X7215400Y-1069091D01*
G01X7218566Y-1067414D01*
G01X7221732Y-1065736D01*
G01X7227792Y-1064269D01*
G01X7231945Y-1064226D01*
G01X7236098Y-1064183D01*
G01X7239052Y-1064952D01*
G01X7242005Y-1065722D01*
G01X7247941Y-1068719D01*
G01X7249147Y-1069696D01*
G01X7250353Y-1070673D01*
G01X7245587Y-1076340D01*
G01X7240822Y-1082008D01*
G01X7239376Y-1083668D01*
G01X7237929Y-1085329D01*
G01X7234995Y-1083562D01*
G01X7232060Y-1081794D01*
G01X7229768Y-1081450D01*
G01X7227476Y-1081107D01*
G01X7224935Y-1081351D01*
G01X7222393Y-1081595D01*
G01X7219052Y-1083240D01*
G01X7215711Y-1084885D01*
G01X7212539Y-1088891D01*
G01X7211642Y-1090874D01*
G01X7210746Y-1092857D01*
G01X7210488Y-1121273D01*
G01X7210229Y-1149689D01*
G37*
G36*
G01X6846797Y-1283244D02*
G01X6829784Y-1283244D01*
G01X6829784Y-1198513D01*
G01X6846831Y-1198513D01*
G01X6846831Y-1207437D01*
G01X6849292Y-1205135D01*
G01X6851753Y-1202832D01*
G01X6854087Y-1201464D01*
G01X6856421Y-1200096D01*
G01X6861036Y-1198455D01*
G01X6863877Y-1198001D01*
G01X6866718Y-1197546D01*
G01X6870511Y-1197797D01*
G01X6874304Y-1198048D01*
G01X6877609Y-1199248D01*
G01X6880915Y-1200448D01*
G01X6883760Y-1202173D01*
G01X6886606Y-1203898D01*
G01X6886601Y-1204176D01*
G01X6886597Y-1204454D01*
G01X6881401Y-1210654D01*
G01X6876204Y-1216854D01*
G01X6875314Y-1217766D01*
G01X6874423Y-1218677D01*
G01X6870821Y-1216829D01*
G01X6867220Y-1214981D01*
G01X6860440Y-1214981D01*
G01X6858930Y-1215345D01*
G01X6857420Y-1215709D01*
G01X6855460Y-1216691D01*
G01X6853499Y-1217674D01*
G01X6851518Y-1219464D01*
G01X6849537Y-1221254D01*
G01X6848313Y-1223962D01*
G01X6847089Y-1226670D01*
G01X6846797Y-1283244D01*
G37*
G36*
G01X9049203Y-1050542D02*
G01X8977613Y-1174500D01*
G01X8763411Y-1174720D01*
G01X8765122Y-1171891D01*
G01X8869321Y-991389D01*
G01X8871707Y-987257D01*
G01X8874093Y-983125D01*
G01X8922572Y-899181D01*
G01X8953445Y-845683D01*
G01X8999026Y-766741D01*
G01X9044606Y-687799D01*
G01X9086559Y-615164D01*
G01X9120826Y-555794D01*
G01X9155094Y-496424D01*
G01X9155540Y-495862D01*
G01X9155987Y-495300D01*
G01X9156286Y-495645D01*
G01X9156585Y-495989D01*
G01X9191942Y-557290D01*
G01X9227298Y-618590D01*
G01X9226870Y-619269D01*
G01X9226442Y-619948D01*
G01X9156937Y-620174D01*
G01X9156435Y-619491D01*
G01X9155933Y-618809D01*
G01X9155729Y-619161D01*
G01X9155524Y-619513D01*
G01X9127035Y-668879D01*
G01X9098546Y-718245D01*
G01X9069411Y-768699D01*
G01X9040276Y-819152D01*
G01X9000343Y-888308D01*
G01X8960410Y-957464D01*
G01X8920613Y-1026402D01*
G01X8880816Y-1095341D01*
G01X8876089Y-1103488D01*
G01X8871362Y-1111635D01*
G01X8871362Y-1112091D01*
G01X8906839Y-1111980D01*
G01X8942317Y-1111869D01*
G01X9013860Y-987910D01*
G01X9054805Y-917014D01*
G01X9086669Y-861776D01*
G01X9118533Y-806539D01*
G01X9119580Y-804908D01*
G01X9120627Y-803277D01*
G01X9191428Y-803277D01*
G01X9207310Y-830787D01*
G01X9223193Y-858297D01*
G01X9240031Y-887438D01*
G01X9256870Y-916579D01*
G01X9259907Y-921889D01*
G01X9262943Y-927199D01*
G01X9228624Y-986696D01*
G01X9194304Y-1046192D01*
G01X9191498Y-1051054D01*
G01X9188692Y-1055916D01*
G01X9120008Y-1174718D01*
G01X9049327Y-1174718D01*
G01X9049121Y-1174384D01*
G01X9048914Y-1174051D01*
G01X9053059Y-1166881D01*
G01X9057204Y-1159712D01*
G01X9088974Y-1104692D01*
G01X9120744Y-1049672D01*
G01X9136122Y-1023038D01*
G01X9151500Y-996404D01*
G01X9151503Y-996072D01*
G01X9151506Y-995739D01*
G01X9154277Y-991172D01*
G01X9157049Y-986605D01*
G01X9191481Y-927163D01*
G01X9156095Y-865911D01*
G01X9155606Y-866454D01*
G01X9155116Y-866996D01*
G01X9137974Y-896692D01*
G01X9120832Y-926389D01*
G01X9120032Y-927791D01*
G01X9119231Y-929192D01*
G01X9050012Y-1049237D01*
G01X9049433Y-1049715D01*
G01X9048854Y-1050193D01*
G01X9049203Y-1050542D01*
G37*
G36*
G01X9262641Y-1174691D02*
G01X9192006Y-1174718D01*
G01X9191764Y-1174327D01*
G01X9191522Y-1173936D01*
G01X9209191Y-1143337D01*
G01X9226861Y-1112738D01*
G01X9255367Y-1063372D01*
G01X9283873Y-1014006D01*
G01X9292912Y-998348D01*
G01X9301951Y-982690D01*
G01X9318015Y-954880D01*
G01X9334079Y-927070D01*
G01X9332232Y-923999D01*
G01X9330385Y-920929D01*
G01X9297004Y-863081D01*
G01X9263623Y-805234D01*
G01X9253948Y-788488D01*
G01X9244274Y-771743D01*
G01X9236819Y-758829D01*
G01X9229364Y-745914D01*
G01X9229364Y-745429D01*
G01X9300551Y-745429D01*
G01X9369928Y-865558D01*
G01X9369446Y-866040D01*
G01X9370110Y-866525D01*
G01X9370774Y-867011D01*
G01X9388098Y-897014D01*
G01X9405423Y-927018D01*
G01X9404872Y-928105D01*
G01X9404321Y-929192D01*
G01X9334967Y-1049237D01*
G01X9333859Y-1051194D01*
G01X9332751Y-1053151D01*
G01X9278006Y-1147969D01*
G01X9270323Y-1161330D01*
G01X9262641Y-1174691D01*
G37*
G36*
G01X9405242Y-1174500D02*
G01X9369669Y-1174612D01*
G01X9334095Y-1174723D01*
G01X9334296Y-1173959D01*
G01X9334496Y-1173195D01*
G01X9391500Y-1074463D01*
G01X9433916Y-1000958D01*
G01X9436283Y-996914D01*
G01X9438650Y-992870D01*
G01X9441120Y-992999D01*
G01X9443590Y-993129D01*
G01X9476367Y-1049672D01*
G01X9480833Y-1057936D01*
G01X9485299Y-1066200D01*
G01X9511578Y-1114043D01*
G01X9545552Y-1172761D01*
G01X9510906Y-1172872D01*
G01X9476261Y-1172983D01*
G01X9475759Y-1172437D01*
G01X9475257Y-1171891D01*
G01X9441543Y-1113391D01*
G01X9440505Y-1113391D01*
G01X9422874Y-1143946D01*
G01X9405242Y-1174500D01*
G37*
G36*
G01X9110207Y-1245982D02*
G01X9106878Y-1246722D01*
G01X9103550Y-1247463D01*
G01X9094733Y-1247049D01*
G01X9091542Y-1245927D01*
G01X9088351Y-1244805D01*
G01X9085902Y-1243361D01*
G01X9083452Y-1241916D01*
G01X9077319Y-1235827D01*
G01X9075682Y-1232696D01*
G01X9074046Y-1229565D01*
G01X9073188Y-1226211D01*
G01X9072330Y-1222857D01*
G01X9072337Y-1219556D01*
G01X9072343Y-1216255D01*
G01X9072651Y-1214950D01*
G01X9083423Y-1214950D01*
G01X9083423Y-1224097D01*
G01X9086243Y-1229829D01*
G01X9088435Y-1231880D01*
G01X9090628Y-1233931D01*
G01X9092898Y-1234965D01*
G01X9095168Y-1235999D01*
G01X9095168Y-1235999D01*
G01X9100546Y-1236857D01*
G01X9103182Y-1236484D01*
G01X9105818Y-1236112D01*
G01X9108215Y-1235014D01*
G01X9110612Y-1233917D01*
G01X9112930Y-1231726D01*
G01X9115247Y-1229534D01*
G01X9116438Y-1227103D01*
G01X9117629Y-1224671D01*
G01X9118048Y-1222066D01*
G01X9118468Y-1219461D01*
G01X9117983Y-1216770D01*
G01X9117498Y-1214080D01*
G01X9114838Y-1209076D01*
G01X9112911Y-1207300D01*
G01X9110984Y-1205524D01*
G01X9108078Y-1204164D01*
G01X9105172Y-1202804D01*
G01X9101257Y-1202683D01*
G01X9097343Y-1202563D01*
G01X9095603Y-1203139D01*
G01X9093863Y-1203716D01*
G01X9091953Y-1204697D01*
G01X9090044Y-1205678D01*
G01X9088012Y-1207710D01*
G01X9085980Y-1209742D01*
G01X9084701Y-1212346D01*
G01X9083423Y-1214950D01*
G01X9072651Y-1214950D01*
G01X9073008Y-1213434D01*
G01X9073673Y-1210614D01*
G01X9075155Y-1207563D01*
G01X9076637Y-1204511D01*
G01X9080378Y-1200027D01*
G01X9084728Y-1196422D01*
G01X9088208Y-1194693D01*
G01X9091688Y-1192964D01*
G01X9097343Y-1191692D01*
G01X9101692Y-1191854D01*
G01X9106042Y-1192016D01*
G01X9109518Y-1193185D01*
G01X9112994Y-1194354D01*
G01X9115608Y-1195939D01*
G01X9118222Y-1197523D01*
G01X9121137Y-1200473D01*
G01X9124053Y-1203424D01*
G01X9125809Y-1207012D01*
G01X9127566Y-1210601D01*
G01X9128223Y-1213193D01*
G01X9128880Y-1215785D01*
G01X9128867Y-1223214D01*
G01X9127538Y-1228868D01*
G01X9124340Y-1235392D01*
G01X9117352Y-1242409D01*
G01X9110207Y-1245982D01*
G37*
G36*
G01X9102373Y-1228651D02*
G01X9098837Y-1228651D01*
G01X9097226Y-1227978D01*
G01X9095614Y-1227304D01*
G01X9094587Y-1226347D01*
G01X9093560Y-1225389D01*
G01X9092702Y-1223714D01*
G01X9091843Y-1222039D01*
G01X9091843Y-1217429D01*
G01X9093637Y-1213913D01*
G01X9095068Y-1212822D01*
G01X9096499Y-1211731D01*
G01X9098648Y-1210873D01*
G01X9100605Y-1210855D01*
G01X9102562Y-1210837D01*
G01X9104333Y-1211641D01*
G01X9106104Y-1212445D01*
G01X9107459Y-1214090D01*
G01X9108815Y-1215734D01*
G01X9109315Y-1217819D01*
G01X9109815Y-1219905D01*
G01X9109143Y-1222218D01*
G01X9108470Y-1224531D01*
G01X9107039Y-1225917D01*
G01X9105607Y-1227302D01*
G01X9102373Y-1228651D01*
G37*
G36*
G01X9236687Y-1245913D02*
G01X9233496Y-1247020D01*
G01X9224679Y-1247463D01*
G01X9221351Y-1246722D01*
G01X9218022Y-1245982D01*
G01X9214501Y-1244220D01*
G01X9210979Y-1242458D01*
G01X9207882Y-1239516D01*
G01X9204785Y-1236574D01*
G01X9201502Y-1231043D01*
G01X9199272Y-1224084D01*
G01X9199242Y-1219952D01*
G01X9199231Y-1218428D01*
G01X9209684Y-1218428D01*
G01X9209948Y-1221256D01*
G01X9210212Y-1224084D01*
G01X9211543Y-1226788D01*
G01X9212875Y-1229493D01*
G01X9216862Y-1233480D01*
G01X9219403Y-1234762D01*
G01X9221944Y-1236045D01*
G01X9224813Y-1236451D01*
G01X9224813Y-1236451D01*
G01X9227681Y-1236857D01*
G01X9230334Y-1236430D01*
G01X9232986Y-1236003D01*
G01X9235416Y-1234854D01*
G01X9237846Y-1233706D01*
G01X9240048Y-1231505D01*
G01X9242250Y-1229303D01*
G01X9243528Y-1226693D01*
G01X9244806Y-1224084D01*
G01X9244806Y-1215385D01*
G01X9243466Y-1212557D01*
G01X9242125Y-1209728D01*
G01X9238036Y-1205640D01*
G01X9235158Y-1204223D01*
G01X9232280Y-1202806D01*
G01X9228321Y-1202701D01*
G01X9224362Y-1202595D01*
G01X9221649Y-1203291D01*
G01X9219526Y-1204316D01*
G01X9217402Y-1205341D01*
G01X9215350Y-1207256D01*
G01X9213298Y-1209171D01*
G01X9211091Y-1212936D01*
G01X9209684Y-1218428D01*
G01X9199231Y-1218428D01*
G01X9199212Y-1215820D01*
G01X9199940Y-1213042D01*
G01X9200667Y-1210264D01*
G01X9201941Y-1207605D01*
G01X9203215Y-1204946D01*
G01X9205319Y-1202337D01*
G01X9207422Y-1199727D01*
G01X9210447Y-1197449D01*
G01X9213472Y-1195171D01*
G01X9216307Y-1194032D01*
G01X9219142Y-1192894D01*
G01X9224362Y-1191750D01*
G01X9227099Y-1191715D01*
G01X9229836Y-1191681D01*
G01X9233189Y-1192362D01*
G01X9236541Y-1193043D01*
G01X9240140Y-1194771D01*
G01X9243739Y-1196500D01*
G01X9246755Y-1199344D01*
G01X9249770Y-1202188D01*
G01X9251394Y-1204635D01*
G01X9253019Y-1207083D01*
G01X9254333Y-1210799D01*
G01X9255647Y-1214515D01*
G01X9255616Y-1224519D01*
G01X9254438Y-1228092D01*
G01X9253261Y-1231664D01*
G01X9251078Y-1234927D01*
G01X9248896Y-1238190D01*
G01X9246755Y-1240062D01*
G01X9244614Y-1241935D01*
G01X9242246Y-1243370D01*
G01X9239878Y-1244805D01*
G01X9236687Y-1245913D01*
G37*
G36*
G01X9232515Y-1227081D02*
G01X9230730Y-1228338D01*
G01X9226420Y-1228752D01*
G01X9224810Y-1228220D01*
G01X9223199Y-1227689D01*
G01X9221646Y-1226325D01*
G01X9220092Y-1224961D01*
G01X9219300Y-1223218D01*
G01X9218508Y-1221474D01*
G01X9218499Y-1219829D01*
G01X9218489Y-1218184D01*
G01X9219165Y-1216567D01*
G01X9219840Y-1214950D01*
G01X9221013Y-1213699D01*
G01X9222187Y-1212448D01*
G01X9223927Y-1211618D01*
G01X9225667Y-1210788D01*
G01X9227881Y-1210942D01*
G01X9230095Y-1211096D01*
G01X9231796Y-1211974D01*
G01X9233496Y-1212853D01*
G01X9236066Y-1216490D01*
G01X9236229Y-1219200D01*
G01X9236392Y-1221909D01*
G01X9235346Y-1223866D01*
G01X9234300Y-1225824D01*
G01X9232515Y-1227081D01*
G37*
G36*
G01X9294205Y-1244499D02*
G01X9293143Y-1245628D01*
G01X9289913Y-1246596D01*
G01X9288268Y-1245778D01*
G01X9286622Y-1244961D01*
G01X9285724Y-1243734D01*
G01X9284826Y-1242506D01*
G01X9284700Y-1223183D01*
G01X9284574Y-1203859D01*
G01X9276000Y-1203857D01*
G01X9267426Y-1203856D01*
G01X9266034Y-1203007D01*
G01X9264641Y-1202158D01*
G01X9263921Y-1200766D01*
G01X9263202Y-1199375D01*
G01X9263445Y-1197874D01*
G01X9263689Y-1196373D01*
G01X9264394Y-1195297D01*
G01X9265099Y-1194221D01*
G01X9267861Y-1193004D01*
G01X9313536Y-1193203D01*
G01X9314695Y-1193990D01*
G01X9315855Y-1194777D01*
G01X9316548Y-1196509D01*
G01X9317241Y-1198241D01*
G01X9316661Y-1200597D01*
G01X9315988Y-1201635D01*
G01X9315315Y-1202673D01*
G01X9313896Y-1203266D01*
G01X9312476Y-1203859D01*
G01X9295509Y-1203859D01*
G01X9295387Y-1223614D01*
G01X9295266Y-1243369D01*
G01X9294205Y-1244499D01*
G37*
G36*
G01X9165210Y-1245793D02*
G01X9163535Y-1246624D01*
G01X9161773Y-1246010D01*
G01X9160010Y-1245396D01*
G01X9158025Y-1242440D01*
G01X9158025Y-1203859D01*
G01X9140974Y-1203859D01*
G01X9139475Y-1203148D01*
G01X9137976Y-1202437D01*
G01X9137388Y-1201299D01*
G01X9136801Y-1200162D01*
G01X9136705Y-1199292D01*
G01X9136610Y-1198422D01*
G01X9136660Y-1197459D01*
G01X9136710Y-1196495D01*
G01X9138036Y-1194985D01*
G01X9139361Y-1193475D01*
G01X9140319Y-1193290D01*
G01X9141277Y-1193104D01*
G01X9185457Y-1192985D01*
G01X9188455Y-1194238D01*
G01X9189333Y-1195678D01*
G01X9190211Y-1197117D01*
G01X9190201Y-1199727D01*
G01X9189114Y-1201876D01*
G01X9187642Y-1202867D01*
G01X9186171Y-1203859D01*
G01X9168926Y-1203859D01*
G01X9168804Y-1223183D01*
G01X9168682Y-1242506D01*
G01X9167784Y-1243734D01*
G01X9166886Y-1244961D01*
G01X9165210Y-1245793D01*
G37*
G36*
G01X9530853Y-1247353D02*
G01X9522950Y-1247353D01*
G01X9519597Y-1246664D01*
G01X9516244Y-1245975D01*
G01X9509719Y-1243286D01*
G01X9503522Y-1237123D01*
G01X9502753Y-1234684D01*
G01X9501984Y-1232244D01*
G01X9502272Y-1231097D01*
G01X9502560Y-1229949D01*
G01X9503820Y-1228539D01*
G01X9505080Y-1227128D01*
G01X9509845Y-1227128D01*
G01X9510809Y-1227998D01*
G01X9511772Y-1228868D01*
G01X9512654Y-1230741D01*
G01X9513536Y-1232615D01*
G01X9515108Y-1233689D01*
G01X9516679Y-1234763D01*
G01X9522334Y-1236555D01*
G01X9526712Y-1236572D01*
G01X9531090Y-1236588D01*
G01X9533482Y-1235893D01*
G01X9535874Y-1235198D01*
G01X9537363Y-1234194D01*
G01X9538853Y-1233191D01*
G01X9539247Y-1232069D01*
G01X9539641Y-1230948D01*
G01X9539344Y-1229762D01*
G01X9539046Y-1228576D01*
G01X9537070Y-1226600D01*
G01X9534608Y-1225679D01*
G01X9532147Y-1224758D01*
G01X9526370Y-1223616D01*
G01X9520594Y-1222474D01*
G01X9517114Y-1221381D01*
G01X9513634Y-1220288D01*
G01X9512388Y-1219648D01*
G01X9511142Y-1219008D01*
G01X9509198Y-1217216D01*
G01X9507253Y-1215424D01*
G01X9506345Y-1213665D01*
G01X9505437Y-1211905D01*
G01X9505067Y-1204946D01*
G01X9506906Y-1200073D01*
G01X9510953Y-1195969D01*
G01X9513416Y-1194725D01*
G01X9515879Y-1193482D01*
G01X9518454Y-1192827D01*
G01X9521029Y-1192172D01*
G01X9523639Y-1191752D01*
G01X9527772Y-1191919D01*
G01X9531904Y-1192086D01*
G01X9537124Y-1193454D01*
G01X9539831Y-1194714D01*
G01X9542538Y-1195973D01*
G01X9544720Y-1198014D01*
G01X9546901Y-1200054D01*
G01X9548056Y-1202414D01*
G01X9549211Y-1204774D01*
G01X9548201Y-1208144D01*
G01X9545540Y-1210383D01*
G01X9541589Y-1210383D01*
G01X9538170Y-1206686D01*
G01X9537262Y-1205717D01*
G01X9536354Y-1204747D01*
G01X9533912Y-1203775D01*
G01X9531469Y-1202802D01*
G01X9526237Y-1202787D01*
G01X9521005Y-1202772D01*
G01X9518842Y-1203882D01*
G01X9516679Y-1204993D01*
G01X9516072Y-1206250D01*
G01X9515464Y-1207506D01*
G01X9516085Y-1208612D01*
G01X9516705Y-1209718D01*
G01X9520159Y-1211666D01*
G01X9524292Y-1212581D01*
G01X9528424Y-1213496D01*
G01X9538556Y-1215950D01*
G01X9541395Y-1217305D01*
G01X9544234Y-1218659D01*
G01X9548019Y-1222344D01*
G01X9548775Y-1223943D01*
G01X9549532Y-1225542D01*
G01X9549966Y-1227831D01*
G01X9550400Y-1230119D01*
G01X9549927Y-1232728D01*
G01X9549454Y-1235338D01*
G01X9547433Y-1239324D01*
G01X9542956Y-1243512D01*
G01X9540237Y-1244744D01*
G01X9537519Y-1245977D01*
G01X9534186Y-1246665D01*
G01X9530853Y-1247353D01*
G37*
G36*
G01X8853744Y-1245960D02*
G01X8850889Y-1246657D01*
G01X8848034Y-1247353D01*
G01X8840616Y-1247353D01*
G01X8837334Y-1246514D01*
G01X8834052Y-1245675D01*
G01X8830848Y-1244064D01*
G01X8827645Y-1242454D01*
G01X8820653Y-1235392D01*
G01X8819299Y-1232783D01*
G01X8817945Y-1230173D01*
G01X8817227Y-1228027D01*
G01X8816508Y-1225881D01*
G01X8815735Y-1219734D01*
G01X8816162Y-1216324D01*
G01X8816589Y-1212915D01*
G01X8817675Y-1210029D01*
G01X8818762Y-1207144D01*
G01X8821541Y-1202772D01*
G01X8823505Y-1200650D01*
G01X8825470Y-1198528D01*
G01X8828023Y-1196793D01*
G01X8830577Y-1195057D01*
G01X8833242Y-1193974D01*
G01X8835908Y-1192891D01*
G01X8838736Y-1192297D01*
G01X8841565Y-1191703D01*
G01X8845513Y-1191893D01*
G01X8849462Y-1192082D01*
G01X8852908Y-1193182D01*
G01X8856354Y-1194282D01*
G01X8858631Y-1195596D01*
G01X8860908Y-1196910D01*
G01X8862346Y-1199103D01*
G01X8862346Y-1202526D01*
G01X8861628Y-1203621D01*
G01X8860910Y-1204717D01*
G01X8859772Y-1205462D01*
G01X8858634Y-1206208D01*
G01X8855810Y-1206208D01*
G01X8852484Y-1204520D01*
G01X8849159Y-1202832D01*
G01X8845539Y-1202642D01*
G01X8841920Y-1202452D01*
G01X8839350Y-1203191D01*
G01X8836780Y-1203930D01*
G01X8834747Y-1205223D01*
G01X8832714Y-1206517D01*
G01X8830901Y-1208482D01*
G01X8829089Y-1210448D01*
G01X8827936Y-1212917D01*
G01X8826784Y-1215385D01*
G01X8826779Y-1219526D01*
G01X8826775Y-1223667D01*
G01X8828209Y-1226580D01*
G01X8829643Y-1229493D01*
G01X8831594Y-1231444D01*
G01X8833545Y-1233394D01*
G01X8836283Y-1234742D01*
G01X8839020Y-1236089D01*
G01X8841735Y-1236473D01*
G01X8844451Y-1236857D01*
G01X8847124Y-1236426D01*
G01X8849797Y-1235996D01*
G01X8857126Y-1232416D01*
G01X8858901Y-1233034D01*
G01X8860676Y-1233653D01*
G01X8862739Y-1236697D01*
G01X8862533Y-1238579D01*
G01X8862326Y-1240460D01*
G01X8861080Y-1241765D01*
G01X8859834Y-1243070D01*
G01X8853744Y-1245960D01*
G37*
G36*
G01X9355295Y-1245978D02*
G01X9353773Y-1246245D01*
G01X9352251Y-1246513D01*
G01X9350728Y-1245737D01*
G01X9349206Y-1244961D01*
G01X9348445Y-1243439D01*
G01X9347684Y-1241916D01*
G01X9347684Y-1231819D01*
G01X9347683Y-1221721D01*
G01X9338827Y-1211788D01*
G01X9329970Y-1201855D01*
G01X9329474Y-1200928D01*
G01X9328978Y-1200002D01*
G01X9328978Y-1196582D01*
G01X9330862Y-1194188D01*
G01X9333546Y-1193019D01*
G01X9333981Y-1192990D01*
G01X9335576Y-1193433D01*
G01X9337171Y-1193876D01*
G01X9345107Y-1202809D01*
G01X9353042Y-1211742D01*
G01X9353773Y-1210954D01*
G01X9354504Y-1210166D01*
G01X9361604Y-1202176D01*
G01X9368704Y-1194187D01*
G01X9370172Y-1193574D01*
G01X9371640Y-1192960D01*
G01X9373340Y-1193418D01*
G01X9375041Y-1193876D01*
G01X9375944Y-1195024D01*
G01X9376847Y-1196171D01*
G01X9377103Y-1197191D01*
G01X9377359Y-1198210D01*
G01X9377090Y-1199621D01*
G01X9376822Y-1201032D01*
G01X9367690Y-1211337D01*
G01X9358558Y-1221642D01*
G01X9358558Y-1241292D01*
G01X9357365Y-1244091D01*
G01X9355295Y-1245978D01*
G37*
G36*
G01X8906437Y-1246483D02*
G01X8881339Y-1246483D01*
G01X8878341Y-1245231D01*
G01X8877457Y-1243791D01*
G01X8876572Y-1242351D01*
G01X8876606Y-1235610D01*
G01X8887457Y-1235610D01*
G01X8907494Y-1235610D01*
G01X8908946Y-1235003D01*
G01X8910398Y-1234397D01*
G01X8911107Y-1233384D01*
G01X8911816Y-1232372D01*
G01X8911789Y-1228868D01*
G01X8910729Y-1227523D01*
G01X8908578Y-1226041D01*
G01X8887457Y-1226041D01*
G01X8887457Y-1235610D01*
G01X8887457Y-1235610D01*
G01X8876606Y-1235610D01*
G01X8876686Y-1219236D01*
G01X8876761Y-1203859D01*
G01X8887457Y-1203859D01*
G01X8887457Y-1215167D01*
G01X8905074Y-1215163D01*
G01X8906677Y-1214717D01*
G01X8908281Y-1214272D01*
G01X8910512Y-1211621D01*
G01X8910512Y-1207456D01*
G01X8909568Y-1206257D01*
G01X8908625Y-1205058D01*
G01X8905754Y-1203859D01*
G01X8905754Y-1203859D01*
G01X8887457Y-1203859D01*
G01X8876761Y-1203859D01*
G01X8876799Y-1196121D01*
G01X8878539Y-1194171D01*
G01X8881149Y-1193019D01*
G01X8893329Y-1193009D01*
G01X8905509Y-1192998D01*
G01X8908299Y-1193656D01*
G01X8911089Y-1194313D01*
G01X8913209Y-1195467D01*
G01X8915330Y-1196621D01*
G01X8918854Y-1200445D01*
G01X8919974Y-1202889D01*
G01X8921093Y-1205334D01*
G01X8921292Y-1208437D01*
G01X8921491Y-1211540D01*
G01X8920004Y-1216690D01*
G01X8918226Y-1219589D01*
G01X8920111Y-1221909D01*
G01X8921292Y-1224301D01*
G01X8922474Y-1226693D01*
G01X8922474Y-1234541D01*
G01X8919610Y-1240358D01*
G01X8917796Y-1241910D01*
G01X8915981Y-1243463D01*
G01X8913790Y-1244498D01*
G01X8911599Y-1245532D01*
G01X8909018Y-1246008D01*
G01X8906437Y-1246483D01*
G37*
G36*
G01X8770233Y-1245793D02*
G01X8768558Y-1246624D01*
G01X8766796Y-1246010D01*
G01X8765034Y-1245396D01*
G01X8763048Y-1242440D01*
G01X8763048Y-1220779D01*
G01X8763708Y-1219503D01*
G01X8764367Y-1218227D01*
G01X8765643Y-1217567D01*
G01X8766919Y-1216907D01*
G01X8791408Y-1216907D01*
G01X8792881Y-1216209D01*
G01X8794354Y-1215510D01*
G01X8795231Y-1214091D01*
G01X8796107Y-1212673D01*
G01X8796106Y-1210332D01*
G01X8796104Y-1207991D01*
G01X8795259Y-1206605D01*
G01X8794414Y-1205219D01*
G01X8792410Y-1204076D01*
G01X8779259Y-1203859D01*
G01X8766108Y-1203642D01*
G01X8764748Y-1202281D01*
G01X8763388Y-1200920D01*
G01X8763194Y-1199019D01*
G01X8763000Y-1197117D01*
G01X8763902Y-1195679D01*
G01X8764805Y-1194241D01*
G01X8767615Y-1193019D01*
G01X8779665Y-1193002D01*
G01X8791715Y-1192985D01*
G01X8796325Y-1193964D01*
G01X8798406Y-1195012D01*
G01X8800487Y-1196060D01*
G01X8803908Y-1199480D01*
G01X8804950Y-1201561D01*
G01X8805993Y-1203642D01*
G01X8807098Y-1208330D01*
G01X8806865Y-1211640D01*
G01X8806632Y-1214950D01*
G01X8805826Y-1216984D01*
G01X8805020Y-1219017D01*
G01X8803631Y-1220988D01*
G01X8802242Y-1222959D01*
G01X8800434Y-1224268D01*
G01X8798626Y-1225578D01*
G01X8793900Y-1227346D01*
G01X8773979Y-1227346D01*
G01X8773842Y-1234927D01*
G01X8773705Y-1242508D01*
G01X8772807Y-1243735D01*
G01X8771909Y-1244961D01*
G01X8770233Y-1245793D01*
G37*
G36*
G01X9057947Y-1245555D02*
G01X9056439Y-1246053D01*
G01X9054930Y-1246551D01*
G01X9051991Y-1245581D01*
G01X9050422Y-1243848D01*
G01X9046202Y-1235706D01*
G01X9041982Y-1227563D01*
G01X9035406Y-1227443D01*
G01X9028831Y-1227323D01*
G01X9028831Y-1241785D01*
G01X9028141Y-1243239D01*
G01X9027451Y-1244693D01*
G01X9026464Y-1245339D01*
G01X9025478Y-1245985D01*
G01X9022523Y-1246513D01*
G01X9021001Y-1245737D01*
G01X9019478Y-1244961D01*
G01X9018718Y-1243439D01*
G01X9017957Y-1241916D01*
G01X9017957Y-1203859D01*
G01X9028831Y-1203859D01*
G01X9028831Y-1216968D01*
G01X9047753Y-1216690D01*
G01X9049609Y-1215456D01*
G01X9050358Y-1214189D01*
G01X9051107Y-1212921D01*
G01X9051130Y-1210456D01*
G01X9051152Y-1207991D01*
G01X9050424Y-1206585D01*
G01X9049696Y-1205179D01*
G01X9048420Y-1204519D01*
G01X9047144Y-1203859D01*
G01X9047144Y-1203859D01*
G01X9028831Y-1203859D01*
G01X9017957Y-1203859D01*
G01X9017957Y-1197552D01*
G01X9018718Y-1196030D01*
G01X9019478Y-1194508D01*
G01X9022523Y-1192956D01*
G01X9035791Y-1193109D01*
G01X9049058Y-1193262D01*
G01X9052115Y-1194274D01*
G01X9054486Y-1195696D01*
G01X9056858Y-1197117D01*
G01X9058514Y-1199292D01*
G01X9060170Y-1201467D01*
G01X9061082Y-1204433D01*
G01X9061994Y-1207400D01*
G01X9061582Y-1214950D01*
G01X9060592Y-1217519D01*
G01X9059602Y-1220087D01*
G01X9057375Y-1222327D01*
G01X9055148Y-1224568D01*
G01X9054162Y-1225196D01*
G01X9053176Y-1225824D01*
G01X9056650Y-1232565D01*
G01X9060124Y-1239307D01*
G01X9060137Y-1241122D01*
G01X9060150Y-1242937D01*
G01X9059049Y-1244246D01*
G01X9057947Y-1245555D01*
G37*
G36*
G01X9396530Y-1245985D02*
G01X9393575Y-1246513D01*
G01X9392053Y-1245737D01*
G01X9390530Y-1244961D01*
G01X9389770Y-1243439D01*
G01X9389009Y-1241916D01*
G01X9389009Y-1203859D01*
G01X9399883Y-1203859D01*
G01X9399883Y-1216907D01*
G01X9408691Y-1216907D01*
G01X9417500Y-1216906D01*
G01X9419008Y-1216145D01*
G01X9420515Y-1215385D01*
G01X9421354Y-1213934D01*
G01X9422192Y-1212482D01*
G01X9422192Y-1207810D01*
G01X9421453Y-1206684D01*
G01X9420715Y-1205557D01*
G01X9419325Y-1204710D01*
G01X9417935Y-1203862D01*
G01X9408909Y-1203861D01*
G01X9408909Y-1203861D01*
G01X9399883Y-1203859D01*
G01X9389009Y-1203859D01*
G01X9389009Y-1197552D01*
G01X9389770Y-1196030D01*
G01X9390530Y-1194508D01*
G01X9393575Y-1192956D01*
G01X9406843Y-1193109D01*
G01X9420110Y-1193262D01*
G01X9423167Y-1194274D01*
G01X9425538Y-1195696D01*
G01X9427910Y-1197117D01*
G01X9429566Y-1199292D01*
G01X9431222Y-1201467D01*
G01X9432134Y-1204433D01*
G01X9433046Y-1207400D01*
G01X9432634Y-1214950D01*
G01X9430738Y-1219862D01*
G01X9428940Y-1221905D01*
G01X9427143Y-1223947D01*
G01X9425584Y-1224923D01*
G01X9424025Y-1225898D01*
G01X9421881Y-1226622D01*
G01X9419737Y-1227346D01*
G01X9399883Y-1227346D01*
G01X9399883Y-1241785D01*
G01X9399193Y-1243239D01*
G01X9398503Y-1244693D01*
G01X9397516Y-1245339D01*
G01X9396530Y-1245985D01*
G37*
G36*
G01X8967713Y-1246226D02*
G01X8965936Y-1246266D01*
G01X8963508Y-1244676D01*
G01X8962871Y-1243151D01*
G01X8962234Y-1241626D01*
G01X8962364Y-1230755D01*
G01X8962494Y-1219884D01*
G01X8965743Y-1216907D01*
G01X8978256Y-1216907D01*
G01X8990768Y-1216906D01*
G01X8992276Y-1216145D01*
G01X8993784Y-1215385D01*
G01X8994622Y-1213934D01*
G01X8995460Y-1212482D01*
G01X8995460Y-1207810D01*
G01X8994722Y-1206684D01*
G01X8993984Y-1205557D01*
G01X8992593Y-1204710D01*
G01X8991203Y-1203862D01*
G01X8966409Y-1203856D01*
G01X8965016Y-1203007D01*
G01X8963623Y-1202158D01*
G01X8962904Y-1200766D01*
G01X8962184Y-1199375D01*
G01X8962428Y-1197874D01*
G01X8962671Y-1196373D01*
G01X8963377Y-1195297D01*
G01X8964082Y-1194221D01*
G01X8965463Y-1193605D01*
G01X8966844Y-1192990D01*
G01X8993378Y-1193262D01*
G01X8996435Y-1194274D01*
G01X8998807Y-1195696D01*
G01X9001178Y-1197117D01*
G01X9002834Y-1199292D01*
G01X9004490Y-1201467D01*
G01X9005402Y-1204433D01*
G01X9006314Y-1207400D01*
G01X9005903Y-1214950D01*
G01X9004007Y-1219862D01*
G01X9002209Y-1221905D01*
G01X9000411Y-1223947D01*
G01X8998852Y-1224923D01*
G01X8997293Y-1225898D01*
G01X8995150Y-1226622D01*
G01X8993006Y-1227346D01*
G01X8973151Y-1227346D01*
G01X8973151Y-1241785D01*
G01X8972461Y-1243239D01*
G01X8971771Y-1244693D01*
G01X8970631Y-1245440D01*
G01X8969491Y-1246187D01*
G01X8967713Y-1246226D01*
G37*
G36*
G01X9485948Y-1245598D02*
G01X9482749Y-1246538D01*
G01X9465547Y-1246402D01*
G01X9448345Y-1246266D01*
G01X9447132Y-1245471D01*
G01X9445920Y-1244676D01*
G01X9445303Y-1243201D01*
G01X9444687Y-1241727D01*
G01X9444688Y-1219640D01*
G01X9444689Y-1197552D01*
G01X9445449Y-1196030D01*
G01X9446210Y-1194508D01*
G01X9447732Y-1193747D01*
G01X9449255Y-1192987D01*
G01X9466342Y-1192986D01*
G01X9483430Y-1192985D01*
G01X9486301Y-1194185D01*
G01X9487244Y-1195384D01*
G01X9488187Y-1196582D01*
G01X9488187Y-1199988D01*
G01X9487554Y-1201212D01*
G01X9486920Y-1202437D01*
G01X9485422Y-1203148D01*
G01X9483923Y-1203859D01*
G01X9455562Y-1203859D01*
G01X9455562Y-1216907D01*
G01X9475180Y-1216907D01*
G01X9476456Y-1217567D01*
G01X9477732Y-1218227D01*
G01X9478392Y-1219503D01*
G01X9479052Y-1220779D01*
G01X9479052Y-1223475D01*
G01X9478392Y-1224750D01*
G01X9477732Y-1226026D01*
G01X9476456Y-1226686D01*
G01X9475180Y-1227346D01*
G01X9455562Y-1227346D01*
G01X9455562Y-1235610D01*
G01X9483923Y-1235610D01*
G01X9485422Y-1236321D01*
G01X9486920Y-1237032D01*
G01X9487554Y-1238257D01*
G01X9488187Y-1239481D01*
G01X9488187Y-1242937D01*
G01X9485948Y-1245598D01*
G37*
G04 Image End*

G04 Text Start*
G54D10*
G01X13647166Y-1833880D02*
G01X13712190Y-1833880D01*
G01X13647166Y-1790446D02*
G01X13690346Y-1833880D01*
G01X13674852Y-1818386D02*
G01X13712190Y-1790446D01*
G01X13647166Y-1760220D02*
G01X13712190Y-1760220D01*
G01X13647166Y-1760220D02*
G01X13647166Y-1720088D01*
G01X13678154Y-1760220D02*
G01X13678154Y-1735582D01*
G01X13712190Y-1760220D02*
G01X13712190Y-1720088D01*
G01X13647166Y-1689862D02*
G01X13678154Y-1665224D01*
G01X13712190Y-1665224D01*
G01X13647166Y-1640332D02*
G01X13678154Y-1665224D01*
G01X13684250Y-1610106D02*
G01X13684250Y-1554480D01*
G01X13647166Y-1505712D02*
G01X13650214Y-1515110D01*
G01X13659612Y-1521206D01*
G01X13674852Y-1524254D01*
G01X13684250Y-1524254D01*
G01X13699744Y-1521206D01*
G01X13709142Y-1515110D01*
G01X13712190Y-1505712D01*
G01X13712190Y-1499616D01*
G01X13709142Y-1490218D01*
G01X13699744Y-1484122D01*
G01X13684250Y-1481074D01*
G01X13674852Y-1481074D01*
G01X13659612Y-1484122D01*
G01X13650214Y-1490218D01*
G01X13647166Y-1499616D01*
G01X13647166Y-1505712D01*
G01X13659612Y-1450848D02*
G01X13656310Y-1444752D01*
G01X13647166Y-1435608D01*
G01X13712190Y-1435608D01*
G01X13685266Y-3586480D02*
G01X13750290Y-3586480D01*
G01X13685266Y-3543046D02*
G01X13728446Y-3586480D01*
G01X13712952Y-3570986D02*
G01X13750290Y-3543046D01*
G01X13685266Y-3512820D02*
G01X13750290Y-3512820D01*
G01X13685266Y-3512820D02*
G01X13685266Y-3472688D01*
G01X13716254Y-3512820D02*
G01X13716254Y-3488182D01*
G01X13750290Y-3512820D02*
G01X13750290Y-3472688D01*
G01X13685266Y-3442462D02*
G01X13716254Y-3417824D01*
G01X13750290Y-3417824D01*
G01X13685266Y-3392932D02*
G01X13716254Y-3417824D01*
G01X13722350Y-3362706D02*
G01X13722350Y-3307080D01*
G01X13685266Y-3258312D02*
G01X13688314Y-3267710D01*
G01X13697712Y-3273806D01*
G01X13712952Y-3276854D01*
G01X13722350Y-3276854D01*
G01X13737844Y-3273806D01*
G01X13747242Y-3267710D01*
G01X13750290Y-3258312D01*
G01X13750290Y-3252216D01*
G01X13747242Y-3242818D01*
G01X13737844Y-3236722D01*
G01X13722350Y-3233674D01*
G01X13712952Y-3233674D01*
G01X13697712Y-3236722D01*
G01X13688314Y-3242818D01*
G01X13685266Y-3252216D01*
G01X13685266Y-3258312D01*
G01X13700760Y-3200400D02*
G01X13697712Y-3200400D01*
G01X13691362Y-3197352D01*
G01X13688314Y-3194304D01*
G01X13685266Y-3188208D01*
G01X13685266Y-3175762D01*
G01X13688314Y-3169412D01*
G01X13691362Y-3166364D01*
G01X13697712Y-3163316D01*
G01X13703808Y-3163316D01*
G01X13709904Y-3166364D01*
G01X13719302Y-3172714D01*
G01X13750290Y-3203448D01*
G01X13750290Y-3160268D01*
G01X13685266Y-5288280D02*
G01X13750290Y-5288280D01*
G01X13685266Y-5244846D02*
G01X13728446Y-5288280D01*
G01X13712952Y-5272786D02*
G01X13750290Y-5244846D01*
G01X13685266Y-5214620D02*
G01X13750290Y-5214620D01*
G01X13685266Y-5214620D02*
G01X13685266Y-5174488D01*
G01X13716254Y-5214620D02*
G01X13716254Y-5189982D01*
G01X13750290Y-5214620D02*
G01X13750290Y-5174488D01*
G01X13685266Y-5144262D02*
G01X13716254Y-5119624D01*
G01X13750290Y-5119624D01*
G01X13685266Y-5094732D02*
G01X13716254Y-5119624D01*
G01X13722350Y-5064506D02*
G01X13722350Y-5008880D01*
G01X13685266Y-4960112D02*
G01X13688314Y-4969510D01*
G01X13697712Y-4975606D01*
G01X13712952Y-4978654D01*
G01X13722350Y-4978654D01*
G01X13737844Y-4975606D01*
G01X13747242Y-4969510D01*
G01X13750290Y-4960112D01*
G01X13750290Y-4954016D01*
G01X13747242Y-4944618D01*
G01X13737844Y-4938522D01*
G01X13722350Y-4935474D01*
G01X13712952Y-4935474D01*
G01X13697712Y-4938522D01*
G01X13688314Y-4944618D01*
G01X13685266Y-4954016D01*
G01X13685266Y-4960112D01*
G01X13685266Y-4899152D02*
G01X13685266Y-4865116D01*
G01X13709904Y-4883658D01*
G01X13709904Y-4874514D01*
G01X13712952Y-4868164D01*
G01X13716254Y-4865116D01*
G01X13725398Y-4862068D01*
G01X13731748Y-4862068D01*
G01X13740892Y-4865116D01*
G01X13747242Y-4871212D01*
G01X13750290Y-4880610D01*
G01X13750290Y-4890008D01*
G01X13747242Y-4899152D01*
G01X13743940Y-4902200D01*
G01X13737844Y-4905248D01*
G01X13685266Y-7040880D02*
G01X13750290Y-7040880D01*
G01X13685266Y-6997446D02*
G01X13728446Y-7040880D01*
G01X13712952Y-7025386D02*
G01X13750290Y-6997446D01*
G01X13685266Y-6967220D02*
G01X13750290Y-6967220D01*
G01X13685266Y-6967220D02*
G01X13685266Y-6927088D01*
G01X13716254Y-6967220D02*
G01X13716254Y-6942582D01*
G01X13750290Y-6967220D02*
G01X13750290Y-6927088D01*
G01X13685266Y-6896862D02*
G01X13716254Y-6872224D01*
G01X13750290Y-6872224D01*
G01X13685266Y-6847332D02*
G01X13716254Y-6872224D01*
G01X13722350Y-6817106D02*
G01X13722350Y-6761480D01*
G01X13685266Y-6712712D02*
G01X13688314Y-6722110D01*
G01X13697712Y-6728206D01*
G01X13712952Y-6731254D01*
G01X13722350Y-6731254D01*
G01X13737844Y-6728206D01*
G01X13747242Y-6722110D01*
G01X13750290Y-6712712D01*
G01X13750290Y-6706616D01*
G01X13747242Y-6697218D01*
G01X13737844Y-6691122D01*
G01X13722350Y-6688074D01*
G01X13712952Y-6688074D01*
G01X13697712Y-6691122D01*
G01X13688314Y-6697218D01*
G01X13685266Y-6706616D01*
G01X13685266Y-6712712D01*
G01X13685266Y-6627114D02*
G01X13728446Y-6657848D01*
G01X13728446Y-6611620D01*
G01X13685266Y-6627114D02*
G01X13750290Y-6627114D01*
G01X13609066Y-8602980D02*
G01X13674090Y-8602980D01*
G01X13609066Y-8602980D02*
G01X13609066Y-8575040D01*
G01X13612114Y-8565896D01*
G01X13615162Y-8562848D01*
G01X13621512Y-8559546D01*
G01X13627608Y-8559546D01*
G01X13633704Y-8562848D01*
G01X13636752Y-8565896D01*
G01X13640054Y-8575040D01*
G01X13640054Y-8602980D01*
G01X13640054Y-8581390D02*
G01X13674090Y-8559546D01*
G01X13609066Y-8529320D02*
G01X13674090Y-8529320D01*
G01X13609066Y-8529320D02*
G01X13609066Y-8489188D01*
G01X13640054Y-8529320D02*
G01X13640054Y-8504682D01*
G01X13674090Y-8529320D02*
G01X13674090Y-8489188D01*
G01X13609066Y-8458962D02*
G01X13674090Y-8458962D01*
G01X13674090Y-8458962D02*
G01X13674090Y-8421878D01*
G01X13609066Y-8367014D02*
G01X13674090Y-8391652D01*
G01X13609066Y-8367014D02*
G01X13674090Y-8342122D01*
G01X13652246Y-8382508D02*
G01X13652246Y-8351520D01*
G01X13609066Y-8311896D02*
G01X13640054Y-8287258D01*
G01X13674090Y-8287258D01*
G01X13609066Y-8262366D02*
G01X13640054Y-8287258D01*
G01X13609066Y-8162798D02*
G01X13674090Y-8162798D01*
G01X13609066Y-8162798D02*
G01X13609066Y-8135112D01*
G01X13612114Y-8125714D01*
G01X13615162Y-8122666D01*
G01X13621512Y-8119618D01*
G01X13630656Y-8119618D01*
G01X13636752Y-8122666D01*
G01X13640054Y-8125714D01*
G01X13643102Y-8135112D01*
G01X13643102Y-8162798D01*
G01X13609066Y-8089392D02*
G01X13674090Y-8074152D01*
G01X13609066Y-8058658D02*
G01X13674090Y-8074152D01*
G01X13609066Y-8058658D02*
G01X13674090Y-8043164D01*
G01X13609066Y-8027670D02*
G01X13674090Y-8043164D01*
G01X13609066Y-7997444D02*
G01X13674090Y-7997444D01*
G01X13609066Y-7997444D02*
G01X13609066Y-7969758D01*
G01X13612114Y-7960360D01*
G01X13615162Y-7957312D01*
G01X13621512Y-7954264D01*
G01X13627608Y-7954264D01*
G01X13633704Y-7957312D01*
G01X13636752Y-7960360D01*
G01X13640054Y-7969758D01*
G01X13640054Y-7997444D01*
G01X13640054Y-7975854D02*
G01X13674090Y-7954264D01*
G01X3281934Y-7665720D02*
G01X3216910Y-7665720D01*
G01X3281934Y-7665720D02*
G01X3281934Y-7687310D01*
G01X3278886Y-7696708D01*
G01X3272790Y-7702804D01*
G01X3266440Y-7705852D01*
G01X3257296Y-7709154D01*
G01X3241802Y-7709154D01*
G01X3232404Y-7705852D01*
G01X3226308Y-7702804D01*
G01X3219958Y-7696708D01*
G01X3216910Y-7687310D01*
G01X3216910Y-7665720D01*
G01X3266440Y-7785608D02*
G01X3272790Y-7782560D01*
G01X3278886Y-7776464D01*
G01X3281934Y-7770114D01*
G01X3281934Y-7757922D01*
G01X3278886Y-7751572D01*
G01X3272790Y-7745476D01*
G01X3266440Y-7742428D01*
G01X3257296Y-7739380D01*
G01X3241802Y-7739380D01*
G01X3232404Y-7742428D01*
G01X3226308Y-7745476D01*
G01X3219958Y-7751572D01*
G01X3216910Y-7757922D01*
G01X3216910Y-7770114D01*
G01X3219958Y-7776464D01*
G01X3226308Y-7782560D01*
G01X3232404Y-7785608D01*
G01X3281934Y-7885176D02*
G01X3216910Y-7885176D01*
G01X3281934Y-7885176D02*
G01X3281934Y-7912862D01*
G01X3278886Y-7922260D01*
G01X3275838Y-7925308D01*
G01X3269488Y-7928356D01*
G01X3260344Y-7928356D01*
G01X3254248Y-7925308D01*
G01X3250946Y-7922260D01*
G01X3247898Y-7912862D01*
G01X3247898Y-7885176D01*
G01X3281934Y-7958582D02*
G01X3216910Y-7973822D01*
G01X3281934Y-7989316D02*
G01X3216910Y-7973822D01*
G01X3281934Y-7989316D02*
G01X3216910Y-8004810D01*
G01X3281934Y-8020304D02*
G01X3216910Y-8004810D01*
G01X3281934Y-8050530D02*
G01X3216910Y-8050530D01*
G01X3281934Y-8050530D02*
G01X3281934Y-8078216D01*
G01X3278886Y-8087614D01*
G01X3275838Y-8090662D01*
G01X3269488Y-8093710D01*
G01X3263392Y-8093710D01*
G01X3257296Y-8090662D01*
G01X3254248Y-8087614D01*
G01X3250946Y-8078216D01*
G01X3250946Y-8050530D01*
G01X3250946Y-8072120D02*
G01X3216910Y-8093710D01*
G01X3244850Y-8123936D02*
G01X3244850Y-8179562D01*
G01X3281934Y-8209788D02*
G01X3216910Y-8209788D01*
G01X3281934Y-8240014D02*
G01X3216910Y-8240014D01*
G01X3281934Y-8240014D02*
G01X3216910Y-8283194D01*
G01X3281934Y-8283194D02*
G01X3216910Y-8283194D01*
G01X3421634Y-7729220D02*
G01X3356610Y-7754112D01*
G01X3421634Y-7778750D02*
G01X3356610Y-7754112D01*
G01X3406140Y-7855204D02*
G01X3412490Y-7852156D01*
G01X3418586Y-7846060D01*
G01X3421634Y-7839710D01*
G01X3421634Y-7827518D01*
G01X3418586Y-7821168D01*
G01X3412490Y-7815072D01*
G01X3406140Y-7812024D01*
G01X3396996Y-7808976D01*
G01X3381502Y-7808976D01*
G01X3372104Y-7812024D01*
G01X3366008Y-7815072D01*
G01X3359658Y-7821168D01*
G01X3356610Y-7827518D01*
G01X3356610Y-7839710D01*
G01X3359658Y-7846060D01*
G01X3366008Y-7852156D01*
G01X3372104Y-7855204D01*
G01X3406140Y-7931658D02*
G01X3412490Y-7928610D01*
G01X3418586Y-7922514D01*
G01X3421634Y-7916164D01*
G01X3421634Y-7903972D01*
G01X3418586Y-7897622D01*
G01X3412490Y-7891526D01*
G01X3406140Y-7888478D01*
G01X3396996Y-7885430D01*
G01X3381502Y-7885430D01*
G01X3372104Y-7888478D01*
G01X3366008Y-7891526D01*
G01X3359658Y-7897622D01*
G01X3356610Y-7903972D01*
G01X3356610Y-7916164D01*
G01X3359658Y-7922514D01*
G01X3366008Y-7928610D01*
G01X3372104Y-7931658D01*
G01X3406140Y-8077454D02*
G01X3412490Y-8074406D01*
G01X3418586Y-8068310D01*
G01X3421634Y-8061960D01*
G01X3421634Y-8049768D01*
G01X3418586Y-8043418D01*
G01X3412490Y-8037322D01*
G01X3406140Y-8034274D01*
G01X3396996Y-8031226D01*
G01X3381502Y-8031226D01*
G01X3372104Y-8034274D01*
G01X3366008Y-8037322D01*
G01X3359658Y-8043418D01*
G01X3356610Y-8049768D01*
G01X3356610Y-8061960D01*
G01X3359658Y-8068310D01*
G01X3366008Y-8074406D01*
G01X3372104Y-8077454D01*
G01X3381502Y-8077454D01*
G01X3381502Y-8061960D02*
G01X3381502Y-8077454D01*
G01X3421634Y-8107680D02*
G01X3356610Y-8107680D01*
G01X3421634Y-8107680D02*
G01X3356610Y-8150860D01*
G01X3421634Y-8150860D02*
G01X3356610Y-8150860D01*
G01X3421634Y-8181086D02*
G01X3356610Y-8181086D01*
G01X3421634Y-8181086D02*
G01X3421634Y-8202676D01*
G01X3418586Y-8211820D01*
G01X3412490Y-8218170D01*
G01X3406140Y-8221218D01*
G01X3396996Y-8224266D01*
G01X3381502Y-8224266D01*
G01X3372104Y-8221218D01*
G01X3366008Y-8218170D01*
G01X3359658Y-8211820D01*
G01X3356610Y-8202676D01*
G01X3356610Y-8181086D01*
G01X5299456Y-672084D02*
G01X5302758Y-679196D01*
G01X5309870Y-686054D01*
G01X5316728Y-689610D01*
G01X5330698Y-689610D01*
G01X5337810Y-686054D01*
G01X5344668Y-679196D01*
G01X5348224Y-672084D01*
G01X5351780Y-661670D01*
G01X5351780Y-644144D01*
G01X5348224Y-633730D01*
G01X5344668Y-626618D01*
G01X5337810Y-619760D01*
G01X5330698Y-616204D01*
G01X5316728Y-616204D01*
G01X5309870Y-619760D01*
G01X5302758Y-626618D01*
G01X5299456Y-633730D01*
G01X5267452Y-689610D02*
G01X5267452Y-616204D01*
G01X5267452Y-689610D02*
G01X5235956Y-689610D01*
G01X5225542Y-686054D01*
G01X5221986Y-682498D01*
G01X5218430Y-675640D01*
G01X5218430Y-665226D01*
G01X5221986Y-658114D01*
G01X5225542Y-654558D01*
G01X5235956Y-651256D01*
G01X5267452Y-651256D01*
G01X5182870Y-672084D02*
G01X5182870Y-675640D01*
G01X5179314Y-682498D01*
G01X5176012Y-686054D01*
G01X5168900Y-689610D01*
G01X5154930Y-689610D01*
G01X5148072Y-686054D01*
G01X5144516Y-682498D01*
G01X5140960Y-675640D01*
G01X5140960Y-668528D01*
G01X5144516Y-661670D01*
G01X5151374Y-651256D01*
G01X5186426Y-616204D01*
G01X5137404Y-616204D01*
G01X5105400Y-675640D02*
G01X5098288Y-679196D01*
G01X5087874Y-689610D01*
G01X5087874Y-616204D01*
G01X5034788Y-689610D02*
G01X5045456Y-686054D01*
G01X5052314Y-675640D01*
G01X5055870Y-658114D01*
G01X5055870Y-647700D01*
G01X5052314Y-630174D01*
G01X5045456Y-619760D01*
G01X5034788Y-616204D01*
G01X5027930Y-616204D01*
G01X5017516Y-619760D01*
G01X5010404Y-630174D01*
G01X5006848Y-647700D01*
G01X5006848Y-658114D01*
G01X5010404Y-675640D01*
G01X5017516Y-686054D01*
G01X5027930Y-689610D01*
G01X5034788Y-689610D01*
G01X4971288Y-672084D02*
G01X4971288Y-675640D01*
G01X4967732Y-682498D01*
G01X4964430Y-686054D01*
G01X4957318Y-689610D01*
G01X4943348Y-689610D01*
G01X4936490Y-686054D01*
G01X4932934Y-682498D01*
G01X4929378Y-675640D01*
G01X4929378Y-668528D01*
G01X4932934Y-661670D01*
G01X4939792Y-651256D01*
G01X4974844Y-616204D01*
G01X4925822Y-616204D01*
G01X4815586Y-689610D02*
G01X4815586Y-637286D01*
G01X4812030Y-626618D01*
G01X4805172Y-619760D01*
G01X4794504Y-616204D01*
G01X4787646Y-616204D01*
G01X4777232Y-619760D01*
G01X4770120Y-626618D01*
G01X4766564Y-637286D01*
G01X4766564Y-689610D01*
G01X4685538Y-679196D02*
G01X4692650Y-686054D01*
G01X4703064Y-689610D01*
G01X4717034Y-689610D01*
G01X4727448Y-686054D01*
G01X4734560Y-679196D01*
G01X4734560Y-672084D01*
G01X4731004Y-665226D01*
G01X4727448Y-661670D01*
G01X4720590Y-658114D01*
G01X4699508Y-651256D01*
G01X4692650Y-647700D01*
G01X4689094Y-644144D01*
G01X4685538Y-637286D01*
G01X4685538Y-626618D01*
G01X4692650Y-619760D01*
G01X4703064Y-616204D01*
G01X4717034Y-616204D01*
G01X4727448Y-619760D01*
G01X4734560Y-626618D01*
G01X4653534Y-689610D02*
G01X4653534Y-616204D01*
G01X4653534Y-689610D02*
G01X4622038Y-689610D01*
G01X4611624Y-686054D01*
G01X4608068Y-682498D01*
G01X4604512Y-675640D01*
G01X4604512Y-668528D01*
G01X4608068Y-661670D01*
G01X4611624Y-658114D01*
G01X4622038Y-654558D01*
G01X4653534Y-654558D02*
G01X4622038Y-654558D01*
G01X4611624Y-651256D01*
G01X4608068Y-647700D01*
G01X4604512Y-640588D01*
G01X4604512Y-630174D01*
G01X4608068Y-623316D01*
G01X4611624Y-619760D01*
G01X4622038Y-616204D01*
G01X4653534Y-616204D01*
G01X4469892Y-689610D02*
G01X4469892Y-616204D01*
G01X4494276Y-689610D02*
G01X4445254Y-689610D01*
G01X4392168Y-689610D02*
G01X4399280Y-686054D01*
G01X4406138Y-679196D01*
G01X4409694Y-672084D01*
G01X4413250Y-661670D01*
G01X4413250Y-644144D01*
G01X4409694Y-633730D01*
G01X4406138Y-626618D01*
G01X4399280Y-619760D01*
G01X4392168Y-616204D01*
G01X4378198Y-616204D01*
G01X4371340Y-619760D01*
G01X4364228Y-626618D01*
G01X4360926Y-633730D01*
G01X4357370Y-644144D01*
G01X4357370Y-661670D01*
G01X4360926Y-672084D01*
G01X4364228Y-679196D01*
G01X4371340Y-686054D01*
G01X4378198Y-689610D01*
G01X4392168Y-689610D01*
G01X4222750Y-689610D02*
G01X4222750Y-616204D01*
G01X4247134Y-689610D02*
G01X4198112Y-689610D01*
G01X4141724Y-689610D02*
G01X4141724Y-616204D01*
G01X4166108Y-689610D02*
G01X4117086Y-689610D01*
G01X4085082Y-689610D02*
G01X4085082Y-616204D01*
G01X4085082Y-616204D02*
G01X4043172Y-616204D01*
G01X5351780Y-562610D02*
G01X5351780Y-489204D01*
G01X5351780Y-562610D02*
G01X5320284Y-562610D01*
G01X5309870Y-559054D01*
G01X5306314Y-555498D01*
G01X5302758Y-548640D01*
G01X5302758Y-538226D01*
G01X5306314Y-531114D01*
G01X5309870Y-527558D01*
G01X5320284Y-524256D01*
G01X5351780Y-524256D01*
G01X5270754Y-562610D02*
G01X5270754Y-489204D01*
G01X5270754Y-562610D02*
G01X5239258Y-562610D01*
G01X5228844Y-559054D01*
G01X5225288Y-555498D01*
G01X5221732Y-548640D01*
G01X5221732Y-541528D01*
G01X5225288Y-534670D01*
G01X5228844Y-531114D01*
G01X5239258Y-527558D01*
G01X5270754Y-527558D01*
G01X5246370Y-527558D02*
G01X5221732Y-489204D01*
G01X5168646Y-562610D02*
G01X5175758Y-559054D01*
G01X5182616Y-552196D01*
G01X5186172Y-545084D01*
G01X5189728Y-534670D01*
G01X5189728Y-517144D01*
G01X5186172Y-506730D01*
G01X5182616Y-499618D01*
G01X5175758Y-492760D01*
G01X5168646Y-489204D01*
G01X5154676Y-489204D01*
G01X5147818Y-492760D01*
G01X5140706Y-499618D01*
G01X5137404Y-506730D01*
G01X5133848Y-517144D01*
G01X5133848Y-534670D01*
G01X5137404Y-545084D01*
G01X5140706Y-552196D01*
G01X5147818Y-559054D01*
G01X5154676Y-562610D01*
G01X5168646Y-562610D01*
G01X5049520Y-545084D02*
G01X5052822Y-552196D01*
G01X5059934Y-559054D01*
G01X5066792Y-562610D01*
G01X5080762Y-562610D01*
G01X5087874Y-559054D01*
G01X5094732Y-552196D01*
G01X5098288Y-545084D01*
G01X5101844Y-534670D01*
G01X5101844Y-517144D01*
G01X5098288Y-506730D01*
G01X5094732Y-499618D01*
G01X5087874Y-492760D01*
G01X5080762Y-489204D01*
G01X5066792Y-489204D01*
G01X5059934Y-492760D01*
G01X5052822Y-499618D01*
G01X5049520Y-506730D01*
G01X5049520Y-517144D01*
G01X5066792Y-517144D02*
G01X5049520Y-517144D01*
G01X5017516Y-562610D02*
G01X5017516Y-489204D01*
G01X5017516Y-562610D02*
G01X4986020Y-562610D01*
G01X4975606Y-559054D01*
G01X4972050Y-555498D01*
G01X4968494Y-548640D01*
G01X4968494Y-541528D01*
G01X4972050Y-534670D01*
G01X4975606Y-531114D01*
G01X4986020Y-527558D01*
G01X5017516Y-527558D01*
G01X4993132Y-527558D02*
G01X4968494Y-489204D01*
G01X4908550Y-562610D02*
G01X4936490Y-489204D01*
G01X4908550Y-562610D02*
G01X4880610Y-489204D01*
G01X4926076Y-513588D02*
G01X4891024Y-513588D01*
G01X4848606Y-562610D02*
G01X4848606Y-489204D01*
G01X4848606Y-562610D02*
G01X4820666Y-489204D01*
G01X4792726Y-562610D02*
G01X4820666Y-489204D01*
G01X4792726Y-562610D02*
G01X4792726Y-489204D01*
G01X4682490Y-562610D02*
G01X4682490Y-489204D01*
G01X4650486Y-562610D02*
G01X4650486Y-489204D01*
G01X4650486Y-562610D02*
G01X4601464Y-489204D01*
G01X4601464Y-562610D02*
G01X4601464Y-489204D01*
G01X4545076Y-562610D02*
G01X4545076Y-489204D01*
G01X4569460Y-562610D02*
G01X4520438Y-562610D01*
G01X4488434Y-562610D02*
G01X4488434Y-489204D01*
G01X4488434Y-562610D02*
G01X4442968Y-562610D01*
G01X4488434Y-527558D02*
G01X4460494Y-527558D01*
G01X4488434Y-489204D02*
G01X4442968Y-489204D01*
G01X4410964Y-562610D02*
G01X4410964Y-489204D01*
G01X4410964Y-562610D02*
G01X4379468Y-562610D01*
G01X4369054Y-559054D01*
G01X4365498Y-555498D01*
G01X4361942Y-548640D01*
G01X4361942Y-541528D01*
G01X4365498Y-534670D01*
G01X4369054Y-531114D01*
G01X4379468Y-527558D01*
G01X4410964Y-527558D01*
G01X4386580Y-527558D02*
G01X4361942Y-489204D01*
G01X4329938Y-562610D02*
G01X4329938Y-489204D01*
G01X4329938Y-562610D02*
G01X4284472Y-562610D01*
G01X4329938Y-527558D02*
G01X4301998Y-527558D01*
G01X4224528Y-562610D02*
G01X4252468Y-489204D01*
G01X4224528Y-562610D02*
G01X4196588Y-489204D01*
G01X4242054Y-513588D02*
G01X4207002Y-513588D01*
G01X4112260Y-545084D02*
G01X4115562Y-552196D01*
G01X4122674Y-559054D01*
G01X4129532Y-562610D01*
G01X4143502Y-562610D01*
G01X4150614Y-559054D01*
G01X4157472Y-552196D01*
G01X4161028Y-545084D01*
G01X4164584Y-534670D01*
G01X4164584Y-517144D01*
G01X4161028Y-506730D01*
G01X4157472Y-499618D01*
G01X4150614Y-492760D01*
G01X4143502Y-489204D01*
G01X4129532Y-489204D01*
G01X4122674Y-492760D01*
G01X4115562Y-499618D01*
G01X4112260Y-506730D01*
G01X4080256Y-562610D02*
G01X4080256Y-489204D01*
G01X4080256Y-562610D02*
G01X4034790Y-562610D01*
G01X4080256Y-527558D02*
G01X4052316Y-527558D01*
G01X4080256Y-489204D02*
G01X4034790Y-489204D01*
G01X13418566Y-8464296D02*
G01X13418566Y-8495284D01*
G01X13446252Y-8498332D01*
G01X13443204Y-8495284D01*
G01X13440156Y-8485886D01*
G01X13440156Y-8476488D01*
G01X13443204Y-8467344D01*
G01X13449554Y-8461248D01*
G01X13458698Y-8457946D01*
G01X13465048Y-8457946D01*
G01X13474192Y-8461248D01*
G01X13480542Y-8467344D01*
G01X13483590Y-8476488D01*
G01X13483590Y-8485886D01*
G01X13480542Y-8495284D01*
G01X13477240Y-8498332D01*
G01X13471144Y-8501380D01*
G01X13418566Y-8427720D02*
G01X13483590Y-8403082D01*
G01X13418566Y-8378190D02*
G01X13483590Y-8403082D01*
G01X13434060Y-8163052D02*
G01X13427710Y-8166100D01*
G01X13421614Y-8172196D01*
G01X13418566Y-8178546D01*
G01X13418566Y-8190738D01*
G01X13421614Y-8197088D01*
G01X13427710Y-8203184D01*
G01X13434060Y-8206232D01*
G01X13443204Y-8209280D01*
G01X13458698Y-8209280D01*
G01X13468096Y-8206232D01*
G01X13474192Y-8203184D01*
G01X13480542Y-8197088D01*
G01X13483590Y-8190738D01*
G01X13483590Y-8178546D01*
G01X13480542Y-8172196D01*
G01X13474192Y-8166100D01*
G01X13468096Y-8163052D01*
G01X13458698Y-8163052D01*
G01X13458698Y-8178546D02*
G01X13458698Y-8163052D01*
G01X13418566Y-8132826D02*
G01X13483590Y-8132826D01*
G01X13418566Y-8132826D02*
G01X13483590Y-8089646D01*
G01X13418566Y-8089646D02*
G01X13483590Y-8089646D01*
G01X13418566Y-8059420D02*
G01X13483590Y-8059420D01*
G01X13418566Y-8059420D02*
G01X13418566Y-8037830D01*
G01X13421614Y-8028686D01*
G01X13427710Y-8022336D01*
G01X13434060Y-8019288D01*
G01X13443204Y-8016240D01*
G01X13458698Y-8016240D01*
G01X13468096Y-8019288D01*
G01X13474192Y-8022336D01*
G01X13480542Y-8028686D01*
G01X13483590Y-8037830D01*
G01X13483590Y-8059420D01*
G01X4007866Y-958596D02*
G01X4007866Y-989584D01*
G01X4035552Y-992632D01*
G01X4032504Y-989584D01*
G01X4029456Y-980186D01*
G01X4029456Y-970788D01*
G01X4032504Y-961644D01*
G01X4038854Y-955548D01*
G01X4047998Y-952246D01*
G01X4054348Y-952246D01*
G01X4063492Y-955548D01*
G01X4069842Y-961644D01*
G01X4072890Y-970788D01*
G01X4072890Y-980186D01*
G01X4069842Y-989584D01*
G01X4066540Y-992632D01*
G01X4060444Y-995680D01*
G01X4007866Y-922020D02*
G01X4072890Y-897382D01*
G01X4007866Y-872490D02*
G01X4072890Y-897382D01*
G01X4277360Y-970534D02*
G01X4271010Y-973582D01*
G01X4264914Y-979932D01*
G01X4261866Y-986028D01*
G01X4261866Y-998474D01*
G01X4264914Y-1004570D01*
G01X4271010Y-1010920D01*
G01X4277360Y-1013968D01*
G01X4286504Y-1017016D01*
G01X4301998Y-1017016D01*
G01X4311396Y-1013968D01*
G01X4317492Y-1010920D01*
G01X4323842Y-1004570D01*
G01X4326890Y-998474D01*
G01X4326890Y-986028D01*
G01X4323842Y-979932D01*
G01X4317492Y-973582D01*
G01X4311396Y-970534D01*
G01X4301998Y-970534D01*
G01X4301998Y-986028D02*
G01X4301998Y-970534D01*
G01X4261866Y-940308D02*
G01X4326890Y-940308D01*
G01X4261866Y-940308D02*
G01X4326890Y-897128D01*
G01X4261866Y-897128D02*
G01X4326890Y-897128D01*
G01X4261866Y-866902D02*
G01X4326890Y-866902D01*
G01X4261866Y-866902D02*
G01X4261866Y-845312D01*
G01X4264914Y-836168D01*
G01X4271010Y-829818D01*
G01X4277360Y-826770D01*
G01X4286504Y-823722D01*
G01X4301998Y-823722D01*
G01X4311396Y-826770D01*
G01X4317492Y-829818D01*
G01X4323842Y-836168D01*
G01X4326890Y-845312D01*
G01X4326890Y-866902D01*
G01X4515866Y-995426D02*
G01X4580890Y-995426D01*
G01X4515866Y-1017016D02*
G01X4515866Y-973582D01*
G01X4515866Y-943356D02*
G01X4580890Y-900176D01*
G01X4515866Y-900176D02*
G01X4580890Y-943356D01*
G01X4757166Y-1017016D02*
G01X4822190Y-1017016D01*
G01X4757166Y-1017016D02*
G01X4757166Y-989076D01*
G01X4760214Y-979932D01*
G01X4763262Y-976884D01*
G01X4769612Y-973582D01*
G01X4775708Y-973582D01*
G01X4781804Y-976884D01*
G01X4784852Y-979932D01*
G01X4788154Y-989076D01*
G01X4788154Y-1017016D01*
G01X4788154Y-995426D02*
G01X4822190Y-973582D01*
G01X4757166Y-943356D02*
G01X4822190Y-900176D01*
G01X4757166Y-900176D02*
G01X4822190Y-943356D01*
G01X5341366Y-1017016D02*
G01X5406390Y-1017016D01*
G01X5341366Y-1017016D02*
G01X5341366Y-995426D01*
G01X5344414Y-986028D01*
G01X5350510Y-979932D01*
G01X5356860Y-976884D01*
G01X5366004Y-973582D01*
G01X5381498Y-973582D01*
G01X5390896Y-976884D01*
G01X5396992Y-979932D01*
G01X5403342Y-986028D01*
G01X5406390Y-995426D01*
G01X5406390Y-1017016D01*
G01X5341366Y-921766D02*
G01X5406390Y-921766D01*
G01X5341366Y-943356D02*
G01X5341366Y-900176D01*
G01X5341366Y-869950D02*
G01X5406390Y-869950D01*
G01X5341366Y-869950D02*
G01X5341366Y-842264D01*
G01X5344414Y-832866D01*
G01X5347462Y-829818D01*
G01X5353812Y-826770D01*
G01X5359908Y-826770D01*
G01X5366004Y-829818D01*
G01X5369052Y-832866D01*
G01X5372354Y-842264D01*
G01X5372354Y-869950D01*
G01X5372354Y-848360D02*
G01X5406390Y-826770D01*
G01X5036566Y-1010920D02*
G01X5036566Y-976884D01*
G01X5061204Y-995426D01*
G01X5061204Y-986028D01*
G01X5064252Y-979932D01*
G01X5067554Y-976884D01*
G01X5076698Y-973582D01*
G01X5083048Y-973582D01*
G01X5092192Y-976884D01*
G01X5098542Y-982980D01*
G01X5101590Y-992124D01*
G01X5101590Y-1001522D01*
G01X5098542Y-1010920D01*
G01X5095240Y-1013968D01*
G01X5089144Y-1017016D01*
G01X5086096Y-940308D02*
G01X5089144Y-943356D01*
G01X5092192Y-940308D01*
G01X5089144Y-937260D01*
G01X5086096Y-940308D01*
G01X5036566Y-900938D02*
G01X5036566Y-866902D01*
G01X5061204Y-885444D01*
G01X5061204Y-876300D01*
G01X5064252Y-869950D01*
G01X5067554Y-866902D01*
G01X5076698Y-863854D01*
G01X5083048Y-863854D01*
G01X5092192Y-866902D01*
G01X5098542Y-872998D01*
G01X5101590Y-882396D01*
G01X5101590Y-891794D01*
G01X5098542Y-900938D01*
G01X5095240Y-903986D01*
G01X5089144Y-907034D01*
G01X5036566Y-833628D02*
G01X5101590Y-808990D01*
G01X5036566Y-784098D02*
G01X5101590Y-808990D01*
G01X5121910Y-4973320D02*
G01X5048504Y-4973320D01*
G01X5121910Y-4973320D02*
G01X5121910Y-5018786D01*
G01X5086858Y-4973320D02*
G01X5086858Y-5001260D01*
G01X5048504Y-4973320D02*
G01X5048504Y-5018786D01*
G01X5111496Y-5099812D02*
G01X5118354Y-5092700D01*
G01X5121910Y-5082286D01*
G01X5121910Y-5068316D01*
G01X5118354Y-5057902D01*
G01X5111496Y-5050790D01*
G01X5104384Y-5050790D01*
G01X5097526Y-5054346D01*
G01X5093970Y-5057902D01*
G01X5090414Y-5064760D01*
G01X5083556Y-5085842D01*
G01X5080000Y-5092700D01*
G01X5076444Y-5096256D01*
G01X5069586Y-5099812D01*
G01X5058918Y-5099812D01*
G01X5052060Y-5092700D01*
G01X5048504Y-5082286D01*
G01X5048504Y-5068316D01*
G01X5052060Y-5057902D01*
G01X5058918Y-5050790D01*
G01X5121910Y-5131816D02*
G01X5048504Y-5131816D01*
G01X5121910Y-5131816D02*
G01X5121910Y-5163312D01*
G01X5118354Y-5173726D01*
G01X5114798Y-5177282D01*
G01X5107940Y-5180838D01*
G01X5097526Y-5180838D01*
G01X5090414Y-5177282D01*
G01X5086858Y-5173726D01*
G01X5083556Y-5163312D01*
G01X5083556Y-5131816D01*
G01X5121910Y-5230368D02*
G01X5118354Y-5219954D01*
G01X5111496Y-5216398D01*
G01X5104384Y-5216398D01*
G01X5097526Y-5219954D01*
G01X5093970Y-5226812D01*
G01X5090414Y-5240782D01*
G01X5086858Y-5251196D01*
G01X5080000Y-5258308D01*
G01X5072888Y-5261864D01*
G01X5062474Y-5261864D01*
G01X5055616Y-5258308D01*
G01X5052060Y-5254752D01*
G01X5048504Y-5244338D01*
G01X5048504Y-5230368D01*
G01X5052060Y-5219954D01*
G01X5055616Y-5216398D01*
G01X5062474Y-5212842D01*
G01X5072888Y-5212842D01*
G01X5080000Y-5216398D01*
G01X5086858Y-5223256D01*
G01X5090414Y-5233924D01*
G01X5093970Y-5247894D01*
G01X5097526Y-5254752D01*
G01X5104384Y-5258308D01*
G01X5111496Y-5258308D01*
G01X5118354Y-5254752D01*
G01X5121910Y-5244338D01*
G01X5121910Y-5230368D01*
G01X5104384Y-5297424D02*
G01X5107940Y-5297424D01*
G01X5114798Y-5300980D01*
G01X5118354Y-5304282D01*
G01X5121910Y-5311394D01*
G01X5121910Y-5325364D01*
G01X5118354Y-5332222D01*
G01X5114798Y-5335778D01*
G01X5107940Y-5339334D01*
G01X5100828Y-5339334D01*
G01X5093970Y-5335778D01*
G01X5083556Y-5328920D01*
G01X5048504Y-5293868D01*
G01X5048504Y-5342890D01*
G01X5111496Y-5416804D02*
G01X5118354Y-5413248D01*
G01X5121910Y-5402834D01*
G01X5121910Y-5395976D01*
G01X5118354Y-5385308D01*
G01X5107940Y-5378450D01*
G01X5090414Y-5374894D01*
G01X5072888Y-5374894D01*
G01X5058918Y-5378450D01*
G01X5052060Y-5385308D01*
G01X5048504Y-5395976D01*
G01X5048504Y-5399278D01*
G01X5052060Y-5409946D01*
G01X5058918Y-5416804D01*
G01X5069586Y-5420360D01*
G01X5072888Y-5420360D01*
G01X5083556Y-5416804D01*
G01X5090414Y-5409946D01*
G01X5093970Y-5399278D01*
G01X5093970Y-5395976D01*
G01X5090414Y-5385308D01*
G01X5083556Y-5378450D01*
G01X5072888Y-5374894D01*
G01X5111496Y-5494274D02*
G01X5118354Y-5490718D01*
G01X5121910Y-5480304D01*
G01X5121910Y-5473446D01*
G01X5118354Y-5462778D01*
G01X5107940Y-5455920D01*
G01X5090414Y-5452364D01*
G01X5072888Y-5452364D01*
G01X5058918Y-5455920D01*
G01X5052060Y-5462778D01*
G01X5048504Y-5473446D01*
G01X5048504Y-5476748D01*
G01X5052060Y-5487416D01*
G01X5058918Y-5494274D01*
G01X5069586Y-5497830D01*
G01X5072888Y-5497830D01*
G01X5083556Y-5494274D01*
G01X5090414Y-5487416D01*
G01X5093970Y-5476748D01*
G01X5093970Y-5473446D01*
G01X5090414Y-5462778D01*
G01X5083556Y-5455920D01*
G01X5072888Y-5452364D01*
G01X5121910Y-5608066D02*
G01X5048504Y-5608066D01*
G01X5121910Y-5608066D02*
G01X5048504Y-5657088D01*
G01X5121910Y-5657088D02*
G01X5048504Y-5657088D01*
G01X5121910Y-5710174D02*
G01X5118354Y-5703062D01*
G01X5111496Y-5696204D01*
G01X5104384Y-5692648D01*
G01X5093970Y-5689092D01*
G01X5076444Y-5689092D01*
G01X5066030Y-5692648D01*
G01X5058918Y-5696204D01*
G01X5052060Y-5703062D01*
G01X5048504Y-5710174D01*
G01X5048504Y-5724144D01*
G01X5052060Y-5731002D01*
G01X5058918Y-5738114D01*
G01X5066030Y-5741416D01*
G01X5076444Y-5744972D01*
G01X5093970Y-5744972D01*
G01X5104384Y-5741416D01*
G01X5111496Y-5738114D01*
G01X5118354Y-5731002D01*
G01X5121910Y-5724144D01*
G01X5121910Y-5710174D01*
G01X5121910Y-5776976D02*
G01X5048504Y-5776976D01*
G01X5121910Y-5776976D02*
G01X5121910Y-5801360D01*
G01X5118354Y-5812028D01*
G01X5111496Y-5818886D01*
G01X5104384Y-5822442D01*
G01X5093970Y-5825998D01*
G01X5076444Y-5825998D01*
G01X5066030Y-5822442D01*
G01X5058918Y-5818886D01*
G01X5052060Y-5812028D01*
G01X5048504Y-5801360D01*
G01X5048504Y-5776976D01*
G01X5121910Y-5858002D02*
G01X5048504Y-5858002D01*
G01X5121910Y-5858002D02*
G01X5121910Y-5903468D01*
G01X5086858Y-5858002D02*
G01X5086858Y-5885942D01*
G01X5048504Y-5858002D02*
G01X5048504Y-5903468D01*
G01X5121910Y-5935472D02*
G01X5048504Y-5935472D01*
G01X5121910Y-5935472D02*
G01X5048504Y-5963412D01*
G01X5121910Y-5991352D02*
G01X5048504Y-5963412D01*
G01X5121910Y-5991352D02*
G01X5048504Y-5991352D01*
G01X5104384Y-6075680D02*
G01X5111496Y-6072378D01*
G01X5118354Y-6065266D01*
G01X5121910Y-6058408D01*
G01X5121910Y-6044438D01*
G01X5118354Y-6037326D01*
G01X5111496Y-6030468D01*
G01X5104384Y-6026912D01*
G01X5093970Y-6023356D01*
G01X5076444Y-6023356D01*
G01X5066030Y-6026912D01*
G01X5058918Y-6030468D01*
G01X5052060Y-6037326D01*
G01X5048504Y-6044438D01*
G01X5048504Y-6058408D01*
G01X5052060Y-6065266D01*
G01X5058918Y-6072378D01*
G01X5066030Y-6075680D01*
G01X5121910Y-6107684D02*
G01X5069586Y-6107684D01*
G01X5058918Y-6111240D01*
G01X5052060Y-6118098D01*
G01X5048504Y-6128766D01*
G01X5048504Y-6135624D01*
G01X5052060Y-6146038D01*
G01X5058918Y-6153150D01*
G01X5069586Y-6156706D01*
G01X5121910Y-6156706D01*
G01X5121910Y-6266942D02*
G01X5048504Y-6294882D01*
G01X5121910Y-6322822D02*
G01X5048504Y-6294882D01*
G01X5121910Y-6361938D02*
G01X5121910Y-6400292D01*
G01X5093970Y-6379210D01*
G01X5093970Y-6389878D01*
G01X5090414Y-6396736D01*
G01X5086858Y-6400292D01*
G01X5076444Y-6403848D01*
G01X5069586Y-6403848D01*
G01X5058918Y-6400292D01*
G01X5052060Y-6393180D01*
G01X5048504Y-6382766D01*
G01X5048504Y-6372352D01*
G01X5052060Y-6361938D01*
G01X5055616Y-6358382D01*
G01X5062474Y-6354826D01*
G54D11*
G01X3660140Y-9288780D02*
G01X3660140Y-9435592D01*
G01X3660140Y-9288780D02*
G01X3751072Y-9288780D01*
G01X3660140Y-9358630D02*
G01X3716020Y-9358630D01*
G01X3660140Y-9435592D02*
G01X3751072Y-9435592D01*
G01X3912870Y-9309862D02*
G01X3898900Y-9295892D01*
G01X3878072Y-9288780D01*
G01X3850132Y-9288780D01*
G01X3829050Y-9295892D01*
G01X3815080Y-9309862D01*
G01X3815080Y-9323832D01*
G01X3822192Y-9337802D01*
G01X3829050Y-9344660D01*
G01X3843020Y-9351772D01*
G01X3884930Y-9365742D01*
G01X3898900Y-9372600D01*
G01X3906012Y-9379712D01*
G01X3912870Y-9393682D01*
G01X3912870Y-9414510D01*
G01X3898900Y-9428480D01*
G01X3878072Y-9435592D01*
G01X3850132Y-9435592D01*
G01X3829050Y-9428480D01*
G01X3815080Y-9414510D01*
G01X3976878Y-9288780D02*
G01X3976878Y-9435592D01*
G01X3976878Y-9288780D02*
G01X4039870Y-9288780D01*
G01X4060698Y-9295892D01*
G01X4067810Y-9302750D01*
G01X4074668Y-9316720D01*
G01X4074668Y-9337802D01*
G01X4067810Y-9351772D01*
G01X4060698Y-9358630D01*
G01X4039870Y-9365742D01*
G01X3976878Y-9365742D01*
G01X4173728Y-9288780D02*
G01X4152646Y-9295892D01*
G01X4145788Y-9309862D01*
G01X4145788Y-9323832D01*
G01X4152646Y-9337802D01*
G01X4166616Y-9344660D01*
G01X4194556Y-9351772D01*
G01X4215638Y-9358630D01*
G01X4229608Y-9372600D01*
G01X4236466Y-9386570D01*
G01X4236466Y-9407652D01*
G01X4229608Y-9421622D01*
G01X4222496Y-9428480D01*
G01X4201668Y-9435592D01*
G01X4173728Y-9435592D01*
G01X4152646Y-9428480D01*
G01X4145788Y-9421622D01*
G01X4138676Y-9407652D01*
G01X4138676Y-9386570D01*
G01X4145788Y-9372600D01*
G01X4159758Y-9358630D01*
G01X4180586Y-9351772D01*
G01X4208526Y-9344660D01*
G01X4222496Y-9337802D01*
G01X4229608Y-9323832D01*
G01X4229608Y-9309862D01*
G01X4222496Y-9295892D01*
G01X4201668Y-9288780D01*
G01X4173728Y-9288780D01*
G01X4307586Y-9323832D02*
G01X4307586Y-9316720D01*
G01X4314444Y-9302750D01*
G01X4321556Y-9295892D01*
G01X4335526Y-9288780D01*
G01X4363466Y-9288780D01*
G01X4377436Y-9295892D01*
G01X4384294Y-9302750D01*
G01X4391406Y-9316720D01*
G01X4391406Y-9330690D01*
G01X4384294Y-9344660D01*
G01X4370324Y-9365742D01*
G01X4300474Y-9435592D01*
G01X4398264Y-9435592D01*
G01X4546092Y-9309862D02*
G01X4539234Y-9295892D01*
G01X4518152Y-9288780D01*
G01X4504182Y-9288780D01*
G01X4483354Y-9295892D01*
G01X4469384Y-9316720D01*
G01X4462272Y-9351772D01*
G01X4462272Y-9386570D01*
G01X4469384Y-9414510D01*
G01X4483354Y-9428480D01*
G01X4504182Y-9435592D01*
G01X4511294Y-9435592D01*
G01X4532122Y-9428480D01*
G01X4546092Y-9414510D01*
G01X4553204Y-9393682D01*
G01X4553204Y-9386570D01*
G01X4546092Y-9365742D01*
G01X4532122Y-9351772D01*
G01X4511294Y-9344660D01*
G01X4504182Y-9344660D01*
G01X4483354Y-9351772D01*
G01X4469384Y-9365742D01*
G01X4462272Y-9386570D01*
G01X4701032Y-9309862D02*
G01X4694174Y-9295892D01*
G01X4673092Y-9288780D01*
G01X4659122Y-9288780D01*
G01X4638294Y-9295892D01*
G01X4624324Y-9316720D01*
G01X4617212Y-9351772D01*
G01X4617212Y-9386570D01*
G01X4624324Y-9414510D01*
G01X4638294Y-9428480D01*
G01X4659122Y-9435592D01*
G01X4666234Y-9435592D01*
G01X4687062Y-9428480D01*
G01X4701032Y-9414510D01*
G01X4708144Y-9393682D01*
G01X4708144Y-9386570D01*
G01X4701032Y-9365742D01*
G01X4687062Y-9351772D01*
G01X4666234Y-9344660D01*
G01X4659122Y-9344660D01*
G01X4638294Y-9351772D01*
G01X4624324Y-9365742D01*
G01X4617212Y-9386570D01*
G01X4772152Y-9372600D02*
G01X4897882Y-9372600D01*
G01X4961890Y-9288780D02*
G01X4961890Y-9435592D01*
G01X4961890Y-9288780D02*
G01X5024882Y-9288780D01*
G01X5045710Y-9295892D01*
G01X5052822Y-9302750D01*
G01X5059680Y-9316720D01*
G01X5059680Y-9330690D01*
G01X5052822Y-9344660D01*
G01X5045710Y-9351772D01*
G01X5024882Y-9358630D01*
G01X4961890Y-9358630D02*
G01X5024882Y-9358630D01*
G01X5045710Y-9365742D01*
G01X5052822Y-9372600D01*
G01X5059680Y-9386570D01*
G01X5059680Y-9407652D01*
G01X5052822Y-9421622D01*
G01X5045710Y-9428480D01*
G01X5024882Y-9435592D01*
G01X4961890Y-9435592D01*
G01X5179568Y-9288780D02*
G01X5123688Y-9435592D01*
G01X5179568Y-9288780D02*
G01X5235448Y-9435592D01*
G01X5144770Y-9386570D02*
G01X5214620Y-9386570D01*
G01X5397246Y-9309862D02*
G01X5383276Y-9295892D01*
G01X5362448Y-9288780D01*
G01X5334508Y-9288780D01*
G01X5313426Y-9295892D01*
G01X5299456Y-9309862D01*
G01X5299456Y-9323832D01*
G01X5306568Y-9337802D01*
G01X5313426Y-9344660D01*
G01X5327396Y-9351772D01*
G01X5369306Y-9365742D01*
G01X5383276Y-9372600D01*
G01X5390388Y-9379712D01*
G01X5397246Y-9393682D01*
G01X5397246Y-9414510D01*
G01X5383276Y-9428480D01*
G01X5362448Y-9435592D01*
G01X5334508Y-9435592D01*
G01X5313426Y-9428480D01*
G01X5299456Y-9414510D01*
G01X5461254Y-9288780D02*
G01X5461254Y-9435592D01*
G01X5461254Y-9288780D02*
G01X5552186Y-9288780D01*
G01X5461254Y-9358630D02*
G01X5517134Y-9358630D01*
G01X5461254Y-9435592D02*
G01X5552186Y-9435592D01*
G01X5616194Y-9288780D02*
G01X5616194Y-9435592D01*
G01X5616194Y-9288780D02*
G01X5665216Y-9288780D01*
G01X5686044Y-9295892D01*
G01X5700014Y-9309862D01*
G01X5707126Y-9323832D01*
G01X5713984Y-9344660D01*
G01X5713984Y-9379712D01*
G01X5707126Y-9400540D01*
G01X5700014Y-9414510D01*
G01X5686044Y-9428480D01*
G01X5665216Y-9435592D01*
G01X5616194Y-9435592D01*
G01X5934456Y-9288780D02*
G01X5941568Y-9295892D01*
G01X5948426Y-9288780D01*
G01X5941568Y-9281922D01*
G01X5934456Y-9288780D01*
G01X5941568Y-9337802D02*
G01X5941568Y-9435592D01*
G01X6047486Y-9337802D02*
G01X6033516Y-9344660D01*
G01X6019546Y-9358630D01*
G01X6012434Y-9379712D01*
G01X6012434Y-9393682D01*
G01X6019546Y-9414510D01*
G01X6033516Y-9428480D01*
G01X6047486Y-9435592D01*
G01X6068314Y-9435592D01*
G01X6082284Y-9428480D01*
G01X6096254Y-9414510D01*
G01X6103366Y-9393682D01*
G01X6103366Y-9379712D01*
G01X6096254Y-9358630D01*
G01X6082284Y-9344660D01*
G01X6068314Y-9337802D01*
G01X6047486Y-9337802D01*
G01X6216396Y-9288780D02*
G01X6216396Y-9435592D01*
G01X6167374Y-9288780D02*
G01X6265164Y-9288780D01*
G01X6485636Y-9288780D02*
G01X6485636Y-9435592D01*
G01X6485636Y-9288780D02*
G01X6548628Y-9288780D01*
G01X6569456Y-9295892D01*
G01X6576568Y-9302750D01*
G01X6583426Y-9316720D01*
G01X6583426Y-9337802D01*
G01X6576568Y-9351772D01*
G01X6569456Y-9358630D01*
G01X6548628Y-9365742D01*
G01X6485636Y-9365742D01*
G01X6647434Y-9288780D02*
G01X6647434Y-9435592D01*
G01X6647434Y-9435592D02*
G01X6731254Y-9435592D01*
G01X6851142Y-9288780D02*
G01X6795262Y-9435592D01*
G01X6851142Y-9288780D02*
G01X6907022Y-9435592D01*
G01X6816344Y-9386570D02*
G01X6886194Y-9386570D01*
G01X6971030Y-9288780D02*
G01X6971030Y-9435592D01*
G01X6971030Y-9288780D02*
G01X7068820Y-9435592D01*
G01X7068820Y-9288780D02*
G01X7068820Y-9435592D01*
G01X7181850Y-9288780D02*
G01X7181850Y-9435592D01*
G01X7132828Y-9288780D02*
G01X7230618Y-9288780D01*
G01X7451090Y-9288780D02*
G01X7451090Y-9435592D01*
G01X7451090Y-9288780D02*
G01X7542022Y-9288780D01*
G01X7451090Y-9358630D02*
G01X7506970Y-9358630D01*
G01X7451090Y-9435592D02*
G01X7542022Y-9435592D01*
G01X7606030Y-9288780D02*
G01X7606030Y-9435592D01*
G01X7606030Y-9288780D02*
G01X7703820Y-9435592D01*
G01X7703820Y-9288780D02*
G01X7703820Y-9435592D01*
G01X7767828Y-9288780D02*
G01X7823708Y-9435592D01*
G01X7879588Y-9288780D02*
G01X7823708Y-9435592D01*
G01X7943596Y-9288780D02*
G01X7943596Y-9435592D01*
G01X8007604Y-9288780D02*
G01X8007604Y-9435592D01*
G01X8007604Y-9288780D02*
G01X8070596Y-9288780D01*
G01X8091424Y-9295892D01*
G01X8098536Y-9302750D01*
G01X8105394Y-9316720D01*
G01X8105394Y-9330690D01*
G01X8098536Y-9344660D01*
G01X8091424Y-9351772D01*
G01X8070596Y-9358630D01*
G01X8007604Y-9358630D01*
G01X8056626Y-9358630D02*
G01X8105394Y-9435592D01*
G01X8211312Y-9288780D02*
G01X8197342Y-9295892D01*
G01X8183372Y-9309862D01*
G01X8176514Y-9323832D01*
G01X8169402Y-9344660D01*
G01X8169402Y-9379712D01*
G01X8176514Y-9400540D01*
G01X8183372Y-9414510D01*
G01X8197342Y-9428480D01*
G01X8211312Y-9435592D01*
G01X8239252Y-9435592D01*
G01X8253222Y-9428480D01*
G01X8267192Y-9414510D01*
G01X8274304Y-9400540D01*
G01X8281162Y-9379712D01*
G01X8281162Y-9344660D01*
G01X8274304Y-9323832D01*
G01X8267192Y-9309862D01*
G01X8253222Y-9295892D01*
G01X8239252Y-9288780D01*
G01X8211312Y-9288780D01*
G01X8345170Y-9288780D02*
G01X8345170Y-9435592D01*
G01X8345170Y-9288780D02*
G01X8442960Y-9435592D01*
G01X8442960Y-9288780D02*
G01X8442960Y-9435592D01*
G01X8506968Y-9288780D02*
G01X8506968Y-9435592D01*
G01X8506968Y-9288780D02*
G01X8562848Y-9435592D01*
G01X8618728Y-9288780D02*
G01X8562848Y-9435592D01*
G01X8618728Y-9288780D02*
G01X8618728Y-9435592D01*
G01X8682736Y-9288780D02*
G01X8682736Y-9435592D01*
G01X8682736Y-9288780D02*
G01X8773668Y-9288780D01*
G01X8682736Y-9358630D02*
G01X8738616Y-9358630D01*
G01X8682736Y-9435592D02*
G01X8773668Y-9435592D01*
G01X8837676Y-9288780D02*
G01X8837676Y-9435592D01*
G01X8837676Y-9288780D02*
G01X8935466Y-9435592D01*
G01X8935466Y-9288780D02*
G01X8935466Y-9435592D01*
G01X9048496Y-9288780D02*
G01X9048496Y-9435592D01*
G01X8999474Y-9288780D02*
G01X9097264Y-9288780D01*
G01X9317736Y-9288780D02*
G01X9317736Y-9435592D01*
G01X9317736Y-9288780D02*
G01X9373616Y-9435592D01*
G01X9429496Y-9288780D02*
G01X9373616Y-9435592D01*
G01X9429496Y-9288780D02*
G01X9429496Y-9435592D01*
G01X9549384Y-9288780D02*
G01X9493504Y-9435592D01*
G01X9549384Y-9288780D02*
G01X9605264Y-9435592D01*
G01X9514586Y-9386570D02*
G01X9584436Y-9386570D01*
G01X9669272Y-9288780D02*
G01X9669272Y-9435592D01*
G01X9669272Y-9288780D02*
G01X9767062Y-9435592D01*
G01X9767062Y-9288780D02*
G01X9767062Y-9435592D01*
G01X9886950Y-9288780D02*
G01X9831070Y-9435592D01*
G01X9886950Y-9288780D02*
G01X9942830Y-9435592D01*
G01X9852152Y-9386570D02*
G01X9922002Y-9386570D01*
G01X10111740Y-9323832D02*
G01X10104628Y-9309862D01*
G01X10090658Y-9295892D01*
G01X10076688Y-9288780D01*
G01X10048748Y-9288780D01*
G01X10034778Y-9295892D01*
G01X10020808Y-9309862D01*
G01X10013950Y-9323832D01*
G01X10006838Y-9344660D01*
G01X10006838Y-9379712D01*
G01X10013950Y-9400540D01*
G01X10020808Y-9414510D01*
G01X10034778Y-9428480D01*
G01X10048748Y-9435592D01*
G01X10076688Y-9435592D01*
G01X10090658Y-9428480D01*
G01X10104628Y-9414510D01*
G01X10111740Y-9400540D01*
G01X10111740Y-9379712D01*
G01X10076688Y-9379712D02*
G01X10111740Y-9379712D01*
G01X10175748Y-9288780D02*
G01X10175748Y-9435592D01*
G01X10175748Y-9288780D02*
G01X10266680Y-9288780D01*
G01X10175748Y-9358630D02*
G01X10231628Y-9358630D01*
G01X10175748Y-9435592D02*
G01X10266680Y-9435592D01*
G01X10330688Y-9288780D02*
G01X10330688Y-9435592D01*
G01X10330688Y-9288780D02*
G01X10386568Y-9435592D01*
G01X10442448Y-9288780D02*
G01X10386568Y-9435592D01*
G01X10442448Y-9288780D02*
G01X10442448Y-9435592D01*
G01X10506456Y-9288780D02*
G01X10506456Y-9435592D01*
G01X10506456Y-9288780D02*
G01X10597388Y-9288780D01*
G01X10506456Y-9358630D02*
G01X10562336Y-9358630D01*
G01X10506456Y-9435592D02*
G01X10597388Y-9435592D01*
G01X10661396Y-9288780D02*
G01X10661396Y-9435592D01*
G01X10661396Y-9288780D02*
G01X10759186Y-9435592D01*
G01X10759186Y-9288780D02*
G01X10759186Y-9435592D01*
G01X10872216Y-9288780D02*
G01X10872216Y-9435592D01*
G01X10823194Y-9288780D02*
G01X10920984Y-9288780D01*
G01X11239246Y-9309862D02*
G01X11225276Y-9295892D01*
G01X11204448Y-9288780D01*
G01X11176508Y-9288780D01*
G01X11155426Y-9295892D01*
G01X11141456Y-9309862D01*
G01X11141456Y-9323832D01*
G01X11148568Y-9337802D01*
G01X11155426Y-9344660D01*
G01X11169396Y-9351772D01*
G01X11211306Y-9365742D01*
G01X11225276Y-9372600D01*
G01X11232388Y-9379712D01*
G01X11239246Y-9393682D01*
G01X11239246Y-9414510D01*
G01X11225276Y-9428480D01*
G01X11204448Y-9435592D01*
G01X11176508Y-9435592D01*
G01X11155426Y-9428480D01*
G01X11141456Y-9414510D01*
G01X11303254Y-9288780D02*
G01X11359134Y-9358630D01*
G01X11359134Y-9435592D01*
G01X11415014Y-9288780D02*
G01X11359134Y-9358630D01*
G01X11576812Y-9309862D02*
G01X11562842Y-9295892D01*
G01X11542014Y-9288780D01*
G01X11514074Y-9288780D01*
G01X11492992Y-9295892D01*
G01X11479022Y-9309862D01*
G01X11479022Y-9323832D01*
G01X11486134Y-9337802D01*
G01X11492992Y-9344660D01*
G01X11506962Y-9351772D01*
G01X11548872Y-9365742D01*
G01X11562842Y-9372600D01*
G01X11569954Y-9379712D01*
G01X11576812Y-9393682D01*
G01X11576812Y-9414510D01*
G01X11562842Y-9428480D01*
G01X11542014Y-9435592D01*
G01X11514074Y-9435592D01*
G01X11492992Y-9428480D01*
G01X11479022Y-9414510D01*
G01X11689842Y-9288780D02*
G01X11689842Y-9435592D01*
G01X11640820Y-9288780D02*
G01X11738610Y-9288780D01*
G01X11802618Y-9288780D02*
G01X11802618Y-9435592D01*
G01X11802618Y-9288780D02*
G01X11893550Y-9288780D01*
G01X11802618Y-9358630D02*
G01X11858498Y-9358630D01*
G01X11802618Y-9435592D02*
G01X11893550Y-9435592D01*
G01X11957558Y-9288780D02*
G01X11957558Y-9435592D01*
G01X11957558Y-9288780D02*
G01X12013438Y-9435592D01*
G01X12069318Y-9288780D02*
G01X12013438Y-9435592D01*
G01X12069318Y-9288780D02*
G01X12069318Y-9435592D01*
G01X12289790Y-9260840D02*
G01X12289790Y-9484360D01*
G01X12296902Y-9260840D02*
G01X12296902Y-9484360D01*
G01X12289790Y-9260840D02*
G01X12338812Y-9260840D01*
G01X12289790Y-9484360D02*
G01X12338812Y-9484360D01*
G01X12402820Y-9288780D02*
G01X12402820Y-9435592D01*
G01X12402820Y-9288780D02*
G01X12465812Y-9288780D01*
G01X12486640Y-9295892D01*
G01X12493752Y-9302750D01*
G01X12500610Y-9316720D01*
G01X12500610Y-9337802D01*
G01X12493752Y-9351772D01*
G01X12486640Y-9358630D01*
G01X12465812Y-9365742D01*
G01X12402820Y-9365742D01*
G01X12564618Y-9288780D02*
G01X12564618Y-9435592D01*
G01X12564618Y-9288780D02*
G01X12655550Y-9288780D01*
G01X12564618Y-9358630D02*
G01X12620498Y-9358630D01*
G01X12564618Y-9435592D02*
G01X12655550Y-9435592D01*
G01X12719558Y-9288780D02*
G01X12719558Y-9435592D01*
G01X12719558Y-9288780D02*
G01X12775438Y-9435592D01*
G01X12831318Y-9288780D02*
G01X12775438Y-9435592D01*
G01X12831318Y-9288780D02*
G01X12831318Y-9435592D01*
G01X12993116Y-9309862D02*
G01X12979146Y-9295892D01*
G01X12958318Y-9288780D01*
G01X12930378Y-9288780D01*
G01X12909296Y-9295892D01*
G01X12895326Y-9309862D01*
G01X12895326Y-9323832D01*
G01X12902438Y-9337802D01*
G01X12909296Y-9344660D01*
G01X12923266Y-9351772D01*
G01X12965176Y-9365742D01*
G01X12979146Y-9372600D01*
G01X12986258Y-9379712D01*
G01X12993116Y-9393682D01*
G01X12993116Y-9414510D01*
G01X12979146Y-9428480D01*
G01X12958318Y-9435592D01*
G01X12930378Y-9435592D01*
G01X12909296Y-9428480D01*
G01X12895326Y-9414510D01*
G01X13099034Y-9260840D02*
G01X13099034Y-9484360D01*
G01X13106146Y-9260840D02*
G01X13106146Y-9484360D01*
G01X13057124Y-9260840D02*
G01X13106146Y-9260840D01*
G01X13057124Y-9484360D02*
G01X13106146Y-9484360D01*
G54D10*
G01X13443966Y-1960880D02*
G01X13508990Y-1960880D01*
G01X13443966Y-1960880D02*
G01X13508990Y-1917446D01*
G01X13443966Y-1917446D02*
G01X13508990Y-1917446D01*
G01X13443966Y-1868678D02*
G01X13447014Y-1875028D01*
G01X13453110Y-1881124D01*
G01X13459460Y-1884172D01*
G01X13468604Y-1887220D01*
G01X13484098Y-1887220D01*
G01X13493496Y-1884172D01*
G01X13499592Y-1881124D01*
G01X13505942Y-1875028D01*
G01X13508990Y-1868678D01*
G01X13508990Y-1856486D01*
G01X13505942Y-1850136D01*
G01X13499592Y-1844040D01*
G01X13493496Y-1840992D01*
G01X13484098Y-1837690D01*
G01X13468604Y-1837690D01*
G01X13459460Y-1840992D01*
G01X13453110Y-1844040D01*
G01X13447014Y-1850136D01*
G01X13443966Y-1856486D01*
G01X13443966Y-1868678D01*
G01X13481050Y-1738122D02*
G01X13481050Y-1682496D01*
G01X13459460Y-1606042D02*
G01X13453110Y-1609090D01*
G01X13447014Y-1615186D01*
G01X13443966Y-1621536D01*
G01X13443966Y-1633728D01*
G01X13447014Y-1640078D01*
G01X13453110Y-1646174D01*
G01X13459460Y-1649222D01*
G01X13468604Y-1652270D01*
G01X13484098Y-1652270D01*
G01X13493496Y-1649222D01*
G01X13499592Y-1646174D01*
G01X13505942Y-1640078D01*
G01X13508990Y-1633728D01*
G01X13508990Y-1621536D01*
G01X13505942Y-1615186D01*
G01X13499592Y-1609090D01*
G01X13493496Y-1606042D01*
G01X13481050Y-1575816D02*
G01X13481050Y-1520190D01*
G01X13443966Y-1420622D02*
G01X13508990Y-1420622D01*
G01X13443966Y-1420622D02*
G01X13508990Y-1377442D01*
G01X13443966Y-1377442D02*
G01X13508990Y-1377442D01*
G01X13459460Y-1300988D02*
G01X13453110Y-1304036D01*
G01X13447014Y-1310132D01*
G01X13443966Y-1316482D01*
G01X13443966Y-1328674D01*
G01X13447014Y-1335024D01*
G01X13453110Y-1341120D01*
G01X13459460Y-1344168D01*
G01X13468604Y-1347216D01*
G01X13484098Y-1347216D01*
G01X13493496Y-1344168D01*
G01X13499592Y-1341120D01*
G01X13505942Y-1335024D01*
G01X13508990Y-1328674D01*
G01X13508990Y-1316482D01*
G01X13505942Y-1310132D01*
G01X13499592Y-1304036D01*
G01X13493496Y-1300988D01*
G01X13475828Y-3687420D02*
G01X13540852Y-3687420D01*
G01X13475828Y-3687420D02*
G01X13540852Y-3643986D01*
G01X13475828Y-3643986D02*
G01X13540852Y-3643986D01*
G01X13475828Y-3595218D02*
G01X13478876Y-3601568D01*
G01X13484972Y-3607664D01*
G01X13491322Y-3610712D01*
G01X13500466Y-3613760D01*
G01X13515960Y-3613760D01*
G01X13525358Y-3610712D01*
G01X13531454Y-3607664D01*
G01X13537804Y-3601568D01*
G01X13540852Y-3595218D01*
G01X13540852Y-3583026D01*
G01X13537804Y-3576676D01*
G01X13531454Y-3570580D01*
G01X13525358Y-3567532D01*
G01X13515960Y-3564230D01*
G01X13500466Y-3564230D01*
G01X13491322Y-3567532D01*
G01X13484972Y-3570580D01*
G01X13478876Y-3576676D01*
G01X13475828Y-3583026D01*
G01X13475828Y-3595218D01*
G01X13512912Y-3464662D02*
G01X13512912Y-3409036D01*
G01X13491322Y-3332582D02*
G01X13484972Y-3335630D01*
G01X13478876Y-3341726D01*
G01X13475828Y-3348076D01*
G01X13475828Y-3360268D01*
G01X13478876Y-3366618D01*
G01X13484972Y-3372714D01*
G01X13491322Y-3375762D01*
G01X13500466Y-3378810D01*
G01X13515960Y-3378810D01*
G01X13525358Y-3375762D01*
G01X13531454Y-3372714D01*
G01X13537804Y-3366618D01*
G01X13540852Y-3360268D01*
G01X13540852Y-3348076D01*
G01X13537804Y-3341726D01*
G01X13531454Y-3335630D01*
G01X13525358Y-3332582D01*
G01X13512912Y-3302356D02*
G01X13512912Y-3246730D01*
G01X13475828Y-3147162D02*
G01X13540852Y-3147162D01*
G01X13475828Y-3147162D02*
G01X13540852Y-3103982D01*
G01X13475828Y-3103982D02*
G01X13540852Y-3103982D01*
G01X13491322Y-3027528D02*
G01X13484972Y-3030576D01*
G01X13478876Y-3036672D01*
G01X13475828Y-3043022D01*
G01X13475828Y-3055214D01*
G01X13478876Y-3061564D01*
G01X13484972Y-3067660D01*
G01X13491322Y-3070708D01*
G01X13500466Y-3073756D01*
G01X13515960Y-3073756D01*
G01X13525358Y-3070708D01*
G01X13531454Y-3067660D01*
G01X13537804Y-3061564D01*
G01X13540852Y-3055214D01*
G01X13540852Y-3043022D01*
G01X13537804Y-3036672D01*
G01X13531454Y-3030576D01*
G01X13525358Y-3027528D01*
G01X13488528Y-5389874D02*
G01X13553552Y-5389874D01*
G01X13488528Y-5389874D02*
G01X13553552Y-5346440D01*
G01X13488528Y-5346440D02*
G01X13553552Y-5346440D01*
G01X13488528Y-5297672D02*
G01X13491576Y-5304022D01*
G01X13497672Y-5310118D01*
G01X13504022Y-5313166D01*
G01X13513166Y-5316214D01*
G01X13528660Y-5316214D01*
G01X13538058Y-5313166D01*
G01X13544154Y-5310118D01*
G01X13550504Y-5304022D01*
G01X13553552Y-5297672D01*
G01X13553552Y-5285480D01*
G01X13550504Y-5279130D01*
G01X13544154Y-5273034D01*
G01X13538058Y-5269986D01*
G01X13528660Y-5266684D01*
G01X13513166Y-5266684D01*
G01X13504022Y-5269986D01*
G01X13497672Y-5273034D01*
G01X13491576Y-5279130D01*
G01X13488528Y-5285480D01*
G01X13488528Y-5297672D01*
G01X13525612Y-5167116D02*
G01X13525612Y-5111490D01*
G01X13504022Y-5035036D02*
G01X13497672Y-5038084D01*
G01X13491576Y-5044180D01*
G01X13488528Y-5050530D01*
G01X13488528Y-5062722D01*
G01X13491576Y-5069072D01*
G01X13497672Y-5075168D01*
G01X13504022Y-5078216D01*
G01X13513166Y-5081264D01*
G01X13528660Y-5081264D01*
G01X13538058Y-5078216D01*
G01X13544154Y-5075168D01*
G01X13550504Y-5069072D01*
G01X13553552Y-5062722D01*
G01X13553552Y-5050530D01*
G01X13550504Y-5044180D01*
G01X13544154Y-5038084D01*
G01X13538058Y-5035036D01*
G01X13525612Y-5004810D02*
G01X13525612Y-4949184D01*
G01X13488528Y-4849616D02*
G01X13553552Y-4849616D01*
G01X13488528Y-4849616D02*
G01X13553552Y-4806436D01*
G01X13488528Y-4806436D02*
G01X13553552Y-4806436D01*
G01X13504022Y-4729982D02*
G01X13497672Y-4733030D01*
G01X13491576Y-4739126D01*
G01X13488528Y-4745476D01*
G01X13488528Y-4757668D01*
G01X13491576Y-4764018D01*
G01X13497672Y-4770114D01*
G01X13504022Y-4773162D01*
G01X13513166Y-4776210D01*
G01X13528660Y-4776210D01*
G01X13538058Y-4773162D01*
G01X13544154Y-4770114D01*
G01X13550504Y-4764018D01*
G01X13553552Y-4757668D01*
G01X13553552Y-4745476D01*
G01X13550504Y-4739126D01*
G01X13544154Y-4733030D01*
G01X13538058Y-4729982D01*
G01X13488528Y-7129774D02*
G01X13553552Y-7129774D01*
G01X13488528Y-7129774D02*
G01X13553552Y-7086340D01*
G01X13488528Y-7086340D02*
G01X13553552Y-7086340D01*
G01X13488528Y-7037572D02*
G01X13491576Y-7043922D01*
G01X13497672Y-7050018D01*
G01X13504022Y-7053066D01*
G01X13513166Y-7056114D01*
G01X13528660Y-7056114D01*
G01X13538058Y-7053066D01*
G01X13544154Y-7050018D01*
G01X13550504Y-7043922D01*
G01X13553552Y-7037572D01*
G01X13553552Y-7025380D01*
G01X13550504Y-7019030D01*
G01X13544154Y-7012934D01*
G01X13538058Y-7009886D01*
G01X13528660Y-7006584D01*
G01X13513166Y-7006584D01*
G01X13504022Y-7009886D01*
G01X13497672Y-7012934D01*
G01X13491576Y-7019030D01*
G01X13488528Y-7025380D01*
G01X13488528Y-7037572D01*
G01X13525612Y-6907016D02*
G01X13525612Y-6851390D01*
G01X13504022Y-6774936D02*
G01X13497672Y-6777984D01*
G01X13491576Y-6784080D01*
G01X13488528Y-6790430D01*
G01X13488528Y-6802622D01*
G01X13491576Y-6808972D01*
G01X13497672Y-6815068D01*
G01X13504022Y-6818116D01*
G01X13513166Y-6821164D01*
G01X13528660Y-6821164D01*
G01X13538058Y-6818116D01*
G01X13544154Y-6815068D01*
G01X13550504Y-6808972D01*
G01X13553552Y-6802622D01*
G01X13553552Y-6790430D01*
G01X13550504Y-6784080D01*
G01X13544154Y-6777984D01*
G01X13538058Y-6774936D01*
G01X13525612Y-6744710D02*
G01X13525612Y-6689084D01*
G01X13488528Y-6589516D02*
G01X13553552Y-6589516D01*
G01X13488528Y-6589516D02*
G01X13553552Y-6546336D01*
G01X13488528Y-6546336D02*
G01X13553552Y-6546336D01*
G01X13504022Y-6469882D02*
G01X13497672Y-6472930D01*
G01X13491576Y-6479026D01*
G01X13488528Y-6485376D01*
G01X13488528Y-6497568D01*
G01X13491576Y-6503918D01*
G01X13497672Y-6510014D01*
G01X13504022Y-6513062D01*
G01X13513166Y-6516110D01*
G01X13528660Y-6516110D01*
G01X13538058Y-6513062D01*
G01X13544154Y-6510014D01*
G01X13550504Y-6503918D01*
G01X13553552Y-6497568D01*
G01X13553552Y-6485376D01*
G01X13550504Y-6479026D01*
G01X13544154Y-6472930D01*
G01X13538058Y-6469882D01*
G01X10075926Y-8090929D02*
G01X10012934Y-8090929D01*
G01X10044430Y-8059433D02*
G01X10044430Y-8122425D01*
G01X10587533Y-7891208D02*
G01X10522509Y-7891208D01*
G01X10587533Y-7891208D02*
G01X10587533Y-7919148D01*
G01X10584485Y-7928292D01*
G01X10581437Y-7931340D01*
G01X10575087Y-7934642D01*
G01X10568991Y-7934642D01*
G01X10562895Y-7931340D01*
G01X10559847Y-7928292D01*
G01X10556545Y-7919148D01*
G01X10556545Y-7891208D02*
G01X10556545Y-7919148D01*
G01X10553497Y-7928292D01*
G01X10550449Y-7931340D01*
G01X10544353Y-7934642D01*
G01X10534955Y-7934642D01*
G01X10528859Y-7931340D01*
G01X10525557Y-7928292D01*
G01X10522509Y-7919148D01*
G01X10522509Y-7891208D01*
G01X10587533Y-7964868D02*
G01X10541051Y-7964868D01*
G01X10531907Y-7967916D01*
G01X10525557Y-7974012D01*
G01X10522509Y-7983410D01*
G01X10522509Y-7989506D01*
G01X10525557Y-7998904D01*
G01X10531907Y-8005000D01*
G01X10541051Y-8008048D01*
G01X10587533Y-8008048D01*
G01X10587533Y-8081454D02*
G01X10522509Y-8038274D01*
G01X10587533Y-8038274D02*
G01X10587533Y-8081454D01*
G01X10522509Y-8038274D02*
G01X10522509Y-8081454D01*
G01X10587533Y-8154860D02*
G01X10522509Y-8111680D01*
G01X10587533Y-8111680D02*
G01X10587533Y-8154860D01*
G01X10522509Y-8111680D02*
G01X10522509Y-8154860D01*
G01X10587533Y-8185086D02*
G01X10522509Y-8185086D01*
G01X10587533Y-8185086D02*
G01X10587533Y-8225218D01*
G01X10556545Y-8185086D02*
G01X10556545Y-8209724D01*
G01X10522509Y-8185086D02*
G01X10522509Y-8225218D01*
G01X10587533Y-8255444D02*
G01X10522509Y-8255444D01*
G01X10587533Y-8255444D02*
G01X10587533Y-8283130D01*
G01X10584485Y-8292528D01*
G01X10581437Y-8295576D01*
G01X10575087Y-8298624D01*
G01X10568991Y-8298624D01*
G01X10562895Y-8295576D01*
G01X10559847Y-8292528D01*
G01X10556545Y-8283130D01*
G01X10556545Y-8255444D01*
G01X10556545Y-8277034D02*
G01X10522509Y-8298624D01*
G01X10575087Y-8328850D02*
G01X10578389Y-8334946D01*
G01X10587533Y-8344090D01*
G01X10522509Y-8344090D01*
G01X5296651Y-8481494D02*
G01X5290301Y-8484542D01*
G01X5284205Y-8490892D01*
G01X5281157Y-8496988D01*
G01X5281157Y-8509434D01*
G01X5284205Y-8515530D01*
G01X5290301Y-8521880D01*
G01X5296651Y-8524928D01*
G01X5305795Y-8527976D01*
G01X5321289Y-8527976D01*
G01X5330687Y-8524928D01*
G01X5336783Y-8521880D01*
G01X5343133Y-8515530D01*
G01X5346181Y-8509434D01*
G01X5346181Y-8496988D01*
G01X5343133Y-8490892D01*
G01X5336783Y-8484542D01*
G01X5330687Y-8481494D01*
G01X5293603Y-8451268D02*
G01X5290301Y-8445172D01*
G01X5281157Y-8436028D01*
G01X5346181Y-8436028D01*
G01X4593452Y-7831419D02*
G01X4599802Y-7828371D01*
G01X4605898Y-7822021D01*
G01X4608946Y-7815925D01*
G01X4608946Y-7803479D01*
G01X4605898Y-7797383D01*
G01X4599802Y-7791033D01*
G01X4593452Y-7787985D01*
G01X4584308Y-7784937D01*
G01X4568814Y-7784937D01*
G01X4559416Y-7787985D01*
G01X4553320Y-7791033D01*
G01X4546970Y-7797383D01*
G01X4543922Y-7803479D01*
G01X4543922Y-7815925D01*
G01X4546970Y-7822021D01*
G01X4553320Y-7828371D01*
G01X4559416Y-7831419D01*
G01X4593452Y-7864693D02*
G01X4596500Y-7864693D01*
G01X4602850Y-7867741D01*
G01X4605898Y-7870789D01*
G01X4608946Y-7876885D01*
G01X4608946Y-7889331D01*
G01X4605898Y-7895681D01*
G01X4602850Y-7898729D01*
G01X4596500Y-7901777D01*
G01X4590404Y-7901777D01*
G01X4584308Y-7898729D01*
G01X4574910Y-7892379D01*
G01X4543922Y-7861645D01*
G01X4543922Y-7904825D01*
G01X4242551Y-8570394D02*
G01X4236201Y-8573442D01*
G01X4230105Y-8579792D01*
G01X4227057Y-8585888D01*
G01X4227057Y-8598334D01*
G01X4230105Y-8604430D01*
G01X4236201Y-8610780D01*
G01X4242551Y-8613828D01*
G01X4251695Y-8616876D01*
G01X4267189Y-8616876D01*
G01X4276587Y-8613828D01*
G01X4282683Y-8610780D01*
G01X4289033Y-8604430D01*
G01X4292081Y-8598334D01*
G01X4292081Y-8585888D01*
G01X4289033Y-8579792D01*
G01X4282683Y-8573442D01*
G01X4276587Y-8570394D01*
G01X4227057Y-8534072D02*
G01X4227057Y-8500036D01*
G01X4251695Y-8518578D01*
G01X4251695Y-8509434D01*
G01X4254743Y-8503084D01*
G01X4258045Y-8500036D01*
G01X4267189Y-8496988D01*
G01X4273539Y-8496988D01*
G01X4282683Y-8500036D01*
G01X4289033Y-8506132D01*
G01X4292081Y-8515530D01*
G01X4292081Y-8524928D01*
G01X4289033Y-8534072D01*
G01X4285731Y-8537120D01*
G01X4279635Y-8540168D01*
G01X10605534Y-6502613D02*
G01X10540510Y-6502613D01*
G01X10605534Y-6502613D02*
G01X10605534Y-6524203D01*
G01X10602486Y-6533601D01*
G01X10596390Y-6539697D01*
G01X10590040Y-6542745D01*
G01X10580896Y-6546047D01*
G01X10565402Y-6546047D01*
G01X10556004Y-6542745D01*
G01X10549908Y-6539697D01*
G01X10543558Y-6533601D01*
G01X10540510Y-6524203D01*
G01X10540510Y-6502613D01*
G01X10593088Y-6576273D02*
G01X10596390Y-6582369D01*
G01X10605534Y-6591513D01*
G01X10540510Y-6591513D01*
G01X10592834Y-4762713D02*
G01X10527810Y-4762713D01*
G01X10592834Y-4762713D02*
G01X10592834Y-4784303D01*
G01X10589786Y-4793701D01*
G01X10583690Y-4799797D01*
G01X10577340Y-4802845D01*
G01X10568196Y-4806147D01*
G01X10552702Y-4806147D01*
G01X10543304Y-4802845D01*
G01X10537208Y-4799797D01*
G01X10530858Y-4793701D01*
G01X10527810Y-4784303D01*
G01X10527810Y-4762713D01*
G01X10577340Y-4839421D02*
G01X10580388Y-4839421D01*
G01X10586738Y-4842469D01*
G01X10589786Y-4845517D01*
G01X10592834Y-4851613D01*
G01X10592834Y-4864059D01*
G01X10589786Y-4870409D01*
G01X10586738Y-4873457D01*
G01X10580388Y-4876505D01*
G01X10574292Y-4876505D01*
G01X10568196Y-4873457D01*
G01X10558798Y-4867107D01*
G01X10527810Y-4836373D01*
G01X10527810Y-4879553D01*
G01X10592834Y-3010113D02*
G01X10527810Y-3010113D01*
G01X10592834Y-3010113D02*
G01X10592834Y-3031703D01*
G01X10589786Y-3041101D01*
G01X10583690Y-3047197D01*
G01X10577340Y-3050245D01*
G01X10568196Y-3053547D01*
G01X10552702Y-3053547D01*
G01X10543304Y-3050245D01*
G01X10537208Y-3047197D01*
G01X10530858Y-3041101D01*
G01X10527810Y-3031703D01*
G01X10527810Y-3010113D01*
G01X10592834Y-3089869D02*
G01X10592834Y-3123905D01*
G01X10568196Y-3105363D01*
G01X10568196Y-3114507D01*
G01X10565148Y-3120857D01*
G01X10561846Y-3123905D01*
G01X10552702Y-3126953D01*
G01X10546352Y-3126953D01*
G01X10537208Y-3123905D01*
G01X10530858Y-3117809D01*
G01X10527810Y-3108411D01*
G01X10527810Y-3099013D01*
G01X10530858Y-3089869D01*
G01X10534160Y-3086821D01*
G01X10540256Y-3083773D01*
G01X10592834Y-1333713D02*
G01X10527810Y-1333713D01*
G01X10592834Y-1333713D02*
G01X10592834Y-1355303D01*
G01X10589786Y-1364701D01*
G01X10583690Y-1370797D01*
G01X10577340Y-1373845D01*
G01X10568196Y-1377147D01*
G01X10552702Y-1377147D01*
G01X10543304Y-1373845D01*
G01X10537208Y-1370797D01*
G01X10530858Y-1364701D01*
G01X10527810Y-1355303D01*
G01X10527810Y-1333713D01*
G01X10592834Y-1438107D02*
G01X10549654Y-1407373D01*
G01X10549654Y-1453601D01*
G01X10592834Y-1438107D02*
G01X10527810Y-1438107D01*
G01X6490734Y-7721813D02*
G01X6425710Y-7721813D01*
G01X6490734Y-7721813D02*
G01X6490734Y-7743403D01*
G01X6487686Y-7752801D01*
G01X6481590Y-7758897D01*
G01X6475240Y-7761945D01*
G01X6466096Y-7765247D01*
G01X6450602Y-7765247D01*
G01X6441204Y-7761945D01*
G01X6435108Y-7758897D01*
G01X6428758Y-7752801D01*
G01X6425710Y-7743403D01*
G01X6425710Y-7721813D01*
G01X6490734Y-7832557D02*
G01X6490734Y-7801569D01*
G01X6463048Y-7798521D01*
G01X6466096Y-7801569D01*
G01X6469144Y-7810713D01*
G01X6469144Y-7820111D01*
G01X6466096Y-7829509D01*
G01X6459746Y-7835605D01*
G01X6450602Y-7838653D01*
G01X6444252Y-7838653D01*
G01X6435108Y-7835605D01*
G01X6428758Y-7829509D01*
G01X6425710Y-7820111D01*
G01X6425710Y-7810713D01*
G01X6428758Y-7801569D01*
G01X6432060Y-7798521D01*
G01X6438156Y-7795473D01*
G01X4401820Y-1516634D02*
G01X4401820Y-1451610D01*
G01X4358386Y-1516634D02*
G01X4358386Y-1451610D01*
G01X4401820Y-1485646D02*
G01X4358386Y-1485646D01*
G01X4328160Y-1504188D02*
G01X4322064Y-1507490D01*
G01X4312920Y-1516634D01*
G01X4312920Y-1451610D01*
G01X5293360Y-1503934D02*
G01X5293360Y-1438910D01*
G01X5249926Y-1503934D02*
G01X5249926Y-1438910D01*
G01X5293360Y-1472946D02*
G01X5249926Y-1472946D01*
G01X5216652Y-1488440D02*
G01X5216652Y-1491488D01*
G01X5213604Y-1497838D01*
G01X5210556Y-1500886D01*
G01X5204460Y-1503934D01*
G01X5192014Y-1503934D01*
G01X5185664Y-1500886D01*
G01X5182616Y-1497838D01*
G01X5179568Y-1491488D01*
G01X5179568Y-1485392D01*
G01X5182616Y-1479296D01*
G01X5188966Y-1469898D01*
G01X5219700Y-1438910D01*
G01X5176520Y-1438910D01*
G01X10082741Y-1331023D02*
G01X10017717Y-1331023D01*
G01X10017717Y-1331023D02*
G01X10017717Y-1368107D01*
G01X10082741Y-1398333D02*
G01X10017717Y-1398333D01*
G01X10082741Y-1398333D02*
G01X10082741Y-1438465D01*
G01X10051753Y-1398333D02*
G01X10051753Y-1422971D01*
G01X10017717Y-1398333D02*
G01X10017717Y-1438465D01*
G01X10082741Y-1468691D02*
G01X10017717Y-1468691D01*
G01X10082741Y-1468691D02*
G01X10082741Y-1490281D01*
G01X10079693Y-1499425D01*
G01X10073597Y-1505775D01*
G01X10067247Y-1508823D01*
G01X10058103Y-1511871D01*
G01X10042609Y-1511871D01*
G01X10033211Y-1508823D01*
G01X10027115Y-1505775D01*
G01X10020765Y-1499425D01*
G01X10017717Y-1490281D01*
G01X10017717Y-1468691D01*
G01X10070295Y-1542097D02*
G01X10073597Y-1548193D01*
G01X10082741Y-1557337D01*
G01X10017717Y-1557337D01*
G01X10085151Y-3007109D02*
G01X10020127Y-3007109D01*
G01X10020127Y-3007109D02*
G01X10020127Y-3044193D01*
G01X10085151Y-3074419D02*
G01X10020127Y-3074419D01*
G01X10085151Y-3074419D02*
G01X10085151Y-3114551D01*
G01X10054163Y-3074419D02*
G01X10054163Y-3099057D01*
G01X10020127Y-3074419D02*
G01X10020127Y-3114551D01*
G01X10085151Y-3144777D02*
G01X10020127Y-3144777D01*
G01X10085151Y-3144777D02*
G01X10085151Y-3166367D01*
G01X10082103Y-3175511D01*
G01X10076007Y-3181861D01*
G01X10069657Y-3184909D01*
G01X10060513Y-3187957D01*
G01X10045019Y-3187957D01*
G01X10035621Y-3184909D01*
G01X10029525Y-3181861D01*
G01X10023175Y-3175511D01*
G01X10020127Y-3166367D01*
G01X10020127Y-3144777D01*
G01X10069657Y-3221231D02*
G01X10072705Y-3221231D01*
G01X10079055Y-3224279D01*
G01X10082103Y-3227327D01*
G01X10085151Y-3233423D01*
G01X10085151Y-3245869D01*
G01X10082103Y-3252219D01*
G01X10079055Y-3255267D01*
G01X10072705Y-3258315D01*
G01X10066609Y-3258315D01*
G01X10060513Y-3255267D01*
G01X10051115Y-3248917D01*
G01X10020127Y-3218183D01*
G01X10020127Y-3261363D01*
G01X10095441Y-4760023D02*
G01X10030417Y-4760023D01*
G01X10030417Y-4760023D02*
G01X10030417Y-4797107D01*
G01X10095441Y-4827333D02*
G01X10030417Y-4827333D01*
G01X10095441Y-4827333D02*
G01X10095441Y-4867465D01*
G01X10064453Y-4827333D02*
G01X10064453Y-4851971D01*
G01X10030417Y-4827333D02*
G01X10030417Y-4867465D01*
G01X10095441Y-4897691D02*
G01X10030417Y-4897691D01*
G01X10095441Y-4897691D02*
G01X10095441Y-4919281D01*
G01X10092393Y-4928425D01*
G01X10086297Y-4934775D01*
G01X10079947Y-4937823D01*
G01X10070803Y-4940871D01*
G01X10055309Y-4940871D01*
G01X10045911Y-4937823D01*
G01X10039815Y-4934775D01*
G01X10033465Y-4928425D01*
G01X10030417Y-4919281D01*
G01X10030417Y-4897691D01*
G01X10095441Y-4977193D02*
G01X10095441Y-5011229D01*
G01X10070803Y-4992687D01*
G01X10070803Y-5001831D01*
G01X10067755Y-5008181D01*
G01X10064453Y-5011229D01*
G01X10055309Y-5014277D01*
G01X10048959Y-5014277D01*
G01X10039815Y-5011229D01*
G01X10033465Y-5005133D01*
G01X10030417Y-4995735D01*
G01X10030417Y-4986337D01*
G01X10033465Y-4977193D01*
G01X10036767Y-4974145D01*
G01X10042863Y-4971097D01*
G01X10095441Y-6487223D02*
G01X10030417Y-6487223D01*
G01X10030417Y-6487223D02*
G01X10030417Y-6524307D01*
G01X10095441Y-6554533D02*
G01X10030417Y-6554533D01*
G01X10095441Y-6554533D02*
G01X10095441Y-6594665D01*
G01X10064453Y-6554533D02*
G01X10064453Y-6579171D01*
G01X10030417Y-6554533D02*
G01X10030417Y-6594665D01*
G01X10095441Y-6624891D02*
G01X10030417Y-6624891D01*
G01X10095441Y-6624891D02*
G01X10095441Y-6646481D01*
G01X10092393Y-6655625D01*
G01X10086297Y-6661975D01*
G01X10079947Y-6665023D01*
G01X10070803Y-6668071D01*
G01X10055309Y-6668071D01*
G01X10045911Y-6665023D01*
G01X10039815Y-6661975D01*
G01X10033465Y-6655625D01*
G01X10030417Y-6646481D01*
G01X10030417Y-6624891D01*
G01X10095441Y-6729031D02*
G01X10052261Y-6698297D01*
G01X10052261Y-6744525D01*
G01X10095441Y-6729031D02*
G01X10030417Y-6729031D01*
G01X8747285Y-7994528D02*
G01X8682261Y-7994528D01*
G01X8682261Y-7994528D02*
G01X8682261Y-8031612D01*
G01X8747285Y-8061838D02*
G01X8682261Y-8061838D01*
G01X8747285Y-8061838D02*
G01X8747285Y-8101970D01*
G01X8716297Y-8061838D02*
G01X8716297Y-8086476D01*
G01X8682261Y-8061838D02*
G01X8682261Y-8101970D01*
G01X8747285Y-8132196D02*
G01X8682261Y-8132196D01*
G01X8747285Y-8132196D02*
G01X8747285Y-8153786D01*
G01X8744237Y-8162930D01*
G01X8738141Y-8169280D01*
G01X8731791Y-8172328D01*
G01X8722647Y-8175376D01*
G01X8707153Y-8175376D01*
G01X8697755Y-8172328D01*
G01X8691659Y-8169280D01*
G01X8685309Y-8162930D01*
G01X8682261Y-8153786D01*
G01X8682261Y-8132196D01*
G01X8747285Y-8242686D02*
G01X8747285Y-8211698D01*
G01X8719599Y-8208650D01*
G01X8722647Y-8211698D01*
G01X8725695Y-8220842D01*
G01X8725695Y-8230240D01*
G01X8722647Y-8239638D01*
G01X8716297Y-8245734D01*
G01X8707153Y-8248782D01*
G01X8700803Y-8248782D01*
G01X8691659Y-8245734D01*
G01X8685309Y-8239638D01*
G01X8682261Y-8230240D01*
G01X8682261Y-8220842D01*
G01X8685309Y-8211698D01*
G01X8688611Y-8208650D01*
G01X8694707Y-8205602D01*
G01X5639859Y-8663876D02*
G01X5704883Y-8663876D01*
G01X5704883Y-8663876D02*
G01X5704883Y-8626792D01*
G01X5639859Y-8596566D02*
G01X5704883Y-8596566D01*
G01X5639859Y-8596566D02*
G01X5639859Y-8556434D01*
G01X5670847Y-8596566D02*
G01X5670847Y-8571928D01*
G01X5704883Y-8596566D02*
G01X5704883Y-8556434D01*
G01X5639859Y-8526208D02*
G01X5704883Y-8526208D01*
G01X5639859Y-8526208D02*
G01X5639859Y-8504618D01*
G01X5642907Y-8495474D01*
G01X5649003Y-8489124D01*
G01X5655353Y-8486076D01*
G01X5664497Y-8483028D01*
G01X5679991Y-8483028D01*
G01X5689389Y-8486076D01*
G01X5695485Y-8489124D01*
G01X5701835Y-8495474D01*
G01X5704883Y-8504618D01*
G01X5704883Y-8526208D01*
G01X5649003Y-8415718D02*
G01X5642907Y-8418766D01*
G01X5639859Y-8428164D01*
G01X5639859Y-8434260D01*
G01X5642907Y-8443658D01*
G01X5652305Y-8449754D01*
G01X5667545Y-8452802D01*
G01X5683039Y-8452802D01*
G01X5695485Y-8449754D01*
G01X5701835Y-8443658D01*
G01X5704883Y-8434260D01*
G01X5704883Y-8431212D01*
G01X5701835Y-8422068D01*
G01X5695485Y-8415718D01*
G01X5686341Y-8412670D01*
G01X5683039Y-8412670D01*
G01X5673895Y-8415718D01*
G01X5667545Y-8422068D01*
G01X5664497Y-8431212D01*
G01X5664497Y-8434260D01*
G01X5667545Y-8443658D01*
G01X5673895Y-8449754D01*
G01X5683039Y-8452802D01*
G01X9588095Y-1860560D02*
G01X9585047Y-1854464D01*
G01X9578951Y-1848114D01*
G01X9572601Y-1845066D01*
G01X9563457Y-1842018D01*
G01X9547963Y-1842018D01*
G01X9538565Y-1845066D01*
G01X9532469Y-1848114D01*
G01X9526119Y-1854464D01*
G01X9523071Y-1860560D01*
G01X9523071Y-1873006D01*
G01X9526119Y-1879102D01*
G01X9532469Y-1885452D01*
G01X9538565Y-1888500D01*
G01X9547963Y-1891548D01*
G01X9563457Y-1891548D01*
G01X9572601Y-1888500D01*
G01X9578951Y-1885452D01*
G01X9585047Y-1879102D01*
G01X9588095Y-1873006D01*
G01X9588095Y-1860560D01*
G01X9535517Y-1869958D02*
G01X9516975Y-1888500D01*
G01X9575649Y-1921774D02*
G01X9578951Y-1927870D01*
G01X9588095Y-1937014D01*
G01X9523071Y-1937014D01*
G01X9588095Y-3524260D02*
G01X9585047Y-3518164D01*
G01X9578951Y-3511814D01*
G01X9572601Y-3508766D01*
G01X9563457Y-3505718D01*
G01X9547963Y-3505718D01*
G01X9538565Y-3508766D01*
G01X9532469Y-3511814D01*
G01X9526119Y-3518164D01*
G01X9523071Y-3524260D01*
G01X9523071Y-3536706D01*
G01X9526119Y-3542802D01*
G01X9532469Y-3549152D01*
G01X9538565Y-3552200D01*
G01X9547963Y-3555248D01*
G01X9563457Y-3555248D01*
G01X9572601Y-3552200D01*
G01X9578951Y-3549152D01*
G01X9585047Y-3542802D01*
G01X9588095Y-3536706D01*
G01X9588095Y-3524260D01*
G01X9535517Y-3533658D02*
G01X9516975Y-3552200D01*
G01X9572601Y-3588522D02*
G01X9575649Y-3588522D01*
G01X9581999Y-3591570D01*
G01X9585047Y-3594618D01*
G01X9588095Y-3600714D01*
G01X9588095Y-3613160D01*
G01X9585047Y-3619510D01*
G01X9581999Y-3622558D01*
G01X9575649Y-3625606D01*
G01X9569553Y-3625606D01*
G01X9563457Y-3622558D01*
G01X9554059Y-3616208D01*
G01X9523071Y-3585474D01*
G01X9523071Y-3628654D01*
G01X9575395Y-5302260D02*
G01X9572347Y-5296164D01*
G01X9566251Y-5289814D01*
G01X9559901Y-5286766D01*
G01X9550757Y-5283718D01*
G01X9535263Y-5283718D01*
G01X9525865Y-5286766D01*
G01X9519769Y-5289814D01*
G01X9513419Y-5296164D01*
G01X9510371Y-5302260D01*
G01X9510371Y-5314706D01*
G01X9513419Y-5320802D01*
G01X9519769Y-5327152D01*
G01X9525865Y-5330200D01*
G01X9535263Y-5333248D01*
G01X9550757Y-5333248D01*
G01X9559901Y-5330200D01*
G01X9566251Y-5327152D01*
G01X9572347Y-5320802D01*
G01X9575395Y-5314706D01*
G01X9575395Y-5302260D01*
G01X9522817Y-5311658D02*
G01X9504275Y-5330200D01*
G01X9575395Y-5369570D02*
G01X9575395Y-5403606D01*
G01X9550757Y-5385064D01*
G01X9550757Y-5394208D01*
G01X9547709Y-5400558D01*
G01X9544407Y-5403606D01*
G01X9535263Y-5406654D01*
G01X9528913Y-5406654D01*
G01X9519769Y-5403606D01*
G01X9513419Y-5397510D01*
G01X9510371Y-5388112D01*
G01X9510371Y-5378714D01*
G01X9513419Y-5369570D01*
G01X9516721Y-5366522D01*
G01X9522817Y-5363474D01*
G01X9588095Y-7042160D02*
G01X9585047Y-7036064D01*
G01X9578951Y-7029714D01*
G01X9572601Y-7026666D01*
G01X9563457Y-7023618D01*
G01X9547963Y-7023618D01*
G01X9538565Y-7026666D01*
G01X9532469Y-7029714D01*
G01X9526119Y-7036064D01*
G01X9523071Y-7042160D01*
G01X9523071Y-7054606D01*
G01X9526119Y-7060702D01*
G01X9532469Y-7067052D01*
G01X9538565Y-7070100D01*
G01X9547963Y-7073148D01*
G01X9563457Y-7073148D01*
G01X9572601Y-7070100D01*
G01X9578951Y-7067052D01*
G01X9585047Y-7060702D01*
G01X9588095Y-7054606D01*
G01X9588095Y-7042160D01*
G01X9535517Y-7051558D02*
G01X9516975Y-7070100D01*
G01X9588095Y-7134108D02*
G01X9544915Y-7103374D01*
G01X9544915Y-7149602D01*
G01X9588095Y-7134108D02*
G01X9523071Y-7134108D01*
G01X7455305Y-9074140D02*
G01X7458353Y-9080236D01*
G01X7464449Y-9086586D01*
G01X7470799Y-9089634D01*
G01X7479943Y-9092682D01*
G01X7495437Y-9092682D01*
G01X7504835Y-9089634D01*
G01X7510931Y-9086586D01*
G01X7517281Y-9080236D01*
G01X7520329Y-9074140D01*
G01X7520329Y-9061694D01*
G01X7517281Y-9055598D01*
G01X7510931Y-9049248D01*
G01X7504835Y-9046200D01*
G01X7495437Y-9043152D01*
G01X7479943Y-9043152D01*
G01X7470799Y-9046200D01*
G01X7464449Y-9049248D01*
G01X7458353Y-9055598D01*
G01X7455305Y-9061694D01*
G01X7455305Y-9074140D01*
G01X7507883Y-9064742D02*
G01X7526425Y-9046200D01*
G01X7455305Y-8975842D02*
G01X7455305Y-9006830D01*
G01X7482991Y-9009878D01*
G01X7479943Y-9006830D01*
G01X7476895Y-8997686D01*
G01X7476895Y-8988288D01*
G01X7479943Y-8978890D01*
G01X7486293Y-8972794D01*
G01X7495437Y-8969746D01*
G01X7501787Y-8969746D01*
G01X7510931Y-8972794D01*
G01X7517281Y-8978890D01*
G01X7520329Y-8988288D01*
G01X7520329Y-8997686D01*
G01X7517281Y-9006830D01*
G01X7513979Y-9009878D01*
G01X7507883Y-9012926D01*
G01X6542187Y-1609837D02*
G01X6542187Y-1674861D01*
G01X6542187Y-1609837D02*
G01X6570127Y-1609837D01*
G01X6579271Y-1612885D01*
G01X6582319Y-1615933D01*
G01X6585621Y-1622283D01*
G01X6585621Y-1628379D01*
G01X6582319Y-1634475D01*
G01X6579271Y-1637523D01*
G01X6570127Y-1640825D01*
G01X6542187Y-1640825D01*
G01X6563777Y-1640825D02*
G01X6585621Y-1674861D01*
G01X6615847Y-1622283D02*
G01X6621943Y-1618981D01*
G01X6631087Y-1609837D01*
G01X6631087Y-1674861D01*
G01X8497987Y-1876537D02*
G01X8497987Y-1941561D01*
G01X8497987Y-1876537D02*
G01X8525927Y-1876537D01*
G01X8535071Y-1879585D01*
G01X8538119Y-1882633D01*
G01X8541421Y-1888983D01*
G01X8541421Y-1895079D01*
G01X8538119Y-1901175D01*
G01X8535071Y-1904223D01*
G01X8525927Y-1907525D01*
G01X8497987Y-1907525D01*
G01X8519577Y-1907525D02*
G01X8541421Y-1941561D01*
G01X8574695Y-1892031D02*
G01X8574695Y-1888983D01*
G01X8577743Y-1882633D01*
G01X8580791Y-1879585D01*
G01X8586887Y-1876537D01*
G01X8599333Y-1876537D01*
G01X8605683Y-1879585D01*
G01X8608731Y-1882633D01*
G01X8611779Y-1888983D01*
G01X8611779Y-1895079D01*
G01X8608731Y-1901175D01*
G01X8602381Y-1910573D01*
G01X8571647Y-1941561D01*
G01X8614827Y-1941561D01*
G01X6542187Y-3311637D02*
G01X6542187Y-3376661D01*
G01X6542187Y-3311637D02*
G01X6570127Y-3311637D01*
G01X6579271Y-3314685D01*
G01X6582319Y-3317733D01*
G01X6585621Y-3324083D01*
G01X6585621Y-3330179D01*
G01X6582319Y-3336275D01*
G01X6579271Y-3339323D01*
G01X6570127Y-3342625D01*
G01X6542187Y-3342625D01*
G01X6563777Y-3342625D02*
G01X6585621Y-3376661D01*
G01X6621943Y-3311637D02*
G01X6655979Y-3311637D01*
G01X6637437Y-3336275D01*
G01X6646581Y-3336275D01*
G01X6652931Y-3339323D01*
G01X6655979Y-3342625D01*
G01X6659027Y-3351769D01*
G01X6659027Y-3358119D01*
G01X6655979Y-3367263D01*
G01X6649883Y-3373613D01*
G01X6640485Y-3376661D01*
G01X6631087Y-3376661D01*
G01X6621943Y-3373613D01*
G01X6618895Y-3370311D01*
G01X6615847Y-3364215D01*
G01X8497987Y-3552937D02*
G01X8497987Y-3617961D01*
G01X8497987Y-3552937D02*
G01X8525927Y-3552937D01*
G01X8535071Y-3555985D01*
G01X8538119Y-3559033D01*
G01X8541421Y-3565383D01*
G01X8541421Y-3571479D01*
G01X8538119Y-3577575D01*
G01X8535071Y-3580623D01*
G01X8525927Y-3583925D01*
G01X8497987Y-3583925D01*
G01X8519577Y-3583925D02*
G01X8541421Y-3617961D01*
G01X8602381Y-3552937D02*
G01X8571647Y-3596117D01*
G01X8617875Y-3596117D01*
G01X8602381Y-3552937D02*
G01X8602381Y-3617961D01*
G01X6542187Y-5061026D02*
G01X6542187Y-5126050D01*
G01X6542187Y-5061026D02*
G01X6570127Y-5061026D01*
G01X6579271Y-5064074D01*
G01X6582319Y-5067122D01*
G01X6585621Y-5073472D01*
G01X6585621Y-5079568D01*
G01X6582319Y-5085664D01*
G01X6579271Y-5088712D01*
G01X6570127Y-5092014D01*
G01X6542187Y-5092014D01*
G01X6563777Y-5092014D02*
G01X6585621Y-5126050D01*
G01X6652931Y-5061026D02*
G01X6621943Y-5061026D01*
G01X6618895Y-5088712D01*
G01X6621943Y-5085664D01*
G01X6631087Y-5082616D01*
G01X6640485Y-5082616D01*
G01X6649883Y-5085664D01*
G01X6655979Y-5092014D01*
G01X6659027Y-5101158D01*
G01X6659027Y-5107508D01*
G01X6655979Y-5116652D01*
G01X6649883Y-5123002D01*
G01X6640485Y-5126050D01*
G01X6631087Y-5126050D01*
G01X6621943Y-5123002D01*
G01X6618895Y-5119700D01*
G01X6615847Y-5113604D01*
G01X8485287Y-5330937D02*
G01X8485287Y-5395961D01*
G01X8485287Y-5330937D02*
G01X8513227Y-5330937D01*
G01X8522371Y-5333985D01*
G01X8525419Y-5337033D01*
G01X8528721Y-5343383D01*
G01X8528721Y-5349479D01*
G01X8525419Y-5355575D01*
G01X8522371Y-5358623D01*
G01X8513227Y-5361925D01*
G01X8485287Y-5361925D01*
G01X8506877Y-5361925D02*
G01X8528721Y-5395961D01*
G01X8596031Y-5340081D02*
G01X8592983Y-5333985D01*
G01X8583585Y-5330937D01*
G01X8577489Y-5330937D01*
G01X8568091Y-5333985D01*
G01X8561995Y-5343383D01*
G01X8558947Y-5358623D01*
G01X8558947Y-5374117D01*
G01X8561995Y-5386563D01*
G01X8568091Y-5392913D01*
G01X8577489Y-5395961D01*
G01X8580537Y-5395961D01*
G01X8589681Y-5392913D01*
G01X8596031Y-5386563D01*
G01X8599079Y-5377419D01*
G01X8599079Y-5374117D01*
G01X8596031Y-5364973D01*
G01X8589681Y-5358623D01*
G01X8580537Y-5355575D01*
G01X8577489Y-5355575D01*
G01X8568091Y-5358623D01*
G01X8561995Y-5364973D01*
G01X8558947Y-5374117D01*
G01X6542187Y-6823220D02*
G01X6542187Y-6888244D01*
G01X6542187Y-6823220D02*
G01X6570127Y-6823220D01*
G01X6579271Y-6826268D01*
G01X6582319Y-6829316D01*
G01X6585621Y-6835666D01*
G01X6585621Y-6841762D01*
G01X6582319Y-6847858D01*
G01X6579271Y-6850906D01*
G01X6570127Y-6854208D01*
G01X6542187Y-6854208D01*
G01X6563777Y-6854208D02*
G01X6585621Y-6888244D01*
G01X6659027Y-6823220D02*
G01X6628039Y-6888244D01*
G01X6615847Y-6823220D02*
G01X6659027Y-6823220D01*
G01X8525413Y-7077220D02*
G01X8525413Y-7142244D01*
G01X8525413Y-7077220D02*
G01X8553353Y-7077220D01*
G01X8562497Y-7080268D01*
G01X8565545Y-7083316D01*
G01X8568847Y-7089666D01*
G01X8568847Y-7095762D01*
G01X8565545Y-7101858D01*
G01X8562497Y-7104906D01*
G01X8553353Y-7108208D01*
G01X8525413Y-7108208D01*
G01X8547003Y-7108208D02*
G01X8568847Y-7142244D01*
G01X8614313Y-7077220D02*
G01X8605169Y-7080268D01*
G01X8602121Y-7086364D01*
G01X8602121Y-7092714D01*
G01X8605169Y-7098810D01*
G01X8611265Y-7101858D01*
G01X8623711Y-7104906D01*
G01X8633109Y-7108208D01*
G01X8639205Y-7114304D01*
G01X8642253Y-7120400D01*
G01X8642253Y-7129798D01*
G01X8639205Y-7135894D01*
G01X8636157Y-7139196D01*
G01X8626759Y-7142244D01*
G01X8614313Y-7142244D01*
G01X8605169Y-7139196D01*
G01X8602121Y-7135894D01*
G01X8599073Y-7129798D01*
G01X8599073Y-7120400D01*
G01X8602121Y-7114304D01*
G01X8608217Y-7108208D01*
G01X8617615Y-7104906D01*
G01X8629807Y-7101858D01*
G01X8636157Y-7098810D01*
G01X8639205Y-7092714D01*
G01X8639205Y-7086364D01*
G01X8636157Y-7080268D01*
G01X8626759Y-7077220D01*
G01X8614313Y-7077220D01*
G01X5623037Y-8024713D02*
G01X5688061Y-8024713D01*
G01X5623037Y-8024713D02*
G01X5623037Y-7996773D01*
G01X5626085Y-7987629D01*
G01X5629133Y-7984581D01*
G01X5635483Y-7981279D01*
G01X5641579Y-7981279D01*
G01X5647675Y-7984581D01*
G01X5650723Y-7987629D01*
G01X5654025Y-7996773D01*
G01X5654025Y-8024713D01*
G01X5654025Y-8003123D02*
G01X5688061Y-7981279D01*
G01X5644627Y-7910921D02*
G01X5654025Y-7913969D01*
G01X5660121Y-7920319D01*
G01X5663169Y-7929463D01*
G01X5663169Y-7932511D01*
G01X5660121Y-7941909D01*
G01X5654025Y-7948005D01*
G01X5644627Y-7951053D01*
G01X5641579Y-7951053D01*
G01X5632181Y-7948005D01*
G01X5626085Y-7941909D01*
G01X5623037Y-7932511D01*
G01X5623037Y-7929463D01*
G01X5626085Y-7920319D01*
G01X5632181Y-7913969D01*
G01X5644627Y-7910921D01*
G01X5660121Y-7910921D01*
G01X5675615Y-7913969D01*
G01X5685013Y-7920319D01*
G01X5688061Y-7929463D01*
G01X5688061Y-7935813D01*
G01X5685013Y-7944957D01*
G01X5678663Y-7948005D01*
G01X6567091Y-7388586D02*
G01X6567091Y-7453610D01*
G01X6567091Y-7388586D02*
G01X6595031Y-7388586D01*
G01X6604175Y-7391634D01*
G01X6607223Y-7394682D01*
G01X6610525Y-7401032D01*
G01X6610525Y-7407128D01*
G01X6607223Y-7413224D01*
G01X6604175Y-7416272D01*
G01X6595031Y-7419574D01*
G01X6567091Y-7419574D01*
G01X6588681Y-7419574D02*
G01X6610525Y-7453610D01*
G01X6640751Y-7401032D02*
G01X6646847Y-7397730D01*
G01X6655991Y-7388586D01*
G01X6655991Y-7453610D01*
G01X6704759Y-7388586D02*
G01X6695361Y-7391634D01*
G01X6689265Y-7401032D01*
G01X6686217Y-7416272D01*
G01X6686217Y-7425670D01*
G01X6689265Y-7441164D01*
G01X6695361Y-7450562D01*
G01X6704759Y-7453610D01*
G01X6710855Y-7453610D01*
G01X6720253Y-7450562D01*
G01X6726349Y-7441164D01*
G01X6729397Y-7425670D01*
G01X6729397Y-7416272D01*
G01X6726349Y-7401032D01*
G01X6720253Y-7391634D01*
G01X6710855Y-7388586D01*
G01X6704759Y-7388586D01*
G01X8766063Y-8409087D02*
G01X8701039Y-8409087D01*
G01X8766063Y-8409087D02*
G01X8766063Y-8437027D01*
G01X8763015Y-8446171D01*
G01X8759967Y-8449219D01*
G01X8753617Y-8452521D01*
G01X8747521Y-8452521D01*
G01X8741425Y-8449219D01*
G01X8738377Y-8446171D01*
G01X8735075Y-8437027D01*
G01X8735075Y-8409087D01*
G01X8735075Y-8430677D02*
G01X8701039Y-8452521D01*
G01X8753617Y-8482747D02*
G01X8756919Y-8488843D01*
G01X8766063Y-8497987D01*
G01X8701039Y-8497987D01*
G01X8750569Y-8531261D02*
G01X8753617Y-8531261D01*
G01X8759967Y-8534309D01*
G01X8763015Y-8537357D01*
G01X8766063Y-8543453D01*
G01X8766063Y-8555899D01*
G01X8763015Y-8562249D01*
G01X8759967Y-8565297D01*
G01X8753617Y-8568345D01*
G01X8747521Y-8568345D01*
G01X8741425Y-8565297D01*
G01X8732027Y-8558947D01*
G01X8701039Y-8528213D01*
G01X8701039Y-8571393D01*
G01X10099563Y-1944787D02*
G01X10034539Y-1944787D01*
G01X10099563Y-1944787D02*
G01X10099563Y-1972727D01*
G01X10096515Y-1981871D01*
G01X10093467Y-1984919D01*
G01X10087117Y-1988221D01*
G01X10081021Y-1988221D01*
G01X10074925Y-1984919D01*
G01X10071877Y-1981871D01*
G01X10068575Y-1972727D01*
G01X10068575Y-1944787D01*
G01X10068575Y-1966377D02*
G01X10034539Y-1988221D01*
G01X10087117Y-2018447D02*
G01X10090419Y-2024543D01*
G01X10099563Y-2033687D01*
G01X10034539Y-2033687D01*
G01X10099563Y-2070009D02*
G01X10099563Y-2104045D01*
G01X10074925Y-2085503D01*
G01X10074925Y-2094647D01*
G01X10071877Y-2100997D01*
G01X10068575Y-2104045D01*
G01X10059431Y-2107093D01*
G01X10053081Y-2107093D01*
G01X10043937Y-2104045D01*
G01X10037587Y-2097949D01*
G01X10034539Y-2088551D01*
G01X10034539Y-2079153D01*
G01X10037587Y-2070009D01*
G01X10040889Y-2066961D01*
G01X10046985Y-2063913D01*
G01X10112263Y-3621187D02*
G01X10047239Y-3621187D01*
G01X10112263Y-3621187D02*
G01X10112263Y-3649127D01*
G01X10109215Y-3658271D01*
G01X10106167Y-3661319D01*
G01X10099817Y-3664621D01*
G01X10093721Y-3664621D01*
G01X10087625Y-3661319D01*
G01X10084577Y-3658271D01*
G01X10081275Y-3649127D01*
G01X10081275Y-3621187D01*
G01X10081275Y-3642777D02*
G01X10047239Y-3664621D01*
G01X10099817Y-3694847D02*
G01X10103119Y-3700943D01*
G01X10112263Y-3710087D01*
G01X10047239Y-3710087D01*
G01X10112263Y-3771047D02*
G01X10069083Y-3740313D01*
G01X10069083Y-3786541D01*
G01X10112263Y-3771047D02*
G01X10047239Y-3771047D01*
G01X10114674Y-5377934D02*
G01X10049650Y-5377934D01*
G01X10114674Y-5377934D02*
G01X10114674Y-5405874D01*
G01X10111626Y-5415018D01*
G01X10108578Y-5418066D01*
G01X10102228Y-5421368D01*
G01X10096132Y-5421368D01*
G01X10090036Y-5418066D01*
G01X10086988Y-5415018D01*
G01X10083686Y-5405874D01*
G01X10083686Y-5377934D01*
G01X10083686Y-5399524D02*
G01X10049650Y-5421368D01*
G01X10102228Y-5451594D02*
G01X10105530Y-5457690D01*
G01X10114674Y-5466834D01*
G01X10049650Y-5466834D01*
G01X10114674Y-5534144D02*
G01X10114674Y-5503156D01*
G01X10086988Y-5500108D01*
G01X10090036Y-5503156D01*
G01X10093084Y-5512300D01*
G01X10093084Y-5521698D01*
G01X10090036Y-5531096D01*
G01X10083686Y-5537192D01*
G01X10074542Y-5540240D01*
G01X10068192Y-5540240D01*
G01X10059048Y-5537192D01*
G01X10052698Y-5531096D01*
G01X10049650Y-5521698D01*
G01X10049650Y-5512300D01*
G01X10052698Y-5503156D01*
G01X10056000Y-5500108D01*
G01X10062096Y-5497060D01*
G01X10114674Y-7114728D02*
G01X10049650Y-7114728D01*
G01X10114674Y-7114728D02*
G01X10114674Y-7142668D01*
G01X10111626Y-7151812D01*
G01X10108578Y-7154860D01*
G01X10102228Y-7158162D01*
G01X10096132Y-7158162D01*
G01X10090036Y-7154860D01*
G01X10086988Y-7151812D01*
G01X10083686Y-7142668D01*
G01X10083686Y-7114728D01*
G01X10083686Y-7136318D02*
G01X10049650Y-7158162D01*
G01X10102228Y-7188388D02*
G01X10105530Y-7194484D01*
G01X10114674Y-7203628D01*
G01X10049650Y-7203628D01*
G01X10105530Y-7270938D02*
G01X10111626Y-7267890D01*
G01X10114674Y-7258492D01*
G01X10114674Y-7252396D01*
G01X10111626Y-7242998D01*
G01X10102228Y-7236902D01*
G01X10086988Y-7233854D01*
G01X10071494Y-7233854D01*
G01X10059048Y-7236902D01*
G01X10052698Y-7242998D01*
G01X10049650Y-7252396D01*
G01X10049650Y-7255444D01*
G01X10052698Y-7264588D01*
G01X10059048Y-7270938D01*
G01X10068192Y-7273986D01*
G01X10071494Y-7273986D01*
G01X10080638Y-7270938D01*
G01X10086988Y-7264588D01*
G01X10090036Y-7255444D01*
G01X10090036Y-7252396D01*
G01X10086988Y-7242998D01*
G01X10080638Y-7236902D01*
G01X10071494Y-7233854D01*
G01X8930612Y-9175963D02*
G01X8930612Y-9110939D01*
G01X8930612Y-9175963D02*
G01X8902672Y-9175963D01*
G01X8893528Y-9172915D01*
G01X8890480Y-9169867D01*
G01X8887178Y-9163517D01*
G01X8887178Y-9157421D01*
G01X8890480Y-9151325D01*
G01X8893528Y-9148277D01*
G01X8902672Y-9144975D01*
G01X8930612Y-9144975D01*
G01X8909022Y-9144975D02*
G01X8887178Y-9110939D01*
G01X8856952Y-9163517D02*
G01X8850856Y-9166819D01*
G01X8841712Y-9175963D01*
G01X8841712Y-9110939D01*
G01X8768306Y-9175963D02*
G01X8799294Y-9110939D01*
G01X8811486Y-9175963D02*
G01X8768306Y-9175963D01*
G01X10618437Y-710565D02*
G01X10618437Y-775589D01*
G01X10618437Y-710565D02*
G01X10646377Y-710565D01*
G01X10655521Y-713613D01*
G01X10658569Y-716661D01*
G01X10661871Y-723011D01*
G01X10661871Y-729107D01*
G01X10658569Y-735203D01*
G01X10655521Y-738251D01*
G01X10646377Y-741553D01*
G01X10618437Y-741553D01*
G01X10640027Y-741553D02*
G01X10661871Y-775589D01*
G01X10692097Y-710565D02*
G01X10692097Y-775589D01*
G01X10692097Y-775589D02*
G01X10729181Y-775589D01*
G01X10759407Y-710565D02*
G01X10784045Y-741553D01*
G01X10784045Y-775589D01*
G01X10808937Y-710565D02*
G01X10784045Y-741553D01*
G01X10839163Y-723011D02*
G01X10845259Y-719709D01*
G01X10854403Y-710565D01*
G01X10854403Y-775589D01*
G01X10656606Y-2415062D02*
G01X10656606Y-2480086D01*
G01X10656606Y-2415062D02*
G01X10684546Y-2415062D01*
G01X10693690Y-2418110D01*
G01X10696738Y-2421158D01*
G01X10700040Y-2427508D01*
G01X10700040Y-2433604D01*
G01X10696738Y-2439700D01*
G01X10693690Y-2442748D01*
G01X10684546Y-2446050D01*
G01X10656606Y-2446050D01*
G01X10678196Y-2446050D02*
G01X10700040Y-2480086D01*
G01X10730266Y-2415062D02*
G01X10730266Y-2480086D01*
G01X10730266Y-2480086D02*
G01X10767350Y-2480086D01*
G01X10797576Y-2415062D02*
G01X10822214Y-2446050D01*
G01X10822214Y-2480086D01*
G01X10847106Y-2415062D02*
G01X10822214Y-2446050D01*
G01X10880380Y-2430556D02*
G01X10880380Y-2427508D01*
G01X10883428Y-2421158D01*
G01X10886476Y-2418110D01*
G01X10892572Y-2415062D01*
G01X10905018Y-2415062D01*
G01X10911368Y-2418110D01*
G01X10914416Y-2421158D01*
G01X10917464Y-2427508D01*
G01X10917464Y-2433604D01*
G01X10914416Y-2439700D01*
G01X10908066Y-2449098D01*
G01X10877332Y-2480086D01*
G01X10920512Y-2480086D01*
G01X10618437Y-4139052D02*
G01X10618437Y-4204076D01*
G01X10618437Y-4139052D02*
G01X10646377Y-4139052D01*
G01X10655521Y-4142100D01*
G01X10658569Y-4145148D01*
G01X10661871Y-4151498D01*
G01X10661871Y-4157594D01*
G01X10658569Y-4163690D01*
G01X10655521Y-4166738D01*
G01X10646377Y-4170040D01*
G01X10618437Y-4170040D01*
G01X10640027Y-4170040D02*
G01X10661871Y-4204076D01*
G01X10692097Y-4139052D02*
G01X10692097Y-4204076D01*
G01X10692097Y-4204076D02*
G01X10729181Y-4204076D01*
G01X10759407Y-4139052D02*
G01X10784045Y-4170040D01*
G01X10784045Y-4204076D01*
G01X10808937Y-4139052D02*
G01X10784045Y-4170040D01*
G01X10845259Y-4139052D02*
G01X10879295Y-4139052D01*
G01X10860753Y-4163690D01*
G01X10869897Y-4163690D01*
G01X10876247Y-4166738D01*
G01X10879295Y-4170040D01*
G01X10882343Y-4179184D01*
G01X10882343Y-4185534D01*
G01X10879295Y-4194678D01*
G01X10873199Y-4201028D01*
G01X10863801Y-4204076D01*
G01X10854403Y-4204076D01*
G01X10845259Y-4201028D01*
G01X10842211Y-4197726D01*
G01X10839163Y-4191630D01*
G01X10643906Y-5882162D02*
G01X10643906Y-5947186D01*
G01X10643906Y-5882162D02*
G01X10671846Y-5882162D01*
G01X10680990Y-5885210D01*
G01X10684038Y-5888258D01*
G01X10687340Y-5894608D01*
G01X10687340Y-5900704D01*
G01X10684038Y-5906800D01*
G01X10680990Y-5909848D01*
G01X10671846Y-5913150D01*
G01X10643906Y-5913150D01*
G01X10665496Y-5913150D02*
G01X10687340Y-5947186D01*
G01X10717566Y-5882162D02*
G01X10717566Y-5947186D01*
G01X10717566Y-5947186D02*
G01X10754650Y-5947186D01*
G01X10784876Y-5882162D02*
G01X10809514Y-5913150D01*
G01X10809514Y-5947186D01*
G01X10834406Y-5882162D02*
G01X10809514Y-5913150D01*
G01X10895366Y-5882162D02*
G01X10864632Y-5925342D01*
G01X10910860Y-5925342D01*
G01X10895366Y-5882162D02*
G01X10895366Y-5947186D01*
G01X3459521Y-2015071D02*
G01X3459521Y-2061553D01*
G01X3462569Y-2070697D01*
G01X3468919Y-2077047D01*
G01X3478063Y-2080095D01*
G01X3484413Y-2080095D01*
G01X3493557Y-2077047D01*
G01X3499653Y-2070697D01*
G01X3502955Y-2061553D01*
G01X3502955Y-2015071D01*
G01X3533181Y-2027517D02*
G01X3539277Y-2024215D01*
G01X3548421Y-2015071D01*
G01X3548421Y-2080095D01*
G01X7053039Y-1536159D02*
G01X7053039Y-1582641D01*
G01X7056087Y-1591785D01*
G01X7062437Y-1598135D01*
G01X7071581Y-1601183D01*
G01X7077931Y-1601183D01*
G01X7087075Y-1598135D01*
G01X7093171Y-1591785D01*
G01X7096473Y-1582641D01*
G01X7096473Y-1536159D01*
G01X7129747Y-1551653D02*
G01X7129747Y-1548605D01*
G01X7132795Y-1542255D01*
G01X7135843Y-1539207D01*
G01X7141939Y-1536159D01*
G01X7154385Y-1536159D01*
G01X7160735Y-1539207D01*
G01X7163783Y-1542255D01*
G01X7166831Y-1548605D01*
G01X7166831Y-1554701D01*
G01X7163783Y-1560797D01*
G01X7157433Y-1570195D01*
G01X7126699Y-1601183D01*
G01X7169879Y-1601183D01*
G01X7040339Y-3237959D02*
G01X7040339Y-3284441D01*
G01X7043387Y-3293585D01*
G01X7049737Y-3299935D01*
G01X7058881Y-3302983D01*
G01X7065231Y-3302983D01*
G01X7074375Y-3299935D01*
G01X7080471Y-3293585D01*
G01X7083773Y-3284441D01*
G01X7083773Y-3237959D01*
G01X7120095Y-3237959D02*
G01X7154131Y-3237959D01*
G01X7135589Y-3262597D01*
G01X7144733Y-3262597D01*
G01X7151083Y-3265645D01*
G01X7154131Y-3268947D01*
G01X7157179Y-3278091D01*
G01X7157179Y-3284441D01*
G01X7154131Y-3293585D01*
G01X7148035Y-3299935D01*
G01X7138637Y-3302983D01*
G01X7129239Y-3302983D01*
G01X7120095Y-3299935D01*
G01X7117047Y-3296633D01*
G01X7113999Y-3290537D01*
G01X7053039Y-5003259D02*
G01X7053039Y-5049741D01*
G01X7056087Y-5058885D01*
G01X7062437Y-5065235D01*
G01X7071581Y-5068283D01*
G01X7077931Y-5068283D01*
G01X7087075Y-5065235D01*
G01X7093171Y-5058885D01*
G01X7096473Y-5049741D01*
G01X7096473Y-5003259D01*
G01X7157433Y-5003259D02*
G01X7126699Y-5046439D01*
G01X7172927Y-5046439D01*
G01X7157433Y-5003259D02*
G01X7157433Y-5068283D01*
G01X7065739Y-6755859D02*
G01X7065739Y-6802341D01*
G01X7068787Y-6811485D01*
G01X7075137Y-6817835D01*
G01X7084281Y-6820883D01*
G01X7090631Y-6820883D01*
G01X7099775Y-6817835D01*
G01X7105871Y-6811485D01*
G01X7109173Y-6802341D01*
G01X7109173Y-6755859D01*
G01X7176483Y-6755859D02*
G01X7145495Y-6755859D01*
G01X7142447Y-6783545D01*
G01X7145495Y-6780497D01*
G01X7154639Y-6777449D01*
G01X7164037Y-6777449D01*
G01X7173435Y-6780497D01*
G01X7179531Y-6786847D01*
G01X7182579Y-6795991D01*
G01X7182579Y-6802341D01*
G01X7179531Y-6811485D01*
G01X7173435Y-6817835D01*
G01X7164037Y-6820883D01*
G01X7154639Y-6820883D01*
G01X7145495Y-6817835D01*
G01X7142447Y-6814533D01*
G01X7139399Y-6808437D01*
G01X12600452Y-2036674D02*
G01X12646934Y-2036674D01*
G01X12656078Y-2033626D01*
G01X12662428Y-2027276D01*
G01X12665476Y-2018132D01*
G01X12665476Y-2011782D01*
G01X12662428Y-2002638D01*
G01X12656078Y-1996542D01*
G01X12646934Y-1993240D01*
G01X12600452Y-1993240D01*
G01X12609596Y-1925930D02*
G01X12603500Y-1928978D01*
G01X12600452Y-1938376D01*
G01X12600452Y-1944472D01*
G01X12603500Y-1953870D01*
G01X12612898Y-1959966D01*
G01X12628138Y-1963014D01*
G01X12643632Y-1963014D01*
G01X12656078Y-1959966D01*
G01X12662428Y-1953870D01*
G01X12665476Y-1944472D01*
G01X12665476Y-1941424D01*
G01X12662428Y-1932280D01*
G01X12656078Y-1925930D01*
G01X12646934Y-1922882D01*
G01X12643632Y-1922882D01*
G01X12634488Y-1925930D01*
G01X12628138Y-1932280D01*
G01X12625090Y-1941424D01*
G01X12625090Y-1944472D01*
G01X12628138Y-1953870D01*
G01X12634488Y-1959966D01*
G01X12643632Y-1963014D01*
G01X12625852Y-3763874D02*
G01X12672334Y-3763874D01*
G01X12681478Y-3760826D01*
G01X12687828Y-3754476D01*
G01X12690876Y-3745332D01*
G01X12690876Y-3738982D01*
G01X12687828Y-3729838D01*
G01X12681478Y-3723742D01*
G01X12672334Y-3720440D01*
G01X12625852Y-3720440D01*
G01X12625852Y-3647034D02*
G01X12690876Y-3678022D01*
G01X12625852Y-3690214D02*
G01X12625852Y-3647034D01*
G01X12638552Y-5465674D02*
G01X12685034Y-5465674D01*
G01X12694178Y-5462626D01*
G01X12700528Y-5456276D01*
G01X12703576Y-5447132D01*
G01X12703576Y-5440782D01*
G01X12700528Y-5431638D01*
G01X12694178Y-5425542D01*
G01X12685034Y-5422240D01*
G01X12638552Y-5422240D01*
G01X12638552Y-5376774D02*
G01X12641600Y-5385918D01*
G01X12647696Y-5388966D01*
G01X12654046Y-5388966D01*
G01X12660142Y-5385918D01*
G01X12663190Y-5379822D01*
G01X12666238Y-5367376D01*
G01X12669540Y-5357978D01*
G01X12675636Y-5351882D01*
G01X12681732Y-5348834D01*
G01X12691130Y-5348834D01*
G01X12697226Y-5351882D01*
G01X12700528Y-5354930D01*
G01X12703576Y-5364328D01*
G01X12703576Y-5376774D01*
G01X12700528Y-5385918D01*
G01X12697226Y-5388966D01*
G01X12691130Y-5392014D01*
G01X12681732Y-5392014D01*
G01X12675636Y-5388966D01*
G01X12669540Y-5382870D01*
G01X12666238Y-5373472D01*
G01X12663190Y-5361280D01*
G01X12660142Y-5354930D01*
G01X12654046Y-5351882D01*
G01X12647696Y-5351882D01*
G01X12641600Y-5354930D01*
G01X12638552Y-5364328D01*
G01X12638552Y-5376774D01*
G01X12638552Y-7205574D02*
G01X12685034Y-7205574D01*
G01X12694178Y-7202526D01*
G01X12700528Y-7196176D01*
G01X12703576Y-7187032D01*
G01X12703576Y-7180682D01*
G01X12700528Y-7171538D01*
G01X12694178Y-7165442D01*
G01X12685034Y-7162140D01*
G01X12638552Y-7162140D01*
G01X12660142Y-7091782D02*
G01X12669540Y-7094830D01*
G01X12675636Y-7101180D01*
G01X12678684Y-7110324D01*
G01X12678684Y-7113372D01*
G01X12675636Y-7122770D01*
G01X12669540Y-7128866D01*
G01X12660142Y-7131914D01*
G01X12657094Y-7131914D01*
G01X12647696Y-7128866D01*
G01X12641600Y-7122770D01*
G01X12638552Y-7113372D01*
G01X12638552Y-7110324D01*
G01X12641600Y-7101180D01*
G01X12647696Y-7094830D01*
G01X12660142Y-7091782D01*
G01X12675636Y-7091782D01*
G01X12691130Y-7094830D01*
G01X12700528Y-7101180D01*
G01X12703576Y-7110324D01*
G01X12703576Y-7116674D01*
G01X12700528Y-7125818D01*
G01X12694178Y-7128866D01*
G01X5356636Y-7669007D02*
G01X5310154Y-7669007D01*
G01X5301010Y-7672055D01*
G01X5294660Y-7678405D01*
G01X5291612Y-7687549D01*
G01X5291612Y-7693899D01*
G01X5294660Y-7703043D01*
G01X5301010Y-7709139D01*
G01X5310154Y-7712441D01*
G01X5356636Y-7712441D01*
G01X5344190Y-7742667D02*
G01X5347492Y-7748763D01*
G01X5356636Y-7757907D01*
G01X5291612Y-7757907D01*
G01X5356636Y-7806675D02*
G01X5353588Y-7797277D01*
G01X5344190Y-7791181D01*
G01X5328950Y-7788133D01*
G01X5319552Y-7788133D01*
G01X5304058Y-7791181D01*
G01X5294660Y-7797277D01*
G01X5291612Y-7806675D01*
G01X5291612Y-7812771D01*
G01X5294660Y-7822169D01*
G01X5304058Y-7828265D01*
G01X5319552Y-7831313D01*
G01X5328950Y-7831313D01*
G01X5344190Y-7828265D01*
G01X5353588Y-7822169D01*
G01X5356636Y-7812771D01*
G01X5356636Y-7806675D01*
G54D12*
G01X4197350Y-7817358D02*
G01X4199890Y-7822438D01*
G01X4207256Y-7829804D01*
G01X4155186Y-7829804D01*
G54D10*
G01X4334434Y-7595514D02*
G01X4287952Y-7595514D01*
G01X4278808Y-7598562D01*
G01X4272458Y-7604912D01*
G01X4269410Y-7614056D01*
G01X4269410Y-7620406D01*
G01X4272458Y-7629550D01*
G01X4278808Y-7635646D01*
G01X4287952Y-7638948D01*
G01X4334434Y-7638948D01*
G01X4321988Y-7669174D02*
G01X4325290Y-7675270D01*
G01X4334434Y-7684414D01*
G01X4269410Y-7684414D01*
G01X4321988Y-7714640D02*
G01X4325290Y-7720736D01*
G01X4334434Y-7729880D01*
G01X4269410Y-7729880D01*
G01X11506413Y-8190466D02*
G01X11506413Y-8255490D01*
G01X11506413Y-8190466D02*
G01X11528003Y-8190466D01*
G01X11537401Y-8193514D01*
G01X11543497Y-8199610D01*
G01X11546545Y-8205960D01*
G01X11549847Y-8215104D01*
G01X11549847Y-8230598D01*
G01X11546545Y-8239996D01*
G01X11543497Y-8246092D01*
G01X11537401Y-8252442D01*
G01X11528003Y-8255490D01*
G01X11506413Y-8255490D01*
G01X11617157Y-8199610D02*
G01X11614109Y-8193514D01*
G01X11604711Y-8190466D01*
G01X11598615Y-8190466D01*
G01X11589217Y-8193514D01*
G01X11583121Y-8202912D01*
G01X11580073Y-8218152D01*
G01X11580073Y-8233646D01*
G01X11583121Y-8246092D01*
G01X11589217Y-8252442D01*
G01X11598615Y-8255490D01*
G01X11601663Y-8255490D01*
G01X11610807Y-8252442D01*
G01X11617157Y-8246092D01*
G01X11620205Y-8236948D01*
G01X11620205Y-8233646D01*
G01X11617157Y-8224502D01*
G01X11610807Y-8218152D01*
G01X11601663Y-8215104D01*
G01X11598615Y-8215104D01*
G01X11589217Y-8218152D01*
G01X11583121Y-8224502D01*
G01X11580073Y-8233646D01*
G54D12*
G01X12642850Y-8425942D02*
G01X12640310Y-8420862D01*
G01X12632944Y-8413496D01*
G01X12685014Y-8413496D01*
G54D10*
G01X12505766Y-8647786D02*
G01X12552248Y-8647786D01*
G01X12561392Y-8644738D01*
G01X12567742Y-8638388D01*
G01X12570790Y-8629244D01*
G01X12570790Y-8622894D01*
G01X12567742Y-8613750D01*
G01X12561392Y-8607654D01*
G01X12552248Y-8604352D01*
G01X12505766Y-8604352D01*
G01X12518212Y-8574126D02*
G01X12514910Y-8568030D01*
G01X12505766Y-8558886D01*
G01X12570790Y-8558886D01*
G01X12521260Y-8525612D02*
G01X12518212Y-8525612D01*
G01X12511862Y-8522564D01*
G01X12508814Y-8519516D01*
G01X12505766Y-8513420D01*
G01X12505766Y-8500974D01*
G01X12508814Y-8494624D01*
G01X12511862Y-8491576D01*
G01X12518212Y-8488528D01*
G01X12524308Y-8488528D01*
G01X12530404Y-8491576D01*
G01X12539802Y-8497926D01*
G01X12570790Y-8528660D01*
G01X12570790Y-8485480D01*
G04 Text End*

G04 PolygonModel Start*
G54D13*
G01X3911600Y-743075D02*
G01X5511800Y-743075D01*
G01X4167950Y-1079500D02*
G01X4167950Y-749300D01*
G01X4419600Y-1079500D02*
G01X4419600Y-749300D01*
G01X4913725Y-1079500D02*
G01X4913725Y-749300D01*
G01X4662075Y-1079500D02*
G01X4662075Y-749300D01*
G01X5256625Y-1079500D02*
G01X5256625Y-749300D01*
G01X5182775Y-1079500D02*
G01X5182775Y-749300D01*
G01X13564775Y-2036840D02*
G01X13564775Y-1212850D01*
G01X13596637Y-3763380D02*
G01X13596637Y-2939390D01*
G01X13609337Y-5465834D02*
G01X13609337Y-4641844D01*
G01X13609337Y-7205734D02*
G01X13609337Y-6381744D01*
G01X13539375Y-8653540D02*
G01X13539375Y-7896179D01*
G01X3315875Y-8355090D02*
G01X3315875Y-7597729D01*
G54D14*
G01X5552111Y-8498087D02*
G01X5552111Y-8183127D01*
G01X5392091Y-8500627D02*
G01X5392091Y-8180587D01*
G01X5552111Y-8372956D02*
G01X5392091Y-8372583D01*
G01X4337991Y-7814827D02*
G01X4337991Y-8129787D01*
G01X4498011Y-7812287D02*
G01X4498011Y-8132327D01*
G01X4337991Y-7939957D02*
G01X4498011Y-7940331D01*
G01X4498011Y-8586987D02*
G01X4498011Y-8272027D01*
G01X4337991Y-8589527D02*
G01X4337991Y-8269487D01*
G01X4498011Y-8461856D02*
G01X4337991Y-8461483D01*
G54D13*
G01X10485900Y-6765000D02*
G01X10485900Y-7205000D01*
G01X10265900Y-6765000D02*
G01X10265900Y-7205000D01*
G01X10485900Y-6765000D02*
G01X10265900Y-6765000D01*
G01X10485900Y-7205000D02*
G01X10265900Y-7205000D01*
G01X10485900Y-6858940D02*
G01X10265900Y-6858940D01*
G01X10473200Y-5025100D02*
G01X10473200Y-5465100D01*
G01X10253200Y-5025100D02*
G01X10253200Y-5465100D01*
G01X10473200Y-5025100D02*
G01X10253200Y-5025100D01*
G01X10473200Y-5465100D02*
G01X10253200Y-5465100D01*
G01X10473200Y-5119040D02*
G01X10253200Y-5119040D01*
G01X10473200Y-3272500D02*
G01X10473200Y-3712500D01*
G01X10253200Y-3272500D02*
G01X10253200Y-3712500D01*
G01X10473200Y-3272500D02*
G01X10253200Y-3272500D01*
G01X10473200Y-3712500D02*
G01X10253200Y-3712500D01*
G01X10473200Y-3366440D02*
G01X10253200Y-3366440D01*
G01X10473200Y-1596100D02*
G01X10473200Y-2036100D01*
G01X10253200Y-1596100D02*
G01X10253200Y-2036100D01*
G01X10473200Y-1596100D02*
G01X10253200Y-1596100D01*
G01X10473200Y-2036100D02*
G01X10253200Y-2036100D01*
G01X10473200Y-1690040D02*
G01X10253200Y-1690040D01*
G01X6371100Y-7984200D02*
G01X6371100Y-8424200D01*
G01X6151100Y-7984200D02*
G01X6151100Y-8424200D01*
G01X6371100Y-7984200D02*
G01X6151100Y-7984200D01*
G01X6371100Y-8424200D02*
G01X6151100Y-8424200D01*
G01X6371100Y-8078140D02*
G01X6151100Y-8078140D01*
G01X5181600Y-1079500D02*
G01X5181600Y-1333500D01*
G01X5181600Y-1333500D02*
G01X3911600Y-1333500D01*
G01X3911600Y-1333500D02*
G01X3911600Y-1079500D01*
G01X3911600Y-1079500D02*
G01X5181600Y-1079500D01*
G01X4167950Y-1079500D02*
G01X4167950Y-1333500D01*
G01X5506479Y-1081090D02*
G01X5506479Y-1335090D01*
G01X5506479Y-1335090D02*
G01X5252479Y-1335090D01*
G01X5252479Y-1335090D02*
G01X5252479Y-1081090D01*
G01X5252479Y-1081090D02*
G01X5506479Y-1081090D01*
G54D15*
G01X9928301Y-1660906D02*
G01X9938304Y-1660906D01*
G01X9938304Y-1660906D02*
G01X9968306Y-1630911D01*
G01X9858309Y-1660906D02*
G01X9848294Y-1660906D01*
G01X9848294Y-1660906D02*
G01X9818299Y-1630911D01*
G01X9858309Y-1660906D02*
G01X9928301Y-1660906D01*
G01X9818312Y-1330904D02*
G01X9966302Y-1330904D01*
G01X9968306Y-1515910D02*
G01X9968306Y-1630911D01*
G01X9818299Y-1515910D02*
G01X9818299Y-1630911D01*
G01X9968306Y-1455908D02*
G01X9968306Y-1330904D01*
G01X9818299Y-1455908D02*
G01X9818299Y-1330904D01*
G01X9931400Y-1473200D02*
G01X9855200Y-1473200D01*
G01X9892660Y-1473200D02*
G01X9892660Y-1498600D01*
G01X9930712Y-3336991D02*
G01X9940714Y-3336991D01*
G01X9940714Y-3336991D02*
G01X9970717Y-3306996D01*
G01X9860719Y-3336991D02*
G01X9850704Y-3336991D01*
G01X9850704Y-3336991D02*
G01X9820709Y-3306996D01*
G01X9860719Y-3336991D02*
G01X9930712Y-3336991D01*
G01X9820722Y-3006989D02*
G01X9968713Y-3006989D01*
G01X9970717Y-3191995D02*
G01X9970717Y-3306996D01*
G01X9820709Y-3191995D02*
G01X9820709Y-3306996D01*
G01X9970717Y-3131993D02*
G01X9970717Y-3006989D01*
G01X9820709Y-3131993D02*
G01X9820709Y-3006989D01*
G01X9933810Y-3149285D02*
G01X9857610Y-3149285D01*
G01X9895070Y-3149285D02*
G01X9895070Y-3174685D01*
G01X9941001Y-5089906D02*
G01X9951004Y-5089906D01*
G01X9951004Y-5089906D02*
G01X9981006Y-5059911D01*
G01X9871009Y-5089906D02*
G01X9860994Y-5089906D01*
G01X9860994Y-5089906D02*
G01X9830999Y-5059911D01*
G01X9871009Y-5089906D02*
G01X9941001Y-5089906D01*
G01X9831012Y-4759904D02*
G01X9979002Y-4759904D01*
G01X9981006Y-4944910D02*
G01X9981006Y-5059911D01*
G01X9830999Y-4944910D02*
G01X9830999Y-5059911D01*
G01X9981006Y-4884908D02*
G01X9981006Y-4759904D01*
G01X9830999Y-4884908D02*
G01X9830999Y-4759904D01*
G01X9944100Y-4902200D02*
G01X9867900Y-4902200D01*
G01X9905360Y-4902200D02*
G01X9905360Y-4927600D01*
G01X9941001Y-6817106D02*
G01X9951004Y-6817106D01*
G01X9951004Y-6817106D02*
G01X9981006Y-6787111D01*
G01X9871009Y-6817106D02*
G01X9860994Y-6817106D01*
G01X9860994Y-6817106D02*
G01X9830999Y-6787111D01*
G01X9871009Y-6817106D02*
G01X9941001Y-6817106D01*
G01X9831012Y-6487104D02*
G01X9979002Y-6487104D01*
G01X9981006Y-6672110D02*
G01X9981006Y-6787111D01*
G01X9830999Y-6672110D02*
G01X9830999Y-6787111D01*
G01X9981006Y-6612108D02*
G01X9981006Y-6487104D01*
G01X9830999Y-6612108D02*
G01X9830999Y-6487104D01*
G01X9944100Y-6629400D02*
G01X9867900Y-6629400D01*
G01X9905360Y-6629400D02*
G01X9905360Y-6654800D01*
G01X8592845Y-8324411D02*
G01X8602848Y-8324411D01*
G01X8602848Y-8324411D02*
G01X8632850Y-8294416D01*
G01X8522853Y-8324411D02*
G01X8512838Y-8324411D01*
G01X8512838Y-8324411D02*
G01X8482843Y-8294416D01*
G01X8522853Y-8324411D02*
G01X8592845Y-8324411D01*
G01X8482856Y-7994409D02*
G01X8630846Y-7994409D01*
G01X8632850Y-8179415D02*
G01X8632850Y-8294416D01*
G01X8482843Y-8179415D02*
G01X8482843Y-8294416D01*
G01X8632850Y-8119412D02*
G01X8632850Y-7994409D01*
G01X8482843Y-8119412D02*
G01X8482843Y-7994409D01*
G01X8595944Y-8136705D02*
G01X8519744Y-8136705D01*
G01X8557204Y-8136705D02*
G01X8557204Y-8162105D01*
G01X5794299Y-8333994D02*
G01X5784296Y-8333994D01*
G01X5784296Y-8333994D02*
G01X5754294Y-8363989D01*
G01X5864291Y-8333994D02*
G01X5874306Y-8333994D01*
G01X5874306Y-8333994D02*
G01X5904301Y-8363989D01*
G01X5864291Y-8333994D02*
G01X5794299Y-8333994D01*
G01X5904288Y-8663996D02*
G01X5756298Y-8663996D01*
G01X5754294Y-8478990D02*
G01X5754294Y-8363989D01*
G01X5904301Y-8478990D02*
G01X5904301Y-8363989D01*
G01X5754294Y-8538992D02*
G01X5754294Y-8663996D01*
G01X5904301Y-8538992D02*
G01X5904301Y-8663996D01*
G01X5791200Y-8521700D02*
G01X5867400Y-8521700D01*
G01X5829940Y-8521700D02*
G01X5829940Y-8496300D01*
G54D13*
G01X9070213Y-2293490D02*
G01X9070213Y-1897510D01*
G01X9070086Y-2293620D02*
G03X9070086Y-1897380I149840J198120D01*
G01X9070213Y-3957190D02*
G01X9070213Y-3561210D01*
G01X9070086Y-3957320D02*
G03X9070086Y-3561080I149840J198120D01*
G01X9057513Y-5735190D02*
G01X9057513Y-5339210D01*
G01X9057386Y-5735320D02*
G03X9057386Y-5339080I149840J198120D01*
G01X9070213Y-7475090D02*
G01X9070213Y-7079110D01*
G01X9070086Y-7475220D02*
G03X9070086Y-7078980I149840J198120D01*
G01X7973187Y-8641210D02*
G01X7973187Y-9037190D01*
G01X7973314Y-8641080D02*
G03X7973314Y-9037320I-149840J-198120D01*
G54D10*
G01X6765920Y-1907809D02*
G01X6894413Y-1907809D01*
G01X6894413Y-1907809D02*
G01X6894413Y-1724391D01*
G01X6894413Y-1724391D02*
G01X6765920Y-1724391D01*
G01X6670680Y-1907809D02*
G01X6542187Y-1907809D01*
G01X6542187Y-1907809D02*
G01X6542187Y-1724391D01*
G01X6542187Y-1724391D02*
G01X6670680Y-1724391D01*
G01X8721720Y-2174509D02*
G01X8850213Y-2174509D01*
G01X8850213Y-2174509D02*
G01X8850213Y-1991091D01*
G01X8850213Y-1991091D02*
G01X8721720Y-1991091D01*
G01X8626480Y-2174509D02*
G01X8497987Y-2174509D01*
G01X8497987Y-2174509D02*
G01X8497987Y-1991091D01*
G01X8497987Y-1991091D02*
G01X8626480Y-1991091D01*
G01X6765920Y-3609609D02*
G01X6894413Y-3609609D01*
G01X6894413Y-3609609D02*
G01X6894413Y-3426191D01*
G01X6894413Y-3426191D02*
G01X6765920Y-3426191D01*
G01X6670680Y-3609609D02*
G01X6542187Y-3609609D01*
G01X6542187Y-3609609D02*
G01X6542187Y-3426191D01*
G01X6542187Y-3426191D02*
G01X6670680Y-3426191D01*
G01X8721720Y-3850909D02*
G01X8850213Y-3850909D01*
G01X8850213Y-3850909D02*
G01X8850213Y-3667491D01*
G01X8850213Y-3667491D02*
G01X8721720Y-3667491D01*
G01X8626480Y-3850909D02*
G01X8497987Y-3850909D01*
G01X8497987Y-3850909D02*
G01X8497987Y-3667491D01*
G01X8497987Y-3667491D02*
G01X8626480Y-3667491D01*
G01X6765920Y-5358999D02*
G01X6894413Y-5358999D01*
G01X6894413Y-5358999D02*
G01X6894413Y-5175580D01*
G01X6894413Y-5175580D02*
G01X6765920Y-5175580D01*
G01X6670680Y-5358999D02*
G01X6542187Y-5358999D01*
G01X6542187Y-5358999D02*
G01X6542187Y-5175580D01*
G01X6542187Y-5175580D02*
G01X6670680Y-5175580D01*
G01X8709020Y-5628909D02*
G01X8837513Y-5628909D01*
G01X8837513Y-5628909D02*
G01X8837513Y-5445491D01*
G01X8837513Y-5445491D02*
G01X8709020Y-5445491D01*
G01X8613780Y-5628909D02*
G01X8485287Y-5628909D01*
G01X8485287Y-5628909D02*
G01X8485287Y-5445491D01*
G01X8485287Y-5445491D02*
G01X8613780Y-5445491D01*
G01X6765920Y-7121192D02*
G01X6894413Y-7121192D01*
G01X6894413Y-7121192D02*
G01X6894413Y-6937774D01*
G01X6894413Y-6937774D02*
G01X6765920Y-6937774D01*
G01X6670680Y-7121192D02*
G01X6542187Y-7121192D01*
G01X6542187Y-7121192D02*
G01X6542187Y-6937774D01*
G01X6542187Y-6937774D02*
G01X6670680Y-6937774D01*
G01X8749147Y-7375192D02*
G01X8877640Y-7375192D01*
G01X8877640Y-7375192D02*
G01X8877640Y-7191774D01*
G01X8877640Y-7191774D02*
G01X8749147Y-7191774D01*
G01X8653907Y-7375192D02*
G01X8525413Y-7375192D01*
G01X8525413Y-7375192D02*
G01X8525413Y-7191774D01*
G01X8525413Y-7191774D02*
G01X8653907Y-7191774D01*
G01X5921009Y-7800980D02*
G01X5921009Y-7672487D01*
G01X5921009Y-7672487D02*
G01X5737591Y-7672487D01*
G01X5737591Y-7672487D02*
G01X5737591Y-7800980D01*
G01X5921009Y-7896220D02*
G01X5921009Y-8024713D01*
G01X5921009Y-8024713D02*
G01X5737591Y-8024713D01*
G01X5737591Y-8024713D02*
G01X5737591Y-7896220D01*
G01X6748221Y-7635260D02*
G01X6844109Y-7635260D01*
G01X6844109Y-7635260D02*
G01X6844109Y-7503140D01*
G01X6844109Y-7503140D02*
G01X6748221Y-7503140D01*
G01X6662979Y-7635260D02*
G01X6567091Y-7635260D01*
G01X6567091Y-7635260D02*
G01X6567091Y-7503140D01*
G01X6567091Y-7503140D02*
G01X6662979Y-7503140D01*
G01X8468091Y-8632820D02*
G01X8468091Y-8761313D01*
G01X8468091Y-8761313D02*
G01X8651509Y-8761313D01*
G01X8651509Y-8761313D02*
G01X8651509Y-8632820D01*
G01X8468091Y-8537580D02*
G01X8468091Y-8409087D01*
G01X8468091Y-8409087D02*
G01X8651509Y-8409087D01*
G01X8651509Y-8409087D02*
G01X8651509Y-8537580D01*
G01X9801591Y-2168520D02*
G01X9801591Y-2297013D01*
G01X9801591Y-2297013D02*
G01X9985009Y-2297013D01*
G01X9985009Y-2297013D02*
G01X9985009Y-2168520D01*
G01X9801591Y-2073280D02*
G01X9801591Y-1944787D01*
G01X9801591Y-1944787D02*
G01X9985009Y-1944787D01*
G01X9985009Y-1944787D02*
G01X9985009Y-2073280D01*
G01X9814291Y-3844920D02*
G01X9814291Y-3973413D01*
G01X9814291Y-3973413D02*
G01X9997709Y-3973413D01*
G01X9997709Y-3973413D02*
G01X9997709Y-3844920D01*
G01X9814291Y-3749680D02*
G01X9814291Y-3621187D01*
G01X9814291Y-3621187D02*
G01X9997709Y-3621187D01*
G01X9997709Y-3621187D02*
G01X9997709Y-3749680D01*
G01X9816701Y-5601668D02*
G01X9816701Y-5730161D01*
G01X9816701Y-5730161D02*
G01X10000120Y-5730161D01*
G01X10000120Y-5730161D02*
G01X10000120Y-5601668D01*
G01X9816701Y-5506428D02*
G01X9816701Y-5377934D01*
G01X9816701Y-5377934D02*
G01X10000120Y-5377934D01*
G01X10000120Y-5377934D02*
G01X10000120Y-5506428D01*
G01X9816701Y-7338461D02*
G01X9816701Y-7466955D01*
G01X9816701Y-7466955D02*
G01X10000120Y-7466955D01*
G01X10000120Y-7466955D02*
G01X10000120Y-7338461D01*
G01X9816701Y-7243221D02*
G01X9816701Y-7114728D01*
G01X9816701Y-7114728D02*
G01X10000120Y-7114728D01*
G01X10000120Y-7114728D02*
G01X10000120Y-7243221D01*
G01X8604380Y-8845591D02*
G01X8468388Y-8845591D01*
G01X8468388Y-8845591D02*
G01X8468388Y-9061409D01*
G01X8468388Y-9061409D02*
G01X8604380Y-9061409D01*
G01X8794620Y-8845591D02*
G01X8930612Y-8845591D01*
G01X8930612Y-8845591D02*
G01X8930612Y-9061409D01*
G01X8930612Y-9061409D02*
G01X8794620Y-9061409D01*
G54D16*
G01X11264232Y-1505118D02*
G01X11264232Y-1010204D01*
G01X11264232Y-2210201D02*
G01X11264232Y-1715328D01*
G01X11264232Y-2210199D02*
G01X11162444Y-2210201D01*
G01X11264232Y-1010206D02*
G01X11162444Y-1010204D01*
G01X12210270Y-2035907D02*
G01X12210270Y-1641445D01*
G01X12108442Y-1540099D02*
G01X12273491Y-1379317D01*
G01X10790258Y-1430203D02*
G01X10790258Y-1237483D01*
G01X10790258Y-1237483D02*
G01X11653858Y-1237483D01*
G01X11653858Y-1237483D02*
G01X11653858Y-1537482D01*
G01X11653858Y-1537482D02*
G01X11656271Y-1539898D01*
G01X11656271Y-1539898D02*
G01X12057870Y-1539898D01*
G01X12057870Y-1539898D02*
G01X12108670Y-1539898D01*
G54D13*
G01X12543541Y-2390201D02*
G01X10623530Y-2390201D01*
G01X12543528Y-830199D02*
G01X10623517Y-830199D01*
G01X12543531Y-2390203D02*
G01X12543531Y-830202D01*
G01X12203361Y-1185515D02*
G01X12203361Y-1408273D01*
G01X10623517Y-830199D02*
G01X10623517Y-1580733D01*
G01X10623517Y-1639672D02*
G01X10623517Y-2390201D01*
G01X11115937Y-1510203D02*
G01X11415936Y-1510203D01*
G01X11415936Y-1710202D01*
G01X11115937Y-1710202D01*
G01X11115937Y-1510203D01*
G54D16*
G01X11302401Y-3209615D02*
G01X11302401Y-2714701D01*
G01X11302401Y-3914699D02*
G01X11302401Y-3419826D01*
G01X11302401Y-3914696D02*
G01X11200613Y-3914699D01*
G01X11302401Y-2714704D02*
G01X11200613Y-2714701D01*
G01X12248439Y-3740404D02*
G01X12248439Y-3345942D01*
G01X12146610Y-3244596D02*
G01X12311659Y-3083814D01*
G01X10828426Y-3134700D02*
G01X10828426Y-2941980D01*
G01X10828426Y-2941980D02*
G01X11692026Y-2941980D01*
G01X11692026Y-2941980D02*
G01X11692026Y-3241980D01*
G01X11692026Y-3241980D02*
G01X11694439Y-3244395D01*
G01X11694439Y-3244395D02*
G01X12096039Y-3244395D01*
G01X12096039Y-3244395D02*
G01X12146839Y-3244395D01*
G54D13*
G01X12581710Y-4094698D02*
G01X10661698Y-4094698D01*
G01X12581697Y-2534696D02*
G01X10661686Y-2534696D01*
G01X12581700Y-4094701D02*
G01X12581700Y-2534699D01*
G01X12241530Y-2890012D02*
G01X12241530Y-3112770D01*
G01X10661686Y-2534696D02*
G01X10661686Y-3285231D01*
G01X10661686Y-3344169D02*
G01X10661686Y-4094698D01*
G01X11154105Y-3214700D02*
G01X11454105Y-3214700D01*
G01X11454105Y-3414700D01*
G01X11154105Y-3414700D01*
G01X11154105Y-3214700D01*
G54D16*
G01X11264232Y-4933605D02*
G01X11264232Y-4438691D01*
G01X11264232Y-5638688D02*
G01X11264232Y-5143815D01*
G01X11264232Y-5638686D02*
G01X11162444Y-5638688D01*
G01X11264232Y-4438693D02*
G01X11162444Y-4438691D01*
G01X12210270Y-5464393D02*
G01X12210270Y-5069931D01*
G01X12108442Y-4968585D02*
G01X12273491Y-4807803D01*
G01X10790258Y-4858690D02*
G01X10790258Y-4665970D01*
G01X10790258Y-4665970D02*
G01X11653858Y-4665970D01*
G01X11653858Y-4665970D02*
G01X11653858Y-4965969D01*
G01X11653858Y-4965969D02*
G01X11656271Y-4968385D01*
G01X11656271Y-4968385D02*
G01X12057870Y-4968385D01*
G01X12057870Y-4968385D02*
G01X12108670Y-4968385D01*
G54D13*
G01X12543541Y-5818688D02*
G01X10623530Y-5818688D01*
G01X12543528Y-4258686D02*
G01X10623517Y-4258686D01*
G01X12543531Y-5818690D02*
G01X12543531Y-4258688D01*
G01X12203361Y-4614001D02*
G01X12203361Y-4836759D01*
G01X10623517Y-4258686D02*
G01X10623517Y-5009220D01*
G01X10623517Y-5068159D02*
G01X10623517Y-5818688D01*
G01X11115937Y-4938690D02*
G01X11415936Y-4938690D01*
G01X11415936Y-5138689D01*
G01X11115937Y-5138689D01*
G01X11115937Y-4938690D01*
G54D16*
G01X11289701Y-6676715D02*
G01X11289701Y-6181801D01*
G01X11289701Y-7381799D02*
G01X11289701Y-6886926D01*
G01X11289701Y-7381796D02*
G01X11187913Y-7381799D01*
G01X11289701Y-6181804D02*
G01X11187913Y-6181801D01*
G01X12235739Y-7207504D02*
G01X12235739Y-6813042D01*
G01X12133910Y-6711696D02*
G01X12298959Y-6550914D01*
G01X10815726Y-6601800D02*
G01X10815726Y-6409080D01*
G01X10815726Y-6409080D02*
G01X11679326Y-6409080D01*
G01X11679326Y-6409080D02*
G01X11679326Y-6709080D01*
G01X11679326Y-6709080D02*
G01X11681739Y-6711495D01*
G01X11681739Y-6711495D02*
G01X12083339Y-6711495D01*
G01X12083339Y-6711495D02*
G01X12134139Y-6711495D01*
G54D13*
G01X12569010Y-7561798D02*
G01X10648998Y-7561798D01*
G01X12568997Y-6001796D02*
G01X10648986Y-6001796D01*
G01X12569000Y-7561801D02*
G01X12569000Y-6001799D01*
G01X12228830Y-6357112D02*
G01X12228830Y-6579870D01*
G01X10648986Y-6001796D02*
G01X10648986Y-6752331D01*
G01X10648986Y-6811269D02*
G01X10648986Y-7561798D01*
G01X11141405Y-6681800D02*
G01X11441405Y-6681800D01*
G01X11441405Y-6881800D01*
G01X11141405Y-6881800D01*
G01X11141405Y-6681800D01*
G01X3464601Y-2134705D02*
G01X6009597Y-2134705D01*
G01X6009597Y-7034695D01*
G01X3464601Y-7034695D01*
G01X3464601Y-2134705D01*
G36*
G01X5509519Y-2667493D02*
G01X5509519Y-2220194D01*
G01X4995926Y-2220194D01*
G01X4995926Y-2464293D01*
G02X4980940Y-2479279I-14986J0D01*
G01X4721863Y-2479279D01*
G02X4706877Y-2464293I0J14986D01*
G01X4706877Y-2220194D01*
G01X4482849Y-2220194D01*
G01X4482849Y-2464293D01*
G02X4467863Y-2479279I-14986J0D01*
G01X4226563Y-2479279D01*
G02X4211577Y-2464293I0J14986D01*
G01X4211577Y-2220194D01*
G01X4038349Y-2220194D01*
G01X4038349Y-2667493D01*
G02X4008377Y-2667493I-14986J0D01*
G01X4008377Y-2205208D01*
G02X4023363Y-2190222I14986J0D01*
G01X4226563Y-2190222D01*
G02X4241549Y-2205208I0J-14986D01*
G01X4241549Y-2449307D01*
G01X4452877Y-2449307D01*
G01X4452877Y-2205208D01*
G02X4467863Y-2190222I14986J0D01*
G01X4721863Y-2190222D01*
G02X4736849Y-2205208I0J-14986D01*
G01X4736849Y-2449307D01*
G01X4965954Y-2449307D01*
G01X4965954Y-2205208D01*
G02X4980940Y-2190222I14986J0D01*
G01X5524505Y-2190222D01*
G02X5539491Y-2205208I0J-14986D01*
G01X5539491Y-2667493D01*
G02X5509519Y-2667493I-14986J0D01*
G37*
G01X7970401Y-1713093D02*
G01X7970401Y-2173094D01*
G01X7970401Y-2173094D02*
G01X7320397Y-2173094D01*
G01X7320397Y-2173094D02*
G01X7320397Y-1713093D01*
G01X7320397Y-1713093D02*
G01X7575395Y-1713093D01*
G01X7970401Y-1713093D02*
G01X7715395Y-1713093D01*
G01X7715397Y-1713093D02*
G02X7575293Y-1713001I-70052J46D01*
G54D18*
G01X7445499Y-1783072D02*
G03X7445752Y-1853071I253J-34999D01*
G03X7446005Y-1783072I0J35000D01*
G54D19*
G01X7165396Y-1663093D02*
G03X7165523Y-1703093I127J-20000D01*
G03X7165650Y-1663093I0J20000D01*
G54D13*
G01X7957701Y-3414893D02*
G01X7957701Y-3874894D01*
G01X7957701Y-3874894D02*
G01X7307697Y-3874894D01*
G01X7307697Y-3874894D02*
G01X7307697Y-3414893D01*
G01X7307697Y-3414893D02*
G01X7562695Y-3414893D01*
G01X7957701Y-3414893D02*
G01X7702695Y-3414893D01*
G01X7702697Y-3414893D02*
G02X7562593Y-3414801I-70052J46D01*
G54D18*
G01X7432799Y-3484872D02*
G03X7433052Y-3554871I253J-34999D01*
G03X7433305Y-3484872I0J35000D01*
G54D19*
G01X7152696Y-3364893D02*
G03X7152823Y-3404893I127J-20000D01*
G03X7152950Y-3364893I0J20000D01*
G54D13*
G01X7970401Y-5180193D02*
G01X7970401Y-5640194D01*
G01X7970401Y-5640194D02*
G01X7320397Y-5640194D01*
G01X7320397Y-5640194D02*
G01X7320397Y-5180193D01*
G01X7320397Y-5180193D02*
G01X7575395Y-5180193D01*
G01X7970401Y-5180193D02*
G01X7715395Y-5180193D01*
G01X7715397Y-5180193D02*
G02X7575293Y-5180101I-70052J46D01*
G54D18*
G01X7445499Y-5250172D02*
G03X7445752Y-5320171I253J-34999D01*
G03X7446005Y-5250172I0J35000D01*
G54D19*
G01X7165396Y-5130193D02*
G03X7165523Y-5170193I127J-20000D01*
G03X7165650Y-5130193I0J20000D01*
G54D13*
G01X7983101Y-6932793D02*
G01X7983101Y-7392794D01*
G01X7983101Y-7392794D02*
G01X7333097Y-7392794D01*
G01X7333097Y-7392794D02*
G01X7333097Y-6932793D01*
G01X7333097Y-6932793D02*
G01X7588095Y-6932793D01*
G01X7983101Y-6932793D02*
G01X7728095Y-6932793D01*
G01X7728097Y-6932793D02*
G02X7587993Y-6932701I-70052J46D01*
G54D18*
G01X7458199Y-7002772D02*
G03X7458452Y-7072771I253J-34999D01*
G03X7458705Y-7002772I0J35000D01*
G54D19*
G01X7178096Y-6882793D02*
G03X7178223Y-6922793I127J-20000D01*
G03X7178350Y-6882793I0J20000D01*
G54D13*
G01X12720198Y-1219594D02*
G01X13370187Y-1219594D01*
G01X12867439Y-1219594D02*
G01X12867439Y-2031581D01*
G01X12720198Y-1219594D02*
G01X12720198Y-2031594D01*
G01X13370187Y-1219594D02*
G01X13370187Y-2031594D01*
G01X13370187Y-1468750D02*
G01X13335137Y-1433441D01*
G01X13335137Y-1433441D02*
G01X13170037Y-1433441D01*
G01X13170037Y-1433441D02*
G01X13170037Y-1306441D01*
G01X13170037Y-1306441D02*
G01X13335137Y-1306441D01*
G01X13335137Y-1306441D02*
G01X13370187Y-1267838D01*
G01X13370187Y-1723743D02*
G01X13335137Y-1688432D01*
G01X13335137Y-1688432D02*
G01X13170037Y-1688432D01*
G01X13170037Y-1688432D02*
G01X13170037Y-1561432D01*
G01X13170037Y-1561432D02*
G01X13335137Y-1561432D01*
G01X13335137Y-1561432D02*
G01X13370187Y-1522824D01*
G01X13370187Y-1978294D02*
G01X13334995Y-1943090D01*
G01X13334995Y-1943090D02*
G01X13169895Y-1943090D01*
G01X13169895Y-1943090D02*
G01X13169895Y-1816090D01*
G01X13169895Y-1816090D02*
G01X13334995Y-1816090D01*
G01X13334995Y-1816090D02*
G01X13370187Y-1777606D01*
G01X12720198Y-2031594D02*
G01X13370187Y-2031594D01*
G01X12720198Y-1472910D02*
G01X12806190Y-1472910D01*
G01X12806190Y-1472910D02*
G01X12806190Y-1269525D01*
G01X12806190Y-1269525D02*
G01X12720198Y-1269525D01*
G01X12720086Y-1726936D02*
G01X12806190Y-1726936D01*
G01X12806190Y-1726936D02*
G01X12806190Y-1523482D01*
G01X12806190Y-1523482D02*
G01X12720086Y-1523482D01*
G01X12720198Y-1981383D02*
G01X12806190Y-1981383D01*
G01X12806190Y-1981383D02*
G01X12806190Y-1777990D01*
G01X12806190Y-1777990D02*
G01X12720198Y-1777990D01*
G36*
G01X13195412Y-1369946D02*
G01X13233512Y-1408046D01*
G01X13233512Y-1382646D01*
G01X13335112Y-1382646D01*
G01X13335112Y-1357246D01*
G01X13233512Y-1357246D01*
G01X13233512Y-1331846D01*
G01X13195412Y-1369946D01*
G37*
G36*
G01X13195412Y-1624940D02*
G01X13233512Y-1663040D01*
G01X13233512Y-1637640D01*
G01X13335112Y-1637640D01*
G01X13335112Y-1612240D01*
G01X13233512Y-1612240D01*
G01X13233512Y-1586840D01*
G01X13195412Y-1624940D01*
G37*
G36*
G01X13195292Y-1879595D02*
G01X13233392Y-1917695D01*
G01X13233392Y-1892295D01*
G01X13334992Y-1892295D01*
G01X13334992Y-1866895D01*
G01X13233392Y-1866895D01*
G01X13233392Y-1841495D01*
G01X13195292Y-1879595D01*
G37*
G01X12745598Y-2946794D02*
G01X13395587Y-2946794D01*
G01X12892839Y-2946794D02*
G01X12892839Y-3758781D01*
G01X12745598Y-2946794D02*
G01X12745598Y-3758794D01*
G01X13395587Y-2946794D02*
G01X13395587Y-3758794D01*
G01X13395587Y-3195950D02*
G01X13360537Y-3160641D01*
G01X13360537Y-3160641D02*
G01X13195437Y-3160641D01*
G01X13195437Y-3160641D02*
G01X13195437Y-3033641D01*
G01X13195437Y-3033641D02*
G01X13360537Y-3033641D01*
G01X13360537Y-3033641D02*
G01X13395587Y-2995038D01*
G01X13395587Y-3450943D02*
G01X13360537Y-3415632D01*
G01X13360537Y-3415632D02*
G01X13195437Y-3415632D01*
G01X13195437Y-3415632D02*
G01X13195437Y-3288632D01*
G01X13195437Y-3288632D02*
G01X13360537Y-3288632D01*
G01X13360537Y-3288632D02*
G01X13395587Y-3250024D01*
G01X13395587Y-3705494D02*
G01X13360395Y-3670290D01*
G01X13360395Y-3670290D02*
G01X13195295Y-3670290D01*
G01X13195295Y-3670290D02*
G01X13195295Y-3543290D01*
G01X13195295Y-3543290D02*
G01X13360395Y-3543290D01*
G01X13360395Y-3543290D02*
G01X13395587Y-3504806D01*
G01X12745598Y-3758794D02*
G01X13395587Y-3758794D01*
G01X12745598Y-3200110D02*
G01X12831590Y-3200110D01*
G01X12831590Y-3200110D02*
G01X12831590Y-2996725D01*
G01X12831590Y-2996725D02*
G01X12745598Y-2996725D01*
G01X12745486Y-3454136D02*
G01X12831590Y-3454136D01*
G01X12831590Y-3454136D02*
G01X12831590Y-3250682D01*
G01X12831590Y-3250682D02*
G01X12745486Y-3250682D01*
G01X12745598Y-3708583D02*
G01X12831590Y-3708583D01*
G01X12831590Y-3708583D02*
G01X12831590Y-3505190D01*
G01X12831590Y-3505190D02*
G01X12745598Y-3505190D01*
G36*
G01X13220812Y-3097146D02*
G01X13258912Y-3135246D01*
G01X13258912Y-3109846D01*
G01X13360512Y-3109846D01*
G01X13360512Y-3084446D01*
G01X13258912Y-3084446D01*
G01X13258912Y-3059046D01*
G01X13220812Y-3097146D01*
G37*
G36*
G01X13220812Y-3352140D02*
G01X13258912Y-3390240D01*
G01X13258912Y-3364840D01*
G01X13360512Y-3364840D01*
G01X13360512Y-3339440D01*
G01X13258912Y-3339440D01*
G01X13258912Y-3314040D01*
G01X13220812Y-3352140D01*
G37*
G36*
G01X13220692Y-3606795D02*
G01X13258792Y-3644895D01*
G01X13258792Y-3619495D01*
G01X13360392Y-3619495D01*
G01X13360392Y-3594095D01*
G01X13258792Y-3594095D01*
G01X13258792Y-3568695D01*
G01X13220692Y-3606795D01*
G37*
G01X12758298Y-4648594D02*
G01X13408287Y-4648594D01*
G01X12905539Y-4648594D02*
G01X12905539Y-5460581D01*
G01X12758298Y-4648594D02*
G01X12758298Y-5460594D01*
G01X13408287Y-4648594D02*
G01X13408287Y-5460594D01*
G01X13408287Y-4897750D02*
G01X13373237Y-4862441D01*
G01X13373237Y-4862441D02*
G01X13208137Y-4862441D01*
G01X13208137Y-4862441D02*
G01X13208137Y-4735441D01*
G01X13208137Y-4735441D02*
G01X13373237Y-4735441D01*
G01X13373237Y-4735441D02*
G01X13408287Y-4696838D01*
G01X13408287Y-5152743D02*
G01X13373237Y-5117432D01*
G01X13373237Y-5117432D02*
G01X13208137Y-5117432D01*
G01X13208137Y-5117432D02*
G01X13208137Y-4990432D01*
G01X13208137Y-4990432D02*
G01X13373237Y-4990432D01*
G01X13373237Y-4990432D02*
G01X13408287Y-4951824D01*
G01X13408287Y-5407294D02*
G01X13373095Y-5372090D01*
G01X13373095Y-5372090D02*
G01X13207995Y-5372090D01*
G01X13207995Y-5372090D02*
G01X13207995Y-5245090D01*
G01X13207995Y-5245090D02*
G01X13373095Y-5245090D01*
G01X13373095Y-5245090D02*
G01X13408287Y-5206606D01*
G01X12758298Y-5460594D02*
G01X13408287Y-5460594D01*
G01X12758298Y-4901910D02*
G01X12844290Y-4901910D01*
G01X12844290Y-4901910D02*
G01X12844290Y-4698525D01*
G01X12844290Y-4698525D02*
G01X12758298Y-4698525D01*
G01X12758186Y-5155936D02*
G01X12844290Y-5155936D01*
G01X12844290Y-5155936D02*
G01X12844290Y-4952482D01*
G01X12844290Y-4952482D02*
G01X12758186Y-4952482D01*
G01X12758298Y-5410383D02*
G01X12844290Y-5410383D01*
G01X12844290Y-5410383D02*
G01X12844290Y-5206990D01*
G01X12844290Y-5206990D02*
G01X12758298Y-5206990D01*
G36*
G01X13233512Y-4798946D02*
G01X13271612Y-4837046D01*
G01X13271612Y-4811646D01*
G01X13373212Y-4811646D01*
G01X13373212Y-4786246D01*
G01X13271612Y-4786246D01*
G01X13271612Y-4760846D01*
G01X13233512Y-4798946D01*
G37*
G36*
G01X13233512Y-5053940D02*
G01X13271612Y-5092040D01*
G01X13271612Y-5066640D01*
G01X13373212Y-5066640D01*
G01X13373212Y-5041240D01*
G01X13271612Y-5041240D01*
G01X13271612Y-5015840D01*
G01X13233512Y-5053940D01*
G37*
G36*
G01X13233392Y-5308595D02*
G01X13271492Y-5346695D01*
G01X13271492Y-5321295D01*
G01X13373092Y-5321295D01*
G01X13373092Y-5295895D01*
G01X13271492Y-5295895D01*
G01X13271492Y-5270495D01*
G01X13233392Y-5308595D01*
G37*
G01X12758298Y-6388494D02*
G01X13408287Y-6388494D01*
G01X12905539Y-6388494D02*
G01X12905539Y-7200481D01*
G01X12758298Y-6388494D02*
G01X12758298Y-7200494D01*
G01X13408287Y-6388494D02*
G01X13408287Y-7200494D01*
G01X13408287Y-6637650D02*
G01X13373237Y-6602341D01*
G01X13373237Y-6602341D02*
G01X13208137Y-6602341D01*
G01X13208137Y-6602341D02*
G01X13208137Y-6475341D01*
G01X13208137Y-6475341D02*
G01X13373237Y-6475341D01*
G01X13373237Y-6475341D02*
G01X13408287Y-6436738D01*
G01X13408287Y-6892643D02*
G01X13373237Y-6857332D01*
G01X13373237Y-6857332D02*
G01X13208137Y-6857332D01*
G01X13208137Y-6857332D02*
G01X13208137Y-6730332D01*
G01X13208137Y-6730332D02*
G01X13373237Y-6730332D01*
G01X13373237Y-6730332D02*
G01X13408287Y-6691724D01*
G01X13408287Y-7147194D02*
G01X13373095Y-7111990D01*
G01X13373095Y-7111990D02*
G01X13207995Y-7111990D01*
G01X13207995Y-7111990D02*
G01X13207995Y-6984990D01*
G01X13207995Y-6984990D02*
G01X13373095Y-6984990D01*
G01X13373095Y-6984990D02*
G01X13408287Y-6946506D01*
G01X12758298Y-7200494D02*
G01X13408287Y-7200494D01*
G01X12758298Y-6641810D02*
G01X12844290Y-6641810D01*
G01X12844290Y-6641810D02*
G01X12844290Y-6438425D01*
G01X12844290Y-6438425D02*
G01X12758298Y-6438425D01*
G01X12758186Y-6895836D02*
G01X12844290Y-6895836D01*
G01X12844290Y-6895836D02*
G01X12844290Y-6692382D01*
G01X12844290Y-6692382D02*
G01X12758186Y-6692382D01*
G01X12758298Y-7150283D02*
G01X12844290Y-7150283D01*
G01X12844290Y-7150283D02*
G01X12844290Y-6946890D01*
G01X12844290Y-6946890D02*
G01X12758298Y-6946890D01*
G36*
G01X13233512Y-6538846D02*
G01X13271612Y-6576946D01*
G01X13271612Y-6551546D01*
G01X13373212Y-6551546D01*
G01X13373212Y-6526146D01*
G01X13271612Y-6526146D01*
G01X13271612Y-6500746D01*
G01X13233512Y-6538846D01*
G37*
G36*
G01X13233512Y-6793840D02*
G01X13271612Y-6831940D01*
G01X13271612Y-6806540D01*
G01X13373212Y-6806540D01*
G01X13373212Y-6781140D01*
G01X13271612Y-6781140D01*
G01X13271612Y-6755740D01*
G01X13233512Y-6793840D01*
G37*
G36*
G01X13233392Y-7048495D02*
G01X13271492Y-7086595D01*
G01X13271492Y-7061195D01*
G01X13373092Y-7061195D01*
G01X13373092Y-7035795D01*
G01X13271492Y-7035795D01*
G01X13271492Y-7010395D01*
G01X13233392Y-7048495D01*
G37*
G01X5237002Y-7674087D02*
G01X5237002Y-8734288D01*
G01X5237002Y-8734288D02*
G01X4757194Y-8734288D01*
G01X4757194Y-8734288D02*
G01X4757194Y-7674087D01*
G01X4757194Y-7674087D02*
G01X5236494Y-7674087D01*
G01X5236494Y-7674087D02*
G01X5237002Y-7674087D01*
G01X5177086Y-8734184D02*
G01X5177086Y-7674191D01*
G54D19*
G01X4694596Y-7927190D02*
G03X4654596Y-7927317I-20000J-127D01*
G03X4694596Y-7927444I20000J0D01*
G54D13*
G01X4064000Y-7886700D02*
G01X4102100Y-7886700D01*
G01X4102100Y-7886700D02*
G01X4102100Y-8064500D01*
G01X4102100Y-8064500D02*
G01X4064000Y-8064500D01*
G01X4057294Y-7600594D02*
G01X4057294Y-8350606D01*
G01X3477285Y-8350606D01*
G01X3477285Y-7600594D01*
G01X4057294Y-7600594D01*
G01X11768800Y-8310100D02*
G01X12208800Y-8310100D01*
G01X11768800Y-8530100D02*
G01X12208800Y-8530100D01*
G01X11768800Y-8310100D02*
G01X11768800Y-8530100D01*
G01X12208800Y-8310100D02*
G01X12208800Y-8530100D01*
G01X11862740Y-8310100D02*
G01X11862740Y-8530100D01*
G01X12776200Y-8356600D02*
G01X12738100Y-8356600D01*
G01X12738100Y-8356600D02*
G01X12738100Y-8178800D01*
G01X12738100Y-8178800D02*
G01X12776200Y-8178800D01*
G01X12782906Y-8642706D02*
G01X12782906Y-7892694D01*
G01X13362915Y-7892694D01*
G01X13362915Y-8642706D01*
G01X12782906Y-8642706D01*

G04 Rect Start*
G01X3911600Y-1333500D02*
G01X3911600Y-406400D01*
G01X5511800Y-406400D01*
G01X5511800Y-1333500D01*
G01X3911600Y-1333500D01*
G01X12712700Y-2038350D02*
G01X12712700Y-1212850D01*
G01X13804900Y-1212850D01*
G01X13804900Y-2038350D01*
G01X12712700Y-2038350D01*
G01X12744562Y-3764890D02*
G01X12744562Y-2939390D01*
G01X13836762Y-2939390D01*
G01X13836762Y-3764890D01*
G01X12744562Y-3764890D01*
G01X12757262Y-5467344D02*
G01X12757262Y-4641844D01*
G01X13849462Y-4641844D01*
G01X13849462Y-5467344D01*
G01X12757262Y-5467344D01*
G01X12757262Y-7207244D02*
G01X12757262Y-6381744D01*
G01X13849462Y-6381744D01*
G01X13849462Y-7207244D01*
G01X12757262Y-7207244D01*
G01X12776200Y-8655050D02*
G01X12776200Y-7893050D01*
G01X13741400Y-7893050D01*
G01X13741400Y-8655050D01*
G01X12776200Y-8655050D01*
G01X3175000Y-8356600D02*
G01X3175000Y-7594600D01*
G01X4064000Y-7594600D01*
G01X4064000Y-8356600D01*
G01X3175000Y-8356600D01*
G04 Rect End*

G04 Circle Start*
G01X9740900Y-8496287D02*
G03X9994900Y-8496287I127000J0D01*
G03X9740900Y-8496287I-127000J0D01*
G01X9267901Y-8496287D02*
G03X10467899Y-8496287I599999J0D01*
G03X9267901Y-8496287I-599999J0D01*
G01X10683425Y-2290211D02*
G03X10783451Y-2290211I50013J0D01*
G03X10683425Y-2290211I-50013J0D01*
G01X10721594Y-3994709D02*
G03X10821619Y-3994709I50013J0D01*
G03X10721594Y-3994709I-50013J0D01*
G01X10683425Y-5718698D02*
G03X10783451Y-5718698I50013J0D01*
G03X10683425Y-5718698I-50013J0D01*
G01X10708894Y-7461809D02*
G03X10808919Y-7461809I50013J0D01*
G03X10708894Y-7461809I-50013J0D01*
G04 Circle End*

M02*

