G04 Layer: BoardOutlineLayer*
G04 EasyEDA Pro v2.2.47.7, 2026-05-23 21:16:01*
G04 Gerber Generator version 0.3*
G04 Scale: 100 percent, Rotated: No, Reflected: No*
G04 Dimensions in millimeters*
G04 Leading zeros omitted, absolute positions, 4 integers and 5 decimals*
G04 Generated by one-click*
G04 Object Configs: Pad,Via,Track,Text,Image,Dimension,BoardOutline,BoardCutout,CopperFilled,SolidRegion,FPCStiffener,Line,PlaneZone,ComponentProperty,ComponentSilkscreen,TearDrop*
G04 Layer Configs: 1,2,3,4,5,6,7,8,9,10,11,13,14,56*
G04 Copper Areas: 0*
%FSLAX45Y45*%
%MOMM*%
%ADD10C,0.0254*%
%ADD11C,0.254*%
%ADD12C,0.8108*%
G75*


G04 PolygonModel Start*
G54D10*
G01X10528300Y-1346200D02*
G01X10528300Y-1879600D01*
G01X10923364Y-1879600D01*
G01X10923364Y-1802858D01*
G01X10604500Y-1802858D01*
G01X10604500Y-1428122D01*
G01X10926879Y-1428122D01*
G01X10926879Y-1346200D01*
G01X10528300Y-1346200D01*
G01X10566400Y-3047999D02*
G01X10566400Y-3581399D01*
G01X10961464Y-3581399D01*
G01X10961464Y-3504657D01*
G01X10642600Y-3504657D01*
G01X10642600Y-3129921D01*
G01X10964979Y-3129921D01*
G01X10964979Y-3047999D01*
G01X10566400Y-3047999D01*
G01X10528300Y-4771988D02*
G01X10528300Y-5305388D01*
G01X10923364Y-5305388D01*
G01X10923364Y-5228646D01*
G01X10604500Y-5228646D01*
G01X10604500Y-4853910D01*
G01X10926879Y-4853910D01*
G01X10926879Y-4771988D01*
G01X10528300Y-4771988D01*
G01X10553700Y-6515099D02*
G01X10553700Y-7048499D01*
G01X10948764Y-7048499D01*
G01X10948764Y-6971757D01*
G01X10629900Y-6971757D01*
G01X10629900Y-6597021D01*
G01X10952279Y-6597021D01*
G01X10952279Y-6515099D01*
G01X10553700Y-6515099D01*

G04 Rect Start*
G54D11*
G01X2540000Y-9855200D02*
G01X2540000Y-127000D01*
G01X14249400Y-127000D01*
G01X14249400Y-9855200D01*
G01X2540000Y-9855200D01*
G04 Rect End*

M02*

