G04 Layer: TopLayer*
G04 EasyEDA Pro v2.2.47.7, 2026-05-23 21:16:01*
G04 Gerber Generator version 0.3*
G04 Scale: 100 percent, Rotated: No, Reflected: No*
G04 Dimensions in millimeters*
G04 Leading zeros omitted, absolute positions, 4 integers and 5 decimals*
G04 Generated by one-click*
G04 Object Configs: Pad,Via,Track,Text,Image,Dimension,BoardOutline,BoardCutout,CopperFilled,SolidRegion,FPCStiffener,Line,PlaneZone,ComponentProperty,ComponentSilkscreen,TearDrop*
G04 Layer Configs: 1,2,3,4,5,6,7,8,9,10,11,13,14,56*
G04 Copper Areas: 66*
%FSLAX45Y45*%
%MOMM*%
%ADD10C,0.2794*%
%ADD11C,0.254*%
%ADD12C,6.35*%
%ADD13C,1.8*%
%ADD14R,1.3589X1.5*%
%ADD15C,1.6*%
%ADD16R,1.6X1.6*%
%ADD17R,1.7031X1.7*%
%ADD18R,1.7X1.7*%
%ADD19R,1.0X0.89992*%
%ADD20O,1.6X0.9*%
%ADD21R,1.6X0.9*%
%ADD22R,1.13254X1.37701*%
%ADD23R,1.37701X1.13254*%
%ADD24R,0.80648X0.86401*%
%ADD25R,1.20752X1.70101*%
%ADD26C,2.794*%
%ADD27R,2.0X1.5*%
%ADD28C,2.0*%
%ADD29R,2.0X2.0*%
%ADD30O,2.59999X1.8*%
%ADD31R,2.59999X1.8*%
%ADD32C,1.7*%
%ADD33C,0.61*%
%ADD34C,0.762*%
%ADD35C,1.016*%
G75*


G04 Copper Start*
G36*
G01X11656517Y-8329167D02*
G01X11656517Y-8140700D01*
G01X12918276Y-8140700D01*
G01X12920169Y-8162341D01*
G01X12925792Y-8183324D01*
G01X12934973Y-8203012D01*
G01X12947433Y-8220807D01*
G01X12962793Y-8236167D01*
G01X12980588Y-8248627D01*
G01X13000276Y-8257808D01*
G01X13021259Y-8263431D01*
G01X13042900Y-8265324D01*
G01X13042900Y-8265324D01*
G01X13064541Y-8263431D01*
G01X13085524Y-8257808D01*
G01X13105212Y-8248627D01*
G01X13123007Y-8236167D01*
G01X13138367Y-8220807D01*
G01X13150827Y-8203012D01*
G01X13160008Y-8183324D01*
G01X13165631Y-8162341D01*
G01X13167524Y-8140700D01*
G01X13165631Y-8119059D01*
G01X13160008Y-8098076D01*
G01X13150827Y-8078388D01*
G01X13138367Y-8060593D01*
G01X13123007Y-8045233D01*
G01X13105212Y-8032773D01*
G01X13085524Y-8023592D01*
G01X13064541Y-8017969D01*
G01X13042900Y-8016076D01*
G01X13021259Y-8017969D01*
G01X13000276Y-8023592D01*
G01X12980588Y-8032773D01*
G01X12962793Y-8045233D01*
G01X12947433Y-8060593D01*
G01X12934973Y-8078388D01*
G01X12925792Y-8098076D01*
G01X12920169Y-8119059D01*
G01X12918276Y-8140700D01*
G01X11656517Y-8140700D01*
G01X11656517Y-7621270D01*
G01X14209776Y-7621270D01*
G01X14209776Y-9815576D01*
G01X2579624Y-9815576D01*
G01X2579624Y-9245600D01*
G01X2779776Y-9245600D01*
G01X2781732Y-9282930D01*
G01X2787580Y-9319850D01*
G01X2797255Y-9355957D01*
G01X2810651Y-9390855D01*
G01X2827622Y-9424162D01*
G01X2847981Y-9455512D01*
G01X2871505Y-9484563D01*
G01X2897937Y-9510995D01*
G01X2926988Y-9534519D01*
G01X2958338Y-9554878D01*
G01X2991645Y-9571849D01*
G01X3026543Y-9585245D01*
G01X3062650Y-9594920D01*
G01X3099570Y-9600768D01*
G01X3136900Y-9602724D01*
G01X3174230Y-9600768D01*
G01X3211150Y-9594920D01*
G01X3247257Y-9585245D01*
G01X3282155Y-9571849D01*
G01X3315462Y-9554878D01*
G01X3346812Y-9534519D01*
G01X3375863Y-9510995D01*
G01X3402295Y-9484563D01*
G01X3425819Y-9455512D01*
G01X3446178Y-9424162D01*
G01X3463149Y-9390855D01*
G01X3476545Y-9355957D01*
G01X3486220Y-9319850D01*
G01X3492068Y-9282930D01*
G01X3494024Y-9245600D01*
G01X13295376Y-9245600D01*
G01X13297332Y-9282930D01*
G01X13303180Y-9319850D01*
G01X13312855Y-9355957D01*
G01X13326251Y-9390855D01*
G01X13343222Y-9424162D01*
G01X13363581Y-9455512D01*
G01X13387105Y-9484563D01*
G01X13413537Y-9510995D01*
G01X13442588Y-9534519D01*
G01X13473938Y-9554878D01*
G01X13507245Y-9571849D01*
G01X13542143Y-9585245D01*
G01X13578250Y-9594920D01*
G01X13615170Y-9600768D01*
G01X13652500Y-9602724D01*
G01X13689830Y-9600768D01*
G01X13726750Y-9594920D01*
G01X13762857Y-9585245D01*
G01X13797755Y-9571849D01*
G01X13831062Y-9554878D01*
G01X13862412Y-9534519D01*
G01X13891463Y-9510995D01*
G01X13917895Y-9484563D01*
G01X13941419Y-9455512D01*
G01X13961778Y-9424162D01*
G01X13978749Y-9390855D01*
G01X13992145Y-9355957D01*
G01X14001820Y-9319850D01*
G01X14007668Y-9282930D01*
G01X14009624Y-9245600D01*
G01X14007668Y-9208270D01*
G01X14001820Y-9171350D01*
G01X13992145Y-9135243D01*
G01X13978749Y-9100345D01*
G01X13961778Y-9067038D01*
G01X13941419Y-9035688D01*
G01X13917895Y-9006637D01*
G01X13891463Y-8980205D01*
G01X13862412Y-8956681D01*
G01X13831062Y-8936322D01*
G01X13797755Y-8919351D01*
G01X13762857Y-8905955D01*
G01X13726750Y-8896280D01*
G01X13689830Y-8890432D01*
G01X13652500Y-8888476D01*
G01X13615170Y-8890432D01*
G01X13578250Y-8896280D01*
G01X13542143Y-8905955D01*
G01X13507245Y-8919351D01*
G01X13473938Y-8936322D01*
G01X13442588Y-8956681D01*
G01X13413537Y-8980205D01*
G01X13387105Y-9006637D01*
G01X13363581Y-9035688D01*
G01X13343222Y-9067038D01*
G01X13326251Y-9100345D01*
G01X13312855Y-9135243D01*
G01X13303180Y-9171350D01*
G01X13297332Y-9208270D01*
G01X13295376Y-9245600D01*
G01X13295376Y-9245600D01*
G01X3494024Y-9245600D01*
G01X3492068Y-9208270D01*
G01X3486220Y-9171350D01*
G01X3476545Y-9135243D01*
G01X3463149Y-9100345D01*
G01X3446178Y-9067038D01*
G01X3425819Y-9035688D01*
G01X3402295Y-9006637D01*
G01X3375863Y-8980205D01*
G01X3346812Y-8956681D01*
G01X3315462Y-8936322D01*
G01X3282155Y-8919351D01*
G01X3247257Y-8905955D01*
G01X3211150Y-8896280D01*
G01X3174230Y-8890432D01*
G01X3136900Y-8888476D01*
G01X3099570Y-8890432D01*
G01X3062650Y-8896280D01*
G01X3026543Y-8905955D01*
G01X2991645Y-8919351D01*
G01X2958338Y-8936322D01*
G01X2926988Y-8956681D01*
G01X2897937Y-8980205D01*
G01X2871505Y-9006637D01*
G01X2847981Y-9035688D01*
G01X2827622Y-9067038D01*
G01X2810651Y-9100345D01*
G01X2797255Y-9135243D01*
G01X2787580Y-9171350D01*
G01X2781732Y-9208270D01*
G01X2779776Y-9245600D01*
G01X2779776Y-9245600D01*
G01X2579624Y-9245600D01*
G01X2579624Y-8102600D01*
G01X3672676Y-8102600D01*
G01X3674569Y-8124241D01*
G01X3680192Y-8145224D01*
G01X3689373Y-8164912D01*
G01X3701833Y-8182707D01*
G01X3717193Y-8198067D01*
G01X3734988Y-8210527D01*
G01X3754676Y-8219708D01*
G01X3775659Y-8225331D01*
G01X3797300Y-8227224D01*
G01X3818941Y-8225331D01*
G01X3839924Y-8219708D01*
G01X3859612Y-8210527D01*
G01X3877407Y-8198067D01*
G01X3892767Y-8182707D01*
G01X3905227Y-8164912D01*
G01X3914408Y-8145224D01*
G01X3920031Y-8124241D01*
G01X3921924Y-8102600D01*
G01X3920031Y-8080959D01*
G01X3914408Y-8059976D01*
G01X3905227Y-8040288D01*
G01X3892767Y-8022493D01*
G01X3887571Y-8017297D01*
G01X4310432Y-8017297D01*
G01X4310432Y-8167296D01*
G01X4311695Y-8177221D01*
G01X4315404Y-8186513D01*
G01X4321321Y-8194579D01*
G01X4329071Y-8200907D01*
G01X4321321Y-8207234D01*
G01X4315404Y-8215301D01*
G01X4311695Y-8224593D01*
G01X4310432Y-8234517D01*
G01X4310432Y-8384517D01*
G01X4312371Y-8396762D01*
G01X4318000Y-8407808D01*
G01X4326766Y-8416574D01*
G01X4337812Y-8422202D01*
G01X4350056Y-8424141D01*
G01X4485946Y-8424141D01*
G01X4498191Y-8422202D01*
G01X4509236Y-8416574D01*
G01X4518003Y-8407808D01*
G01X4523631Y-8396762D01*
G01X4525570Y-8384517D01*
G01X4525570Y-8234517D01*
G01X4524307Y-8224593D01*
G01X4520599Y-8215301D01*
G01X4514681Y-8207234D01*
G01X4506932Y-8200907D01*
G01X4514681Y-8194579D01*
G01X4520599Y-8186513D01*
G01X4524307Y-8177221D01*
G01X4525570Y-8167296D01*
G01X4525570Y-8167296D01*
G01X4525570Y-8017297D01*
G01X4523631Y-8005052D01*
G01X4518003Y-7994006D01*
G01X4509236Y-7985240D01*
G01X4498191Y-7979612D01*
G01X4485946Y-7977673D01*
G01X4350056Y-7977673D01*
G01X4337812Y-7979612D01*
G01X4326766Y-7985240D01*
G01X4318000Y-7994006D01*
G01X4312371Y-8005052D01*
G01X4310432Y-8017297D01*
G01X3887571Y-8017297D01*
G01X3877407Y-8007133D01*
G01X3859612Y-7994673D01*
G01X3839924Y-7985492D01*
G01X3818941Y-7979869D01*
G01X3797300Y-7977976D01*
G01X3797300Y-7977976D01*
G01X3775659Y-7979869D01*
G01X3754676Y-7985492D01*
G01X3734988Y-7994673D01*
G01X3717193Y-8007133D01*
G01X3701833Y-8022493D01*
G01X3689373Y-8040288D01*
G01X3680192Y-8059976D01*
G01X3674569Y-8080959D01*
G01X3672676Y-8102600D01*
G01X2579624Y-8102600D01*
G01X2579624Y-7763600D01*
G01X3672676Y-7763600D01*
G01X3672676Y-7933600D01*
G01X3674616Y-7945844D01*
G01X3680244Y-7956890D01*
G01X3689010Y-7965656D01*
G01X3700056Y-7971284D01*
G01X3712300Y-7973224D01*
G01X3882300Y-7973224D01*
G01X3894544Y-7971284D01*
G01X3905590Y-7965656D01*
G01X3914356Y-7956890D01*
G01X3919984Y-7945844D01*
G01X3921924Y-7933600D01*
G01X3921924Y-7930041D01*
G01X4310526Y-7930041D01*
G01X4313102Y-7941616D01*
G01X4318988Y-7951911D01*
G01X4327657Y-7960002D01*
G01X4338331Y-7965167D01*
G01X4350056Y-7966941D01*
G01X4485946Y-7966941D01*
G01X4497671Y-7965167D01*
G01X4508346Y-7960002D01*
G01X4517014Y-7951911D01*
G01X4522900Y-7941616D01*
G01X4525476Y-7930041D01*
G01X4758472Y-7930041D01*
G01X4758472Y-8040187D01*
G01X4760411Y-8052432D01*
G01X4766039Y-8063478D01*
G01X4774805Y-8072244D01*
G01X4785851Y-8077872D01*
G01X4798096Y-8079811D01*
G01X4851586Y-8079811D01*
G01X4830287Y-8088168D01*
G01X4810788Y-8100140D01*
G01X4793698Y-8115353D01*
G01X4779550Y-8133334D01*
G01X4768783Y-8153523D01*
G01X4761734Y-8175291D01*
G01X4758621Y-8197958D01*
G01X4759543Y-8220820D01*
G01X4764470Y-8243164D01*
G01X4773249Y-8264293D01*
G01X4785606Y-8283549D01*
G01X4801157Y-8300333D01*
G01X4819416Y-8314121D01*
G01X4839815Y-8324484D01*
G01X4861719Y-8331099D01*
G01X4843480Y-8336150D01*
G01X4826171Y-8343804D01*
G01X4810161Y-8353896D01*
G01X4795791Y-8366212D01*
G01X4783368Y-8380489D01*
G01X4698987Y-8380489D01*
G01X4683824Y-8381982D01*
G01X4669244Y-8386405D01*
G01X4655806Y-8393588D01*
G01X4644028Y-8403254D01*
G01X4577906Y-8469376D01*
G01X4525238Y-8469376D01*
G01X4522161Y-8458418D01*
G01X4516097Y-8448787D01*
G01X4507544Y-8441276D01*
G01X4497210Y-8436507D01*
G01X4485946Y-8434873D01*
G01X4350056Y-8434873D01*
G01X4337812Y-8436812D01*
G01X4326766Y-8442440D01*
G01X4318000Y-8451206D01*
G01X4312371Y-8462252D01*
G01X4310432Y-8474497D01*
G01X4310432Y-8624496D01*
G01X4312371Y-8636741D01*
G01X4318000Y-8647787D01*
G01X4326766Y-8656553D01*
G01X4337812Y-8662181D01*
G01X4350056Y-8664120D01*
G01X4485946Y-8664120D01*
G01X4498128Y-8662201D01*
G01X4509130Y-8656630D01*
G01X4517887Y-8647946D01*
G01X4523549Y-8636990D01*
G01X4525569Y-8624824D01*
G01X4610100Y-8624824D01*
G01X4625263Y-8623331D01*
G01X4639844Y-8618908D01*
G01X4653281Y-8611725D01*
G01X4665059Y-8602059D01*
G01X4731182Y-8535937D01*
G01X4783368Y-8535937D01*
G01X4796576Y-8550986D01*
G01X4811945Y-8563822D01*
G01X4829107Y-8574138D01*
G01X4847653Y-8581687D01*
G01X4867141Y-8586290D01*
G01X4887105Y-8587837D01*
G01X4967105Y-8587837D01*
G01X4986574Y-8586366D01*
G01X5005601Y-8581988D01*
G01X5023755Y-8574802D01*
G01X5040623Y-8564971D01*
G01X5055824Y-8552718D01*
G01X5069012Y-8538320D01*
G01X5364626Y-8538320D01*
G01X5367202Y-8549896D01*
G01X5373088Y-8560190D01*
G01X5381757Y-8568282D01*
G01X5392431Y-8573446D01*
G01X5404156Y-8575220D01*
G01X5476807Y-8575220D01*
G01X5550547Y-8648960D01*
G01X5562325Y-8658626D01*
G01X5575762Y-8665809D01*
G01X5590342Y-8670232D01*
G01X5605506Y-8671725D01*
G01X5756963Y-8671725D01*
G01X5767611Y-8676858D01*
G01X5779300Y-8678621D01*
G01X5806011Y-8678621D01*
G01X5819529Y-8685918D01*
G01X5834219Y-8690413D01*
G01X5849506Y-8691931D01*
G01X6170167Y-8691931D01*
G01X6184985Y-8706491D01*
G01X6202099Y-8718268D01*
G01X6220992Y-8726906D01*
G01X6241094Y-8732146D01*
G01X6261800Y-8733829D01*
G01X6282485Y-8731904D01*
G01X6302525Y-8726429D01*
G01X6321316Y-8717570D01*
G01X6338290Y-8705593D01*
G01X6352937Y-8690861D01*
G01X6364814Y-8673816D01*
G01X6373563Y-8654974D01*
G01X6378920Y-8634903D01*
G01X6380724Y-8614207D01*
G01X6378920Y-8593511D01*
G01X6373563Y-8573439D01*
G01X6364814Y-8554597D01*
G01X6352937Y-8537553D01*
G01X6338290Y-8522820D01*
G01X6321316Y-8510844D01*
G01X6302525Y-8501985D01*
G01X6282485Y-8496510D01*
G01X6261800Y-8494585D01*
G01X6241094Y-8496268D01*
G01X6220992Y-8501507D01*
G01X6202099Y-8510146D01*
G01X6184985Y-8521923D01*
G01X6170167Y-8536483D01*
G01X5916893Y-8536483D01*
G01X5911227Y-8525538D01*
G01X5902472Y-8516863D01*
G01X5891475Y-8511298D01*
G01X5879300Y-8509381D01*
G01X5779300Y-8509381D01*
G01X5767611Y-8511144D01*
G01X5756963Y-8516277D01*
G01X5637700Y-8516277D01*
G01X5579670Y-8458247D01*
G01X5579670Y-8458247D01*
G01X5579670Y-8385597D01*
G01X5577731Y-8373352D01*
G01X5572103Y-8362306D01*
G01X5563336Y-8353540D01*
G01X5552291Y-8347912D01*
G01X5540046Y-8345973D01*
G01X5404156Y-8345973D01*
G01X5392431Y-8347747D01*
G01X5381757Y-8352911D01*
G01X5373088Y-8361003D01*
G01X5367202Y-8371297D01*
G01X5364626Y-8382872D01*
G01X5072585Y-8382872D01*
G01X5060221Y-8368037D01*
G01X5045789Y-8355203D01*
G01X5029611Y-8344655D01*
G01X5012045Y-8336629D01*
G01X4993481Y-8331301D01*
G01X5014159Y-8325350D01*
G01X5033567Y-8316061D01*
G01X5051171Y-8303689D01*
G01X5066487Y-8288576D01*
G01X5079091Y-8271137D01*
G01X5088637Y-8251854D01*
G01X5094861Y-8231257D01*
G01X5097592Y-8209915D01*
G01X5096756Y-8188414D01*
G01X5092374Y-8167348D01*
G01X5084568Y-8147298D01*
G01X5083567Y-8145617D01*
G01X5364532Y-8145617D01*
G01X5364532Y-8295617D01*
G01X5366471Y-8307862D01*
G01X5372100Y-8318908D01*
G01X5380866Y-8327674D01*
G01X5391912Y-8333302D01*
G01X5404156Y-8335241D01*
G01X5540046Y-8335241D01*
G01X5540046Y-8335241D01*
G01X5552291Y-8333302D01*
G01X5563336Y-8327674D01*
G01X5572103Y-8318908D01*
G01X5577731Y-8307862D01*
G01X5579670Y-8295617D01*
G01X5579670Y-8145617D01*
G01X5577731Y-8133373D01*
G01X5572103Y-8122327D01*
G01X5563336Y-8113561D01*
G01X5552291Y-8107933D01*
G01X5540046Y-8105993D01*
G01X5404156Y-8105993D01*
G01X5391912Y-8107933D01*
G01X5380866Y-8113561D01*
G01X5372100Y-8122327D01*
G01X5366471Y-8133373D01*
G01X5364532Y-8145617D01*
G01X5083567Y-8145617D01*
G01X5073553Y-8128814D01*
G01X5059631Y-8112408D01*
G01X5043188Y-8098530D01*
G01X5024676Y-8087564D01*
G01X5004604Y-8079811D01*
G01X5058095Y-8079811D01*
G01X5070340Y-8077872D01*
G01X5081385Y-8072244D01*
G01X5090152Y-8063478D01*
G01X5095780Y-8052432D01*
G01X5097719Y-8040187D01*
G01X5097719Y-7891973D01*
G01X5720825Y-7891973D01*
G01X5720825Y-8005227D01*
G01X5722250Y-8015757D01*
G01X5726422Y-8025530D01*
G01X5733042Y-8033843D01*
G01X5741632Y-8040097D01*
G01X5751576Y-8043844D01*
G01X5751576Y-8350693D01*
G01X5745124Y-8358952D01*
G01X5741062Y-8368614D01*
G01X5739676Y-8379003D01*
G01X5739676Y-8468995D01*
G01X5741615Y-8481239D01*
G01X5747244Y-8492285D01*
G01X5756010Y-8501051D01*
G01X5767056Y-8506680D01*
G01X5779300Y-8508619D01*
G01X5879300Y-8508619D01*
G01X5891544Y-8506680D01*
G01X5902590Y-8501051D01*
G01X5911356Y-8492285D01*
G01X5916985Y-8481239D01*
G01X5918924Y-8468995D01*
G01X5918924Y-8379003D01*
G01X5917538Y-8368614D01*
G01X5913476Y-8358952D01*
G01X5907024Y-8350693D01*
G01X5907024Y-8043844D01*
G01X5907024Y-8043844D01*
G01X5916968Y-8040097D01*
G01X5925558Y-8033843D01*
G01X5932178Y-8025530D01*
G01X5936350Y-8015757D01*
G01X5937775Y-8005227D01*
G01X5937775Y-7891973D01*
G01X5935835Y-7879729D01*
G01X5930207Y-7868683D01*
G01X5921441Y-7859917D01*
G01X5910395Y-7854288D01*
G01X5898151Y-7852349D01*
G01X5760449Y-7852349D01*
G01X5748205Y-7854288D01*
G01X5737159Y-7859917D01*
G01X5728393Y-7868683D01*
G01X5722765Y-7879729D01*
G01X5720825Y-7891973D01*
G01X5097719Y-7891973D01*
G01X5097719Y-7860187D01*
G01X5095780Y-7847943D01*
G01X5090152Y-7836897D01*
G01X5081385Y-7828131D01*
G01X5070340Y-7822503D01*
G01X5058095Y-7820563D01*
G01X4908390Y-7820563D01*
G01X4885184Y-7797358D01*
G01X4873406Y-7787692D01*
G01X4859969Y-7780510D01*
G01X4845388Y-7776087D01*
G01X4830225Y-7774593D01*
G01X4525476Y-7774593D01*
G01X4522900Y-7763018D01*
G01X4517014Y-7752724D01*
G01X4508346Y-7744632D01*
G01X4497671Y-7739468D01*
G01X4485946Y-7737693D01*
G01X4350056Y-7737693D01*
G01X4338331Y-7739468D01*
G01X4327657Y-7744632D01*
G01X4318988Y-7752724D01*
G01X4313102Y-7763018D01*
G01X4310526Y-7774593D01*
G01X3921924Y-7774593D01*
G01X3921924Y-7763600D01*
G01X3919984Y-7751356D01*
G01X3914356Y-7740310D01*
G01X3905590Y-7731544D01*
G01X3894544Y-7725916D01*
G01X3882300Y-7723976D01*
G01X3712300Y-7723976D01*
G01X3700056Y-7725916D01*
G01X3689010Y-7731544D01*
G01X3680244Y-7740310D01*
G01X3674616Y-7751356D01*
G01X3672676Y-7763600D01*
G01X2579624Y-7763600D01*
G01X2579624Y-7691973D01*
G01X5720825Y-7691973D01*
G01X5720825Y-7805227D01*
G01X5722765Y-7817471D01*
G01X5728393Y-7828517D01*
G01X5737159Y-7837283D01*
G01X5748205Y-7842912D01*
G01X5760449Y-7844851D01*
G01X5898151Y-7844851D01*
G01X5898151Y-7844851D01*
G01X5910395Y-7842912D01*
G01X5921441Y-7837283D01*
G01X5930207Y-7828517D01*
G01X5935835Y-7817471D01*
G01X5937775Y-7805227D01*
G01X5937775Y-7794193D01*
G01X6141476Y-7794193D01*
G01X6143294Y-7814966D01*
G01X6148690Y-7835107D01*
G01X6157503Y-7854005D01*
G01X6169463Y-7871086D01*
G01X6184207Y-7885830D01*
G01X6201288Y-7897790D01*
G01X6220186Y-7906603D01*
G01X6240328Y-7912000D01*
G01X6261100Y-7913817D01*
G01X6261100Y-7913817D01*
G01X6281872Y-7912000D01*
G01X6302014Y-7906603D01*
G01X6320912Y-7897790D01*
G01X6337993Y-7885830D01*
G01X6352737Y-7871086D01*
G01X6364697Y-7854005D01*
G01X6373510Y-7835107D01*
G01X6378906Y-7814966D01*
G01X6380724Y-7794193D01*
G01X6378906Y-7773421D01*
G01X6373510Y-7753279D01*
G01X6364697Y-7734381D01*
G01X6352737Y-7717300D01*
G01X6337993Y-7702556D01*
G01X6320912Y-7690596D01*
G01X6302014Y-7681784D01*
G01X6281872Y-7676387D01*
G01X6261100Y-7674569D01*
G01X6240328Y-7676387D01*
G01X6220186Y-7681784D01*
G01X6201288Y-7690596D01*
G01X6184207Y-7702556D01*
G01X6169463Y-7717300D01*
G01X6157503Y-7734381D01*
G01X6148690Y-7753279D01*
G01X6143294Y-7773421D01*
G01X6141476Y-7794193D01*
G01X5937775Y-7794193D01*
G01X5937775Y-7691973D01*
G01X5935835Y-7679729D01*
G01X5930207Y-7668683D01*
G01X5921441Y-7659917D01*
G01X5910395Y-7654289D01*
G01X5898151Y-7652349D01*
G01X5760449Y-7652349D01*
G01X5748205Y-7654289D01*
G01X5737159Y-7659917D01*
G01X5728393Y-7668683D01*
G01X5722765Y-7679729D01*
G01X5720825Y-7691973D01*
G01X2579624Y-7691973D01*
G01X2579624Y-6764693D01*
G01X3494977Y-6764693D01*
G01X3496983Y-6792747D01*
G01X3502961Y-6820229D01*
G01X3512790Y-6846582D01*
G01X3526269Y-6871267D01*
G01X3543124Y-6893782D01*
G01X3563012Y-6913670D01*
G01X3585527Y-6930525D01*
G01X3610212Y-6944004D01*
G01X3636564Y-6953832D01*
G01X3664047Y-6959811D01*
G01X3692101Y-6961817D01*
G01X3720155Y-6959811D01*
G01X3747637Y-6953832D01*
G01X3773989Y-6944004D01*
G01X3798674Y-6930525D01*
G01X3821190Y-6913670D01*
G01X3841077Y-6893782D01*
G01X3857932Y-6871267D01*
G01X3871411Y-6846582D01*
G01X3881240Y-6820229D01*
G01X3887219Y-6792747D01*
G01X3889225Y-6764693D01*
G01X3887219Y-6736639D01*
G01X3881240Y-6709157D01*
G01X3871411Y-6682805D01*
G01X3857932Y-6658120D01*
G01X3841077Y-6635604D01*
G01X3821190Y-6615716D01*
G01X3798674Y-6598862D01*
G01X3773989Y-6585383D01*
G01X3747637Y-6575554D01*
G01X3720155Y-6569575D01*
G01X3692101Y-6567569D01*
G01X3664047Y-6569575D01*
G01X3636564Y-6575554D01*
G01X3610212Y-6585383D01*
G01X3585527Y-6598862D01*
G01X3563012Y-6615716D01*
G01X3543124Y-6635604D01*
G01X3526269Y-6658120D01*
G01X3512790Y-6682805D01*
G01X3502961Y-6709157D01*
G01X3496983Y-6736639D01*
G01X3494977Y-6764693D01*
G01X3494977Y-6764693D01*
G01X2579624Y-6764693D01*
G01X2579624Y-5346697D01*
G01X3464977Y-5346697D01*
G01X3466871Y-5368775D01*
G01X3472497Y-5390208D01*
G01X3481692Y-5410369D01*
G01X3494186Y-5428669D01*
G01X3509615Y-5444574D01*
G01X3527528Y-5457619D01*
G01X3547400Y-5467422D01*
G01X3568652Y-5473697D01*
G01X3547400Y-5479973D01*
G01X3527528Y-5489776D01*
G01X3509615Y-5502821D01*
G01X3494186Y-5518726D01*
G01X3481692Y-5537026D01*
G01X3472497Y-5557187D01*
G01X3466871Y-5578620D01*
G01X3464977Y-5600697D01*
G01X3466871Y-5622775D01*
G01X3472497Y-5644208D01*
G01X3481692Y-5664369D01*
G01X3494186Y-5682669D01*
G01X3509615Y-5698574D01*
G01X3527528Y-5711619D01*
G01X3547400Y-5721422D01*
G01X3568652Y-5727697D01*
G01X3547400Y-5733973D01*
G01X3527528Y-5743776D01*
G01X3509616Y-5756820D01*
G01X3494187Y-5772724D01*
G01X3481693Y-5791024D01*
G01X3472498Y-5811185D01*
G01X3466871Y-5832617D01*
G01X3464977Y-5854694D01*
G01X3466870Y-5876772D01*
G01X3472496Y-5898204D01*
G01X3481690Y-5918365D01*
G01X3494183Y-5936666D01*
G01X3509611Y-5952571D01*
G01X3527523Y-5965616D01*
G01X3547394Y-5975420D01*
G01X3568645Y-5981696D01*
G01X3547394Y-5987972D01*
G01X3527523Y-5997776D01*
G01X3509611Y-6010822D01*
G01X3494183Y-6026727D01*
G01X3481690Y-6045027D01*
G01X3472496Y-6065188D01*
G01X3466870Y-6086621D01*
G01X3464977Y-6108698D01*
G01X3466871Y-6130775D01*
G01X3472498Y-6152208D01*
G01X3481693Y-6172368D01*
G01X3494187Y-6190668D01*
G01X3509616Y-6206572D01*
G01X3527528Y-6219617D01*
G01X3547400Y-6229420D01*
G01X3568652Y-6235695D01*
G01X3547184Y-6242055D01*
G01X3527131Y-6252014D01*
G01X3509092Y-6265275D01*
G01X3493603Y-6281443D01*
G01X3481127Y-6300035D01*
G01X3472038Y-6320497D01*
G01X3466604Y-6342217D01*
G01X3464990Y-6364549D01*
G01X3467242Y-6386825D01*
G01X3473294Y-6408381D01*
G01X3482966Y-6428574D01*
G01X3495968Y-6446802D01*
G01X3511913Y-6462520D01*
G01X3530324Y-6475260D01*
G01X3550654Y-6484642D01*
G01X3572294Y-6490385D01*
G01X3594600Y-6492319D01*
G01X3616906Y-6490385D01*
G01X3638547Y-6484642D01*
G01X3658876Y-6475260D01*
G01X3677288Y-6462520D01*
G01X3693233Y-6446802D01*
G01X3706235Y-6428574D01*
G01X3715906Y-6408381D01*
G01X3721958Y-6386825D01*
G01X3724211Y-6364549D01*
G01X3722596Y-6342217D01*
G01X3717163Y-6320497D01*
G01X3708073Y-6300035D01*
G01X3695598Y-6281443D01*
G01X3680109Y-6265275D01*
G01X3662069Y-6252014D01*
G01X3642017Y-6242055D01*
G01X3620549Y-6235695D01*
G01X3641800Y-6229420D01*
G01X3661672Y-6219617D01*
G01X3679585Y-6206572D01*
G01X3695013Y-6190668D01*
G01X3707508Y-6172368D01*
G01X3716703Y-6152208D01*
G01X3722330Y-6130775D01*
G01X3724224Y-6108698D01*
G01X3722331Y-6086621D01*
G01X3716705Y-6065188D01*
G01X3707511Y-6045027D01*
G01X3695017Y-6026727D01*
G01X3679589Y-6010822D01*
G01X3661678Y-5997776D01*
G01X3641806Y-5987972D01*
G01X3620555Y-5981696D01*
G01X3642008Y-5975341D01*
G01X3662048Y-5965392D01*
G01X3680078Y-5952144D01*
G01X3695562Y-5935994D01*
G01X3708038Y-5917421D01*
G01X3717134Y-5896979D01*
G01X3722580Y-5875278D01*
G01X3724213Y-5852964D01*
G01X4230477Y-5346700D01*
G01X5383276Y-5346700D01*
G01X5383276Y-7175500D01*
G01X5384769Y-7190663D01*
G01X5389192Y-7205244D01*
G01X5396375Y-7218681D01*
G01X5406041Y-7230459D01*
G01X5507641Y-7332059D01*
G01X5519419Y-7341725D01*
G01X5532856Y-7348908D01*
G01X5547437Y-7353331D01*
G01X5562600Y-7354824D01*
G01X6305969Y-7354824D01*
G01X6550316Y-7599171D01*
G01X6550316Y-7612400D01*
G01X6552255Y-7624645D01*
G01X6557883Y-7635691D01*
G01X6566649Y-7644457D01*
G01X6577695Y-7650085D01*
G01X6589940Y-7652024D01*
G01X6670587Y-7652024D01*
G01X6681190Y-7650579D01*
G01X6691020Y-7646350D01*
G01X6699359Y-7639645D01*
G01X6705600Y-7630952D01*
G01X6711841Y-7639645D01*
G01X6720180Y-7646350D01*
G01X6730010Y-7650579D01*
G01X6740613Y-7652024D01*
G01X6753842Y-7652024D01*
G01X7440676Y-8338858D01*
G01X7440676Y-8513589D01*
G01X7433696Y-8528149D01*
G01X7429418Y-8543718D01*
G01X7427976Y-8559800D01*
G01X7427976Y-8750300D01*
G01X7429713Y-8767941D01*
G01X7434859Y-8784904D01*
G01X7443215Y-8800537D01*
G01X7454461Y-8814239D01*
G01X7543361Y-8903139D01*
G01X7557063Y-8914385D01*
G01X7572696Y-8922741D01*
G01X7589659Y-8927887D01*
G01X7607300Y-8929624D01*
G01X7703576Y-8929624D01*
G01X7703576Y-9011200D01*
G01X7705515Y-9023444D01*
G01X7711144Y-9034490D01*
G01X7719910Y-9043256D01*
G01X7730956Y-9048885D01*
G01X7743200Y-9050824D01*
G01X7903200Y-9050824D01*
G01X7914892Y-9049060D01*
G01X7925543Y-9043924D01*
G01X8451987Y-9043924D01*
G01X8455114Y-9054816D01*
G01X8461194Y-9064377D01*
G01X8469733Y-9071826D01*
G01X8480031Y-9076554D01*
G01X8491245Y-9078175D01*
G01X8611997Y-9078175D01*
G01X8624241Y-9076235D01*
G01X8635287Y-9070607D01*
G01X8644053Y-9061841D01*
G01X8649682Y-9050795D01*
G01X8651621Y-9038551D01*
G01X8651621Y-8868449D01*
G01X8747379Y-8868449D01*
G01X8747379Y-9038551D01*
G01X8749318Y-9050795D01*
G01X8754947Y-9061841D01*
G01X8763713Y-9070607D01*
G01X8774759Y-9076235D01*
G01X8787003Y-9078175D01*
G01X8907755Y-9078175D01*
G01X8919999Y-9076235D01*
G01X8931045Y-9070607D01*
G01X8939811Y-9061841D01*
G01X8945439Y-9050795D01*
G01X8947379Y-9038551D01*
G01X8947379Y-8981379D01*
G01X8962037Y-8966721D01*
G01X9775025Y-8966721D01*
G01X9775025Y-8966721D01*
G01X9791583Y-8981073D01*
G01X9810323Y-8992431D01*
G01X9830709Y-9000471D01*
G01X9852157Y-9004961D01*
G01X9874055Y-9005774D01*
G01X9895777Y-9002887D01*
G01X9916703Y-8996382D01*
G01X9936234Y-8986446D01*
G01X9953812Y-8973361D01*
G01X9968934Y-8957502D01*
G01X9981170Y-8939323D01*
G01X9990168Y-8919342D01*
G01X9995672Y-8898132D01*
G01X9997524Y-8876297D01*
G01X9995672Y-8854462D01*
G01X9990168Y-8833251D01*
G01X9981170Y-8813270D01*
G01X9968934Y-8795091D01*
G01X9953812Y-8779232D01*
G01X9936234Y-8766148D01*
G01X9916703Y-8756211D01*
G01X9895777Y-8749706D01*
G01X9874055Y-8746819D01*
G01X9852157Y-8747632D01*
G01X9830709Y-8752123D01*
G01X9810323Y-8760162D01*
G01X9791583Y-8771520D01*
G01X9775025Y-8785873D01*
G01X8924582Y-8785873D01*
G01X8906941Y-8787610D01*
G01X8889978Y-8792756D01*
G01X8874345Y-8801112D01*
G01X8860643Y-8812357D01*
G01X8844175Y-8828825D01*
G01X8787003Y-8828825D01*
G01X8774759Y-8830765D01*
G01X8763713Y-8836393D01*
G01X8754947Y-8845159D01*
G01X8749318Y-8856205D01*
G01X8747379Y-8868449D01*
G01X8651621Y-8868449D01*
G01X8649682Y-8856205D01*
G01X8644053Y-8845159D01*
G01X8635287Y-8836393D01*
G01X8624241Y-8830765D01*
G01X8611997Y-8828825D01*
G01X8491245Y-8828825D01*
G01X8479001Y-8830765D01*
G01X8467955Y-8836393D01*
G01X8459189Y-8845159D01*
G01X8453561Y-8856205D01*
G01X8451621Y-8868449D01*
G01X8451621Y-8888476D01*
G01X7926997Y-8888476D01*
G01X7935759Y-8873050D01*
G01X7941112Y-8856136D01*
G01X7942821Y-8838478D01*
G01X7940811Y-8820852D01*
G01X7935170Y-8804032D01*
G01X7926147Y-8788757D01*
G01X7914137Y-8775700D01*
G01X7925720Y-8763212D01*
G01X7934568Y-8748657D01*
G01X7940322Y-8732626D01*
G01X7942749Y-8715767D01*
G01X7941750Y-8698763D01*
G01X7937367Y-8682304D01*
G01X7929776Y-8667056D01*
G01X7919286Y-8653636D01*
G01X7906321Y-8642590D01*
G01X7891406Y-8634363D01*
G01X7875146Y-8629290D01*
G01X7868056Y-8628573D01*
G01X8451325Y-8628573D01*
G01X8451325Y-8741827D01*
G01X8453265Y-8754071D01*
G01X8458893Y-8765117D01*
G01X8467659Y-8773883D01*
G01X8478705Y-8779511D01*
G01X8490949Y-8781451D01*
G01X8628651Y-8781451D01*
G01X8640895Y-8779511D01*
G01X8651941Y-8773883D01*
G01X8660707Y-8765117D01*
G01X8666335Y-8754071D01*
G01X8668275Y-8741827D01*
G01X8668275Y-8628573D01*
G01X8666335Y-8616329D01*
G01X8660707Y-8605283D01*
G01X8651941Y-8596517D01*
G01X8640895Y-8590888D01*
G01X8628651Y-8588949D01*
G01X8490949Y-8588949D01*
G01X8490949Y-8588949D01*
G01X8478705Y-8590888D01*
G01X8467659Y-8596517D01*
G01X8458893Y-8605283D01*
G01X8453265Y-8616329D01*
G01X8451325Y-8628573D01*
G01X7868056Y-8628573D01*
G01X7858200Y-8627576D01*
G01X7788200Y-8627576D01*
G01X7771241Y-8629293D01*
G01X7754970Y-8634374D01*
G01X7740047Y-8642612D01*
G01X7727078Y-8653674D01*
G01X7716589Y-8667111D01*
G01X7709005Y-8682377D01*
G01X7704635Y-8698854D01*
G01X7703656Y-8715872D01*
G01X7706107Y-8732741D01*
G01X7711889Y-8748776D01*
G01X7644755Y-8748776D01*
G01X7608824Y-8712845D01*
G01X7608824Y-8559800D01*
G01X7607382Y-8543718D01*
G01X7603104Y-8528149D01*
G01X7596124Y-8513589D01*
G01X7596124Y-8428573D01*
G01X8451325Y-8428573D01*
G01X8451325Y-8541827D01*
G01X8453265Y-8554071D01*
G01X8458893Y-8565117D01*
G01X8467659Y-8573883D01*
G01X8478705Y-8579512D01*
G01X8490949Y-8581451D01*
G01X8628651Y-8581451D01*
G01X8640895Y-8579512D01*
G01X8651941Y-8573883D01*
G01X8660707Y-8565117D01*
G01X8666335Y-8554071D01*
G01X8668275Y-8541827D01*
G01X8668275Y-8428573D01*
G01X8666910Y-8418264D01*
G01X8662910Y-8408665D01*
G01X8656550Y-8400436D01*
G01X8648268Y-8394147D01*
G01X8648268Y-8234406D01*
G01X8647468Y-8222403D01*
G01X8647468Y-8189410D01*
G01X8646220Y-8179543D01*
G01X8642555Y-8170299D01*
G01X8636703Y-8162258D01*
G01X8629034Y-8155927D01*
G01X8763645Y-8155927D01*
G01X8787961Y-8180243D01*
G01X8801663Y-8191488D01*
G01X8817296Y-8199844D01*
G01X8834259Y-8204990D01*
G01X8851900Y-8206727D01*
G01X9775025Y-8206727D01*
G01X9791583Y-8221080D01*
G01X9810323Y-8232438D01*
G01X9830709Y-8240477D01*
G01X9852157Y-8244968D01*
G01X9874055Y-8245781D01*
G01X9895777Y-8242894D01*
G01X9916703Y-8236389D01*
G01X9936234Y-8226452D01*
G01X9953812Y-8213368D01*
G01X9968934Y-8197509D01*
G01X9981170Y-8179330D01*
G01X9990168Y-8159349D01*
G01X9995672Y-8138138D01*
G01X9997524Y-8116303D01*
G01X9995672Y-8094468D01*
G01X9990168Y-8073258D01*
G01X9981170Y-8053277D01*
G01X9968934Y-8035098D01*
G01X9953812Y-8019239D01*
G01X9936234Y-8006154D01*
G01X9916703Y-7996218D01*
G01X9895777Y-7989713D01*
G01X9874055Y-7986826D01*
G01X9852157Y-7987639D01*
G01X9830709Y-7992129D01*
G01X9810323Y-8000169D01*
G01X9791583Y-8011527D01*
G01X9775025Y-8025879D01*
G01X8889355Y-8025879D01*
G01X8865039Y-8001564D01*
G01X8851337Y-7990318D01*
G01X8835704Y-7981962D01*
G01X8818741Y-7976817D01*
G01X8801100Y-7975079D01*
G01X8571904Y-7975079D01*
G01X8556398Y-7973991D01*
G01X8540934Y-7975575D01*
G01X8525970Y-7979783D01*
G01X8507844Y-7979783D01*
G01X8495600Y-7981723D01*
G01X8484554Y-7987351D01*
G01X8475788Y-7996117D01*
G01X8470160Y-8007163D01*
G01X8468220Y-8019407D01*
G01X8468220Y-8052401D01*
G01X8467420Y-8064403D01*
G01X8468220Y-8076406D01*
G01X8468220Y-8109400D01*
G01X8470160Y-8121644D01*
G01X8475788Y-8132690D01*
G01X8484554Y-8141456D01*
G01X8495600Y-8147084D01*
G01X8507844Y-8149024D01*
G01X8524291Y-8149024D01*
G01X8526081Y-8149744D01*
G01X8525843Y-8149833D01*
G01X8507844Y-8149786D01*
G01X8495600Y-8151725D01*
G01X8484554Y-8157353D01*
G01X8475788Y-8166119D01*
G01X8470160Y-8177165D01*
G01X8468220Y-8189410D01*
G01X8468220Y-8222403D01*
G01X8467420Y-8234406D01*
G01X8467420Y-8396692D01*
G01X8458777Y-8405443D01*
G01X8453234Y-8416423D01*
G01X8451325Y-8428573D01*
G01X8451325Y-8428573D01*
G01X7596124Y-8428573D01*
G01X7596124Y-8306664D01*
G01X7594631Y-8291500D01*
G01X7590208Y-8276920D01*
G01X7583025Y-8263482D01*
G01X7573359Y-8251704D01*
G01X6860884Y-7539229D01*
G01X6860884Y-7526000D01*
G01X6858945Y-7513755D01*
G01X6853317Y-7502709D01*
G01X6844551Y-7493943D01*
G01X6833505Y-7488315D01*
G01X6821260Y-7486376D01*
G01X6740613Y-7486376D01*
G01X6730010Y-7487821D01*
G01X6720180Y-7492050D01*
G01X6711841Y-7498755D01*
G01X6705600Y-7507448D01*
G01X6699359Y-7498755D01*
G01X6691020Y-7492050D01*
G01X6681190Y-7487821D01*
G01X6670587Y-7486376D01*
G01X6657358Y-7486376D01*
G01X6393123Y-7222141D01*
G01X6384178Y-7214800D01*
G01X7053478Y-7214800D01*
G01X7053478Y-7364800D01*
G01X7055418Y-7377044D01*
G01X7061046Y-7388090D01*
G01X7069812Y-7396856D01*
G01X7080858Y-7402485D01*
G01X7093102Y-7404424D01*
G01X7293102Y-7404424D01*
G01X7293102Y-7404424D01*
G01X7305346Y-7402485D01*
G01X7316392Y-7396856D01*
G01X7325158Y-7388090D01*
G01X7330787Y-7377044D01*
G01X7332726Y-7364800D01*
G01X7332726Y-7214800D01*
G01X7983471Y-7214800D01*
G01X7983471Y-7364800D01*
G01X7985411Y-7377044D01*
G01X7991039Y-7388090D01*
G01X7999805Y-7396856D01*
G01X8010851Y-7402485D01*
G01X8023095Y-7404424D01*
G01X8223095Y-7404424D01*
G01X8235340Y-7402485D01*
G01X8246385Y-7396856D01*
G01X8255152Y-7388090D01*
G01X8260780Y-7377044D01*
G01X8262719Y-7364800D01*
G01X8262719Y-7361207D01*
G01X8506283Y-7361207D01*
G01X8510030Y-7371151D01*
G01X8516284Y-7379741D01*
G01X8524597Y-7386361D01*
G01X8534370Y-7390533D01*
G01X8544900Y-7391958D01*
G01X8658154Y-7391958D01*
G01X8670398Y-7390018D01*
G01X8681444Y-7384390D01*
G01X8690210Y-7375624D01*
G01X8695839Y-7364578D01*
G01X8697778Y-7352334D01*
G01X8697778Y-7214633D01*
G01X8695839Y-7202388D01*
G01X8690210Y-7191342D01*
G01X8681444Y-7182576D01*
G01X8670398Y-7176948D01*
G01X8658154Y-7175009D01*
G01X8544900Y-7175009D01*
G01X8534370Y-7176433D01*
G01X8524597Y-7180605D01*
G01X8516284Y-7187225D01*
G01X8510030Y-7195815D01*
G01X8506283Y-7205759D01*
G01X8261674Y-7205759D01*
G01X8261674Y-7205759D01*
G01X8257900Y-7195862D01*
G01X8251640Y-7187318D01*
G01X8243339Y-7180738D01*
G01X8233592Y-7176592D01*
G01X8223095Y-7175176D01*
G01X8023095Y-7175176D01*
G01X8010851Y-7177115D01*
G01X7999805Y-7182744D01*
G01X7991039Y-7191510D01*
G01X7985411Y-7202556D01*
G01X7983471Y-7214800D01*
G01X7332726Y-7214800D01*
G01X7330787Y-7202556D01*
G01X7325158Y-7191510D01*
G01X7316392Y-7182744D01*
G01X7305346Y-7177115D01*
G01X7293102Y-7175176D01*
G01X7093102Y-7175176D01*
G01X7080858Y-7177115D01*
G01X7069812Y-7182744D01*
G01X7061046Y-7191510D01*
G01X7055418Y-7202556D01*
G01X7053478Y-7214800D01*
G01X6384178Y-7214800D01*
G01X6381345Y-7212475D01*
G01X6367907Y-7205292D01*
G01X6353327Y-7200869D01*
G01X6338164Y-7199376D01*
G01X5594794Y-7199376D01*
G01X5538724Y-7143306D01*
G01X5538724Y-6764693D01*
G01X5584972Y-6764693D01*
G01X5586979Y-6792747D01*
G01X5592957Y-6820229D01*
G01X5602786Y-6846582D01*
G01X5616265Y-6871267D01*
G01X5633120Y-6893782D01*
G01X5653008Y-6913670D01*
G01X5675523Y-6930525D01*
G01X5700208Y-6944004D01*
G01X5726560Y-6953832D01*
G01X5754043Y-6959811D01*
G01X5782097Y-6961817D01*
G01X5810150Y-6959811D01*
G01X5837633Y-6953832D01*
G01X5863985Y-6944004D01*
G01X5888670Y-6930525D01*
G01X5911186Y-6913670D01*
G01X5931073Y-6893782D01*
G01X5947928Y-6871267D01*
G01X5961407Y-6846582D01*
G01X5971236Y-6820229D01*
G01X5977215Y-6792747D01*
G01X5979221Y-6764693D01*
G01X5977215Y-6736639D01*
G01X5971236Y-6709157D01*
G01X5961407Y-6682805D01*
G01X5947928Y-6658120D01*
G01X5931073Y-6635604D01*
G01X5911186Y-6615716D01*
G01X5888670Y-6598862D01*
G01X5863985Y-6585383D01*
G01X5837633Y-6575554D01*
G01X5810150Y-6569575D01*
G01X5782097Y-6567569D01*
G01X5754043Y-6569575D01*
G01X5726560Y-6575554D01*
G01X5700208Y-6585383D01*
G01X5675523Y-6598862D01*
G01X5653008Y-6615716D01*
G01X5633120Y-6635604D01*
G01X5616265Y-6658120D01*
G01X5602786Y-6682805D01*
G01X5592957Y-6709157D01*
G01X5586979Y-6736639D01*
G01X5584972Y-6764693D01*
G01X5584972Y-6764693D01*
G01X5538724Y-6764693D01*
G01X5538724Y-5378894D01*
G01X5747197Y-5170421D01*
G01X5775860Y-5170421D01*
G01X5788202Y-5184618D01*
G01X5802469Y-5196878D01*
G01X5818360Y-5206944D01*
G01X5835540Y-5214604D01*
G01X5853648Y-5219697D01*
G01X5832397Y-5225973D01*
G01X5812524Y-5235776D01*
G01X5794612Y-5248821D01*
G01X5779183Y-5264726D01*
G01X5766689Y-5283026D01*
G01X5757494Y-5303187D01*
G01X5751867Y-5324620D01*
G01X5749973Y-5346697D01*
G01X5751867Y-5368775D01*
G01X5757494Y-5390208D01*
G01X5766689Y-5410369D01*
G01X5779183Y-5428669D01*
G01X5794612Y-5444574D01*
G01X5812524Y-5457619D01*
G01X5832397Y-5467422D01*
G01X5853648Y-5473697D01*
G01X5832397Y-5479973D01*
G01X5812524Y-5489776D01*
G01X5794612Y-5502821D01*
G01X5779183Y-5518726D01*
G01X5766689Y-5537026D01*
G01X5757494Y-5557187D01*
G01X5751867Y-5578620D01*
G01X5749973Y-5600697D01*
G01X5751867Y-5622775D01*
G01X5757494Y-5644208D01*
G01X5766689Y-5664369D01*
G01X5779183Y-5682669D01*
G01X5794612Y-5698574D01*
G01X5812524Y-5711619D01*
G01X5832397Y-5721422D01*
G01X5853648Y-5727697D01*
G01X5832397Y-5733973D01*
G01X5812525Y-5743776D01*
G01X5794613Y-5756820D01*
G01X5779184Y-5772724D01*
G01X5766690Y-5791024D01*
G01X5757495Y-5811185D01*
G01X5751868Y-5832617D01*
G01X5749973Y-5854694D01*
G01X5751867Y-5876772D01*
G01X5757493Y-5898204D01*
G01X5766687Y-5918365D01*
G01X5779180Y-5936666D01*
G01X5794608Y-5952571D01*
G01X5812520Y-5965616D01*
G01X5832391Y-5975420D01*
G01X5853642Y-5981696D01*
G01X5832391Y-5987972D01*
G01X5812520Y-5997776D01*
G01X5794608Y-6010822D01*
G01X5779180Y-6026727D01*
G01X5766687Y-6045027D01*
G01X5757493Y-6065188D01*
G01X5751867Y-6086621D01*
G01X5749973Y-6108698D01*
G01X5751868Y-6130775D01*
G01X5757495Y-6152208D01*
G01X5766690Y-6172368D01*
G01X5779184Y-6190668D01*
G01X5794613Y-6206572D01*
G01X5812525Y-6219617D01*
G01X5832397Y-6229420D01*
G01X5853648Y-6235695D01*
G01X5832181Y-6242055D01*
G01X5812128Y-6252014D01*
G01X5794088Y-6265275D01*
G01X5778600Y-6281443D01*
G01X5766124Y-6300035D01*
G01X5757034Y-6320497D01*
G01X5751601Y-6342217D01*
G01X5749987Y-6364549D01*
G01X5752239Y-6386825D01*
G01X5758291Y-6408381D01*
G01X5767963Y-6428574D01*
G01X5780965Y-6446802D01*
G01X5796909Y-6462520D01*
G01X5815321Y-6475260D01*
G01X5835650Y-6484642D01*
G01X5857291Y-6490385D01*
G01X5879597Y-6492319D01*
G01X5901903Y-6490385D01*
G01X5923544Y-6484642D01*
G01X5943873Y-6475260D01*
G01X5962285Y-6462520D01*
G01X5978230Y-6446802D01*
G01X5991232Y-6428574D01*
G01X6000903Y-6408381D01*
G01X6006955Y-6386825D01*
G01X6009208Y-6364549D01*
G01X6007593Y-6342217D01*
G01X6002160Y-6320497D01*
G01X5993070Y-6300035D01*
G01X5980595Y-6281443D01*
G01X5965106Y-6265275D01*
G01X5947066Y-6252014D01*
G01X5927013Y-6242055D01*
G01X5905546Y-6235695D01*
G01X5926797Y-6229420D01*
G01X5946669Y-6219617D01*
G01X5964581Y-6206572D01*
G01X5980010Y-6190668D01*
G01X5992504Y-6172368D01*
G01X6001699Y-6152208D01*
G01X6007326Y-6130775D01*
G01X6009221Y-6108698D01*
G01X6007328Y-6086621D01*
G01X6001702Y-6065188D01*
G01X5992508Y-6045027D01*
G01X5980014Y-6026727D01*
G01X5964586Y-6010822D01*
G01X5946675Y-5997776D01*
G01X5926803Y-5987972D01*
G01X5905552Y-5981696D01*
G01X5926803Y-5975420D01*
G01X5946675Y-5965616D01*
G01X5964586Y-5952571D01*
G01X5980014Y-5936666D01*
G01X5992508Y-5918365D01*
G01X6001702Y-5898204D01*
G01X6007328Y-5876772D01*
G01X6009221Y-5854694D01*
G01X6007326Y-5832617D01*
G01X6001699Y-5811185D01*
G01X5992504Y-5791024D01*
G01X5980010Y-5772724D01*
G01X5964581Y-5756820D01*
G01X5946669Y-5743776D01*
G01X5926797Y-5733973D01*
G01X5905546Y-5727697D01*
G01X5926797Y-5721422D01*
G01X5946670Y-5711619D01*
G01X5964582Y-5698574D01*
G01X5980011Y-5682669D01*
G01X5992505Y-5664369D01*
G01X6001700Y-5644208D01*
G01X6007327Y-5622775D01*
G01X6009221Y-5600697D01*
G01X6007327Y-5578620D01*
G01X6001700Y-5557187D01*
G01X5992505Y-5537026D01*
G01X5980011Y-5518726D01*
G01X5964582Y-5502821D01*
G01X5946670Y-5489776D01*
G01X5926797Y-5479973D01*
G01X5905546Y-5473697D01*
G01X5926797Y-5467422D01*
G01X5946670Y-5457619D01*
G01X5964582Y-5444574D01*
G01X5980011Y-5428669D01*
G01X5992505Y-5410369D01*
G01X6001700Y-5390208D01*
G01X6007327Y-5368775D01*
G01X6009221Y-5346697D01*
G01X6007327Y-5324620D01*
G01X6001700Y-5303187D01*
G01X5992505Y-5283026D01*
G01X5980011Y-5264726D01*
G01X5964582Y-5248821D01*
G01X5946670Y-5235776D01*
G01X5926797Y-5225973D01*
G01X5905546Y-5219697D01*
G01X5926797Y-5213422D01*
G01X5946670Y-5203619D01*
G01X5964582Y-5190574D01*
G01X5980011Y-5174669D01*
G01X5992505Y-5156369D01*
G01X6001700Y-5136208D01*
G01X6007327Y-5114775D01*
G01X6009221Y-5092697D01*
G01X6007327Y-5070620D01*
G01X6001700Y-5049187D01*
G01X5992505Y-5029026D01*
G01X5980011Y-5010726D01*
G01X5964582Y-4994821D01*
G01X5946670Y-4981776D01*
G01X5926797Y-4971973D01*
G01X5905546Y-4965697D01*
G01X5924149Y-4960425D01*
G01X5941760Y-4952443D01*
G01X5957988Y-4941931D01*
G01X5972472Y-4929121D01*
G01X6122043Y-4929121D01*
G01X6183376Y-4990455D01*
G01X6183376Y-6684983D01*
G01X6185113Y-6702624D01*
G01X6190259Y-6719587D01*
G01X6198615Y-6735220D01*
G01X6209861Y-6748922D01*
G01X6522049Y-7061111D01*
G01X6522049Y-7098334D01*
G01X6523989Y-7110578D01*
G01X6529617Y-7121624D01*
G01X6538383Y-7130390D01*
G01X6549429Y-7136018D01*
G01X6561673Y-7137958D01*
G01X6674927Y-7137958D01*
G01X6687171Y-7136018D01*
G01X6698217Y-7130390D01*
G01X6706983Y-7121624D01*
G01X6712612Y-7110578D01*
G01X6714551Y-7098334D01*
G01X6714551Y-6960633D01*
G01X6722049Y-6960633D01*
G01X6722049Y-7098334D01*
G01X6723988Y-7110578D01*
G01X6729617Y-7121624D01*
G01X6738383Y-7130390D01*
G01X6749429Y-7136018D01*
G01X6761673Y-7137958D01*
G01X6874927Y-7137958D01*
G01X6885457Y-7136533D01*
G01X6895230Y-7132361D01*
G01X6903543Y-7125741D01*
G01X6909797Y-7117151D01*
G01X6913544Y-7107207D01*
G01X7053478Y-7107207D01*
G01X7053478Y-7110800D01*
G01X7055418Y-7123044D01*
G01X7061046Y-7134090D01*
G01X7069812Y-7142856D01*
G01X7080858Y-7148485D01*
G01X7093102Y-7150424D01*
G01X7293102Y-7150424D01*
G01X7305346Y-7148485D01*
G01X7316392Y-7142856D01*
G01X7325158Y-7134090D01*
G01X7330787Y-7123044D01*
G01X7332726Y-7110800D01*
G01X7332726Y-6960800D01*
G01X7330787Y-6948556D01*
G01X7325158Y-6937510D01*
G01X7316392Y-6928744D01*
G01X7305346Y-6923115D01*
G01X7293102Y-6921176D01*
G01X7093102Y-6921176D01*
G01X7082605Y-6922592D01*
G01X7072858Y-6926738D01*
G01X7064558Y-6933318D01*
G01X7058297Y-6941862D01*
G01X7054524Y-6951759D01*
G01X6913544Y-6951759D01*
G01X6909797Y-6941815D01*
G01X6903543Y-6933225D01*
G01X6895230Y-6926605D01*
G01X6885457Y-6922433D01*
G01X6874927Y-6921009D01*
G01X6874927Y-6921009D01*
G01X6761673Y-6921009D01*
G01X6749429Y-6922948D01*
G01X6738383Y-6928576D01*
G01X6729617Y-6937342D01*
G01X6723988Y-6948388D01*
G01X6722049Y-6960633D01*
G01X6714551Y-6960633D01*
G01X6712612Y-6948388D01*
G01X6706983Y-6937342D01*
G01X6698217Y-6928576D01*
G01X6687171Y-6922948D01*
G01X6674927Y-6921009D01*
G01X6637705Y-6921009D01*
G01X6364224Y-6647528D01*
G01X6364224Y-5462200D01*
G01X7040778Y-5462200D01*
G01X7040778Y-5612200D01*
G01X7042718Y-5624444D01*
G01X7048346Y-5635490D01*
G01X7057112Y-5644256D01*
G01X7068158Y-5649885D01*
G01X7080402Y-5651824D01*
G01X7280402Y-5651824D01*
G01X7280402Y-5651824D01*
G01X7292646Y-5649885D01*
G01X7303692Y-5644256D01*
G01X7312458Y-5635490D01*
G01X7318087Y-5624444D01*
G01X7320026Y-5612200D01*
G01X7320026Y-5462200D01*
G01X7318087Y-5449956D01*
G01X7312458Y-5438910D01*
G01X7303692Y-5430144D01*
G01X7292646Y-5424515D01*
G01X7280402Y-5422576D01*
G01X7080402Y-5422576D01*
G01X7068158Y-5424515D01*
G01X7057112Y-5430144D01*
G01X7048346Y-5438910D01*
G01X7042718Y-5449956D01*
G01X7040778Y-5462200D01*
G01X6364224Y-5462200D01*
G01X6364224Y-4953000D01*
G01X6362487Y-4935359D01*
G01X6357341Y-4918396D01*
G01X6348985Y-4902763D01*
G01X6337739Y-4889061D01*
G01X6223437Y-4774758D01*
G01X6209734Y-4763513D01*
G01X6194101Y-4755157D01*
G01X6177138Y-4750011D01*
G01X6159497Y-4748273D01*
G01X5972472Y-4748273D01*
G01X5957990Y-4735465D01*
G01X5941763Y-4724953D01*
G01X5924153Y-4716972D01*
G01X5905552Y-4711699D01*
G01X5924153Y-4706426D01*
G01X5941763Y-4698444D01*
G01X5957990Y-4687932D01*
G01X5972472Y-4675124D01*
G01X6414145Y-4675124D01*
G01X6527876Y-4788855D01*
G01X6527876Y-5177755D01*
G01X6523534Y-5187695D01*
G01X6522049Y-5198439D01*
G01X6522049Y-5336140D01*
G01X6523989Y-5348384D01*
G01X6529617Y-5359430D01*
G01X6538383Y-5368196D01*
G01X6549429Y-5373825D01*
G01X6561673Y-5375764D01*
G01X6674927Y-5375764D01*
G01X6687171Y-5373825D01*
G01X6698217Y-5368196D01*
G01X6706983Y-5359430D01*
G01X6712612Y-5348384D01*
G01X6714551Y-5336140D01*
G01X6714551Y-5198439D01*
G01X6722049Y-5198439D01*
G01X6722049Y-5336140D01*
G01X6723988Y-5348384D01*
G01X6729617Y-5359430D01*
G01X6738383Y-5368196D01*
G01X6749429Y-5373825D01*
G01X6761673Y-5375764D01*
G01X6874927Y-5375764D01*
G01X6885457Y-5374339D01*
G01X6895230Y-5370167D01*
G01X6903543Y-5363548D01*
G01X6909797Y-5354957D01*
G01X6913544Y-5345013D01*
G01X7040778Y-5345013D01*
G01X7040778Y-5358200D01*
G01X7042718Y-5370444D01*
G01X7048346Y-5381490D01*
G01X7057112Y-5390256D01*
G01X7068158Y-5395885D01*
G01X7080402Y-5397824D01*
G01X7280402Y-5397824D01*
G01X7292646Y-5395885D01*
G01X7303692Y-5390256D01*
G01X7312458Y-5381490D01*
G01X7318087Y-5370444D01*
G01X7320026Y-5358200D01*
G01X7320026Y-5295900D01*
G01X7720076Y-5295900D01*
G01X7720076Y-6985000D01*
G01X7721569Y-7000163D01*
G01X7725992Y-7014744D01*
G01X7733175Y-7028181D01*
G01X7742841Y-7039959D01*
G01X7793641Y-7090759D01*
G01X7805419Y-7100425D01*
G01X7818856Y-7107608D01*
G01X7833437Y-7112031D01*
G01X7848600Y-7113524D01*
G01X7983565Y-7113524D01*
G01X7986142Y-7125099D01*
G01X7992027Y-7135393D01*
G01X8000696Y-7143485D01*
G01X8011371Y-7148649D01*
G01X8023095Y-7150424D01*
G01X8223095Y-7150424D01*
G01X8235340Y-7148485D01*
G01X8246385Y-7142856D01*
G01X8255152Y-7134090D01*
G01X8260780Y-7123044D01*
G01X8262719Y-7110800D01*
G01X8262719Y-6960800D01*
G01X8260780Y-6948556D01*
G01X8255152Y-6937510D01*
G01X8246385Y-6928744D01*
G01X8235340Y-6923115D01*
G01X8223095Y-6921176D01*
G01X8023095Y-6921176D01*
G01X8011371Y-6922951D01*
G01X8000696Y-6928115D01*
G01X7992027Y-6936207D01*
G01X7986142Y-6946501D01*
G01X7983565Y-6958076D01*
G01X7880794Y-6958076D01*
G01X7875524Y-6952806D01*
G01X7875524Y-5462200D01*
G01X7970771Y-5462200D01*
G01X7970771Y-5612200D01*
G01X7972711Y-5624444D01*
G01X7978339Y-5635490D01*
G01X7987105Y-5644256D01*
G01X7998151Y-5649885D01*
G01X8010395Y-5651824D01*
G01X8210395Y-5651824D01*
G01X8222120Y-5650049D01*
G01X8232795Y-5644885D01*
G01X8241463Y-5636793D01*
G01X8247349Y-5626499D01*
G01X8249925Y-5614924D01*
G01X8466156Y-5614924D01*
G01X8469903Y-5624868D01*
G01X8476157Y-5633458D01*
G01X8484470Y-5640078D01*
G01X8494243Y-5644250D01*
G01X8504773Y-5645675D01*
G01X8618027Y-5645675D01*
G01X8630271Y-5643735D01*
G01X8641317Y-5638107D01*
G01X8650083Y-5629341D01*
G01X8655712Y-5618295D01*
G01X8657651Y-5606051D01*
G01X8657651Y-5468349D01*
G01X8665149Y-5468349D01*
G01X8665149Y-5606051D01*
G01X8667088Y-5618295D01*
G01X8672717Y-5629341D01*
G01X8681483Y-5638107D01*
G01X8692529Y-5643735D01*
G01X8704773Y-5645675D01*
G01X8818027Y-5645675D01*
G01X8828557Y-5644250D01*
G01X8838330Y-5640078D01*
G01X8846643Y-5633458D01*
G01X8852897Y-5624868D01*
G01X8856644Y-5614924D01*
G01X9103703Y-5614924D01*
G01X9094633Y-5631066D01*
G01X9089290Y-5648794D01*
G01X9087931Y-5667259D01*
G01X9090621Y-5685578D01*
G01X9097230Y-5702873D01*
G01X9107443Y-5718318D01*
G01X9120769Y-5731171D01*
G01X9136573Y-5740819D01*
G01X9154096Y-5746798D01*
G01X9172500Y-5748824D01*
G01X9175636Y-5748824D01*
G01X9191306Y-5753162D01*
G01X9207500Y-5754624D01*
G01X9223694Y-5753162D01*
G01X9239364Y-5748824D01*
G01X9242500Y-5748824D01*
G01X9256070Y-5747729D01*
G01X9269289Y-5744472D01*
G01X9818876Y-5744472D01*
G01X9828816Y-5748814D01*
G01X9839560Y-5750298D01*
G01X9839560Y-5750298D01*
G01X9977261Y-5750298D01*
G01X9986980Y-5749088D01*
G01X9996105Y-5745531D01*
G01X10284884Y-5745531D01*
G01X10301899Y-5757830D01*
G01X10320803Y-5766965D01*
G01X10341012Y-5772655D01*
G01X10361905Y-5774724D01*
G01X10382838Y-5773108D01*
G01X10403166Y-5767857D01*
G01X10422263Y-5759133D01*
G01X10439540Y-5747205D01*
G01X10454466Y-5732439D01*
G01X10466581Y-5715292D01*
G01X10475511Y-5696291D01*
G01X10480981Y-5676021D01*
G01X10482824Y-5655107D01*
G01X10480981Y-5634193D01*
G01X10475511Y-5613923D01*
G01X10466581Y-5594922D01*
G01X10454466Y-5577774D01*
G01X10439540Y-5563009D01*
G01X10422263Y-5551081D01*
G01X10403166Y-5542357D01*
G01X10382838Y-5537106D01*
G01X10361905Y-5535490D01*
G01X10341012Y-5537559D01*
G01X10320803Y-5543248D01*
G01X10301899Y-5552383D01*
G01X10284884Y-5564683D01*
G01X9999583Y-5564683D01*
G01X9988941Y-5559557D01*
G01X9977261Y-5557797D01*
G01X9839560Y-5557797D01*
G01X9828816Y-5559281D01*
G01X9818876Y-5563624D01*
G01X9322893Y-5563624D01*
G01X9326434Y-5547982D01*
G01X9326961Y-5531953D01*
G01X9324454Y-5516112D01*
G01X9319004Y-5501029D01*
G01X9310806Y-5487245D01*
G01X9319564Y-5478480D01*
G01X9325186Y-5467438D01*
G01X9327124Y-5455200D01*
G01X9327124Y-5397421D01*
G01X9799936Y-5397421D01*
G01X9799936Y-5510675D01*
G01X9801875Y-5522919D01*
G01X9807503Y-5533965D01*
G01X9816270Y-5542731D01*
G01X9827315Y-5548359D01*
G01X9839560Y-5550299D01*
G01X9977261Y-5550299D01*
G01X9989505Y-5548359D01*
G01X10000551Y-5542731D01*
G01X10009317Y-5533965D01*
G01X10014946Y-5522919D01*
G01X10016885Y-5510675D01*
G01X10016885Y-5397421D01*
G01X10015327Y-5386418D01*
G01X10010774Y-5376280D01*
G01X10003585Y-5367805D01*
G01X9994326Y-5361660D01*
G01X9983724Y-5358328D01*
G01X9983724Y-5073207D01*
G01X9990176Y-5064948D01*
G01X9994238Y-5055286D01*
G01X9995624Y-5044897D01*
G01X9995624Y-4954905D01*
G01X9993685Y-4942661D01*
G01X9988056Y-4931615D01*
G01X9979290Y-4922849D01*
G01X9968244Y-4917220D01*
G01X9956000Y-4915281D01*
G01X9856000Y-4915281D01*
G01X9843756Y-4917220D01*
G01X9832710Y-4922849D01*
G01X9823944Y-4931615D01*
G01X9818315Y-4942661D01*
G01X9816376Y-4954905D01*
G01X9816376Y-5044897D01*
G01X9817762Y-5055286D01*
G01X9821824Y-5064948D01*
G01X9828276Y-5073207D01*
G01X9828276Y-5359438D01*
G01X9816884Y-5364927D01*
G01X9807802Y-5373726D01*
G01X9801954Y-5384938D01*
G01X9799936Y-5397421D01*
G01X9799936Y-5397421D01*
G01X9327124Y-5397421D01*
G01X9327124Y-5365200D01*
G01X9325185Y-5352956D01*
G01X9319556Y-5341910D01*
G01X9310790Y-5333144D01*
G01X9299744Y-5327515D01*
G01X9287500Y-5325576D01*
G01X9127500Y-5325576D01*
G01X9115256Y-5327515D01*
G01X9104210Y-5333144D01*
G01X9095444Y-5341910D01*
G01X9089815Y-5352956D01*
G01X9087876Y-5365200D01*
G01X9087876Y-5455200D01*
G01X9088108Y-5459476D01*
G01X8856644Y-5459476D01*
G01X8852897Y-5449532D01*
G01X8846643Y-5440942D01*
G01X8838330Y-5434322D01*
G01X8828557Y-5430150D01*
G01X8818027Y-5428725D01*
G01X8704773Y-5428725D01*
G01X8692529Y-5430665D01*
G01X8681483Y-5436293D01*
G01X8672717Y-5445059D01*
G01X8667088Y-5456105D01*
G01X8665149Y-5468349D01*
G01X8657651Y-5468349D01*
G01X8655712Y-5456105D01*
G01X8650083Y-5445059D01*
G01X8641317Y-5436293D01*
G01X8630271Y-5430665D01*
G01X8618027Y-5428725D01*
G01X8504773Y-5428725D01*
G01X8494243Y-5430150D01*
G01X8484470Y-5434322D01*
G01X8476157Y-5440942D01*
G01X8469903Y-5449532D01*
G01X8466156Y-5459476D01*
G01X8249925Y-5459476D01*
G01X8249925Y-5459476D01*
G01X8247349Y-5447901D01*
G01X8241463Y-5437607D01*
G01X8232795Y-5429515D01*
G01X8222120Y-5424351D01*
G01X8210395Y-5422576D01*
G01X8010395Y-5422576D01*
G01X7998151Y-5424515D01*
G01X7987105Y-5430144D01*
G01X7978339Y-5438910D01*
G01X7972711Y-5449956D01*
G01X7970771Y-5462200D01*
G01X7875524Y-5462200D01*
G01X7875524Y-5360924D01*
G01X7970865Y-5360924D01*
G01X7973442Y-5372499D01*
G01X7979327Y-5382793D01*
G01X7987996Y-5390885D01*
G01X7998671Y-5396049D01*
G01X8010395Y-5397824D01*
G01X8210395Y-5397824D01*
G01X8222640Y-5395885D01*
G01X8233685Y-5390256D01*
G01X8242452Y-5381490D01*
G01X8248080Y-5370444D01*
G01X8250019Y-5358200D01*
G01X8250019Y-5208200D01*
G01X8248080Y-5195956D01*
G01X8242452Y-5184910D01*
G01X8233685Y-5176144D01*
G01X8222640Y-5170515D01*
G01X8210395Y-5168576D01*
G01X8010395Y-5168576D01*
G01X7998671Y-5170351D01*
G01X7987996Y-5175515D01*
G01X7979327Y-5183607D01*
G01X7973442Y-5193901D01*
G01X7970865Y-5205476D01*
G01X7875524Y-5205476D01*
G01X7875524Y-4673600D01*
G01X8913876Y-4673600D01*
G01X8915832Y-4710930D01*
G01X8921680Y-4747850D01*
G01X8931355Y-4783957D01*
G01X8944751Y-4818855D01*
G01X8961722Y-4852162D01*
G01X8982081Y-4883512D01*
G01X9005605Y-4912563D01*
G01X9032037Y-4938995D01*
G01X9061088Y-4962519D01*
G01X9092438Y-4982878D01*
G01X9125745Y-4999849D01*
G01X9160643Y-5013245D01*
G01X9196750Y-5022920D01*
G01X9233670Y-5028768D01*
G01X9271000Y-5030724D01*
G01X9308330Y-5028768D01*
G01X9345250Y-5022920D01*
G01X9381357Y-5013245D01*
G01X9416255Y-4999849D01*
G01X9449562Y-4982878D01*
G01X9480912Y-4962519D01*
G01X9509963Y-4938995D01*
G01X9536395Y-4912563D01*
G01X9559919Y-4883512D01*
G01X9580278Y-4852162D01*
G01X9597249Y-4818855D01*
G01X9610282Y-4784903D01*
G01X9816376Y-4784903D01*
G01X9816376Y-4874895D01*
G01X9818315Y-4887139D01*
G01X9823944Y-4898185D01*
G01X9832710Y-4906951D01*
G01X9843756Y-4912580D01*
G01X9856000Y-4914519D01*
G01X9956000Y-4914519D01*
G01X9967488Y-4912817D01*
G01X10236200Y-4912817D01*
G01X10252003Y-4911194D01*
G01X10267146Y-4906391D01*
G01X10281356Y-4922337D01*
G01X10298176Y-4935501D01*
G01X10317069Y-4945464D01*
G01X10337433Y-4951909D01*
G01X10358618Y-4954629D01*
G01X10379949Y-4953539D01*
G01X10400746Y-4948672D01*
G01X10420347Y-4940184D01*
G01X10438125Y-4928346D01*
G01X10453515Y-4913535D01*
G01X10466025Y-4896223D01*
G01X10475257Y-4876963D01*
G01X10480917Y-4856367D01*
G01X10482824Y-4835093D01*
G01X10480917Y-4813819D01*
G01X10475257Y-4793224D01*
G01X10466025Y-4773963D01*
G01X10453515Y-4756651D01*
G01X10438125Y-4741840D01*
G01X10420347Y-4730002D01*
G01X10400746Y-4721514D01*
G01X10379949Y-4716648D01*
G01X10358618Y-4715557D01*
G01X10337433Y-4718277D01*
G01X10317069Y-4724722D01*
G01X10298176Y-4734685D01*
G01X10281356Y-4747850D01*
G01X10267146Y-4763795D01*
G01X10252003Y-4758993D01*
G01X10236200Y-4757369D01*
G01X10236200Y-4757369D01*
G01X9984495Y-4757369D01*
G01X9976203Y-4750816D01*
G01X9966474Y-4746688D01*
G01X9956000Y-4745279D01*
G01X9856000Y-4745279D01*
G01X9843756Y-4747218D01*
G01X9832710Y-4752846D01*
G01X9823944Y-4761612D01*
G01X9818315Y-4772658D01*
G01X9816376Y-4784903D01*
G01X9610282Y-4784903D01*
G01X9610645Y-4783957D01*
G01X9620320Y-4747850D01*
G01X9626168Y-4710930D01*
G01X9628124Y-4673600D01*
G01X9626168Y-4636270D01*
G01X9620320Y-4599350D01*
G01X9610645Y-4563243D01*
G01X9597249Y-4528345D01*
G01X9580278Y-4495038D01*
G01X9559919Y-4463688D01*
G01X9536395Y-4434637D01*
G01X9509963Y-4408205D01*
G01X9480912Y-4384681D01*
G01X9449562Y-4364322D01*
G01X9416255Y-4347351D01*
G01X9381357Y-4333955D01*
G01X9345250Y-4324280D01*
G01X9308330Y-4318432D01*
G01X9271000Y-4316476D01*
G01X9233670Y-4318432D01*
G01X9196750Y-4324280D01*
G01X9160643Y-4333955D01*
G01X9125745Y-4347351D01*
G01X9092438Y-4364322D01*
G01X9061088Y-4384681D01*
G01X9032037Y-4408205D01*
G01X9005605Y-4434637D01*
G01X8982081Y-4463688D01*
G01X8961722Y-4495038D01*
G01X8944751Y-4528345D01*
G01X8931355Y-4563243D01*
G01X8921680Y-4599350D01*
G01X8915832Y-4636270D01*
G01X8913876Y-4673600D01*
G01X8913876Y-4673600D01*
G01X7875524Y-4673600D01*
G01X7875524Y-3696900D01*
G01X7958071Y-3696900D01*
G01X7958071Y-3846900D01*
G01X7960011Y-3859144D01*
G01X7965639Y-3870190D01*
G01X7974405Y-3878956D01*
G01X7985451Y-3884585D01*
G01X7997695Y-3886524D01*
G01X8197695Y-3886524D01*
G01X8209940Y-3884585D01*
G01X8220985Y-3878956D01*
G01X8229752Y-3870190D01*
G01X8235380Y-3859144D01*
G01X8237319Y-3846900D01*
G01X8237319Y-3836924D01*
G01X8478856Y-3836924D01*
G01X8482603Y-3846868D01*
G01X8488857Y-3855458D01*
G01X8497170Y-3862078D01*
G01X8506943Y-3866250D01*
G01X8517473Y-3867675D01*
G01X8630727Y-3867675D01*
G01X8642971Y-3865735D01*
G01X8654017Y-3860107D01*
G01X8662783Y-3851341D01*
G01X8668412Y-3840295D01*
G01X8670351Y-3828051D01*
G01X8670351Y-3690349D01*
G01X8677849Y-3690349D01*
G01X8677849Y-3828051D01*
G01X8679788Y-3840295D01*
G01X8685417Y-3851341D01*
G01X8694183Y-3860107D01*
G01X8705229Y-3865735D01*
G01X8717473Y-3867675D01*
G01X8830727Y-3867675D01*
G01X8841257Y-3866250D01*
G01X8851030Y-3862078D01*
G01X8859343Y-3855458D01*
G01X8865597Y-3846868D01*
G01X8869344Y-3836924D01*
G01X9116403Y-3836924D01*
G01X9107607Y-3852428D01*
G01X9102254Y-3869431D01*
G01X9100582Y-3887177D01*
G01X9102664Y-3904881D01*
G01X9108408Y-3921755D01*
G01X9117559Y-3937052D01*
G01X9129712Y-3950093D01*
G01X9144326Y-3960298D01*
G01X9160754Y-3967216D01*
G01X9178267Y-3970539D01*
G01X9178267Y-3970539D01*
G01X9194609Y-3979945D01*
G01X9212547Y-3985758D01*
G01X9231300Y-3987724D01*
G01X9816466Y-3987724D01*
G01X9826405Y-3992066D01*
G01X9837149Y-3993551D01*
G01X9974851Y-3993551D01*
G01X9981831Y-3992931D01*
G01X10284884Y-3992931D01*
G01X10301899Y-4005230D01*
G01X10320803Y-4014365D01*
G01X10341012Y-4020055D01*
G01X10361905Y-4022124D01*
G01X10382838Y-4020508D01*
G01X10403166Y-4015257D01*
G01X10422263Y-4006533D01*
G01X10439540Y-3994605D01*
G01X10454466Y-3979839D01*
G01X10466581Y-3962692D01*
G01X10475511Y-3943691D01*
G01X10480981Y-3923421D01*
G01X10482824Y-3902507D01*
G01X10480981Y-3881593D01*
G01X10475511Y-3861323D01*
G01X10466581Y-3842322D01*
G01X10454466Y-3825174D01*
G01X10439540Y-3810409D01*
G01X10422263Y-3798481D01*
G01X10403166Y-3789757D01*
G01X10382838Y-3784506D01*
G01X10361905Y-3782890D01*
G01X10341012Y-3784959D01*
G01X10320803Y-3790648D01*
G01X10301899Y-3799783D01*
G01X10284884Y-3812083D01*
G01X10002285Y-3812083D01*
G01X9994189Y-3806089D01*
G01X9984843Y-3802330D01*
G01X9974851Y-3801049D01*
G01X9837149Y-3801049D01*
G01X9826405Y-3802534D01*
G01X9816466Y-3806876D01*
G01X9325116Y-3806876D01*
G01X9333357Y-3791646D01*
G01X9338325Y-3775057D01*
G01X9339812Y-3757805D01*
G01X9337757Y-3740611D01*
G01X9332244Y-3724195D01*
G01X9323506Y-3709245D01*
G01X9332264Y-3700480D01*
G01X9337886Y-3689438D01*
G01X9339824Y-3677200D01*
G01X9339824Y-3640673D01*
G01X9797525Y-3640673D01*
G01X9797525Y-3753927D01*
G01X9799465Y-3766171D01*
G01X9805093Y-3777217D01*
G01X9813859Y-3785983D01*
G01X9824905Y-3791612D01*
G01X9837149Y-3793551D01*
G01X9974851Y-3793551D01*
G01X9987095Y-3791612D01*
G01X9998141Y-3785983D01*
G01X10006907Y-3777217D01*
G01X10012535Y-3766171D01*
G01X10014475Y-3753927D01*
G01X10014475Y-3640673D01*
G01X10012535Y-3628429D01*
G01X10006907Y-3617383D01*
G01X9998141Y-3608617D01*
G01X9987095Y-3602989D01*
G01X9974851Y-3601049D01*
G01X9973434Y-3601049D01*
G01X9973434Y-3320292D01*
G01X9979887Y-3312033D01*
G01X9983948Y-3302371D01*
G01X9985334Y-3291982D01*
G01X9985334Y-3201990D01*
G01X9983395Y-3189746D01*
G01X9977767Y-3178700D01*
G01X9969001Y-3169934D01*
G01X9957955Y-3164305D01*
G01X9945710Y-3162366D01*
G01X9845711Y-3162366D01*
G01X9833466Y-3164305D01*
G01X9822420Y-3169934D01*
G01X9813654Y-3178700D01*
G01X9808026Y-3189746D01*
G01X9806087Y-3201990D01*
G01X9806087Y-3291982D01*
G01X9807473Y-3302371D01*
G01X9811534Y-3312033D01*
G01X9817986Y-3320292D01*
G01X9817986Y-3605991D01*
G01X9809529Y-3612263D01*
G01X9803022Y-3620540D01*
G01X9798924Y-3630238D01*
G01X9797525Y-3640673D01*
G01X9797525Y-3640673D01*
G01X9339824Y-3640673D01*
G01X9339824Y-3587200D01*
G01X9337885Y-3574956D01*
G01X9332256Y-3563910D01*
G01X9323490Y-3555144D01*
G01X9312444Y-3549515D01*
G01X9300200Y-3547576D01*
G01X9140200Y-3547576D01*
G01X9127956Y-3549515D01*
G01X9116910Y-3555144D01*
G01X9108144Y-3563910D01*
G01X9102515Y-3574956D01*
G01X9100576Y-3587200D01*
G01X9100576Y-3677200D01*
G01X9100808Y-3681476D01*
G01X8869344Y-3681476D01*
G01X8865597Y-3671532D01*
G01X8859343Y-3662942D01*
G01X8851030Y-3656322D01*
G01X8841257Y-3652150D01*
G01X8830727Y-3650725D01*
G01X8717473Y-3650725D01*
G01X8705229Y-3652665D01*
G01X8694183Y-3658293D01*
G01X8685417Y-3667059D01*
G01X8679788Y-3678105D01*
G01X8677849Y-3690349D01*
G01X8670351Y-3690349D01*
G01X8668412Y-3678105D01*
G01X8662783Y-3667059D01*
G01X8654017Y-3658293D01*
G01X8642971Y-3652665D01*
G01X8630727Y-3650725D01*
G01X8517473Y-3650725D01*
G01X8506943Y-3652150D01*
G01X8497170Y-3656322D01*
G01X8488857Y-3662942D01*
G01X8482603Y-3671532D01*
G01X8478856Y-3681476D01*
G01X8234194Y-3681476D01*
G01X8234194Y-3681476D01*
G01X8228190Y-3671599D01*
G01X8219591Y-3663876D01*
G01X8209130Y-3658962D01*
G01X8197695Y-3657276D01*
G01X7997695Y-3657276D01*
G01X7985451Y-3659215D01*
G01X7974405Y-3664844D01*
G01X7965639Y-3673610D01*
G01X7960011Y-3684656D01*
G01X7958071Y-3696900D01*
G01X7875524Y-3696900D01*
G01X7875524Y-3595624D01*
G01X7958165Y-3595624D01*
G01X7960742Y-3607199D01*
G01X7966627Y-3617493D01*
G01X7975296Y-3625585D01*
G01X7985971Y-3630749D01*
G01X7997695Y-3632524D01*
G01X8197695Y-3632524D01*
G01X8209940Y-3630585D01*
G01X8220985Y-3624956D01*
G01X8229752Y-3616190D01*
G01X8235380Y-3605144D01*
G01X8237319Y-3592900D01*
G01X8237319Y-3442900D01*
G01X8235380Y-3430656D01*
G01X8229752Y-3419610D01*
G01X8220985Y-3410844D01*
G01X8209940Y-3405215D01*
G01X8197695Y-3403276D01*
G01X7997695Y-3403276D01*
G01X7985971Y-3405051D01*
G01X7975296Y-3410215D01*
G01X7966627Y-3418307D01*
G01X7960742Y-3428601D01*
G01X7958165Y-3440176D01*
G01X7875524Y-3440176D01*
G01X7875524Y-3031988D01*
G01X9806087Y-3031988D01*
G01X9806087Y-3121980D01*
G01X9808026Y-3134225D01*
G01X9813654Y-3145270D01*
G01X9822420Y-3154037D01*
G01X9833466Y-3159665D01*
G01X9845711Y-3161604D01*
G01X9945710Y-3161604D01*
G01X9957399Y-3159841D01*
G01X9968047Y-3154708D01*
G01X10236096Y-3154708D01*
G01X10250337Y-3153392D01*
G01X10264097Y-3149489D01*
G01X10277596Y-3166050D01*
G01X10293825Y-3179946D01*
G01X10312268Y-3190733D01*
G01X10332335Y-3198067D01*
G01X10353387Y-3201714D01*
G01X10374752Y-3201558D01*
G01X10395749Y-3197604D01*
G01X10415707Y-3189978D01*
G01X10433990Y-3178923D01*
G01X10450015Y-3164791D01*
G01X10463271Y-3148035D01*
G01X10473334Y-3129188D01*
G01X10479884Y-3108851D01*
G01X10482712Y-3087673D01*
G01X10481727Y-3066330D01*
G01X10476961Y-3045503D01*
G01X10468566Y-3025856D01*
G01X10456810Y-3008015D01*
G01X10442068Y-2992551D01*
G01X10424810Y-2979955D01*
G01X10405587Y-2970631D01*
G01X10385011Y-2964875D01*
G01X10363740Y-2962871D01*
G01X10342451Y-2964683D01*
G01X10321824Y-2970253D01*
G01X10302518Y-2979403D01*
G01X10285146Y-2991843D01*
G01X10270265Y-3007174D01*
G01X10253633Y-3001264D01*
G01X10236096Y-2999260D01*
G01X10236096Y-2999260D01*
G01X9968047Y-2999260D01*
G01X9957399Y-2994127D01*
G01X9945710Y-2992364D01*
G01X9845711Y-2992364D01*
G01X9833466Y-2994303D01*
G01X9822420Y-2999931D01*
G01X9813654Y-3008697D01*
G01X9808026Y-3019743D01*
G01X9806087Y-3031988D01*
G01X7875524Y-3031988D01*
G01X7875524Y-1995100D01*
G01X7970771Y-1995100D01*
G01X7970771Y-2145100D01*
G01X7972711Y-2157344D01*
G01X7978339Y-2168390D01*
G01X7987105Y-2177156D01*
G01X7998151Y-2182785D01*
G01X8010395Y-2184724D01*
G01X8210395Y-2184724D01*
G01X8221830Y-2183038D01*
G01X8232291Y-2178124D01*
G01X8240890Y-2170401D01*
G01X8246894Y-2160524D01*
G01X8478856Y-2160524D01*
G01X8482603Y-2170468D01*
G01X8488857Y-2179058D01*
G01X8497170Y-2185678D01*
G01X8506943Y-2189850D01*
G01X8517473Y-2191275D01*
G01X8517473Y-2191275D01*
G01X8630727Y-2191275D01*
G01X8642971Y-2189335D01*
G01X8654017Y-2183707D01*
G01X8662783Y-2174941D01*
G01X8668412Y-2163895D01*
G01X8670351Y-2151651D01*
G01X8670351Y-2013949D01*
G01X8677849Y-2013949D01*
G01X8677849Y-2151651D01*
G01X8679788Y-2163895D01*
G01X8685417Y-2174941D01*
G01X8694183Y-2183707D01*
G01X8705229Y-2189335D01*
G01X8717473Y-2191275D01*
G01X8830727Y-2191275D01*
G01X8840482Y-2190055D01*
G01X8849637Y-2186471D01*
G01X8857628Y-2180743D01*
G01X8863963Y-2173224D01*
G01X9116403Y-2173224D01*
G01X9116403Y-2173224D01*
G01X9107333Y-2189366D01*
G01X9101990Y-2207094D01*
G01X9100631Y-2225559D01*
G01X9103321Y-2243878D01*
G01X9109930Y-2261173D01*
G01X9120143Y-2276618D01*
G01X9133469Y-2289471D01*
G01X9149273Y-2299119D01*
G01X9166796Y-2305098D01*
G01X9185200Y-2307124D01*
G01X9188336Y-2307124D01*
G01X9204254Y-2311507D01*
G01X9220704Y-2312923D01*
G01X9237136Y-2311324D01*
G01X9803766Y-2311324D01*
G01X9813705Y-2315666D01*
G01X9824449Y-2317151D01*
G01X9962151Y-2317151D01*
G01X9969131Y-2316531D01*
G01X10284884Y-2316531D01*
G01X10301899Y-2328830D01*
G01X10320803Y-2337965D01*
G01X10341012Y-2343655D01*
G01X10361905Y-2345724D01*
G01X10382838Y-2344108D01*
G01X10403166Y-2338857D01*
G01X10422263Y-2330133D01*
G01X10439540Y-2318205D01*
G01X10454466Y-2303439D01*
G01X10466581Y-2286292D01*
G01X10475511Y-2267291D01*
G01X10480981Y-2247021D01*
G01X10482824Y-2226107D01*
G01X10480981Y-2205193D01*
G01X10475511Y-2184923D01*
G01X10466581Y-2165922D01*
G01X10454466Y-2148774D01*
G01X10439540Y-2134009D01*
G01X10422263Y-2122081D01*
G01X10403166Y-2113357D01*
G01X10382838Y-2108106D01*
G01X10361905Y-2106490D01*
G01X10341012Y-2108559D01*
G01X10320803Y-2114248D01*
G01X10301899Y-2123383D01*
G01X10284884Y-2135683D01*
G01X9989585Y-2135683D01*
G01X9981489Y-2129689D01*
G01X9972143Y-2125930D01*
G01X9962151Y-2124649D01*
G01X9824449Y-2124649D01*
G01X9813705Y-2126134D01*
G01X9803766Y-2130476D01*
G01X9332258Y-2130476D01*
G01X9337883Y-2113519D01*
G01X9339823Y-2095760D01*
G01X9337992Y-2077989D01*
G01X9332471Y-2060998D01*
G01X9323506Y-2045545D01*
G01X9332264Y-2036780D01*
G01X9337886Y-2025738D01*
G01X9339824Y-2013500D01*
G01X9339824Y-1964273D01*
G01X9784825Y-1964273D01*
G01X9784825Y-2077527D01*
G01X9786765Y-2089771D01*
G01X9792393Y-2100817D01*
G01X9801159Y-2109583D01*
G01X9812205Y-2115212D01*
G01X9824449Y-2117151D01*
G01X9962151Y-2117151D01*
G01X9974395Y-2115212D01*
G01X9985441Y-2109583D01*
G01X9994207Y-2100817D01*
G01X9999835Y-2089771D01*
G01X10001775Y-2077527D01*
G01X10001775Y-1964273D01*
G01X10000350Y-1953743D01*
G01X9996178Y-1943970D01*
G01X9989558Y-1935657D01*
G01X9980968Y-1929403D01*
G01X9971024Y-1925656D01*
G01X9971024Y-1644207D01*
G01X9977476Y-1635948D01*
G01X9981538Y-1626286D01*
G01X9982924Y-1615897D01*
G01X9982924Y-1525905D01*
G01X9980985Y-1513661D01*
G01X9975356Y-1502615D01*
G01X9966590Y-1493849D01*
G01X9955544Y-1488220D01*
G01X9943300Y-1486281D01*
G01X9843300Y-1486281D01*
G01X9831056Y-1488220D01*
G01X9820010Y-1493849D01*
G01X9811244Y-1502615D01*
G01X9805615Y-1513661D01*
G01X9803676Y-1525905D01*
G01X9803676Y-1615897D01*
G01X9805062Y-1626286D01*
G01X9809124Y-1635948D01*
G01X9815576Y-1644207D01*
G01X9815576Y-1925656D01*
G01X9815576Y-1925656D01*
G01X9805632Y-1929403D01*
G01X9797042Y-1935657D01*
G01X9790422Y-1943970D01*
G01X9786250Y-1953743D01*
G01X9784825Y-1964273D01*
G01X9339824Y-1964273D01*
G01X9339824Y-1923500D01*
G01X9337885Y-1911256D01*
G01X9332256Y-1900210D01*
G01X9323490Y-1891444D01*
G01X9312444Y-1885815D01*
G01X9300200Y-1883876D01*
G01X9140200Y-1883876D01*
G01X9127956Y-1885815D01*
G01X9116910Y-1891444D01*
G01X9108144Y-1900210D01*
G01X9102515Y-1911256D01*
G01X9100576Y-1923500D01*
G01X9100576Y-2013500D01*
G01X9100808Y-2017776D01*
G01X8870351Y-2017776D01*
G01X8870351Y-2013949D01*
G01X8868411Y-2001705D01*
G01X8862783Y-1990659D01*
G01X8854017Y-1981893D01*
G01X8842971Y-1976265D01*
G01X8830727Y-1974325D01*
G01X8717473Y-1974325D01*
G01X8705229Y-1976265D01*
G01X8694183Y-1981893D01*
G01X8685417Y-1990659D01*
G01X8679788Y-2001705D01*
G01X8677849Y-2013949D01*
G01X8670351Y-2013949D01*
G01X8668412Y-2001705D01*
G01X8662783Y-1990659D01*
G01X8654017Y-1981893D01*
G01X8642971Y-1976265D01*
G01X8630727Y-1974325D01*
G01X8517473Y-1974325D01*
G01X8506943Y-1975750D01*
G01X8497170Y-1979922D01*
G01X8488857Y-1986542D01*
G01X8482603Y-1995132D01*
G01X8478856Y-2005076D01*
G01X8250019Y-2005076D01*
G01X8250019Y-1995100D01*
G01X8248080Y-1982856D01*
G01X8242452Y-1971810D01*
G01X8233685Y-1963044D01*
G01X8222640Y-1957415D01*
G01X8210395Y-1955476D01*
G01X8010395Y-1955476D01*
G01X7998151Y-1957415D01*
G01X7987105Y-1963044D01*
G01X7978339Y-1971810D01*
G01X7972711Y-1982856D01*
G01X7970771Y-1995100D01*
G01X7875524Y-1995100D01*
G01X7875524Y-1899094D01*
G01X7880794Y-1893824D01*
G01X7970865Y-1893824D01*
G01X7973442Y-1905399D01*
G01X7979327Y-1915693D01*
G01X7987996Y-1923785D01*
G01X7998671Y-1928949D01*
G01X8010395Y-1930724D01*
G01X8210395Y-1930724D01*
G01X8222640Y-1928785D01*
G01X8233685Y-1923156D01*
G01X8242452Y-1914390D01*
G01X8248080Y-1903344D01*
G01X8250019Y-1891100D01*
G01X8250019Y-1741100D01*
G01X8248080Y-1728856D01*
G01X8242452Y-1717810D01*
G01X8233685Y-1709044D01*
G01X8222640Y-1703415D01*
G01X8210395Y-1701476D01*
G01X8188119Y-1701476D01*
G01X8188119Y-1497599D01*
G01X8207095Y-1478623D01*
G01X9820963Y-1478623D01*
G01X9831611Y-1483756D01*
G01X9843300Y-1485519D01*
G01X9943300Y-1485519D01*
G01X9954788Y-1483817D01*
G01X10236200Y-1483817D01*
G01X10252003Y-1482194D01*
G01X10267146Y-1477391D01*
G01X10281356Y-1493337D01*
G01X10298176Y-1506501D01*
G01X10317069Y-1516464D01*
G01X10337433Y-1522909D01*
G01X10358618Y-1525629D01*
G01X10379949Y-1524539D01*
G01X10400746Y-1519672D01*
G01X10420347Y-1511184D01*
G01X10438125Y-1499346D01*
G01X10453515Y-1484535D01*
G01X10466025Y-1467223D01*
G01X10475257Y-1447963D01*
G01X10480917Y-1427367D01*
G01X10482824Y-1406093D01*
G01X10480917Y-1384819D01*
G01X10475257Y-1364224D01*
G01X10466025Y-1344963D01*
G01X10453515Y-1327651D01*
G01X10438125Y-1312840D01*
G01X10420347Y-1301002D01*
G01X10400746Y-1292514D01*
G01X10379949Y-1287648D01*
G01X10358618Y-1286557D01*
G01X10337433Y-1289277D01*
G01X10317069Y-1295722D01*
G01X10298176Y-1305685D01*
G01X10281356Y-1318850D01*
G01X10267146Y-1334795D01*
G01X10252003Y-1329993D01*
G01X10236200Y-1328369D01*
G01X9971795Y-1328369D01*
G01X9963503Y-1321816D01*
G01X9953774Y-1317688D01*
G01X9943300Y-1316279D01*
G01X9843300Y-1316279D01*
G01X9831611Y-1318042D01*
G01X9820963Y-1323175D01*
G01X8174901Y-1323175D01*
G01X8159738Y-1324668D01*
G01X8145157Y-1329091D01*
G01X8131720Y-1336274D01*
G01X8119942Y-1345940D01*
G01X8055436Y-1410446D01*
G01X8045770Y-1422224D01*
G01X8038588Y-1435661D01*
G01X8034165Y-1450242D01*
G01X8032671Y-1465405D01*
G01X8032671Y-1701476D01*
G01X8010395Y-1701476D01*
G01X7998671Y-1703251D01*
G01X7987996Y-1708415D01*
G01X7979327Y-1716507D01*
G01X7973442Y-1726801D01*
G01X7970865Y-1738376D01*
G01X7848600Y-1738376D01*
G01X7833437Y-1739869D01*
G01X7818856Y-1744292D01*
G01X7805419Y-1751475D01*
G01X7793641Y-1761141D01*
G01X7742841Y-1811941D01*
G01X7733175Y-1823719D01*
G01X7725992Y-1837156D01*
G01X7721569Y-1851737D01*
G01X7720076Y-1866900D01*
G01X7720076Y-5283200D01*
G01X7720336Y-5289550D01*
G01X7720076Y-5295900D01*
G01X7720076Y-5295900D01*
G01X7320026Y-5295900D01*
G01X7320026Y-5208200D01*
G01X7318087Y-5195956D01*
G01X7312458Y-5184910D01*
G01X7303692Y-5176144D01*
G01X7292646Y-5170515D01*
G01X7280402Y-5168576D01*
G01X7080402Y-5168576D01*
G01X7069822Y-5170015D01*
G01X7060010Y-5174226D01*
G01X7051679Y-5180905D01*
G01X7045434Y-5189565D01*
G01X6913544Y-5189565D01*
G01X6909797Y-5179622D01*
G01X6903543Y-5171031D01*
G01X6895230Y-5164412D01*
G01X6885457Y-5160240D01*
G01X6874927Y-5158815D01*
G01X6874927Y-5158815D01*
G01X6761673Y-5158815D01*
G01X6749429Y-5160754D01*
G01X6738383Y-5166382D01*
G01X6729617Y-5175149D01*
G01X6723988Y-5186194D01*
G01X6722049Y-5198439D01*
G01X6714551Y-5198439D01*
G01X6713066Y-5187695D01*
G01X6708724Y-5177755D01*
G01X6708724Y-4751400D01*
G01X6706987Y-4733759D01*
G01X6701841Y-4716796D01*
G01X6693485Y-4701163D01*
G01X6682240Y-4687461D01*
G01X6515539Y-4520761D01*
G01X6501837Y-4509515D01*
G01X6486204Y-4501159D01*
G01X6469241Y-4496013D01*
G01X6451600Y-4494276D01*
G01X5972472Y-4494276D01*
G01X5957988Y-4481467D01*
G01X5941760Y-4470954D01*
G01X5924149Y-4462973D01*
G01X5905546Y-4457700D01*
G01X5926797Y-4451425D01*
G01X5946670Y-4441621D01*
G01X5964582Y-4428577D01*
G01X5980011Y-4412672D01*
G01X5992505Y-4394371D01*
G01X6001700Y-4374210D01*
G01X6007327Y-4352778D01*
G01X6009221Y-4330700D01*
G01X6007327Y-4308622D01*
G01X6001700Y-4287190D01*
G01X5992505Y-4267029D01*
G01X5980011Y-4248728D01*
G01X5964582Y-4232823D01*
G01X5946670Y-4219779D01*
G01X5926797Y-4209975D01*
G01X5905546Y-4203700D01*
G01X5926797Y-4197425D01*
G01X5946670Y-4187621D01*
G01X5964582Y-4174577D01*
G01X5980011Y-4158672D01*
G01X5992505Y-4140371D01*
G01X6001700Y-4120210D01*
G01X6007327Y-4098778D01*
G01X6009221Y-4076700D01*
G01X6007327Y-4054622D01*
G01X6001700Y-4033190D01*
G01X5992505Y-4013029D01*
G01X5980011Y-3994728D01*
G01X5964582Y-3978823D01*
G01X5946670Y-3965779D01*
G01X5926797Y-3955975D01*
G01X5905546Y-3949700D01*
G01X5926797Y-3943425D01*
G01X5946670Y-3933621D01*
G01X5964582Y-3920577D01*
G01X5980011Y-3904672D01*
G01X5992505Y-3886371D01*
G01X6001700Y-3866210D01*
G01X6007327Y-3844778D01*
G01X6009221Y-3822700D01*
G01X6007327Y-3800622D01*
G01X6001700Y-3779190D01*
G01X5992505Y-3759029D01*
G01X5980011Y-3740728D01*
G01X5964582Y-3724823D01*
G01X5946670Y-3711779D01*
G01X5926797Y-3701975D01*
G01X5909610Y-3696900D01*
G01X7028078Y-3696900D01*
G01X7028078Y-3846900D01*
G01X7030018Y-3859144D01*
G01X7035646Y-3870190D01*
G01X7044412Y-3878956D01*
G01X7055458Y-3884585D01*
G01X7067702Y-3886524D01*
G01X7267702Y-3886524D01*
G01X7267702Y-3886524D01*
G01X7279946Y-3884585D01*
G01X7290992Y-3878956D01*
G01X7299758Y-3870190D01*
G01X7305387Y-3859144D01*
G01X7307326Y-3846900D01*
G01X7307326Y-3696900D01*
G01X7305387Y-3684656D01*
G01X7299758Y-3673610D01*
G01X7290992Y-3664844D01*
G01X7279946Y-3659215D01*
G01X7267702Y-3657276D01*
G01X7067702Y-3657276D01*
G01X7055458Y-3659215D01*
G01X7044412Y-3664844D01*
G01X7035646Y-3673610D01*
G01X7030018Y-3684656D01*
G01X7028078Y-3696900D01*
G01X5909610Y-3696900D01*
G01X5905546Y-3695700D01*
G01X5926797Y-3689425D01*
G01X5946669Y-3679622D01*
G01X5964581Y-3666578D01*
G01X5980010Y-3650673D01*
G01X5992504Y-3632373D01*
G01X6001699Y-3612213D01*
G01X6007326Y-3590780D01*
G01X6009221Y-3568703D01*
G01X6007328Y-3546626D01*
G01X6001702Y-3525193D01*
G01X5992508Y-3505032D01*
G01X5980014Y-3486732D01*
G01X5964586Y-3470827D01*
G01X5946675Y-3457781D01*
G01X5926803Y-3447977D01*
G01X5905552Y-3441701D01*
G01X5924153Y-3436428D01*
G01X5941763Y-3428447D01*
G01X5957990Y-3417935D01*
G01X5972472Y-3405127D01*
G01X6134748Y-3405127D01*
G01X6311461Y-3581839D01*
G01X6325163Y-3593085D01*
G01X6340796Y-3601441D01*
G01X6357759Y-3606587D01*
G01X6375400Y-3608324D01*
G01X6528437Y-3608324D01*
G01X6534772Y-3615843D01*
G01X6542763Y-3621571D01*
G01X6551918Y-3625155D01*
G01X6561673Y-3626375D01*
G01X6674927Y-3626375D01*
G01X6687171Y-3624435D01*
G01X6698217Y-3618807D01*
G01X6706983Y-3610041D01*
G01X6712612Y-3598995D01*
G01X6714551Y-3586751D01*
G01X6714551Y-3449049D01*
G01X6722049Y-3449049D01*
G01X6722049Y-3586751D01*
G01X6723988Y-3598995D01*
G01X6729617Y-3610041D01*
G01X6738383Y-3618807D01*
G01X6749429Y-3624435D01*
G01X6761673Y-3626375D01*
G01X6874927Y-3626375D01*
G01X6885457Y-3624950D01*
G01X6895230Y-3620778D01*
G01X6903543Y-3614158D01*
G01X6909797Y-3605568D01*
G01X6913544Y-3595624D01*
G01X7028172Y-3595624D01*
G01X7030748Y-3607199D01*
G01X7036634Y-3617493D01*
G01X7045303Y-3625585D01*
G01X7055978Y-3630749D01*
G01X7067702Y-3632524D01*
G01X7267702Y-3632524D01*
G01X7279946Y-3630585D01*
G01X7290992Y-3624956D01*
G01X7299758Y-3616190D01*
G01X7305387Y-3605144D01*
G01X7307326Y-3592900D01*
G01X7307326Y-3442900D01*
G01X7305387Y-3430656D01*
G01X7299758Y-3419610D01*
G01X7290992Y-3410844D01*
G01X7279946Y-3405215D01*
G01X7267702Y-3403276D01*
G01X7067702Y-3403276D01*
G01X7055978Y-3405051D01*
G01X7045303Y-3410215D01*
G01X7036634Y-3418307D01*
G01X7030748Y-3428601D01*
G01X7028172Y-3440176D01*
G01X6913544Y-3440176D01*
G01X6909797Y-3430232D01*
G01X6903543Y-3421642D01*
G01X6895230Y-3415022D01*
G01X6885457Y-3410850D01*
G01X6874927Y-3409425D01*
G01X6874927Y-3409425D01*
G01X6761673Y-3409425D01*
G01X6749429Y-3411365D01*
G01X6738383Y-3416993D01*
G01X6729617Y-3425759D01*
G01X6723988Y-3436805D01*
G01X6722049Y-3449049D01*
G01X6714551Y-3449049D01*
G01X6712612Y-3436805D01*
G01X6706983Y-3425759D01*
G01X6698217Y-3416993D01*
G01X6687171Y-3411365D01*
G01X6674927Y-3409425D01*
G01X6561673Y-3409425D01*
G01X6551918Y-3410645D01*
G01X6542763Y-3414229D01*
G01X6534772Y-3419957D01*
G01X6528437Y-3427476D01*
G01X6412855Y-3427476D01*
G01X6236142Y-3250763D01*
G01X6222439Y-3239518D01*
G01X6206806Y-3231162D01*
G01X6189843Y-3226016D01*
G01X6172203Y-3224279D01*
G01X5972472Y-3224279D01*
G01X5957988Y-3211469D01*
G01X5941760Y-3200957D01*
G01X5924149Y-3192975D01*
G01X5905546Y-3187703D01*
G01X5924149Y-3182430D01*
G01X5941760Y-3174448D01*
G01X5957988Y-3163936D01*
G01X5972472Y-3151127D01*
G01X6413497Y-3151127D01*
G01X6431138Y-3149389D01*
G01X6448101Y-3144243D01*
G01X6463734Y-3135887D01*
G01X6477437Y-3124642D01*
G01X6682240Y-2919839D01*
G01X6693485Y-2906137D01*
G01X6701841Y-2890504D01*
G01X6706987Y-2873541D01*
G01X6708724Y-2855900D01*
G01X6708724Y-1995100D01*
G01X7040778Y-1995100D01*
G01X7040778Y-2145100D01*
G01X7042718Y-2157344D01*
G01X7048346Y-2168390D01*
G01X7057112Y-2177156D01*
G01X7068158Y-2182785D01*
G01X7080402Y-2184724D01*
G01X7280402Y-2184724D01*
G01X7280402Y-2184724D01*
G01X7292646Y-2182785D01*
G01X7303692Y-2177156D01*
G01X7312458Y-2168390D01*
G01X7318087Y-2157344D01*
G01X7320026Y-2145100D01*
G01X7320026Y-1995100D01*
G01X7318087Y-1982856D01*
G01X7312458Y-1971810D01*
G01X7303692Y-1963044D01*
G01X7292646Y-1957415D01*
G01X7280402Y-1955476D01*
G01X7080402Y-1955476D01*
G01X7068158Y-1957415D01*
G01X7057112Y-1963044D01*
G01X7048346Y-1971810D01*
G01X7042718Y-1982856D01*
G01X7040778Y-1995100D01*
G01X6708724Y-1995100D01*
G01X6708724Y-1905634D01*
G01X6713066Y-1895695D01*
G01X6714551Y-1884951D01*
G01X6714551Y-1747249D01*
G01X6722049Y-1747249D01*
G01X6722049Y-1884951D01*
G01X6723988Y-1897195D01*
G01X6729617Y-1908241D01*
G01X6738383Y-1917007D01*
G01X6749429Y-1922635D01*
G01X6761673Y-1924575D01*
G01X6874927Y-1924575D01*
G01X6885457Y-1923150D01*
G01X6895230Y-1918978D01*
G01X6903543Y-1912358D01*
G01X6909797Y-1903768D01*
G01X6913544Y-1893824D01*
G01X7040872Y-1893824D01*
G01X7040872Y-1893824D01*
G01X7043448Y-1905399D01*
G01X7049334Y-1915693D01*
G01X7058003Y-1923785D01*
G01X7068678Y-1928949D01*
G01X7080402Y-1930724D01*
G01X7280402Y-1930724D01*
G01X7292646Y-1928785D01*
G01X7303692Y-1923156D01*
G01X7312458Y-1914390D01*
G01X7318087Y-1903344D01*
G01X7320026Y-1891100D01*
G01X7320026Y-1741100D01*
G01X7318087Y-1728856D01*
G01X7312458Y-1717810D01*
G01X7303692Y-1709044D01*
G01X7292646Y-1703415D01*
G01X7280402Y-1701476D01*
G01X7080402Y-1701476D01*
G01X7068678Y-1703251D01*
G01X7058003Y-1708415D01*
G01X7049334Y-1716507D01*
G01X7043448Y-1726801D01*
G01X7040872Y-1738376D01*
G01X6913544Y-1738376D01*
G01X6909797Y-1728432D01*
G01X6903543Y-1719842D01*
G01X6895230Y-1713222D01*
G01X6885457Y-1709050D01*
G01X6874927Y-1707625D01*
G01X6761673Y-1707625D01*
G01X6749429Y-1709565D01*
G01X6738383Y-1715193D01*
G01X6729617Y-1723959D01*
G01X6723988Y-1735005D01*
G01X6722049Y-1747249D01*
G01X6714551Y-1747249D01*
G01X6712612Y-1735005D01*
G01X6706983Y-1723959D01*
G01X6698217Y-1715193D01*
G01X6687171Y-1709565D01*
G01X6674927Y-1707625D01*
G01X6561673Y-1707625D01*
G01X6549429Y-1709565D01*
G01X6538383Y-1715193D01*
G01X6529617Y-1723959D01*
G01X6523989Y-1735005D01*
G01X6522049Y-1747249D01*
G01X6522049Y-1884951D01*
G01X6523534Y-1895695D01*
G01X6527876Y-1905634D01*
G01X6527876Y-2818445D01*
G01X6376043Y-2970279D01*
G01X5972472Y-2970279D01*
G01X5957988Y-2957469D01*
G01X5941760Y-2946957D01*
G01X5924149Y-2938975D01*
G01X5905546Y-2933703D01*
G01X5927013Y-2927343D01*
G01X5947066Y-2917384D01*
G01X5965106Y-2904122D01*
G01X5980595Y-2887954D01*
G01X5993070Y-2869362D01*
G01X6002160Y-2848901D01*
G01X6007593Y-2827180D01*
G01X6009208Y-2804849D01*
G01X6006955Y-2782573D01*
G01X6000903Y-2761016D01*
G01X5991232Y-2740823D01*
G01X5978230Y-2722596D01*
G01X5962285Y-2706877D01*
G01X5943873Y-2694137D01*
G01X5923544Y-2684756D01*
G01X5901903Y-2679012D01*
G01X5879597Y-2677079D01*
G01X5857291Y-2679012D01*
G01X5835650Y-2684756D01*
G01X5815321Y-2694137D01*
G01X5796909Y-2706877D01*
G01X5780965Y-2722596D01*
G01X5767963Y-2740823D01*
G01X5758291Y-2761016D01*
G01X5752239Y-2782573D01*
G01X5749987Y-2804849D01*
G01X5751601Y-2827180D01*
G01X5757034Y-2848901D01*
G01X5766124Y-2869362D01*
G01X5778600Y-2887954D01*
G01X5794088Y-2904122D01*
G01X5812128Y-2917384D01*
G01X5832181Y-2927343D01*
G01X5853648Y-2933703D01*
G01X5832397Y-2939978D01*
G01X5812524Y-2949781D01*
G01X5794612Y-2962826D01*
G01X5779183Y-2978731D01*
G01X5766689Y-2997031D01*
G01X5757494Y-3017192D01*
G01X5751867Y-3038625D01*
G01X5749973Y-3060703D01*
G01X5751867Y-3082780D01*
G01X5757494Y-3104213D01*
G01X5766689Y-3124374D01*
G01X5779183Y-3142674D01*
G01X5794612Y-3158579D01*
G01X5812524Y-3171624D01*
G01X5832397Y-3181427D01*
G01X5853648Y-3187703D01*
G01X5832397Y-3193978D01*
G01X5812525Y-3203781D01*
G01X5794613Y-3216825D01*
G01X5779184Y-3232729D01*
G01X5766690Y-3251029D01*
G01X5757495Y-3271190D01*
G01X5751868Y-3292622D01*
G01X5749973Y-3314699D01*
G01X5751867Y-3336777D01*
G01X5757493Y-3358209D01*
G01X5766687Y-3378370D01*
G01X5779180Y-3396671D01*
G01X5794608Y-3412576D01*
G01X5812520Y-3425621D01*
G01X5832391Y-3435425D01*
G01X5853642Y-3441701D01*
G01X5832391Y-3447977D01*
G01X5812520Y-3457781D01*
G01X5794608Y-3470827D01*
G01X5779180Y-3486732D01*
G01X5766687Y-3505032D01*
G01X5757493Y-3525193D01*
G01X5751867Y-3546626D01*
G01X5749973Y-3568703D01*
G01X5751868Y-3590780D01*
G01X5757495Y-3612213D01*
G01X5766690Y-3632373D01*
G01X5779184Y-3650673D01*
G01X5794613Y-3666578D01*
G01X5812525Y-3679622D01*
G01X5832397Y-3689425D01*
G01X5853648Y-3695700D01*
G01X5832397Y-3701975D01*
G01X5812524Y-3711779D01*
G01X5794612Y-3724823D01*
G01X5779183Y-3740728D01*
G01X5766689Y-3759029D01*
G01X5757494Y-3779190D01*
G01X5751867Y-3800622D01*
G01X5749973Y-3822700D01*
G01X5751867Y-3844778D01*
G01X5757494Y-3866210D01*
G01X5766689Y-3886371D01*
G01X5779183Y-3904672D01*
G01X5794612Y-3920577D01*
G01X5812524Y-3933621D01*
G01X5832397Y-3943425D01*
G01X5853648Y-3949700D01*
G01X5832397Y-3955975D01*
G01X5812524Y-3965779D01*
G01X5794612Y-3978823D01*
G01X5779183Y-3994728D01*
G01X5766689Y-4013029D01*
G01X5757494Y-4033190D01*
G01X5751867Y-4054622D01*
G01X5749973Y-4076700D01*
G01X5751867Y-4098778D01*
G01X5757494Y-4120210D01*
G01X5766689Y-4140371D01*
G01X5779183Y-4158672D01*
G01X5794612Y-4174577D01*
G01X5812524Y-4187621D01*
G01X5832397Y-4197425D01*
G01X5853648Y-4203700D01*
G01X5832397Y-4209975D01*
G01X5812524Y-4219779D01*
G01X5794612Y-4232823D01*
G01X5779183Y-4248728D01*
G01X5766689Y-4267029D01*
G01X5757494Y-4287190D01*
G01X5751867Y-4308622D01*
G01X5749973Y-4330700D01*
G01X5751867Y-4352778D01*
G01X5757494Y-4374210D01*
G01X5766689Y-4394371D01*
G01X5779183Y-4412672D01*
G01X5794612Y-4428577D01*
G01X5812524Y-4441621D01*
G01X5832397Y-4451425D01*
G01X5853648Y-4457700D01*
G01X5832397Y-4463975D01*
G01X5812525Y-4473778D01*
G01X5794613Y-4486822D01*
G01X5779184Y-4502727D01*
G01X5766690Y-4521027D01*
G01X5757495Y-4541187D01*
G01X5751868Y-4562620D01*
G01X5749973Y-4584697D01*
G01X5751867Y-4606774D01*
G01X5757493Y-4628207D01*
G01X5766687Y-4648368D01*
G01X5779180Y-4666668D01*
G01X5794608Y-4682573D01*
G01X5812520Y-4695619D01*
G01X5832391Y-4705423D01*
G01X5853642Y-4711699D01*
G01X5832391Y-4717975D01*
G01X5812520Y-4727779D01*
G01X5794608Y-4740824D01*
G01X5779180Y-4756729D01*
G01X5766687Y-4775030D01*
G01X5757493Y-4795191D01*
G01X5751867Y-4816623D01*
G01X5749973Y-4838701D01*
G01X5751868Y-4860778D01*
G01X5757495Y-4882210D01*
G01X5766690Y-4902371D01*
G01X5779184Y-4920671D01*
G01X5794613Y-4936575D01*
G01X5812525Y-4949619D01*
G01X5832397Y-4959422D01*
G01X5853648Y-4965697D01*
G01X5835540Y-4970790D01*
G01X5818360Y-4978451D01*
G01X5802469Y-4988517D01*
G01X5788202Y-5000777D01*
G01X5775860Y-5014973D01*
G01X5775860Y-5014973D01*
G01X5715003Y-5014973D01*
G01X5699839Y-5016467D01*
G01X5685259Y-5020890D01*
G01X5671821Y-5028072D01*
G01X5660043Y-5037738D01*
G01X5406041Y-5291741D01*
G01X5396375Y-5303519D01*
G01X5389192Y-5316956D01*
G01X5384769Y-5331537D01*
G01X5383276Y-5346700D01*
G01X4230477Y-5346700D01*
G01X5443418Y-4133759D01*
G01X5454664Y-4120056D01*
G01X5463020Y-4104423D01*
G01X5468165Y-4087460D01*
G01X5469903Y-4069819D01*
G01X5469903Y-2404704D01*
G01X5584975Y-2404704D01*
G01X5586981Y-2432758D01*
G01X5592960Y-2460241D01*
G01X5602789Y-2486593D01*
G01X5616268Y-2511278D01*
G01X5633123Y-2533793D01*
G01X5653010Y-2553681D01*
G01X5675526Y-2570536D01*
G01X5700211Y-2584015D01*
G01X5726563Y-2593844D01*
G01X5754045Y-2599822D01*
G01X5782099Y-2601829D01*
G01X5810153Y-2599822D01*
G01X5837636Y-2593844D01*
G01X5863988Y-2584015D01*
G01X5888673Y-2570536D01*
G01X5911188Y-2553681D01*
G01X5931076Y-2533793D01*
G01X5947931Y-2511278D01*
G01X5961410Y-2486593D01*
G01X5971239Y-2460241D01*
G01X5977217Y-2432758D01*
G01X5979224Y-2404704D01*
G01X5977217Y-2376651D01*
G01X5971239Y-2349168D01*
G01X5961410Y-2322816D01*
G01X5947931Y-2298131D01*
G01X5931076Y-2275615D01*
G01X5911188Y-2255728D01*
G01X5888673Y-2238873D01*
G01X5863988Y-2225394D01*
G01X5837636Y-2215565D01*
G01X5810153Y-2209586D01*
G01X5782099Y-2207580D01*
G01X5754045Y-2209586D01*
G01X5726563Y-2215565D01*
G01X5700211Y-2225394D01*
G01X5675526Y-2238873D01*
G01X5653010Y-2255728D01*
G01X5633123Y-2275615D01*
G01X5616268Y-2298131D01*
G01X5602789Y-2322816D01*
G01X5592960Y-2349168D01*
G01X5586981Y-2376651D01*
G01X5584975Y-2404704D01*
G01X5584975Y-2404704D01*
G01X5469903Y-2404704D01*
G01X5469903Y-1332341D01*
G01X5480781Y-1329205D01*
G01X5490328Y-1323121D01*
G01X5497765Y-1314585D01*
G01X5502485Y-1304295D01*
G01X5504103Y-1293090D01*
G01X5504103Y-1123090D01*
G01X5502163Y-1110846D01*
G01X5496535Y-1099800D01*
G01X5487769Y-1091034D01*
G01X5476723Y-1085406D01*
G01X5464479Y-1083466D01*
G01X5294479Y-1083466D01*
G01X5282234Y-1085406D01*
G01X5271188Y-1091034D01*
G01X5262422Y-1099800D01*
G01X5256794Y-1110846D01*
G01X5254855Y-1123090D01*
G01X5254855Y-1293090D01*
G01X5256472Y-1304295D01*
G01X5261192Y-1314585D01*
G01X5268629Y-1323121D01*
G01X5278177Y-1329205D01*
G01X5289055Y-1332341D01*
G01X5289055Y-4032364D01*
G01X3724178Y-5597241D01*
G01X3721780Y-5575645D01*
G01X3715809Y-5554754D01*
G01X3706432Y-5535153D01*
G01X3693912Y-5517394D01*
G01X3678602Y-5501976D01*
G01X3660932Y-5489331D01*
G01X3641398Y-5479816D01*
G01X3620549Y-5473697D01*
G01X3642003Y-5467343D01*
G01X3662044Y-5457394D01*
G01X3680075Y-5444147D01*
G01X3695560Y-5427996D01*
G01X3708037Y-5409423D01*
G01X3717134Y-5388981D01*
G01X3722580Y-5367279D01*
G01X3724213Y-5344964D01*
G01X5118534Y-3950642D01*
G01X5129780Y-3936940D01*
G01X5138136Y-3921307D01*
G01X5143281Y-3904344D01*
G01X5145019Y-3886703D01*
G01X5145019Y-1284813D01*
G01X5157318Y-1267798D01*
G01X5166454Y-1248895D01*
G01X5172143Y-1228685D01*
G01X5174212Y-1207792D01*
G01X5172596Y-1186859D01*
G01X5167345Y-1166531D01*
G01X5158621Y-1147435D01*
G01X5146693Y-1130157D01*
G01X5131928Y-1115231D01*
G01X5114780Y-1103117D01*
G01X5095779Y-1094187D01*
G01X5075509Y-1088716D01*
G01X5054595Y-1086874D01*
G01X5033681Y-1088716D01*
G01X5013411Y-1094187D01*
G01X4994410Y-1103117D01*
G01X4977262Y-1115231D01*
G01X4962497Y-1130157D01*
G01X4950569Y-1147435D01*
G01X4941845Y-1166531D01*
G01X4936594Y-1186859D01*
G01X4934978Y-1207792D01*
G01X4937047Y-1228685D01*
G01X4942736Y-1248895D01*
G01X4951871Y-1267798D01*
G01X4964171Y-1284813D01*
G01X4964171Y-3849248D01*
G01X3724178Y-5089241D01*
G01X3721780Y-5067645D01*
G01X3715809Y-5046754D01*
G01X3706432Y-5027153D01*
G01X3693912Y-5009394D01*
G01X3678602Y-4993976D01*
G01X3660932Y-4981331D01*
G01X3641398Y-4971816D01*
G01X3620549Y-4965697D01*
G01X3641800Y-4959422D01*
G01X3661672Y-4949619D01*
G01X3679585Y-4936575D01*
G01X3695013Y-4920671D01*
G01X3707508Y-4902371D01*
G01X3716703Y-4882210D01*
G01X3722330Y-4860778D01*
G01X3724224Y-4838701D01*
G01X3722331Y-4816623D01*
G01X3716705Y-4795191D01*
G01X3707511Y-4775030D01*
G01X3695017Y-4756729D01*
G01X3679589Y-4740824D01*
G01X3661678Y-4727779D01*
G01X3641806Y-4717975D01*
G01X3620555Y-4711699D01*
G01X3641806Y-4705423D01*
G01X3661678Y-4695619D01*
G01X3679589Y-4682573D01*
G01X3695017Y-4666668D01*
G01X3707511Y-4648368D01*
G01X3716705Y-4628207D01*
G01X3722331Y-4606774D01*
G01X3724224Y-4584697D01*
G01X3722330Y-4562620D01*
G01X3716703Y-4541187D01*
G01X3707508Y-4521027D01*
G01X3695013Y-4502727D01*
G01X3679585Y-4486822D01*
G01X3661672Y-4473778D01*
G01X3641800Y-4463975D01*
G01X3620549Y-4457700D01*
G01X3641801Y-4451425D01*
G01X3661673Y-4441621D01*
G01X3679585Y-4428577D01*
G01X3695014Y-4412672D01*
G01X3707509Y-4394371D01*
G01X3716704Y-4374210D01*
G01X3722330Y-4352778D01*
G01X3724224Y-4330700D01*
G01X3722330Y-4308622D01*
G01X3716704Y-4287190D01*
G01X3707509Y-4267029D01*
G01X3695014Y-4248728D01*
G01X3679585Y-4232823D01*
G01X3661673Y-4219779D01*
G01X3641801Y-4209975D01*
G01X3620549Y-4203700D01*
G01X3641801Y-4197425D01*
G01X3661673Y-4187621D01*
G01X3679585Y-4174577D01*
G01X3695014Y-4158672D01*
G01X3707509Y-4140371D01*
G01X3716704Y-4120210D01*
G01X3722330Y-4098778D01*
G01X3724224Y-4076700D01*
G01X3722330Y-4054622D01*
G01X3716704Y-4033190D01*
G01X3707509Y-4013029D01*
G01X3695014Y-3994728D01*
G01X3679585Y-3978823D01*
G01X3661673Y-3965779D01*
G01X3641801Y-3955975D01*
G01X3620549Y-3949700D01*
G01X3641801Y-3943425D01*
G01X3661673Y-3933621D01*
G01X3679585Y-3920577D01*
G01X3695014Y-3904672D01*
G01X3707509Y-3886371D01*
G01X3716704Y-3866210D01*
G01X3722330Y-3844778D01*
G01X3724224Y-3822700D01*
G01X3722330Y-3800622D01*
G01X3716704Y-3779190D01*
G01X3707509Y-3759029D01*
G01X3695014Y-3740728D01*
G01X3679585Y-3724823D01*
G01X3661673Y-3711779D01*
G01X3641801Y-3701975D01*
G01X3620549Y-3695700D01*
G01X3641800Y-3689425D01*
G01X3661672Y-3679622D01*
G01X3679585Y-3666578D01*
G01X3695013Y-3650673D01*
G01X3707508Y-3632373D01*
G01X3716703Y-3612213D01*
G01X3722330Y-3590780D01*
G01X3724224Y-3568703D01*
G01X3722331Y-3546626D01*
G01X3716705Y-3525193D01*
G01X3707511Y-3505032D01*
G01X3695017Y-3486732D01*
G01X3679589Y-3470827D01*
G01X3661678Y-3457781D01*
G01X3641806Y-3447977D01*
G01X3620555Y-3441701D01*
G01X3641806Y-3435425D01*
G01X3661678Y-3425621D01*
G01X3679589Y-3412576D01*
G01X3695017Y-3396671D01*
G01X3707511Y-3378370D01*
G01X3716705Y-3358209D01*
G01X3722331Y-3336777D01*
G01X3724224Y-3314699D01*
G01X3722330Y-3292622D01*
G01X3716703Y-3271190D01*
G01X3707508Y-3251029D01*
G01X3695013Y-3232729D01*
G01X3679585Y-3216825D01*
G01X3661672Y-3203781D01*
G01X3641800Y-3193978D01*
G01X3620549Y-3187703D01*
G01X3641801Y-3181427D01*
G01X3661673Y-3171624D01*
G01X3679585Y-3158579D01*
G01X3695014Y-3142674D01*
G01X3707509Y-3124374D01*
G01X3716704Y-3104213D01*
G01X3722330Y-3082780D01*
G01X3724224Y-3060703D01*
G01X3722330Y-3038625D01*
G01X3716704Y-3017192D01*
G01X3707509Y-2997031D01*
G01X3695014Y-2978731D01*
G01X3679585Y-2962826D01*
G01X3661673Y-2949781D01*
G01X3641801Y-2939978D01*
G01X3620549Y-2933703D01*
G01X3642017Y-2927343D01*
G01X3662069Y-2917384D01*
G01X3680109Y-2904122D01*
G01X3695598Y-2887954D01*
G01X3708073Y-2869362D01*
G01X3717163Y-2848901D01*
G01X3722596Y-2827180D01*
G01X3724211Y-2804849D01*
G01X3721958Y-2782573D01*
G01X3715906Y-2761016D01*
G01X3706235Y-2740823D01*
G01X3693233Y-2722596D01*
G01X3677288Y-2706877D01*
G01X3658876Y-2694137D01*
G01X3638547Y-2684756D01*
G01X3616906Y-2679012D01*
G01X3594600Y-2677079D01*
G01X3572294Y-2679012D01*
G01X3550654Y-2684756D01*
G01X3530324Y-2694137D01*
G01X3511913Y-2706877D01*
G01X3495968Y-2722596D01*
G01X3482966Y-2740823D01*
G01X3473294Y-2761016D01*
G01X3467242Y-2782573D01*
G01X3464990Y-2804849D01*
G01X3466604Y-2827180D01*
G01X3472038Y-2848901D01*
G01X3481127Y-2869362D01*
G01X3493603Y-2887954D01*
G01X3509092Y-2904122D01*
G01X3527131Y-2917384D01*
G01X3547184Y-2927343D01*
G01X3568652Y-2933703D01*
G01X3547400Y-2939978D01*
G01X3527528Y-2949781D01*
G01X3509615Y-2962826D01*
G01X3494186Y-2978731D01*
G01X3481692Y-2997031D01*
G01X3472497Y-3017192D01*
G01X3466871Y-3038625D01*
G01X3464977Y-3060703D01*
G01X3466871Y-3082780D01*
G01X3472497Y-3104213D01*
G01X3481692Y-3124374D01*
G01X3494186Y-3142674D01*
G01X3509615Y-3158579D01*
G01X3527528Y-3171624D01*
G01X3547400Y-3181427D01*
G01X3568652Y-3187703D01*
G01X3547400Y-3193978D01*
G01X3527528Y-3203781D01*
G01X3509616Y-3216825D01*
G01X3494187Y-3232729D01*
G01X3481693Y-3251029D01*
G01X3472498Y-3271190D01*
G01X3466871Y-3292622D01*
G01X3464977Y-3314699D01*
G01X3466870Y-3336777D01*
G01X3472496Y-3358209D01*
G01X3481690Y-3378370D01*
G01X3494183Y-3396671D01*
G01X3509611Y-3412576D01*
G01X3527523Y-3425621D01*
G01X3547394Y-3435425D01*
G01X3568645Y-3441701D01*
G01X3547394Y-3447977D01*
G01X3527523Y-3457781D01*
G01X3509611Y-3470827D01*
G01X3494183Y-3486732D01*
G01X3481690Y-3505032D01*
G01X3472496Y-3525193D01*
G01X3466870Y-3546626D01*
G01X3464977Y-3568703D01*
G01X3466871Y-3590780D01*
G01X3472498Y-3612213D01*
G01X3481693Y-3632373D01*
G01X3494187Y-3650673D01*
G01X3509616Y-3666578D01*
G01X3527528Y-3679622D01*
G01X3547400Y-3689425D01*
G01X3568652Y-3695700D01*
G01X3547400Y-3701975D01*
G01X3527528Y-3711779D01*
G01X3509615Y-3724823D01*
G01X3494186Y-3740728D01*
G01X3481692Y-3759029D01*
G01X3472497Y-3779190D01*
G01X3466871Y-3800622D01*
G01X3464977Y-3822700D01*
G01X3466871Y-3844778D01*
G01X3472497Y-3866210D01*
G01X3481692Y-3886371D01*
G01X3494186Y-3904672D01*
G01X3509615Y-3920577D01*
G01X3527528Y-3933621D01*
G01X3547400Y-3943425D01*
G01X3568652Y-3949700D01*
G01X3547400Y-3955975D01*
G01X3527528Y-3965779D01*
G01X3509615Y-3978823D01*
G01X3494186Y-3994728D01*
G01X3481692Y-4013029D01*
G01X3472497Y-4033190D01*
G01X3466871Y-4054622D01*
G01X3464977Y-4076700D01*
G01X3466871Y-4098778D01*
G01X3472497Y-4120210D01*
G01X3481692Y-4140371D01*
G01X3494186Y-4158672D01*
G01X3509615Y-4174577D01*
G01X3527528Y-4187621D01*
G01X3547400Y-4197425D01*
G01X3568652Y-4203700D01*
G01X3547400Y-4209975D01*
G01X3527528Y-4219779D01*
G01X3509615Y-4232823D01*
G01X3494186Y-4248728D01*
G01X3481692Y-4267029D01*
G01X3472497Y-4287190D01*
G01X3466871Y-4308622D01*
G01X3464977Y-4330700D01*
G01X3466871Y-4352778D01*
G01X3472497Y-4374210D01*
G01X3481692Y-4394371D01*
G01X3494186Y-4412672D01*
G01X3509615Y-4428577D01*
G01X3527528Y-4441621D01*
G01X3547400Y-4451425D01*
G01X3568652Y-4457700D01*
G01X3547400Y-4463975D01*
G01X3527528Y-4473778D01*
G01X3509616Y-4486822D01*
G01X3494187Y-4502727D01*
G01X3481693Y-4521027D01*
G01X3472498Y-4541187D01*
G01X3466871Y-4562620D01*
G01X3464977Y-4584697D01*
G01X3466870Y-4606774D01*
G01X3472496Y-4628207D01*
G01X3481690Y-4648368D01*
G01X3494183Y-4666668D01*
G01X3509611Y-4682573D01*
G01X3527523Y-4695619D01*
G01X3547394Y-4705423D01*
G01X3568645Y-4711699D01*
G01X3547394Y-4717975D01*
G01X3527523Y-4727779D01*
G01X3509611Y-4740824D01*
G01X3494183Y-4756729D01*
G01X3481690Y-4775030D01*
G01X3472496Y-4795191D01*
G01X3466870Y-4816623D01*
G01X3464977Y-4838701D01*
G01X3466871Y-4860778D01*
G01X3472498Y-4882210D01*
G01X3481693Y-4902371D01*
G01X3494187Y-4920671D01*
G01X3509616Y-4936575D01*
G01X3527528Y-4949619D01*
G01X3547400Y-4959422D01*
G01X3568652Y-4965697D01*
G01X3547400Y-4971973D01*
G01X3527528Y-4981776D01*
G01X3509615Y-4994821D01*
G01X3494186Y-5010726D01*
G01X3481692Y-5029026D01*
G01X3472497Y-5049187D01*
G01X3466871Y-5070620D01*
G01X3464977Y-5092697D01*
G01X3466871Y-5114775D01*
G01X3472497Y-5136208D01*
G01X3481692Y-5156369D01*
G01X3494186Y-5174669D01*
G01X3509615Y-5190574D01*
G01X3527528Y-5203619D01*
G01X3547400Y-5213422D01*
G01X3568652Y-5219697D01*
G01X3568652Y-5219697D01*
G01X3547400Y-5225973D01*
G01X3527528Y-5235776D01*
G01X3509615Y-5248821D01*
G01X3494186Y-5264726D01*
G01X3481692Y-5283026D01*
G01X3472497Y-5303187D01*
G01X3466871Y-5324620D01*
G01X3464977Y-5346697D01*
G01X2579624Y-5346697D01*
G01X2579624Y-2404704D01*
G01X3494979Y-2404704D01*
G01X3496985Y-2432758D01*
G01X3502964Y-2460241D01*
G01X3512793Y-2486593D01*
G01X3526272Y-2511278D01*
G01X3543127Y-2533793D01*
G01X3563014Y-2553681D01*
G01X3585530Y-2570536D01*
G01X3610215Y-2584015D01*
G01X3636567Y-2593844D01*
G01X3664050Y-2599822D01*
G01X3692103Y-2601829D01*
G01X3720157Y-2599822D01*
G01X3747640Y-2593844D01*
G01X3773992Y-2584015D01*
G01X3798677Y-2570536D01*
G01X3821192Y-2553681D01*
G01X3841080Y-2533793D01*
G01X3857935Y-2511278D01*
G01X3871414Y-2486593D01*
G01X3881243Y-2460241D01*
G01X3887221Y-2432758D01*
G01X3889228Y-2404704D01*
G01X3887221Y-2376651D01*
G01X3881243Y-2349168D01*
G01X3871414Y-2322816D01*
G01X3857935Y-2298131D01*
G01X3841080Y-2275615D01*
G01X3821192Y-2255728D01*
G01X3798677Y-2238873D01*
G01X3773992Y-2225394D01*
G01X3747640Y-2215565D01*
G01X3720157Y-2209586D01*
G01X3692103Y-2207580D01*
G01X3664050Y-2209586D01*
G01X3636567Y-2215565D01*
G01X3610215Y-2225394D01*
G01X3585530Y-2238873D01*
G01X3563014Y-2255728D01*
G01X3543127Y-2275615D01*
G01X3526272Y-2298131D01*
G01X3512793Y-2322816D01*
G01X3502964Y-2349168D01*
G01X3496985Y-2376651D01*
G01X3494979Y-2404704D01*
G01X3494979Y-2404704D01*
G01X2579624Y-2404704D01*
G01X2579624Y-1126498D01*
G01X3918971Y-1126498D01*
G01X3918971Y-1286497D01*
G01X3920910Y-1298742D01*
G01X3926539Y-1309788D01*
G01X3935305Y-1318554D01*
G01X3946351Y-1324182D01*
G01X3958595Y-1326121D01*
G01X4118595Y-1326121D01*
G01X4118595Y-1326121D01*
G01X4130839Y-1324182D01*
G01X4141885Y-1318554D01*
G01X4150651Y-1309788D01*
G01X4156279Y-1298742D01*
G01X4158219Y-1286497D01*
G01X4158219Y-1206497D01*
G01X4172971Y-1206497D01*
G01X4174788Y-1227270D01*
G01X4180185Y-1247411D01*
G01X4188998Y-1266309D01*
G01X4200958Y-1283390D01*
G01X4215702Y-1298135D01*
G01X4232783Y-1310095D01*
G01X4251681Y-1318907D01*
G01X4271822Y-1324304D01*
G01X4292595Y-1326121D01*
G01X4313367Y-1324304D01*
G01X4333509Y-1318907D01*
G01X4352407Y-1310095D01*
G01X4369488Y-1298135D01*
G01X4384232Y-1283390D01*
G01X4396192Y-1266309D01*
G01X4405005Y-1247411D01*
G01X4410401Y-1227270D01*
G01X4412219Y-1206497D01*
G01X4426971Y-1206497D01*
G01X4428788Y-1227270D01*
G01X4434185Y-1247411D01*
G01X4442998Y-1266309D01*
G01X4454958Y-1283390D01*
G01X4469702Y-1298135D01*
G01X4486783Y-1310095D01*
G01X4505681Y-1318907D01*
G01X4525822Y-1324304D01*
G01X4546595Y-1326121D01*
G01X4567367Y-1324304D01*
G01X4587509Y-1318907D01*
G01X4606407Y-1310095D01*
G01X4623488Y-1298135D01*
G01X4638232Y-1283390D01*
G01X4650192Y-1266309D01*
G01X4659005Y-1247411D01*
G01X4664401Y-1227270D01*
G01X4666219Y-1206497D01*
G01X4680971Y-1206497D01*
G01X4682788Y-1227270D01*
G01X4688185Y-1247411D01*
G01X4696998Y-1266309D01*
G01X4708958Y-1283390D01*
G01X4723702Y-1298135D01*
G01X4740783Y-1310095D01*
G01X4759681Y-1318907D01*
G01X4779822Y-1324304D01*
G01X4800595Y-1326121D01*
G01X4821367Y-1324304D01*
G01X4841509Y-1318907D01*
G01X4860407Y-1310095D01*
G01X4877488Y-1298135D01*
G01X4892232Y-1283390D01*
G01X4904192Y-1266309D01*
G01X4913005Y-1247411D01*
G01X4918401Y-1227270D01*
G01X4920219Y-1206497D01*
G01X4918401Y-1185725D01*
G01X4913005Y-1165584D01*
G01X4904192Y-1146686D01*
G01X4892232Y-1129605D01*
G01X4877488Y-1114860D01*
G01X4860407Y-1102900D01*
G01X4841509Y-1094088D01*
G01X4821367Y-1088691D01*
G01X4800595Y-1086874D01*
G01X4779822Y-1088691D01*
G01X4759681Y-1094088D01*
G01X4740783Y-1102900D01*
G01X4723702Y-1114860D01*
G01X4708958Y-1129605D01*
G01X4696998Y-1146686D01*
G01X4688185Y-1165584D01*
G01X4682788Y-1185725D01*
G01X4680971Y-1206497D01*
G01X4680971Y-1206497D01*
G01X4666219Y-1206497D01*
G01X4664401Y-1185725D01*
G01X4659005Y-1165584D01*
G01X4650192Y-1146686D01*
G01X4638232Y-1129605D01*
G01X4623488Y-1114860D01*
G01X4606407Y-1102900D01*
G01X4587509Y-1094088D01*
G01X4567367Y-1088691D01*
G01X4546595Y-1086874D01*
G01X4525822Y-1088691D01*
G01X4505681Y-1094088D01*
G01X4486783Y-1102900D01*
G01X4469702Y-1114860D01*
G01X4454958Y-1129605D01*
G01X4442998Y-1146686D01*
G01X4434185Y-1165584D01*
G01X4428788Y-1185725D01*
G01X4426971Y-1206497D01*
G01X4426971Y-1206497D01*
G01X4412219Y-1206497D01*
G01X4410401Y-1185725D01*
G01X4405005Y-1165584D01*
G01X4396192Y-1146686D01*
G01X4384232Y-1129605D01*
G01X4369488Y-1114860D01*
G01X4352407Y-1102900D01*
G01X4333509Y-1094088D01*
G01X4313367Y-1088691D01*
G01X4292595Y-1086874D01*
G01X4271822Y-1088691D01*
G01X4251681Y-1094088D01*
G01X4232783Y-1102900D01*
G01X4215702Y-1114860D01*
G01X4200958Y-1129605D01*
G01X4188998Y-1146686D01*
G01X4180185Y-1165584D01*
G01X4174788Y-1185725D01*
G01X4172971Y-1206497D01*
G01X4172971Y-1206497D01*
G01X4158219Y-1206497D01*
G01X4158219Y-1126498D01*
G01X4156279Y-1114253D01*
G01X4150651Y-1103207D01*
G01X4141885Y-1094441D01*
G01X4130839Y-1088813D01*
G01X4118595Y-1086874D01*
G01X3958595Y-1086874D01*
G01X3946351Y-1088813D01*
G01X3935305Y-1094441D01*
G01X3926539Y-1103207D01*
G01X3920910Y-1114253D01*
G01X3918971Y-1126498D01*
G01X2579624Y-1126498D01*
G01X2579624Y-711200D01*
G01X2779776Y-711200D01*
G01X2781732Y-748530D01*
G01X2787580Y-785450D01*
G01X2797255Y-821557D01*
G01X2810651Y-856455D01*
G01X2827622Y-889762D01*
G01X2847981Y-921112D01*
G01X2871505Y-950163D01*
G01X2897937Y-976595D01*
G01X2926988Y-1000119D01*
G01X2958338Y-1020478D01*
G01X2991645Y-1037449D01*
G01X3026543Y-1050845D01*
G01X3062650Y-1060520D01*
G01X3099570Y-1066368D01*
G01X3136900Y-1068324D01*
G01X3174230Y-1066368D01*
G01X3211150Y-1060520D01*
G01X3247257Y-1050845D01*
G01X3282155Y-1037449D01*
G01X3315462Y-1020478D01*
G01X3346812Y-1000119D01*
G01X3375863Y-976595D01*
G01X3402295Y-950163D01*
G01X3425819Y-921112D01*
G01X3446178Y-889762D01*
G01X3463149Y-856455D01*
G01X3476545Y-821557D01*
G01X3486220Y-785450D01*
G01X3492068Y-748530D01*
G01X3494024Y-711200D01*
G01X3492068Y-673870D01*
G01X3486220Y-636950D01*
G01X3476545Y-600843D01*
G01X3463149Y-565945D01*
G01X3446178Y-532638D01*
G01X3425819Y-501288D01*
G01X3402295Y-472237D01*
G01X3375863Y-445805D01*
G01X3346812Y-422281D01*
G01X3315462Y-401922D01*
G01X3282155Y-384951D01*
G01X3247257Y-371555D01*
G01X3211150Y-361880D01*
G01X3174230Y-356032D01*
G01X3136900Y-354076D01*
G01X3099570Y-356032D01*
G01X3062650Y-361880D01*
G01X3026543Y-371555D01*
G01X2991645Y-384951D01*
G01X2958338Y-401922D01*
G01X2926988Y-422281D01*
G01X2897937Y-445805D01*
G01X2871505Y-472237D01*
G01X2847981Y-501288D01*
G01X2827622Y-532638D01*
G01X2810651Y-565945D01*
G01X2797255Y-600843D01*
G01X2787580Y-636950D01*
G01X2781732Y-673870D01*
G01X2779776Y-711200D01*
G01X2779776Y-711200D01*
G01X2579624Y-711200D01*
G01X2579624Y-166624D01*
G01X10510133Y-166624D01*
G01X10510133Y-1310986D01*
G01X10501293Y-1317205D01*
G01X10494463Y-1325582D01*
G01X10490150Y-1335493D01*
G01X10488676Y-1346200D01*
G01X10488676Y-1879600D01*
G01X10490150Y-1890307D01*
G01X10494463Y-1900218D01*
G01X10501293Y-1908595D01*
G01X10510133Y-1914814D01*
G01X10510133Y-4736774D01*
G01X10501293Y-4742993D01*
G01X10494463Y-4751370D01*
G01X10490150Y-4761281D01*
G01X10488676Y-4771988D01*
G01X10488676Y-5305388D01*
G01X10490150Y-5316096D01*
G01X10494463Y-5326006D01*
G01X10501293Y-5334383D01*
G01X10510133Y-5340602D01*
G01X10510133Y-7042154D01*
G01X10453624Y-6985645D01*
G01X10453624Y-6665926D01*
G01X10468261Y-6651015D01*
G01X10480080Y-6633784D01*
G01X10488721Y-6614759D01*
G01X10493919Y-6594521D01*
G01X10495517Y-6573687D01*
G01X10493465Y-6552893D01*
G01X10487826Y-6532773D01*
G01X10478772Y-6513942D01*
G01X10466579Y-6496973D01*
G01X10451620Y-6482384D01*
G01X10434350Y-6470622D01*
G01X10415297Y-6462043D01*
G01X10395042Y-6456911D01*
G01X10374204Y-6455381D01*
G01X10353416Y-6457501D01*
G01X10333315Y-6463206D01*
G01X10314513Y-6472321D01*
G01X10297584Y-6484569D01*
G01X9984495Y-6484569D01*
G01X9976203Y-6478016D01*
G01X9966474Y-6473888D01*
G01X9956000Y-6472479D01*
G01X9937874Y-6472479D01*
G01X9922199Y-6468138D01*
G01X9906000Y-6466675D01*
G01X9889801Y-6468138D01*
G01X9874126Y-6472479D01*
G01X9856000Y-6472479D01*
G01X9843756Y-6474418D01*
G01X9832710Y-6480046D01*
G01X9823944Y-6488812D01*
G01X9818315Y-6499858D01*
G01X9816376Y-6512103D01*
G01X9816376Y-6545097D01*
G01X9815576Y-6557099D01*
G01X9816376Y-6569101D01*
G01X9816376Y-6602095D01*
G01X9818315Y-6614339D01*
G01X9823944Y-6625385D01*
G01X9832710Y-6634151D01*
G01X9843756Y-6639780D01*
G01X9856000Y-6641719D01*
G01X9862868Y-6641719D01*
G01X9863712Y-6642481D01*
G01X9856000Y-6642481D01*
G01X9843756Y-6644420D01*
G01X9832710Y-6650049D01*
G01X9823944Y-6658815D01*
G01X9818315Y-6669861D01*
G01X9816376Y-6682105D01*
G01X9816376Y-6715099D01*
G01X9815576Y-6727101D01*
G01X9815576Y-7102674D01*
G01X9807168Y-7111393D01*
G01X9801787Y-7122245D01*
G01X9799936Y-7134215D01*
G01X9799936Y-7247468D01*
G01X9801875Y-7259713D01*
G01X9807503Y-7270759D01*
G01X9816270Y-7279525D01*
G01X9827315Y-7285153D01*
G01X9839560Y-7287092D01*
G01X9977261Y-7287092D01*
G01X9989505Y-7285153D01*
G01X10000551Y-7279525D01*
G01X10009317Y-7270759D01*
G01X10014946Y-7259713D01*
G01X10016885Y-7247468D01*
G01X10016885Y-7134215D01*
G01X10015486Y-7123780D01*
G01X10011389Y-7114081D01*
G01X10004881Y-7105804D01*
G01X9996424Y-7099533D01*
G01X9996424Y-6727101D01*
G01X9995624Y-6715099D01*
G01X9995624Y-6682105D01*
G01X9994692Y-6673560D01*
G01X9991938Y-6665417D01*
G01X10272776Y-6665417D01*
G01X10272776Y-7023100D01*
G01X10274513Y-7040741D01*
G01X10279659Y-7057704D01*
G01X10288015Y-7073337D01*
G01X10299261Y-7087039D01*
G01X10413561Y-7201339D01*
G01X10427263Y-7212585D01*
G01X10442896Y-7220941D01*
G01X10459859Y-7226087D01*
G01X10477500Y-7227824D01*
G01X10510133Y-7227824D01*
G01X10510133Y-7304583D01*
G01X10454216Y-7304583D01*
G01X10436922Y-7292118D01*
G01X10417691Y-7282920D01*
G01X10397133Y-7277282D01*
G01X10375900Y-7275383D01*
G01X10354667Y-7277282D01*
G01X10334109Y-7282920D01*
G01X10314878Y-7292118D01*
G01X10297584Y-7304583D01*
G01X10003567Y-7304583D01*
G01X9995699Y-7299142D01*
G01X9986757Y-7295745D01*
G01X9977261Y-7294590D01*
G01X9839560Y-7294590D01*
G01X9828816Y-7296075D01*
G01X9818876Y-7300417D01*
G01X9336548Y-7300417D01*
G01X9339426Y-7285298D01*
G01X9339518Y-7269908D01*
G01X9336821Y-7254756D01*
G01X9331424Y-7240342D01*
G01X9323506Y-7227145D01*
G01X9332264Y-7218380D01*
G01X9337886Y-7207338D01*
G01X9339824Y-7195100D01*
G01X9339824Y-7105100D01*
G01X9337885Y-7092856D01*
G01X9332256Y-7081810D01*
G01X9323490Y-7073044D01*
G01X9312444Y-7067415D01*
G01X9300200Y-7065476D01*
G01X9140200Y-7065476D01*
G01X9127956Y-7067415D01*
G01X9116910Y-7073044D01*
G01X9108144Y-7081810D01*
G01X9102515Y-7092856D01*
G01X9100576Y-7105100D01*
G01X9100576Y-7195100D01*
G01X9100808Y-7199376D01*
G01X8894723Y-7199376D01*
G01X8888735Y-7189437D01*
G01X8880125Y-7181658D01*
G01X8869632Y-7176707D01*
G01X8858153Y-7175009D01*
G01X8744900Y-7175009D01*
G01X8732655Y-7176948D01*
G01X8721610Y-7182576D01*
G01X8712843Y-7191342D01*
G01X8707215Y-7202388D01*
G01X8705276Y-7214633D01*
G01X8705276Y-7352334D01*
G01X8707215Y-7364578D01*
G01X8712843Y-7375624D01*
G01X8721610Y-7384390D01*
G01X8732655Y-7390018D01*
G01X8744900Y-7391958D01*
G01X8858153Y-7391958D01*
G01X8869923Y-7390169D01*
G01X8880630Y-7384966D01*
G01X8889308Y-7376817D01*
G01X8895175Y-7366458D01*
G01X8897699Y-7354824D01*
G01X9116403Y-7354824D01*
G01X9107333Y-7370966D01*
G01X9101990Y-7388694D01*
G01X9100631Y-7407159D01*
G01X9103321Y-7425478D01*
G01X9109930Y-7442773D01*
G01X9120143Y-7458218D01*
G01X9133469Y-7471071D01*
G01X9149273Y-7480719D01*
G01X9166796Y-7486698D01*
G01X9185200Y-7488724D01*
G01X9188336Y-7488724D01*
G01X9204006Y-7493062D01*
G01X9220200Y-7494524D01*
G01X9236394Y-7493062D01*
G01X9252064Y-7488724D01*
G01X9255200Y-7488724D01*
G01X9272965Y-7486838D01*
G01X9289938Y-7481265D01*
G01X9818876Y-7481265D01*
G01X9828816Y-7485607D01*
G01X9839560Y-7487092D01*
G01X9977261Y-7487092D01*
G01X9988614Y-7485431D01*
G01X10297584Y-7485431D01*
G01X10314878Y-7497896D01*
G01X10334109Y-7507093D01*
G01X10354667Y-7512731D01*
G01X10375900Y-7514631D01*
G01X10397133Y-7512731D01*
G01X10417691Y-7507093D01*
G01X10436922Y-7497896D01*
G01X10454216Y-7485431D01*
G01X10510133Y-7485431D01*
G01X10510133Y-7607300D01*
G01X10512005Y-7614285D01*
G01X10517118Y-7619398D01*
G01X10524103Y-7621270D01*
G01X11475669Y-7621270D01*
G01X11475669Y-8359476D01*
G01X11466711Y-8378299D01*
G01X11461156Y-8398391D01*
G01X11459173Y-8419143D01*
G01X11460823Y-8439923D01*
G01X11466056Y-8460102D01*
G01X11474712Y-8479066D01*
G01X11486529Y-8496239D01*
G01X11501148Y-8511100D01*
G01X11518124Y-8523198D01*
G01X11536943Y-8532165D01*
G01X11557033Y-8537728D01*
G01X11577784Y-8539720D01*
G01X11598566Y-8538078D01*
G01X11618747Y-8532855D01*
G01X11637714Y-8524207D01*
G01X11654893Y-8512397D01*
G01X11669760Y-8497785D01*
G01X11681865Y-8480813D01*
G01X11690840Y-8461998D01*
G01X11696412Y-8441911D01*
G01X11698412Y-8421161D01*
G01X11698329Y-8420100D01*
G01X12279183Y-8420100D01*
G01X12281000Y-8440872D01*
G01X12286397Y-8461014D01*
G01X12295210Y-8479912D01*
G01X12307170Y-8496993D01*
G01X12321914Y-8511737D01*
G01X12338995Y-8523697D01*
G01X12357893Y-8532510D01*
G01X12378034Y-8537906D01*
G01X12398807Y-8539724D01*
G01X12419579Y-8537906D01*
G01X12439721Y-8532510D01*
G01X12458619Y-8523697D01*
G01X12475700Y-8511737D01*
G01X12490444Y-8496993D01*
G01X12502404Y-8479912D01*
G01X12511216Y-8461014D01*
G01X12516613Y-8440872D01*
G01X12518431Y-8420100D01*
G01X12518431Y-8420100D01*
G01X12516613Y-8399328D01*
G01X12511216Y-8379186D01*
G01X12502404Y-8360288D01*
G01X12490444Y-8343207D01*
G01X12475700Y-8328463D01*
G01X12458619Y-8316503D01*
G01X12444031Y-8309700D01*
G01X12918276Y-8309700D01*
G01X12918276Y-8479700D01*
G01X12920216Y-8491944D01*
G01X12925844Y-8502990D01*
G01X12934610Y-8511756D01*
G01X12945656Y-8517384D01*
G01X12957900Y-8519324D01*
G01X13127900Y-8519324D01*
G01X13140144Y-8517384D01*
G01X13151190Y-8511756D01*
G01X13159956Y-8502990D01*
G01X13165584Y-8491944D01*
G01X13167524Y-8479700D01*
G01X13167524Y-8309700D01*
G01X13167524Y-8309700D01*
G01X13165584Y-8297456D01*
G01X13159956Y-8286410D01*
G01X13151190Y-8277644D01*
G01X13140144Y-8272016D01*
G01X13127900Y-8270076D01*
G01X12957900Y-8270076D01*
G01X12945656Y-8272016D01*
G01X12934610Y-8277644D01*
G01X12925844Y-8286410D01*
G01X12920216Y-8297456D01*
G01X12918276Y-8309700D01*
G01X12444031Y-8309700D01*
G01X12439721Y-8307690D01*
G01X12419579Y-8302294D01*
G01X12398807Y-8300476D01*
G01X12378034Y-8302294D01*
G01X12357893Y-8307690D01*
G01X12338995Y-8316503D01*
G01X12321914Y-8328463D01*
G01X12307170Y-8343207D01*
G01X12295210Y-8360288D01*
G01X12286397Y-8379186D01*
G01X12281000Y-8399328D01*
G01X12279183Y-8420100D01*
G01X11698329Y-8420100D01*
G01X11696780Y-8400379D01*
G01X11691565Y-8380195D01*
G01X11682925Y-8361224D01*
G01X11671123Y-8344041D01*
G01X11656517Y-8329167D01*
G37*
G54D10*
G01X11656517Y-8329167D02*
G01X11656517Y-7621270D01*
G01X14209776Y-7621270D01*
G01X14209776Y-9815576D01*
G01X2579624Y-9815576D01*
G01X2579624Y-166624D01*
G01X10510133Y-166624D01*
G01X10510133Y-1310986D01*
G03X10488676Y-1346200I18167J-35214D01*
G01X10488676Y-1879600D01*
G03X10510133Y-1914814I39624J0D01*
G01X10510133Y-4736774D01*
G03X10488676Y-4771988I18167J-35214D01*
G01X10488676Y-5305388D01*
G03X10510133Y-5340602I39624J0D01*
G01X10510133Y-7042154D01*
G01X10453624Y-6985645D01*
G01X10453624Y-6665926D01*
G03X10466579Y-6496973I-77724J90933D01*
G03X10297584Y-6484569I-90679J-78020D01*
G01X9984495Y-6484569D01*
G03X9956000Y-6472479I-28495J-27534D01*
G01X9937874Y-6472479D01*
G03X9874126Y-6472479I-31874J-84620D01*
G01X9856000Y-6472479D01*
G03X9816376Y-6512103I0J-39624D01*
G01X9816376Y-6545097D01*
G03X9816376Y-6569101I89624J-12002D01*
G01X9816376Y-6602095D01*
G03X9856000Y-6641719I39624J0D01*
G01X9862868Y-6641719D01*
G01X9863712Y-6642481D01*
G01X9856000Y-6642481D01*
G03X9816376Y-6682105I0J-39624D01*
G01X9816376Y-6715099D01*
G03X9815576Y-6727101I89624J-12002D01*
G01X9815576Y-7102674D01*
G03X9799936Y-7134215I23984J-31541D01*
G01X9799936Y-7247468D01*
G03X9839560Y-7287092I39624J0D01*
G01X9977261Y-7287092D01*
G03X10016885Y-7247468I0J39624D01*
G01X10016885Y-7134215D01*
G03X9996424Y-7099533I-39624J0D01*
G01X9996424Y-6727101D01*
G03X9995624Y-6715099I-90424J0D01*
G01X9995624Y-6682105D01*
G03X9991938Y-6665417I-39624J0D01*
G01X10272776Y-6665417D01*
G01X10272776Y-7023100D01*
G03X10299261Y-7087039I90424J0D01*
G01X10413561Y-7201339D01*
G03X10477500Y-7227824I63939J63939D01*
G01X10510133Y-7227824D01*
G01X10510133Y-7304583D01*
G01X10454216Y-7304583D01*
G03X10297584Y-7304583I-78316J-90424D01*
G01X10003567Y-7304583D01*
G03X9977261Y-7294590I-26306J-29632D01*
G01X9839560Y-7294590D01*
G03X9818876Y-7300417I0J-39624D01*
G01X9336548Y-7300417D01*
G03X9323506Y-7227145I-81348J23317D01*
G03X9339824Y-7195100I-23306J32045D01*
G01X9339824Y-7105100D01*
G03X9300200Y-7065476I-39624J0D01*
G01X9140200Y-7065476D01*
G03X9100576Y-7105100I0J-39624D01*
G01X9100576Y-7195100D01*
G03X9100808Y-7199376I39624J0D01*
G01X8894723Y-7199376D01*
G03X8858153Y-7175009I-36569J-15257D01*
G01X8744900Y-7175009D01*
G03X8705276Y-7214633I0J-39624D01*
G01X8705276Y-7352334D01*
G03X8744900Y-7391958I39624J0D01*
G01X8858153Y-7391958D01*
G03X8897699Y-7354824I0J39624D01*
G01X9116403Y-7354824D01*
G03X9185200Y-7488724I68797J-49276D01*
G01X9188336Y-7488724D01*
G03X9252064Y-7488724I31864J84624D01*
G01X9255200Y-7488724D01*
G03X9289938Y-7481265I0J84624D01*
G01X9818876Y-7481265D01*
G03X9839560Y-7487092I20684J33797D01*
G01X9977261Y-7487092D01*
G03X9988614Y-7485431I0J39624D01*
G01X10297584Y-7485431D01*
G03X10454216Y-7485431I78316J90424D01*
G01X10510133Y-7485431D01*
G01X10510133Y-7607300D01*
G03X10524103Y-7621270I13970J0D01*
G01X11475669Y-7621270D01*
G01X11475669Y-8359476D01*
G03X11598566Y-8538078I103124J-60624D01*
G03X11656517Y-8329167I-19772J117978D01*
G01X2779776Y-711200D02*
G03X3494024Y-711200I357124J0D01*
G03X2779776Y-711200I-357124J0D01*
G01X2779776Y-9245600D02*
G03X3494024Y-9245600I357124J0D01*
G03X2779776Y-9245600I-357124J0D01*
G01X3568652Y-5219697D02*
G03X3568652Y-5473697I25949J-127000D01*
G03X3568652Y-5727697I25949J-127000D01*
G03X3568645Y-5981696I25949J-127000D01*
G03X3568652Y-6235695I25955J-126999D01*
G03X3594600Y-6492319I25949J-127000D01*
G03X3620549Y-6235695I0J129624D01*
G03X3620555Y-5981696I-25949J127000D01*
G03X3724213Y-5852964I-25955J126999D01*
G01X5443418Y-4133759D01*
G03X5469903Y-4069819I-63939J63939D01*
G01X5469903Y-1332341D01*
G03X5504103Y-1293090I-5424J39251D01*
G01X5504103Y-1123090D01*
G03X5464479Y-1083466I-39624J0D01*
G01X5294479Y-1083466D01*
G03X5254855Y-1123090I0J-39624D01*
G01X5254855Y-1293090D01*
G03X5289055Y-1332341I39624J0D01*
G01X5289055Y-4032364D01*
G01X3724178Y-5597241D01*
G03X3620549Y-5473697I-129578J-3457D01*
G03X3724213Y-5344964I-25949J127000D01*
G01X5118534Y-3950642D01*
G03X5145019Y-3886703I-63939J63939D01*
G01X5145019Y-1284813D01*
G03X5054595Y-1086874I-90424J78316D01*
G03X4964171Y-1284813I0J-119624D01*
G01X4964171Y-3849248D01*
G01X3724178Y-5089241D01*
G03X3620549Y-4965697I-129578J-3457D01*
G03X3620555Y-4711699I-25949J127000D01*
G03X3620549Y-4457700I-25955J126999D01*
G03X3620549Y-4203700I-25949J127000D01*
G03X3620549Y-3949700I-25949J127000D01*
G03X3620549Y-3695700I-25949J127000D01*
G03X3620555Y-3441701I-25949J127000D01*
G03X3620549Y-3187703I-25955J126999D01*
G03X3620549Y-2933703I-25949J127000D01*
G03X3594600Y-2677079I-25949J127000D01*
G03X3568652Y-2933703I0J-129624D01*
G03X3568652Y-3187703I25949J-127000D01*
G03X3568645Y-3441701I25949J-127000D01*
G03X3568652Y-3695700I25955J-126999D01*
G03X3568652Y-3949700I25949J-127000D01*
G03X3568652Y-4203700I25949J-127000D01*
G03X3568652Y-4457700I25949J-127000D01*
G03X3568645Y-4711699I25949J-127000D01*
G03X3568652Y-4965697I25955J-126999D01*
G03X3568652Y-5219697I25949J-127000D01*
G01X3494977Y-6764693D02*
G03X3889225Y-6764693I197124J0D01*
G03X3494977Y-6764693I-197124J0D01*
G01X3494979Y-2404704D02*
G03X3889228Y-2404704I197124J0D01*
G03X3494979Y-2404704I-197124J0D01*
G01X3797300Y-7977976D02*
G03X3797300Y-8227224I0J-124624D01*
G03X3797300Y-7977976I0J124624D01*
G01X5579670Y-8458247D02*
G01X5579670Y-8385597D01*
G03X5540046Y-8345973I-39624J0D01*
G01X5404156Y-8345973D01*
G03X5364626Y-8382872I0J-39624D01*
G01X5072585Y-8382872D01*
G03X4993481Y-8331301I-105481J-75340D01*
G03X5004604Y-8079811I-25386J127114D01*
G01X5058095Y-8079811D01*
G03X5097719Y-8040187I0J39624D01*
G01X5097719Y-7860187D01*
G03X5058095Y-7820563I-39624J0D01*
G01X4908390Y-7820563D01*
G01X4885184Y-7797358D01*
G03X4830225Y-7774593I-54959J-54959D01*
G01X4525476Y-7774593D01*
G03X4485946Y-7737693I-39530J-2724D01*
G01X4350056Y-7737693D01*
G03X4310526Y-7774593I0J-39624D01*
G01X3921924Y-7774593D01*
G01X3921924Y-7763600D01*
G03X3882300Y-7723976I-39624J0D01*
G01X3712300Y-7723976D01*
G03X3672676Y-7763600I0J-39624D01*
G01X3672676Y-7933600D01*
G03X3712300Y-7973224I39624J0D01*
G01X3882300Y-7973224D01*
G03X3921924Y-7933600I0J39624D01*
G01X3921924Y-7930041D01*
G01X4310526Y-7930041D01*
G03X4350056Y-7966941I39530J2724D01*
G01X4485946Y-7966941D01*
G03X4525476Y-7930041I0J39624D01*
G01X4758472Y-7930041D01*
G01X4758472Y-8040187D01*
G03X4798096Y-8079811I39624J0D01*
G01X4851586Y-8079811D01*
G03X4861719Y-8331099I36509J-124376D01*
G03X4783368Y-8380489I25386J-127114D01*
G01X4698987Y-8380489D01*
G03X4644028Y-8403254I0J-77724D01*
G01X4577906Y-8469376D01*
G01X4525238Y-8469376D01*
G03X4485946Y-8434873I-39292J-5121D01*
G01X4350056Y-8434873D01*
G03X4310432Y-8474497I0J-39624D01*
G01X4310432Y-8624496D01*
G03X4350056Y-8664120I39624J0D01*
G01X4485946Y-8664120D01*
G03X4525569Y-8624824I0J39624D01*
G01X4610100Y-8624824D01*
G03X4665059Y-8602059I0J77724D01*
G01X4731182Y-8535937D01*
G01X4783368Y-8535937D01*
G03X4887105Y-8587837I103737J77724D01*
G01X4967105Y-8587837D01*
G03X5069012Y-8538320I0J129624D01*
G01X5364626Y-8538320D01*
G03X5404156Y-8575220I39530J2724D01*
G01X5476807Y-8575220D01*
G01X5550547Y-8648960D01*
G03X5605506Y-8671725I54959J54959D01*
G01X5756963Y-8671725D01*
G03X5779300Y-8678621I22337J32728D01*
G01X5806011Y-8678621D01*
G03X5849506Y-8691931I43495J64414D01*
G01X6170167Y-8691931D01*
G03X6380724Y-8614207I90933J77724D01*
G03X6170167Y-8536483I-119624J0D01*
G01X5916893Y-8536483D01*
G03X5879300Y-8509381I-37593J-12522D01*
G01X5779300Y-8509381D01*
G03X5756963Y-8516277I0J-39624D01*
G01X5637700Y-8516277D01*
G01X5579670Y-8458247D01*
G01X4118595Y-1326121D02*
G03X4158219Y-1286497I0J39624D01*
G01X4158219Y-1126498D01*
G03X4118595Y-1086874I-39624J0D01*
G01X3958595Y-1086874D01*
G03X3918971Y-1126498I0J-39624D01*
G01X3918971Y-1286497D01*
G03X3958595Y-1326121I39624J0D01*
G01X4118595Y-1326121D01*
G01X4172971Y-1206497D02*
G03X4412219Y-1206497I119624J0D01*
G03X4172971Y-1206497I-119624J0D01*
G01X4525570Y-8167296D02*
G01X4525570Y-8017297D01*
G03X4485946Y-7977673I-39624J0D01*
G01X4350056Y-7977673D01*
G03X4310432Y-8017297I0J-39624D01*
G01X4310432Y-8167296D01*
G03X4329071Y-8200907I39624J0D01*
G03X4310432Y-8234517I20986J-33611D01*
G01X4310432Y-8384517D01*
G03X4350056Y-8424141I39624J0D01*
G01X4485946Y-8424141D01*
G03X4525570Y-8384517I0J39624D01*
G01X4525570Y-8234517D01*
G03X4506932Y-8200907I-39624J0D01*
G03X4525570Y-8167296I-20986J33611D01*
G01X4426971Y-1206497D02*
G03X4666219Y-1206497I119624J0D01*
G03X4426971Y-1206497I-119624J0D01*
G01X4680971Y-1206497D02*
G03X4920219Y-1206497I119624J0D01*
G03X4680971Y-1206497I-119624J0D01*
G01X5540046Y-8335241D02*
G03X5579670Y-8295617I0J39624D01*
G01X5579670Y-8145617D01*
G03X5540046Y-8105993I-39624J0D01*
G01X5404156Y-8105993D01*
G03X5364532Y-8145617I0J-39624D01*
G01X5364532Y-8295617D01*
G03X5404156Y-8335241I39624J0D01*
G01X5540046Y-8335241D01*
G01X5775860Y-5014973D02*
G01X5715003Y-5014973D01*
G03X5660043Y-5037738I0J-77724D01*
G01X5406041Y-5291741D01*
G03X5383276Y-5346700I54959J-54959D01*
G01X5383276Y-7175500D01*
G03X5406041Y-7230459I77724J0D01*
G01X5507641Y-7332059D01*
G03X5562600Y-7354824I54959J54959D01*
G01X6305969Y-7354824D01*
G01X6550316Y-7599171D01*
G01X6550316Y-7612400D01*
G03X6589940Y-7652024I39624J0D01*
G01X6670587Y-7652024D01*
G03X6705600Y-7630952I0J39624D01*
G03X6740613Y-7652024I35013J18552D01*
G01X6753842Y-7652024D01*
G01X7440676Y-8338858D01*
G01X7440676Y-8513589D01*
G03X7427976Y-8559800I77724J-46211D01*
G01X7427976Y-8750300D01*
G03X7454461Y-8814239I90424J0D01*
G01X7543361Y-8903139D01*
G03X7607300Y-8929624I63939J63939D01*
G01X7703576Y-8929624D01*
G01X7703576Y-9011200D01*
G03X7743200Y-9050824I39624J0D01*
G01X7903200Y-9050824D01*
G03X7925543Y-9043924I0J39624D01*
G01X8451987Y-9043924D01*
G03X8491245Y-9078175I39258J5373D01*
G01X8611997Y-9078175D01*
G03X8651621Y-9038551I0J39624D01*
G01X8651621Y-8868449D01*
G03X8611997Y-8828825I-39624J0D01*
G01X8491245Y-8828825D01*
G03X8451621Y-8868449I0J-39624D01*
G01X8451621Y-8888476D01*
G01X7926997Y-8888476D01*
G03X7914137Y-8775700I-68797J49276D01*
G03X7858200Y-8627576I-55937J63500D01*
G01X7788200Y-8627576D01*
G03X7711889Y-8748776I0J-84624D01*
G01X7644755Y-8748776D01*
G01X7608824Y-8712845D01*
G01X7608824Y-8559800D01*
G03X7596124Y-8513589I-90424J0D01*
G01X7596124Y-8306664D01*
G03X7573359Y-8251704I-77724J0D01*
G01X6860884Y-7539229D01*
G01X6860884Y-7526000D01*
G03X6821260Y-7486376I-39624J0D01*
G01X6740613Y-7486376D01*
G03X6705600Y-7507448I0J-39624D01*
G03X6670587Y-7486376I-35013J-18552D01*
G01X6657358Y-7486376D01*
G01X6393123Y-7222141D01*
G03X6338164Y-7199376I-54959J-54959D01*
G01X5594794Y-7199376D01*
G01X5538724Y-7143306D01*
G01X5538724Y-5378894D01*
G01X5747197Y-5170421D01*
G01X5775860Y-5170421D01*
G03X5853648Y-5219697I103737J77724D01*
G03X5853648Y-5473697I25949J-127000D01*
G03X5853648Y-5727697I25949J-127000D01*
G03X5853642Y-5981696I25949J-127000D01*
G03X5853648Y-6235695I25955J-126999D01*
G03X5879597Y-6492319I25949J-127000D01*
G03X5905546Y-6235695I0J129624D01*
G03X5905552Y-5981696I-25949J127000D01*
G03X5905546Y-5727697I-25955J126999D01*
G03X5905546Y-5473697I-25949J127000D01*
G03X5905546Y-5219697I-25949J127000D01*
G03X6009221Y-5092697I-25949J127000D01*
G03X5905546Y-4965697I-129624J0D01*
G03X5972472Y-4929121I-25949J127000D01*
G01X6122043Y-4929121D01*
G01X6183376Y-4990455D01*
G01X6183376Y-6684983D01*
G03X6209861Y-6748922I90424J0D01*
G01X6522049Y-7061111D01*
G01X6522049Y-7098334D01*
G03X6561673Y-7137958I39624J0D01*
G01X6674927Y-7137958D01*
G03X6714551Y-7098334I0J39624D01*
G01X6714551Y-6960633D01*
G03X6674927Y-6921009I-39624J0D01*
G01X6637705Y-6921009D01*
G01X6364224Y-6647528D01*
G01X6364224Y-4953000D01*
G03X6337739Y-4889061I-90424J0D01*
G01X6223437Y-4774758D01*
G03X6159497Y-4748273I-63939J-63939D01*
G01X5972472Y-4748273D01*
G03X5905552Y-4711699I-92875J-90424D01*
G03X5972472Y-4675124I-25955J126999D01*
G01X6414145Y-4675124D01*
G01X6527876Y-4788855D01*
G01X6527876Y-5177755D01*
G03X6522049Y-5198439I33797J-20684D01*
G01X6522049Y-5336140D01*
G03X6561673Y-5375764I39624J0D01*
G01X6674927Y-5375764D01*
G03X6714551Y-5336140I0J39624D01*
G01X6714551Y-5198439D01*
G03X6708724Y-5177755I-39624J0D01*
G01X6708724Y-4751400D01*
G03X6682240Y-4687461I-90424J0D01*
G01X6515539Y-4520761D01*
G03X6451600Y-4494276I-63939J-63939D01*
G01X5972472Y-4494276D01*
G03X5905546Y-4457700I-92875J-90424D01*
G03X5905546Y-4203700I-25949J127000D01*
G03X5905546Y-3949700I-25949J127000D01*
G03X5905546Y-3695700I-25949J127000D01*
G03X5905552Y-3441701I-25949J127000D01*
G03X5972472Y-3405127I-25955J126999D01*
G01X6134748Y-3405127D01*
G01X6311461Y-3581839D01*
G03X6375400Y-3608324I63939J63939D01*
G01X6528437Y-3608324D01*
G03X6561673Y-3626375I33236J21573D01*
G01X6674927Y-3626375D01*
G03X6714551Y-3586751I0J39624D01*
G01X6714551Y-3449049D01*
G03X6674927Y-3409425I-39624J0D01*
G01X6561673Y-3409425D01*
G03X6528437Y-3427476I0J-39624D01*
G01X6412855Y-3427476D01*
G01X6236142Y-3250763D01*
G03X6172203Y-3224279I-63939J-63939D01*
G01X5972472Y-3224279D01*
G03X5905546Y-3187703I-92875J-90424D01*
G03X5972472Y-3151127I-25949J127000D01*
G01X6413497Y-3151127D01*
G03X6477437Y-3124642I0J90424D01*
G01X6682240Y-2919839D01*
G03X6708724Y-2855900I-63939J63939D01*
G01X6708724Y-1905634D01*
G03X6714551Y-1884951I-33797J20684D01*
G01X6714551Y-1747249D01*
G03X6674927Y-1707625I-39624J0D01*
G01X6561673Y-1707625D01*
G03X6522049Y-1747249I0J-39624D01*
G01X6522049Y-1884951D01*
G03X6527876Y-1905634I39624J0D01*
G01X6527876Y-2818445D01*
G01X6376043Y-2970279D01*
G01X5972472Y-2970279D01*
G03X5905546Y-2933703I-92875J-90424D01*
G03X5879597Y-2677079I-25949J127000D01*
G03X5853648Y-2933703I0J-129624D01*
G03X5749973Y-3060703I25949J-127000D01*
G03X5853648Y-3187703I129624J0D01*
G03X5749973Y-3314699I25949J-127000D01*
G03X5853642Y-3441701I129624J-3D01*
G03X5853648Y-3695700I25955J-126999D01*
G03X5853648Y-3949700I25949J-127000D01*
G03X5853648Y-4203700I25949J-127000D01*
G03X5853648Y-4457700I25949J-127000D01*
G03X5749973Y-4584697I25949J-127000D01*
G03X5853642Y-4711699I129624J-3D01*
G03X5749973Y-4838701I25955J-126999D01*
G03X5853648Y-4965697I129624J3D01*
G03X5775860Y-5014973I25949J-127000D01*
G01X5584972Y-6764693D02*
G03X5979221Y-6764693I197124J0D01*
G03X5584972Y-6764693I-197124J0D01*
G01X5584975Y-2404704D02*
G03X5979224Y-2404704I197124J0D01*
G03X5584975Y-2404704I-197124J0D01*
G01X5898151Y-7844851D02*
G03X5937775Y-7805227I0J39624D01*
G01X5937775Y-7691973D01*
G03X5898151Y-7652349I-39624J0D01*
G01X5760449Y-7652349D01*
G03X5720825Y-7691973I0J-39624D01*
G01X5720825Y-7805227D01*
G03X5760449Y-7844851I39624J0D01*
G01X5898151Y-7844851D01*
G01X5907024Y-8043844D02*
G03X5937775Y-8005227I-8873J38618D01*
G01X5937775Y-7891973D01*
G03X5898151Y-7852349I-39624J0D01*
G01X5760449Y-7852349D01*
G03X5720825Y-7891973I0J-39624D01*
G01X5720825Y-8005227D01*
G03X5751576Y-8043844I39624J0D01*
G01X5751576Y-8350693D01*
G03X5739676Y-8379003I27724J-28310D01*
G01X5739676Y-8468995D01*
G03X5779300Y-8508619I39624J0D01*
G01X5879300Y-8508619D01*
G03X5918924Y-8468995I0J39624D01*
G01X5918924Y-8379003D01*
G03X5907024Y-8350693I-39624J0D01*
G01X5907024Y-8043844D01*
G01X6261100Y-7913817D02*
G03X6261100Y-7674569I0J119624D01*
G03X6261100Y-7913817I0J-119624D01*
G01X7040872Y-1893824D02*
G03X7080402Y-1930724I39530J2724D01*
G01X7280402Y-1930724D01*
G03X7320026Y-1891100I0J39624D01*
G01X7320026Y-1741100D01*
G03X7280402Y-1701476I-39624J0D01*
G01X7080402Y-1701476D01*
G03X7040872Y-1738376I0J-39624D01*
G01X6913544Y-1738376D01*
G03X6874927Y-1707625I-38618J-8873D01*
G01X6761673Y-1707625D01*
G03X6722049Y-1747249I0J-39624D01*
G01X6722049Y-1884951D01*
G03X6761673Y-1924575I39624J0D01*
G01X6874927Y-1924575D01*
G03X6913544Y-1893824I0J39624D01*
G01X7040872Y-1893824D01*
G01X6874927Y-3409425D02*
G01X6761673Y-3409425D01*
G03X6722049Y-3449049I0J-39624D01*
G01X6722049Y-3586751D01*
G03X6761673Y-3626375I39624J0D01*
G01X6874927Y-3626375D01*
G03X6913544Y-3595624I0J39624D01*
G01X7028172Y-3595624D01*
G03X7067702Y-3632524I39530J2724D01*
G01X7267702Y-3632524D01*
G03X7307326Y-3592900I0J39624D01*
G01X7307326Y-3442900D01*
G03X7267702Y-3403276I-39624J0D01*
G01X7067702Y-3403276D01*
G03X7028172Y-3440176I0J-39624D01*
G01X6913544Y-3440176D01*
G03X6874927Y-3409425I-38618J-8873D01*
G01X6874927Y-6921009D02*
G01X6761673Y-6921009D01*
G03X6722049Y-6960633I0J-39624D01*
G01X6722049Y-7098334D01*
G03X6761673Y-7137958I39624J0D01*
G01X6874927Y-7137958D01*
G03X6913544Y-7107207I0J39624D01*
G01X7053478Y-7107207D01*
G01X7053478Y-7110800D01*
G03X7093102Y-7150424I39624J0D01*
G01X7293102Y-7150424D01*
G03X7332726Y-7110800I0J39624D01*
G01X7332726Y-6960800D01*
G03X7293102Y-6921176I-39624J0D01*
G01X7093102Y-6921176D01*
G03X7054524Y-6951759I0J-39624D01*
G01X6913544Y-6951759D01*
G03X6874927Y-6921009I-38618J-8873D01*
G01X6874927Y-5158815D02*
G01X6761673Y-5158815D01*
G03X6722049Y-5198439I0J-39624D01*
G01X6722049Y-5336140D01*
G03X6761673Y-5375764I39624J0D01*
G01X6874927Y-5375764D01*
G03X6913544Y-5345013I0J39624D01*
G01X7040778Y-5345013D01*
G01X7040778Y-5358200D01*
G03X7080402Y-5397824I39624J0D01*
G01X7280402Y-5397824D01*
G03X7320026Y-5358200I0J39624D01*
G01X7320026Y-5208200D01*
G03X7280402Y-5168576I-39624J0D01*
G01X7080402Y-5168576D01*
G03X7045434Y-5189565I0J-39624D01*
G01X6913544Y-5189565D01*
G03X6874927Y-5158815I-38618J-8873D01*
G01X7267702Y-3886524D02*
G03X7307326Y-3846900I0J39624D01*
G01X7307326Y-3696900D01*
G03X7267702Y-3657276I-39624J0D01*
G01X7067702Y-3657276D01*
G03X7028078Y-3696900I0J-39624D01*
G01X7028078Y-3846900D01*
G03X7067702Y-3886524I39624J0D01*
G01X7267702Y-3886524D01*
G01X7280402Y-2184724D02*
G03X7320026Y-2145100I0J39624D01*
G01X7320026Y-1995100D01*
G03X7280402Y-1955476I-39624J0D01*
G01X7080402Y-1955476D01*
G03X7040778Y-1995100I0J-39624D01*
G01X7040778Y-2145100D01*
G03X7080402Y-2184724I39624J0D01*
G01X7280402Y-2184724D01*
G01X7280402Y-5651824D02*
G03X7320026Y-5612200I0J39624D01*
G01X7320026Y-5462200D01*
G03X7280402Y-5422576I-39624J0D01*
G01X7080402Y-5422576D01*
G03X7040778Y-5462200I0J-39624D01*
G01X7040778Y-5612200D01*
G03X7080402Y-5651824I39624J0D01*
G01X7280402Y-5651824D01*
G01X7293102Y-7404424D02*
G03X7332726Y-7364800I0J39624D01*
G01X7332726Y-7214800D01*
G03X7293102Y-7175176I-39624J0D01*
G01X7093102Y-7175176D01*
G03X7053478Y-7214800I0J-39624D01*
G01X7053478Y-7364800D01*
G03X7093102Y-7404424I39624J0D01*
G01X7293102Y-7404424D01*
G01X7720076Y-5295900D02*
G01X7720076Y-6985000D01*
G03X7742841Y-7039959I77724J0D01*
G01X7793641Y-7090759D01*
G03X7848600Y-7113524I54959J54959D01*
G01X7983565Y-7113524D01*
G03X8023095Y-7150424I39530J2724D01*
G01X8223095Y-7150424D01*
G03X8262719Y-7110800I0J39624D01*
G01X8262719Y-6960800D01*
G03X8223095Y-6921176I-39624J0D01*
G01X8023095Y-6921176D01*
G03X7983565Y-6958076I0J-39624D01*
G01X7880794Y-6958076D01*
G01X7875524Y-6952806D01*
G01X7875524Y-5360924D01*
G01X7970865Y-5360924D01*
G03X8010395Y-5397824I39530J2724D01*
G01X8210395Y-5397824D01*
G03X8250019Y-5358200I0J39624D01*
G01X8250019Y-5208200D01*
G03X8210395Y-5168576I-39624J0D01*
G01X8010395Y-5168576D01*
G03X7970865Y-5205476I0J-39624D01*
G01X7875524Y-5205476D01*
G01X7875524Y-3595624D01*
G01X7958165Y-3595624D01*
G03X7997695Y-3632524I39530J2724D01*
G01X8197695Y-3632524D01*
G03X8237319Y-3592900I0J39624D01*
G01X8237319Y-3442900D01*
G03X8197695Y-3403276I-39624J0D01*
G01X7997695Y-3403276D01*
G03X7958165Y-3440176I0J-39624D01*
G01X7875524Y-3440176D01*
G01X7875524Y-1899094D01*
G01X7880794Y-1893824D01*
G01X7970865Y-1893824D01*
G03X8010395Y-1930724I39530J2724D01*
G01X8210395Y-1930724D01*
G03X8250019Y-1891100I0J39624D01*
G01X8250019Y-1741100D01*
G03X8210395Y-1701476I-39624J0D01*
G01X8188119Y-1701476D01*
G01X8188119Y-1497599D01*
G01X8207095Y-1478623D01*
G01X9820963Y-1478623D01*
G03X9843300Y-1485519I22337J32728D01*
G01X9943300Y-1485519D01*
G03X9954788Y-1483817I0J39624D01*
G01X10236200Y-1483817D01*
G03X10267146Y-1477391I0J77724D01*
G03X10482824Y-1406093I96054J71298D01*
G03X10267146Y-1334795I-119624J0D01*
G03X10236200Y-1328369I-30946J-71298D01*
G01X9971795Y-1328369D01*
G03X9943300Y-1316279I-28495J-27534D01*
G01X9843300Y-1316279D01*
G03X9820963Y-1323175I0J-39624D01*
G01X8174901Y-1323175D01*
G03X8119942Y-1345940I0J-77724D01*
G01X8055436Y-1410446D01*
G03X8032671Y-1465405I54959J-54959D01*
G01X8032671Y-1701476D01*
G01X8010395Y-1701476D01*
G03X7970865Y-1738376I0J-39624D01*
G01X7848600Y-1738376D01*
G03X7793641Y-1761141I0J-77724D01*
G01X7742841Y-1811941D01*
G03X7720076Y-1866900I54959J-54959D01*
G01X7720076Y-5283200D01*
G03X7720336Y-5289550I77724J0D01*
G03X7720076Y-5295900I77464J-6350D01*
G01X8234194Y-3681476D02*
G03X8197695Y-3657276I-36499J-15424D01*
G01X7997695Y-3657276D01*
G03X7958071Y-3696900I0J-39624D01*
G01X7958071Y-3846900D01*
G03X7997695Y-3886524I39624J0D01*
G01X8197695Y-3886524D01*
G03X8237319Y-3846900I0J39624D01*
G01X8237319Y-3836924D01*
G01X8478856Y-3836924D01*
G03X8517473Y-3867675I38618J8873D01*
G01X8630727Y-3867675D01*
G03X8670351Y-3828051I0J39624D01*
G01X8670351Y-3690349D01*
G03X8630727Y-3650725I-39624J0D01*
G01X8517473Y-3650725D01*
G03X8478856Y-3681476I0J-39624D01*
G01X8234194Y-3681476D01*
G01X8517473Y-2191275D02*
G01X8630727Y-2191275D01*
G03X8670351Y-2151651I0J39624D01*
G01X8670351Y-2013949D01*
G03X8630727Y-1974325I-39624J0D01*
G01X8517473Y-1974325D01*
G03X8478856Y-2005076I0J-39624D01*
G01X8250019Y-2005076D01*
G01X8250019Y-1995100D01*
G03X8210395Y-1955476I-39624J0D01*
G01X8010395Y-1955476D01*
G03X7970771Y-1995100I0J-39624D01*
G01X7970771Y-2145100D01*
G03X8010395Y-2184724I39624J0D01*
G01X8210395Y-2184724D01*
G03X8246894Y-2160524I0J39624D01*
G01X8478856Y-2160524D01*
G03X8517473Y-2191275I38618J8873D01*
G01X8249925Y-5459476D02*
G03X8210395Y-5422576I-39530J-2724D01*
G01X8010395Y-5422576D01*
G03X7970771Y-5462200I0J-39624D01*
G01X7970771Y-5612200D01*
G03X8010395Y-5651824I39624J0D01*
G01X8210395Y-5651824D01*
G03X8249925Y-5614924I0J39624D01*
G01X8466156Y-5614924D01*
G03X8504773Y-5645675I38618J8873D01*
G01X8618027Y-5645675D01*
G03X8657651Y-5606051I0J39624D01*
G01X8657651Y-5468349D01*
G03X8618027Y-5428725I-39624J0D01*
G01X8504773Y-5428725D01*
G03X8466156Y-5459476I0J-39624D01*
G01X8249925Y-5459476D01*
G01X8261674Y-7205759D02*
G03X8223095Y-7175176I-38579J-9041D01*
G01X8023095Y-7175176D01*
G03X7983471Y-7214800I0J-39624D01*
G01X7983471Y-7364800D01*
G03X8023095Y-7404424I39624J0D01*
G01X8223095Y-7404424D01*
G03X8262719Y-7364800I0J39624D01*
G01X8262719Y-7361207D01*
G01X8506283Y-7361207D01*
G03X8544900Y-7391958I38618J8873D01*
G01X8658154Y-7391958D01*
G03X8697778Y-7352334I0J39624D01*
G01X8697778Y-7214633D01*
G03X8658154Y-7175009I-39624J0D01*
G01X8544900Y-7175009D01*
G03X8506283Y-7205759I0J-39624D01*
G01X8261674Y-7205759D01*
G01X8490949Y-8588949D02*
G03X8451325Y-8628573I0J-39624D01*
G01X8451325Y-8741827D01*
G03X8490949Y-8781451I39624J0D01*
G01X8628651Y-8781451D01*
G03X8668275Y-8741827I0J39624D01*
G01X8668275Y-8628573D01*
G03X8628651Y-8588949I-39624J0D01*
G01X8490949Y-8588949D01*
G01X8451325Y-8428573D02*
G01X8451325Y-8541827D01*
G03X8490949Y-8581451I39624J0D01*
G01X8628651Y-8581451D01*
G03X8668275Y-8541827I0J39624D01*
G01X8668275Y-8428573D01*
G03X8648268Y-8394147I-39624J0D01*
G01X8648268Y-8234406D01*
G03X8647468Y-8222403I-90424J0D01*
G01X8647468Y-8189410D01*
G03X8629034Y-8155927I-39624J0D01*
G01X8763645Y-8155927D01*
G01X8787961Y-8180243D01*
G03X8851900Y-8206727I63939J63939D01*
G01X9775025Y-8206727D01*
G03X9997524Y-8116303I92875J90424D01*
G03X9775025Y-8025879I-129624J0D01*
G01X8889355Y-8025879D01*
G01X8865039Y-8001564D01*
G03X8801100Y-7975079I-63939J-63939D01*
G01X8571904Y-7975079D01*
G03X8525970Y-7979783I-14060J-89324D01*
G01X8507844Y-7979783D01*
G03X8468220Y-8019407I0J-39624D01*
G01X8468220Y-8052401D01*
G03X8468220Y-8076406I89624J-12002D01*
G01X8468220Y-8109400D01*
G03X8507844Y-8149024I39624J0D01*
G01X8524291Y-8149024D01*
G01X8526081Y-8149744D01*
G01X8525843Y-8149833D01*
G01X8507844Y-8149786D01*
G03X8468220Y-8189410I0J-39624D01*
G01X8468220Y-8222403D01*
G03X8467420Y-8234406I89624J-12002D01*
G01X8467420Y-8396692D01*
G03X8451325Y-8428573I23529J-31882D01*
G01X9839560Y-5750298D02*
G01X9977261Y-5750298D01*
G03X9996105Y-5745531I0J39624D01*
G01X10284884Y-5745531D01*
G03X10482824Y-5655107I78316J90424D01*
G03X10284884Y-5564683I-119624J0D01*
G01X9999583Y-5564683D01*
G03X9977261Y-5557797I-22322J-32738D01*
G01X9839560Y-5557797D01*
G03X9818876Y-5563624I0J-39624D01*
G01X9322893Y-5563624D01*
G03X9310806Y-5487245I-80393J26424D01*
G03X9327124Y-5455200I-23306J32045D01*
G01X9327124Y-5365200D01*
G03X9287500Y-5325576I-39624J0D01*
G01X9127500Y-5325576D01*
G03X9087876Y-5365200I0J-39624D01*
G01X9087876Y-5455200D01*
G03X9088108Y-5459476I39624J0D01*
G01X8856644Y-5459476D01*
G03X8818027Y-5428725I-38618J-8873D01*
G01X8704773Y-5428725D01*
G03X8665149Y-5468349I0J-39624D01*
G01X8665149Y-5606051D01*
G03X8704773Y-5645675I39624J0D01*
G01X8818027Y-5645675D01*
G03X8856644Y-5614924I0J39624D01*
G01X9103703Y-5614924D01*
G03X9172500Y-5748824I68797J-49276D01*
G01X9175636Y-5748824D01*
G03X9239364Y-5748824I31864J84624D01*
G01X9242500Y-5748824D01*
G03X9269289Y-5744472I0J84624D01*
G01X9818876Y-5744472D01*
G03X9839560Y-5750298I20684J33797D01*
G01X9116403Y-2173224D02*
G03X9185200Y-2307124I68797J-49276D01*
G01X9188336Y-2307124D01*
G03X9237136Y-2311324I31864J84624D01*
G01X9803766Y-2311324D01*
G03X9824449Y-2317151I20684J33797D01*
G01X9962151Y-2317151D01*
G03X9969131Y-2316531I0J39624D01*
G01X10284884Y-2316531D01*
G03X10482824Y-2226107I78316J90424D01*
G03X10284884Y-2135683I-119624J0D01*
G01X9989585Y-2135683D01*
G03X9962151Y-2124649I-27435J-28590D01*
G01X9824449Y-2124649D01*
G03X9803766Y-2130476I0J-39624D01*
G01X9332258Y-2130476D01*
G03X9323506Y-2045545I-77058J34976D01*
G03X9339824Y-2013500I-23306J32045D01*
G01X9339824Y-1923500D01*
G03X9300200Y-1883876I-39624J0D01*
G01X9140200Y-1883876D01*
G03X9100576Y-1923500I0J-39624D01*
G01X9100576Y-2013500D01*
G03X9100808Y-2017776I39624J0D01*
G01X8870351Y-2017776D01*
G01X8870351Y-2013949D01*
G03X8830727Y-1974325I-39624J0D01*
G01X8717473Y-1974325D01*
G03X8677849Y-2013949I0J-39624D01*
G01X8677849Y-2151651D01*
G03X8717473Y-2191275I39624J0D01*
G01X8830727Y-2191275D01*
G03X8863963Y-2173224I0J39624D01*
G01X9116403Y-2173224D01*
G01X9178267Y-3970539D02*
G03X9231300Y-3987724I53033J73240D01*
G01X9816466Y-3987724D01*
G03X9837149Y-3993551I20684J33797D01*
G01X9974851Y-3993551D01*
G03X9981831Y-3992931I0J39624D01*
G01X10284884Y-3992931D01*
G03X10482824Y-3902507I78316J90424D01*
G03X10284884Y-3812083I-119624J0D01*
G01X10002285Y-3812083D01*
G03X9974851Y-3801049I-27435J-28590D01*
G01X9837149Y-3801049D01*
G03X9816466Y-3806876I0J-39624D01*
G01X9325116Y-3806876D01*
G03X9323506Y-3709245I-69916J47676D01*
G03X9339824Y-3677200I-23306J32045D01*
G01X9339824Y-3587200D01*
G03X9300200Y-3547576I-39624J0D01*
G01X9140200Y-3547576D01*
G03X9100576Y-3587200I0J-39624D01*
G01X9100576Y-3677200D01*
G03X9100808Y-3681476I39624J0D01*
G01X8869344Y-3681476D01*
G03X8830727Y-3650725I-38618J-8873D01*
G01X8717473Y-3650725D01*
G03X8677849Y-3690349I0J-39624D01*
G01X8677849Y-3828051D01*
G03X8717473Y-3867675I39624J0D01*
G01X8830727Y-3867675D01*
G03X8869344Y-3836924I0J39624D01*
G01X9116403Y-3836924D01*
G03X9178267Y-3970539I68797J-49276D01*
G01X9775025Y-8966721D02*
G03X9997524Y-8876297I92875J90424D01*
G03X9775025Y-8785873I-129624J0D01*
G01X8924582Y-8785873D01*
G03X8860643Y-8812357I0J-90424D01*
G01X8844175Y-8828825D01*
G01X8787003Y-8828825D01*
G03X8747379Y-8868449I0J-39624D01*
G01X8747379Y-9038551D01*
G03X8787003Y-9078175I39624J0D01*
G01X8907755Y-9078175D01*
G03X8947379Y-9038551I0J39624D01*
G01X8947379Y-8981379D01*
G01X8962037Y-8966721D01*
G01X9775025Y-8966721D01*
G01X8913876Y-4673600D02*
G03X9628124Y-4673600I357124J0D01*
G03X8913876Y-4673600I-357124J0D01*
G01X9815576Y-1925656D02*
G03X9784825Y-1964273I8873J-38618D01*
G01X9784825Y-2077527D01*
G03X9824449Y-2117151I39624J0D01*
G01X9962151Y-2117151D01*
G03X10001775Y-2077527I0J39624D01*
G01X10001775Y-1964273D01*
G03X9971024Y-1925656I-39624J0D01*
G01X9971024Y-1644207D01*
G03X9982924Y-1615897I-27724J28310D01*
G01X9982924Y-1525905D01*
G03X9943300Y-1486281I-39624J0D01*
G01X9843300Y-1486281D01*
G03X9803676Y-1525905I0J-39624D01*
G01X9803676Y-1615897D01*
G03X9815576Y-1644207I39624J0D01*
G01X9815576Y-1925656D01*
G01X9797525Y-3640673D02*
G01X9797525Y-3753927D01*
G03X9837149Y-3793551I39624J0D01*
G01X9974851Y-3793551D01*
G03X10014475Y-3753927I0J39624D01*
G01X10014475Y-3640673D01*
G03X9974851Y-3601049I-39624J0D01*
G01X9973434Y-3601049D01*
G01X9973434Y-3320292D01*
G03X9985334Y-3291982I-27724J28310D01*
G01X9985334Y-3201990D01*
G03X9945710Y-3162366I-39624J0D01*
G01X9845711Y-3162366D01*
G03X9806087Y-3201990I0J-39624D01*
G01X9806087Y-3291982D01*
G03X9817986Y-3320292I39624J0D01*
G01X9817986Y-3605991D01*
G03X9797525Y-3640673I19163J-34682D01*
G01X9799936Y-5397421D02*
G01X9799936Y-5510675D01*
G03X9839560Y-5550299I39624J0D01*
G01X9977261Y-5550299D01*
G03X10016885Y-5510675I0J39624D01*
G01X10016885Y-5397421D01*
G03X9983724Y-5358328I-39624J0D01*
G01X9983724Y-5073207D01*
G03X9995624Y-5044897I-27724J28310D01*
G01X9995624Y-4954905D01*
G03X9956000Y-4915281I-39624J0D01*
G01X9856000Y-4915281D01*
G03X9816376Y-4954905I0J-39624D01*
G01X9816376Y-5044897D01*
G03X9828276Y-5073207I39624J0D01*
G01X9828276Y-5359438D01*
G03X9799936Y-5397421I11284J-37983D01*
G01X10236096Y-2999260D02*
G01X9968047Y-2999260D01*
G03X9945710Y-2992364I-22337J-32728D01*
G01X9845711Y-2992364D01*
G03X9806087Y-3031988I0J-39624D01*
G01X9806087Y-3121980D01*
G03X9845711Y-3161604I39624J0D01*
G01X9945710Y-3161604D01*
G03X9968047Y-3154708I0J39624D01*
G01X10236096Y-3154708D01*
G03X10264097Y-3149489I0J77724D01*
G03X10482712Y-3087673I99103J66996D01*
G03X10270265Y-3007174I-119512J5180D01*
G03X10236096Y-2999260I-34170J-69810D01*
G01X10236200Y-4757369D02*
G01X9984495Y-4757369D01*
G03X9956000Y-4745279I-28495J-27534D01*
G01X9856000Y-4745279D01*
G03X9816376Y-4784903I0J-39624D01*
G01X9816376Y-4874895D01*
G03X9856000Y-4914519I39624J0D01*
G01X9956000Y-4914519D01*
G03X9967488Y-4912817I0J39624D01*
G01X10236200Y-4912817D01*
G03X10267146Y-4906391I0J77724D01*
G03X10482824Y-4835093I96054J71298D01*
G03X10267146Y-4763795I-119624J0D01*
G03X10236200Y-4757369I-30946J-71298D01*
G01X12518431Y-8420100D02*
G03X12279183Y-8420100I-119624J0D01*
G03X12518431Y-8420100I119624J0D01*
G01X13042900Y-8265324D02*
G03X13042900Y-8016076I0J124624D01*
G03X13042900Y-8265324I0J-124624D01*
G01X13167524Y-8309700D02*
G03X13127900Y-8270076I-39624J0D01*
G01X12957900Y-8270076D01*
G03X12918276Y-8309700I0J-39624D01*
G01X12918276Y-8479700D01*
G03X12957900Y-8519324I39624J0D01*
G01X13127900Y-8519324D01*
G03X13167524Y-8479700I0J39624D01*
G01X13167524Y-8309700D01*
G01X13295376Y-9245600D02*
G03X14009624Y-9245600I357124J0D01*
G03X13295376Y-9245600I-357124J0D01*
G54D11*
G01X4418001Y-8017551D02*
G01X4418001Y-7991643D01*
G01X4485692Y-8092296D02*
G01X4511600Y-8092296D01*
G01X4350310Y-8092296D02*
G01X4324402Y-8092296D01*
G01X5829300Y-7804973D02*
G01X5829300Y-7830881D01*
G01X5829300Y-7692227D02*
G01X5829300Y-7666319D01*
G01X5760703Y-7748600D02*
G01X5734795Y-7748600D01*
G01X5897897Y-7748600D02*
G01X5923805Y-7748600D01*
G01X5472101Y-8295363D02*
G01X5472101Y-8321271D01*
G01X5472101Y-8145871D02*
G01X5472101Y-8119963D01*
G01X5404410Y-8220617D02*
G01X5378502Y-8220617D01*
G01X5539792Y-8220617D02*
G01X5565700Y-8220617D01*
G01X4418001Y-8384263D02*
G01X4418001Y-8410171D01*
G01X4350310Y-8309517D02*
G01X4324402Y-8309517D01*
G01X4485692Y-8309517D02*
G01X4511600Y-8309517D01*
G01X7180402Y-5611946D02*
G01X7180402Y-5637854D01*
G01X7180402Y-5462454D02*
G01X7180402Y-5436546D01*
G01X7080656Y-5537200D02*
G01X7054748Y-5537200D01*
G01X7280148Y-5537200D02*
G01X7306056Y-5537200D01*
G01X7180402Y-2144846D02*
G01X7180402Y-2170754D01*
G01X7180402Y-1995354D02*
G01X7180402Y-1969446D01*
G01X7080656Y-2070100D02*
G01X7054748Y-2070100D01*
G01X7280148Y-2070100D02*
G01X7306056Y-2070100D01*
G01X7193102Y-7364546D02*
G01X7193102Y-7390454D01*
G01X7193102Y-7215054D02*
G01X7193102Y-7189146D01*
G01X7093356Y-7289800D02*
G01X7067448Y-7289800D01*
G01X7292848Y-7289800D02*
G01X7318756Y-7289800D01*
G01X8559800Y-8628827D02*
G01X8559800Y-8602919D01*
G01X8559800Y-8741573D02*
G01X8559800Y-8767481D01*
G01X8628397Y-8685200D02*
G01X8654305Y-8685200D01*
G01X8491203Y-8685200D02*
G01X8465295Y-8685200D01*
G01X7167702Y-3846646D02*
G01X7167702Y-3872554D01*
G01X7167702Y-3697154D02*
G01X7167702Y-3671246D01*
G01X7067956Y-3771900D02*
G01X7042048Y-3771900D01*
G01X7267448Y-3771900D02*
G01X7293356Y-3771900D01*
G01X7823200Y-8667454D02*
G01X7823200Y-8641546D01*
G01X7743454Y-8712200D02*
G01X7717546Y-8712200D01*
G01X7902946Y-8712200D02*
G01X7928854Y-8712200D01*
G01X5057841Y-8204187D02*
G01X5083749Y-8204187D01*
G01X4798350Y-8204187D02*
G01X4772442Y-8204187D01*
G01X4212849Y-1206497D02*
G01X4186941Y-1206497D01*
G01X4372341Y-1206497D02*
G01X4398249Y-1206497D01*
G01X4292595Y-1126752D02*
G01X4292595Y-1100844D01*
G01X4292595Y-1286243D02*
G01X4292595Y-1312151D01*
G01X3797300Y-8017854D02*
G01X3797300Y-7991946D01*
G01X3797300Y-8187346D02*
G01X3797300Y-8213254D01*
G01X3882046Y-8102600D02*
G01X3907954Y-8102600D01*
G01X3712554Y-8102600D02*
G01X3686646Y-8102600D01*
G01X9207500Y-5365454D02*
G01X9207500Y-5339546D01*
G01X9287246Y-5410200D02*
G01X9313154Y-5410200D01*
G01X9127754Y-5410200D02*
G01X9101846Y-5410200D01*
G01X3504855Y-6108695D02*
G01X3478947Y-6108695D01*
G01X3684346Y-6108695D02*
G01X3710254Y-6108695D01*
G01X9220200Y-3587454D02*
G01X9220200Y-3561546D01*
G01X9299946Y-3632200D02*
G01X9325854Y-3632200D01*
G01X9140454Y-3632200D02*
G01X9114546Y-3632200D01*
G01X9220200Y-7105354D02*
G01X9220200Y-7079446D01*
G01X9299946Y-7150100D02*
G01X9325854Y-7150100D01*
G01X9140454Y-7150100D02*
G01X9114546Y-7150100D01*
G01X9220200Y-1923754D02*
G01X9220200Y-1897846D01*
G01X9299946Y-1968500D02*
G01X9325854Y-1968500D01*
G01X9140454Y-1968500D02*
G01X9114546Y-1968500D01*
G01X13042900Y-8225446D02*
G01X13042900Y-8251354D01*
G01X13042900Y-8055954D02*
G01X13042900Y-8030046D01*
G01X12958154Y-8140700D02*
G01X12932246Y-8140700D01*
G01X13127646Y-8140700D02*
G01X13153554Y-8140700D01*
G04 Copper End*

G04 Pad Start*
G54D12*
G01X3136900Y-711200D03*
G01X13652500Y-711200D03*
G01X13652500Y-9245600D03*
G01X3136900Y-9245600D03*
G01X13652500Y-4203700D03*
G01X13652500Y-5905500D03*
G01X9271000Y-4673600D03*
G54D13*
G01X9867900Y-8876297D03*
G01X9867900Y-8116303D03*
G54D14*
G01X5472101Y-8460596D03*
G01X5472101Y-8220617D03*
G01X4418001Y-7852317D03*
G01X4418001Y-8092296D03*
G01X4418001Y-8549496D03*
G01X4418001Y-8309517D03*
G54D15*
G01X10375900Y-7395007D03*
G01X10375900Y-6574993D03*
G01X10363200Y-5655107D03*
G01X10363200Y-4835093D03*
G01X10363200Y-3902507D03*
G01X10363200Y-3082493D03*
G01X10363200Y-2226107D03*
G01X10363200Y-1406093D03*
G01X6261100Y-8614207D03*
G01X6261100Y-7794193D03*
G01X5054595Y-1206497D03*
G01X4800595Y-1206497D03*
G01X4546595Y-1206497D03*
G01X4292595Y-1206497D03*
G54D16*
G01X4038595Y-1206497D03*
G54D18*
G01X5379479Y-1208090D03*
G54D19*
G01X9893300Y-1400899D03*
G01X9893300Y-1570901D03*
G01X9895710Y-3076984D03*
G01X9895710Y-3246986D03*
G01X9906000Y-4829899D03*
G01X9906000Y-4999901D03*
G01X9906000Y-6557099D03*
G01X9906000Y-6727101D03*
G01X8557844Y-8064403D03*
G01X8557844Y-8234406D03*
G01X5829300Y-8594001D03*
G01X5829300Y-8423999D03*
G54D20*
G01X9220200Y-2222500D03*
G01X9220200Y-2095500D03*
G54D21*
G01X9220200Y-1968500D03*
G54D20*
G01X9220200Y-3886200D03*
G01X9220200Y-3759200D03*
G54D21*
G01X9220200Y-3632200D03*
G54D20*
G01X9207500Y-5664200D03*
G01X9207500Y-5537200D03*
G54D21*
G01X9207500Y-5410200D03*
G54D20*
G01X9220200Y-7404100D03*
G01X9220200Y-7277100D03*
G54D21*
G01X9220200Y-7150100D03*
G54D20*
G01X7823200Y-8712200D03*
G01X7823200Y-8839200D03*
G54D21*
G01X7823200Y-8966200D03*
G54D22*
G01X6818300Y-1816100D03*
G01X6618300Y-1816100D03*
G01X8774100Y-2082800D03*
G01X8574100Y-2082800D03*
G01X6818300Y-3517900D03*
G01X6618300Y-3517900D03*
G01X8774100Y-3759200D03*
G01X8574100Y-3759200D03*
G01X6818300Y-5267289D03*
G01X6618300Y-5267289D03*
G01X8761400Y-5537200D03*
G01X8561400Y-5537200D03*
G01X6818300Y-7029483D03*
G01X6618300Y-7029483D03*
G01X8801527Y-7283483D03*
G01X8601527Y-7283483D03*
G54D23*
G01X5829300Y-7748600D03*
G01X5829300Y-7948600D03*
G54D24*
G01X6780936Y-7569200D03*
G01X6630264Y-7569200D03*
G54D23*
G01X8559800Y-8685200D03*
G01X8559800Y-8485200D03*
G01X9893300Y-2220900D03*
G01X9893300Y-2020900D03*
G01X9906000Y-3897300D03*
G01X9906000Y-3697300D03*
G01X9908410Y-5654048D03*
G01X9908410Y-5454048D03*
G01X9908410Y-7390841D03*
G01X9908410Y-7190842D03*
G54D25*
G01X8551621Y-8953500D03*
G01X8847379Y-8953500D03*
G54D26*
G01X12203438Y-2210151D03*
G01X10783425Y-1610203D03*
G01X10983425Y-1010204D03*
G01X10983425Y-2210201D03*
G01X12203438Y-1010255D03*
G01X12241606Y-3914648D03*
G01X10821594Y-3314700D03*
G01X11021593Y-2714701D03*
G01X11021593Y-3914699D03*
G01X12241606Y-2714752D03*
G01X12203438Y-5638637D03*
G01X10783425Y-5038689D03*
G01X10983425Y-4438691D03*
G01X10983425Y-5638688D03*
G01X12203438Y-4438741D03*
G01X12228906Y-7381748D03*
G01X10808894Y-6781800D03*
G01X11008893Y-6181801D03*
G01X11008893Y-7381799D03*
G01X12228906Y-6181852D03*
G54D13*
G01X3594600Y-2806703D03*
G01X3594600Y-3060703D03*
G01X3594600Y-3314703D03*
G01X3594600Y-3568700D03*
G01X3594600Y-3822700D03*
G01X3594600Y-4076700D03*
G01X3594600Y-4330700D03*
G01X3594600Y-4584700D03*
G01X3594600Y-4838697D03*
G01X3594600Y-5092697D03*
G01X3594600Y-5346697D03*
G01X3594600Y-5600697D03*
G01X3594600Y-5854697D03*
G01X3594600Y-6108695D03*
G01X3594600Y-6362695D03*
G01X5879597Y-6362695D03*
G01X5879597Y-6108695D03*
G01X5879597Y-5854697D03*
G01X5879597Y-5600697D03*
G01X5879597Y-5346697D03*
G01X5879597Y-5092697D03*
G01X5879597Y-4838697D03*
G01X5879597Y-4584700D03*
G01X5879597Y-4330700D03*
G01X5879597Y-4076700D03*
G01X5879597Y-3822700D03*
G01X5879597Y-3568700D03*
G01X5879597Y-3314703D03*
G01X5879597Y-3060703D03*
G01X5879597Y-2806703D03*
G54D27*
G01X7180402Y-1816100D03*
G01X7180402Y-2070100D03*
G01X8110395Y-2070100D03*
G01X8110395Y-1816100D03*
G01X7167702Y-3517900D03*
G01X7167702Y-3771900D03*
G01X8097695Y-3771900D03*
G01X8097695Y-3517900D03*
G01X7180402Y-5283200D03*
G01X7180402Y-5537200D03*
G01X8110395Y-5537200D03*
G01X8110395Y-5283200D03*
G01X7193102Y-7035800D03*
G01X7193102Y-7289800D03*
G01X8123095Y-7289800D03*
G01X8123095Y-7035800D03*
G54D28*
G01X13030200Y-1371600D03*
G01X13030200Y-1625600D03*
G54D29*
G01X13030200Y-1879600D03*
G54D28*
G01X13055600Y-3098800D03*
G01X13055600Y-3352800D03*
G54D29*
G01X13055600Y-3606800D03*
G54D28*
G01X13068300Y-4800600D03*
G01X13068300Y-5054600D03*
G54D29*
G01X13068300Y-5308600D03*
G54D28*
G01X13068300Y-6540500D03*
G01X13068300Y-6794500D03*
G54D29*
G01X13068300Y-7048500D03*
G54D30*
G01X4928095Y-8204187D03*
G01X4927105Y-8458213D03*
G54D31*
G01X4928095Y-7950187D03*
G54D18*
G01X3797300Y-7848600D03*
G54D32*
G01X3797300Y-8102600D03*
G54D15*
G01X12398807Y-8420100D03*
G01X11578793Y-8420100D03*
G54D18*
G01X13042900Y-8394700D03*
G54D32*
G01X13042900Y-8140700D03*
G04 Pad End*

G04 Via Start*
G54D33*
G01X10236200Y-4835093D03*
G01X10236096Y-3076984D03*
G01X10236200Y-1406093D03*
G01X7518400Y-8559800D03*
G01X7802702Y-8559800D03*
G01X7802702Y-7505700D03*
G01X8801100Y-8065503D03*
G01X6698487Y-7683500D03*
G01X6698487Y-7289787D03*
G04 Via End*

G04 Track Start*
G54D34*
G01X6818300Y-1816100D02*
G01X7180402Y-1816100D01*
G01X8574100Y-2082800D02*
G01X8123095Y-2082800D01*
G01X8110395Y-2070100D01*
G01X6818300Y-3517900D02*
G01X7167702Y-3517900D01*
G01X6818300Y-5267289D02*
G01X7164492Y-5267289D01*
G01X7180402Y-5283200D01*
G01X8574100Y-3759200D02*
G01X8110395Y-3759200D01*
G01X8097695Y-3771900D01*
G01X8561400Y-5537200D02*
G01X8110395Y-5537200D01*
G01X8601527Y-7283483D02*
G01X8129412Y-7283483D01*
G01X8123095Y-7289800D01*
G01X6818300Y-7029483D02*
G01X7186785Y-7029483D01*
G01X7193102Y-7035800D01*
G01X9220200Y-3759200D02*
G01X8774100Y-3759200D01*
G01X9220200Y-2095500D02*
G01X8786800Y-2095500D01*
G01X8774100Y-2082800D01*
G01X9207500Y-5537200D02*
G01X8761400Y-5537200D01*
G01X9220200Y-7277100D02*
G01X8807910Y-7277100D01*
G01X8801527Y-7283483D01*
G54D35*
G01X10363200Y-2226107D02*
G01X9898507Y-2226107D01*
G01X9893300Y-2220900D01*
G01X9221800Y-2220900D01*
G01X9220200Y-2222500D01*
G01X10375900Y-7395007D02*
G01X9912576Y-7395007D01*
G01X9908410Y-7390841D01*
G01X10375900Y-7395007D02*
G01X10995685Y-7395007D01*
G01X11008893Y-7381799D01*
G01X9908410Y-7390841D02*
G01X9233459Y-7390841D01*
G01X9220200Y-7404100D01*
G01X10363200Y-5655107D02*
G01X9909470Y-5655107D01*
G01X9908410Y-5654048D01*
G01X9217652Y-5654048D01*
G01X9207500Y-5664200D01*
G01X10363200Y-3902507D02*
G01X9911207Y-3902507D01*
G01X9906000Y-3897300D01*
G01X9231300Y-3897300D01*
G01X9220200Y-3886200D01*
G01X10375900Y-6574993D02*
G01X9923894Y-6574993D01*
G01X9906000Y-6557099D01*
G54D34*
G01X10236200Y-4835093D02*
G01X9911194Y-4835093D01*
G01X9906000Y-4829899D01*
G01X10236096Y-3076984D02*
G01X9895710Y-3076984D01*
G01X10236200Y-1406093D02*
G01X9898494Y-1406093D01*
G01X9893300Y-1400899D01*
G01X7518400Y-8559800D02*
G01X7518400Y-8306664D01*
G01X6780936Y-7569200D01*
G01X9893300Y-1570901D02*
G01X9893300Y-2020900D01*
G01X9895710Y-3246986D02*
G01X9895710Y-3687011D01*
G01X9906000Y-3697300D01*
G01X9906000Y-4999901D02*
G01X9906000Y-5451638D01*
G01X9908410Y-5454048D01*
G54D35*
G01X9906000Y-6727101D02*
G01X9906000Y-7188431D01*
G01X9908410Y-7190842D01*
G01X8557844Y-8234406D02*
G01X8557844Y-8483244D01*
G01X8559800Y-8485200D01*
G01X9867900Y-8876297D02*
G01X8924582Y-8876297D01*
G01X8847379Y-8953500D01*
G54D34*
G01X7823200Y-8966200D02*
G01X8538921Y-8966200D01*
G01X8551621Y-8953500D01*
G01X5829300Y-8423999D02*
G01X5829300Y-7948600D01*
G54D35*
G01X5054595Y-1206497D02*
G01X5054595Y-3886703D01*
G01X3594600Y-5346697D01*
G01X5379479Y-1208090D02*
G01X5379479Y-4069819D01*
G01X3594600Y-5854697D01*
G54D34*
G01X4418001Y-7852317D02*
G01X4830225Y-7852317D01*
G01X4928095Y-7950187D01*
G01X4418001Y-7852317D02*
G01X3801017Y-7852317D01*
G01X3797300Y-7848600D01*
G54D11*
G01X5472101Y-8220617D02*
G01X5455671Y-8204187D01*
G54D34*
G01X5455671Y-8204187D02*
G01X4928095Y-8204187D01*
G54D11*
G01X5829300Y-7779758D02*
G01X5829300Y-7748600D01*
G54D34*
G01X4418001Y-8106317D02*
G01X3801017Y-8106317D01*
G01X3797300Y-8102600D01*
G54D35*
G01X7802702Y-8559800D02*
G01X7802702Y-8691702D01*
G01X7823200Y-8712200D01*
G01X8851900Y-8116303D02*
G01X8801100Y-8065503D01*
G01X8558944Y-8065503D02*
G01X8557844Y-8064403D01*
G54D34*
G01X6261100Y-8614207D02*
G01X5849506Y-8614207D01*
G01X5829300Y-8594001D01*
G01X5605506Y-8594001D01*
G01X5472101Y-8460596D01*
G01X4929488Y-8460596D01*
G01X4927105Y-8458213D01*
G01X4418001Y-8309517D02*
G01X4418001Y-8106317D01*
G54D35*
G01X10375900Y-6574993D02*
G01X10363200Y-6587693D01*
G01X11566093Y-8407400D02*
G01X11578793Y-8420100D01*
G54D34*
G01X7167702Y-3771900D02*
G01X7518400Y-3771900D01*
G01X7518400Y-5537200D02*
G01X7518400Y-3771900D01*
G01X7518400Y-5537200D02*
G01X7180402Y-5537200D01*
G01X7518400Y-7289800D02*
G01X7518400Y-5537200D01*
G01X7193102Y-7289800D02*
G01X7518400Y-7289800D01*
G01X7797800Y-5283200D02*
G01X7810500Y-5283200D01*
G01X8110395Y-5283200D01*
G01X7810500Y-5283200D02*
G01X7797800Y-5295900D01*
G01X7518400Y-7289800D02*
G01X7747000Y-7289800D01*
G01X7802702Y-7345502D01*
G01X7797800Y-5295900D02*
G01X7797800Y-6985000D01*
G01X7848600Y-7035800D01*
G01X8123095Y-7035800D01*
G01X7802702Y-7345502D02*
G01X7802702Y-7505700D01*
G01X7802702Y-8559800D02*
G01X7802702Y-7505700D01*
G01X5455671Y-8204187D02*
G01X5455671Y-7968229D01*
G01X5644142Y-7779758D01*
G01X5829300Y-7779758D01*
G54D35*
G01X8545500Y-8699500D02*
G01X8559800Y-8685200D01*
G54D34*
G01X9893300Y-1400899D02*
G01X8174901Y-1400899D01*
G01X8110395Y-1465405D01*
G01X8110395Y-1816100D01*
G01X7797800Y-3517900D02*
G01X7797800Y-5283200D01*
G01X8097695Y-3517900D02*
G01X7797800Y-3517900D01*
G01X4356100Y-965200D02*
G01X4292595Y-1028705D01*
G01X4292595Y-1206497D01*
G01X5715003Y-5092697D02*
G01X5879597Y-5092697D01*
G01X6630264Y-7569200D02*
G01X6338164Y-7277100D01*
G01X5562600Y-7277100D01*
G01X5461000Y-7175500D01*
G01X5461000Y-5346700D01*
G01X5715003Y-5092697D01*
G54D35*
G01X11566093Y-7137400D02*
G01X11566093Y-8407400D01*
G01X10363200Y-6587693D02*
G01X10363200Y-7023100D01*
G01X10477500Y-7137400D01*
G01X11566093Y-7137400D01*
G01X7823200Y-8839200D02*
G01X7607300Y-8839200D01*
G01X7518400Y-8750300D01*
G01X7518400Y-8559800D01*
G01X6618300Y-5267289D02*
G01X6618300Y-4751400D01*
G01X6451600Y-4584700D01*
G01X5879597Y-4584700D01*
G01X6618300Y-7029483D02*
G01X6273800Y-6684983D01*
G01X6273800Y-4953000D01*
G01X6159497Y-4838697D01*
G01X5879597Y-4838697D01*
G01X6618300Y-3517900D02*
G01X6375400Y-3517900D01*
G01X6172203Y-3314703D01*
G01X5879597Y-3314703D01*
G01X6618300Y-1816100D02*
G01X6618300Y-2855900D01*
G01X6413497Y-3060703D01*
G01X5879597Y-3060703D01*
G54D34*
G01X3238500Y-6235700D02*
G01X3365505Y-6108695D01*
G01X3594600Y-6108695D01*
G01X3797300Y-8102600D02*
G01X3429000Y-8102600D01*
G01X3238500Y-7912100D01*
G01X3238500Y-6235700D01*
G01X4928095Y-8204187D02*
G01X4686313Y-8204187D01*
G01X4580983Y-8309517D01*
G01X4418001Y-8309517D01*
G01X4927105Y-8458213D02*
G01X4698987Y-8458213D01*
G01X4610100Y-8547100D01*
G01X4420398Y-8547100D01*
G01X4418001Y-8549496D01*
G54D35*
G01X7802702Y-8559800D02*
G01X8178800Y-8559800D01*
G01X8318500Y-8699500D01*
G01X8545500Y-8699500D01*
G01X9867900Y-8116303D02*
G01X8851900Y-8116303D01*
G01X6698487Y-7289787D02*
G01X7193090Y-7289787D01*
G54D34*
G01X7518400Y-3771900D02*
G01X7518400Y-2070100D01*
G01X7180402Y-2070100D02*
G01X7518400Y-2070100D01*
G01X7518400Y-1041400D01*
G01X7442200Y-965200D01*
G01X4356100Y-965200D01*
G01X8110395Y-1816100D02*
G01X7848600Y-1816100D01*
G01X7797800Y-1866900D01*
G01X7797800Y-3517900D01*
G54D35*
G01X8558944Y-8065503D02*
G01X8801100Y-8065503D01*
G54D11*
G01X6057900Y-7670800D02*
G01X6685787Y-7670800D01*
G01X6698487Y-7683500D01*
G01X5829300Y-7779758D02*
G01X5836658Y-7772400D01*
G01X5956300Y-7772400D01*
G01X6057900Y-7670800D01*
G04 Track End*

M02*

